<?xml version="1.0" encoding="utf-8"?>
<!-- Generator: Adobe Illustrator 19.1.0, SVG Export Plug-In . SVG Version: 6.00 Build 0)  -->
<!DOCTYPE svg PUBLIC "-//W3C//DTD SVG 1.1//EN" "http://www.w3.org/Graphics/SVG/1.1/DTD/svg11.dtd">
<svg version="1.1" xmlns="http://www.w3.org/2000/svg" xmlns:xlink="http://www.w3.org/1999/xlink" x="0px" y="0px"
	 viewBox="0 0 69.1 36" enable-background="new 0 0 69.1 36" xml:space="preserve">
<g id="Layer_1">
	<g opacity="0.8">
		<path d="M30.2,15.6l-0.6,1.9c0.6-1.4,0.9-2,0.9-2c0,0-0.1,0.2-0.2,0.2l0.2-0.4L30.2,15.6z"/>
		<path d="M30.5,15.3c0,0,0.2-0.3,0.3-0.5C30.7,14.8,30.5,15.2,30.5,15.3L30.5,15.3z"/>
		<path d="M29.9,18.6c0,0.1,0,0.2,0.1,0.3v-0.4L29.9,18.6L29.9,18.6z"/>
		<path d="M29.9,18.3v0.1c0,0,0,0,0,0C29.9,18.4,30,18.4,29.9,18.3C30,18.3,29.9,18.3,29.9,18.3z"/>
		<path d="M29.6,18.7c0,0.2,0,0.4,0.2,0.6L29.6,18.7C29.7,18.7,29.7,18.7,29.6,18.7z"/>
		<path d="M26.9,17.8c0.3-0.8,0.6-1.6,0.8-2.4c-0.3,0.7-0.5,1.5-0.8,2.1L26.9,17.8z"/>
		<path d="M38.4,8.2c0,0-0.1,0-0.2,0c0,0-0.1,0-0.1,0c0,0,0.1,0,0.1,0L38.4,8.2z"/>
		<path d="M37.8,8.3c0.1,0,0.2,0,0.3,0c0,0,0,0,0.1,0c-0.1,0-0.2-0.1-0.3-0.1c-1.6,0-3.5,2-3.5,2.1c0,0,0,0,0,0
			C34.5,9.9,37.3,8.3,37.8,8.3z"/>
		<path d="M34.1,10.4c-0.2,0.1-0.5,0.2-0.5,0.3c0,0,0,0.1,0.1,0.1L34.1,10.4z"/>
		<path d="M32.3,12.5c0.5-0.7,1.1-1.3,1.7-1.9l-1.1,0.9c-0.5,0.5-1.4,1.7-1.4,1.9C31.6,13.4,31.8,13.2,32.3,12.5z"/>
		<path d="M41.1,30.9C41.1,30.9,41.1,30.9,41.1,30.9c0.1,0,0.1,0,0.1,0H41.1z"/>
		<path d="M39.7,29.9c0,0,0.1,0,0.1,0c0,0,0,0,0,0h0.1l0,0C39.8,29.9,39.8,29.9,39.7,29.9C39.7,29.9,39.7,29.9,39.7,29.9
			C39.6,29.9,39.6,29.9,39.7,29.9z"/>
		<path d="M34.2,22.5c0,0,0.1,0,0.1,0c1,0,1.8-0.8,2.1-1.1l0,0c-0.4,0.2-0.8,0.5-1.2,0.7L34.2,22.5z"/>
		<path d="M41.2,30C41.2,30,41.2,30,41.2,30L41.2,30C41.2,30,41.2,30,41.2,30z"/>
		<path d="M31.3,18.9c0,0,0,0.1,0,0.2v-0.3c0,0,0-0.1,0-0.1C31.3,18.7,31.3,18.8,31.3,18.9z"/>
		<path d="M36.1,21.9l0.1-0.1c0,0,0.1,0,0.1-0.1l0,0C36.3,21.7,36.2,21.8,36.1,21.9z"/>
		<path d="M31.3,18.1c0-0.1,0-0.2,0-0.3c0,0,0-0.1,0-0.1c0,0-0.1,0.1-0.1,0.1l0,0.7l0.1,0.2l0-0.5C31.3,18.2,31.3,18.1,31.3,18.1z"
			/>
		<path d="M35.1,22.7c-0.1,0-0.2,0.1-0.3,0.1C34.9,22.8,35,22.7,35.1,22.7z"/>
		<path d="M35.6,22.4c0.1,0,0.1,0,0.2,0h0c0.2,0,0.5-0.3,0.6-0.6L35.6,22.4L35.6,22.4z"/>
		<path d="M25.8,16.3L25.8,16.3c-0.1,0.3-0.2,0.6-0.3,0.9h0.1c0.2-0.6,0.4-1.2,0.4-1.5C25.9,15.7,25.8,16.1,25.8,16.3z"/>
		<path d="M32.3,6.1C32.3,6.1,32.3,6.1,32.3,6.1C32.2,6.1,32.2,6.1,32.3,6.1C32.2,6.1,32.2,6.2,32.3,6.1C32.3,6.2,32.3,6.1,32.3,6.1
			z"/>
		<path d="M32.2,6.1c0,0-0.1,0-0.2,0c0,0,0,0,0.1,0C32.1,6.2,32.1,6.2,32.2,6.1z"/>
		<path d="M32.3,6C32.2,6,32.2,6.1,32.3,6L32.3,6L32.3,6z"/>
		<path d="M31.9,6.1L31.9,6.1c-0.3,0-0.6,0.1-0.8,0.1h-0.2c0,0-0.1,0-0.1,0h-0.1c0,0,0,0,0.1,0C30.8,6.3,31.9,6.2,31.9,6.1z"/>
		<path d="M32.4,6.1C32.4,6.1,32.3,6.1,32.4,6.1C32.3,6.1,32.3,6.1,32.4,6.1C32.4,6.1,32.4,6.1,32.4,6.1z"/>
		<path d="M32.6,6l-0.2,0.1c0,0,0,0,0.1,0C32.5,6.1,32.5,6.1,32.6,6c0,0,0.1,0,0.2,0.1c0,0,0,0,0,0c0,0-0.1-0.1,0-0.1
			c-0.1,0-0.2,0-0.3,0C32.5,6,32.5,6,32.6,6L32.6,6z"/>
		<path d="M25.6,16.2c0,0,0.3-0.9,0.3-1.1c0,0,0,0,0,0v0c0,0,0.1-0.2,0.1-0.2C25.8,14.9,25.6,15.9,25.6,16.2
			C25.5,16.2,25.5,16.2,25.6,16.2z"/>
		<path d="M33.4,6.1C33.4,6.1,33.4,6,33.4,6.1C33.4,6,33.4,6.1,33.4,6.1L33.4,6.1C33.4,6.1,33.4,6.1,33.4,6.1z"/>
		<path d="M32.5,6C32.4,6,32.4,6.1,32.5,6C32.5,6.1,32.4,6.1,32.5,6C32.5,6.1,32.5,6,32.5,6z"/>
		<path d="M25.5,16.5C25.4,16.5,25.4,16.5,25.5,16.5c0,0.1,0,0.1,0,0.1C25.4,16.6,25.5,16.5,25.5,16.5L25.5,16.5z"/>
		<path d="M25.4,16.9C25.4,16.9,25.4,16.9,25.4,16.9L25.4,16.9L25.4,16.9z"/>
		<path d="M25.4,17L25.4,17l0,0.2c0,0,0,0,0,0c0,0,0,0.1,0,0.1c0,0,0,0,0,0.1l0.1,0l0-0.1l0.1,0c0-0.1,0.1-0.2,0.1-0.3
			C25.4,16.9,25.4,17,25.4,17C25.4,17,25.4,17,25.4,17z"/>
		<path d="M25.5,16.5C25.5,16.5,25.5,16.5,25.5,16.5L25.5,16.5L25.5,16.5z"/>
		<path d="M25.2,17.9L25.2,17.9C25.2,17.8,25.2,17.8,25.2,17.9L25.2,17.9z"/>
		<path d="M25.6,16.3c-0.1,0-0.1,0.1-0.1,0.1c0,0,0,0,0,0C25.5,16.4,25.5,16.3,25.6,16.3z"/>
		<path d="M43.7,29.9c0,0,0.1,0,0.1,0c0,0,0,0,0,0h0.1l0,0C43.9,29.9,43.8,29.9,43.7,29.9C43.7,29.9,43.7,29.9,43.7,29.9
			C43.6,29.9,43.6,29.9,43.7,29.9z"/>
		<path d="M25.4,16.8C25.4,16.8,25.4,16.8,25.4,16.8C25.4,16.8,25.4,16.8,25.4,16.8L25.4,16.8z"/>
		<path d="M25.4,16.6C25.4,16.6,25.4,16.7,25.4,16.6L25.4,16.6C25.4,16.7,25.4,16.7,25.4,16.6L25.4,16.6z"/>
		<path d="M25.3,17.1C25.3,17.1,25.3,17,25.3,17.1l0.1-0.3C25.3,16.9,25.3,17,25.3,17.1z"/>
		<polygon points="39.9,29.9 40.1,29.9 40.1,29.9 39.9,29.9 		"/>
		<path d="M40.7,29.9L40.7,29.9C40.8,29.9,40.8,29.9,40.7,29.9C40.7,29.9,40.7,29.9,40.7,29.9L40.7,29.9z"/>
		<path d="M40.6,30.1C40.6,30.1,40.6,30.1,40.6,30.1L40.6,30.1c0,0.1-0.1,0.1-0.1,0.1h0.1C40.7,30.2,40.7,30.1,40.6,30.1
			C40.7,30,40.7,30,40.6,30.1L40.6,30.1z"/>
		<path d="M40.9,29.4c0,0.1-0.1,0.2-0.1,0.3c0,0,0,0,0-0.1c0,0,0,0,0-0.1c-0.1,0.1-0.1,0.2-0.1,0.3h0.1c0.2-0.6,0.5-1.3,0.6-2
			C41.2,28.4,41.1,28.8,40.9,29.4C40.9,29.3,40.9,29.3,40.9,29.4z"/>
		<path d="M44.5,27.6C44.5,27.6,44.5,27.6,44.5,27.6C44.5,27.6,44.5,27.6,44.5,27.6c0-0.1,0-0.2,0-0.2c-0.2,0.2-0.2,0.7-0.3,1
			c0,0,0,0,0,0C44.4,28.1,44.4,27.9,44.5,27.6z"/>
		<path d="M44.8,29.4C44.8,29.4,44.8,29.5,44.8,29.4C44.8,29.5,44.8,29.4,44.8,29.4C44.8,29.4,44.8,29.4,44.8,29.4z"/>
		<path d="M44.9,23.5c0,0-0.1,0-0.1,0h0c0,0,0,0-0.1,0c0,0,0,0,0,0C44.7,23.6,44.8,23.5,44.9,23.5L44.9,23.5L44.9,23.5z"/>
		<path d="M39.9,30.1C39.9,30.1,39.9,30.2,39.9,30.1l0.2,0.1c0,0,0-0.1,0-0.1L39.9,30.1c0.1,0,0.2,0,0.3,0v0
			C40,30,39.9,30.1,39.9,30.1L39.9,30.1z"/>
		<path d="M40.8,29.4C40.8,29.4,40.8,29.5,40.8,29.4C40.8,29.5,40.8,29.4,40.8,29.4C40.8,29.4,40.8,29.4,40.8,29.4z"/>
		<path d="M44.1,29.1L44.1,29.1L44.1,29.1c0.1,0,0.1-0.1,0.1-0.1c0,0,0-0.1,0-0.1C44.1,28.9,44.1,29.1,44.1,29.1
			C44.1,29.1,44.1,29.1,44.1,29.1z"/>
		<path d="M40.5,27.6C40.5,27.6,40.5,27.6,40.5,27.6C40.5,27.6,40.5,27.6,40.5,27.6c0-0.1,0-0.2,0-0.2c-0.2,0.2-0.2,0.7-0.3,1
			c0,0,0,0,0,0C40.4,28.1,40.4,27.9,40.5,27.6z"/>
		<path d="M45.1,30.9C45.1,30.9,45.1,30.9,45.1,30.9c0.1,0,0.1,0,0.1,0H45.1z"/>
		<path d="M39.8,30.2L39.8,30.2L39.8,30.2C39.8,30.2,39.8,30.2,39.8,30.2z"/>
		<path d="M40,29.5C40,29.5,40,29.5,40,29.5C40,29.5,40,29.5,40,29.5L40,29.5z"/>
		<path d="M40.1,29.1L40.1,29.1L40.1,29.1c0.1,0,0.1-0.1,0.1-0.1c0,0,0-0.1,0-0.1C40.1,28.9,40.1,29.1,40.1,29.1
			C40.1,29.1,40.1,29.1,40.1,29.1z"/>
		<path d="M40.1,29.5C40.1,29.5,40.1,29.5,40.1,29.5c0,0,0-0.1,0-0.1v-0.1c0,0,0-0.1,0-0.1c0,0,0,0,0-0.1c0,0,0.1,0,0.1-0.1
			c0,0,0,0,0,0c0,0-0.1,0.1-0.1,0.1c0,0,0,0,0-0.1c0,0.1,0,0.1-0.1,0.2c0,0,0-0.1,0.1-0.1c0,0.2-0.1,0.4-0.2,0.6l0,0c0,0,0,0,0.1,0
			s0,0,0,0h0.1c0-0.1,0.1-0.3,0.1-0.5c0,0,0,0,0,0c0,0,0,0.1,0,0.1C40.2,29.4,40.2,29.4,40.1,29.5c0.1-0.1,0.1-0.1,0.1-0.1
			c0-0.4,0.2-0.9,0.3-1.4C40.4,28.1,40.3,29,40.1,29.5z"/>
		<path d="M44,29.5C44,29.5,44,29.5,44,29.5C44,29.5,44,29.5,44,29.5L44,29.5z"/>
		<path d="M44.9,29.4c0,0.1-0.1,0.2-0.1,0.3c0,0,0,0,0-0.1c0,0,0,0,0-0.1c-0.1,0.1-0.1,0.2-0.1,0.3h0.1c0.2-0.6,0.5-1.3,0.6-2
			C45.2,28.4,45.1,28.8,44.9,29.4C44.9,29.3,44.9,29.3,44.9,29.4z"/>
		<path d="M-9.8-1.5v46.8h89.8V-1.5H-9.8z M28.2,14.5C28.2,14.5,28.2,14.5,28.2,14.5l-0.1,0c-0.3,1-0.5,2-0.9,2.9
			c-0.1,0.3-0.4,0.7-0.5,1.1l0,0.3c-0.2,0.4-0.3,0.7-0.5,1.1l-0.2,0.4L25.6,21c0,0,0-0.1,0-0.1c0-0.1,0.1-0.2,0.1-0.3l0.4-0.8
			c0.3-0.6,0.5-1.1,0.7-1.7c0,0,0,0,0-0.1v0c0,0,0,0,0,0h0c0-0.1,0.1-0.2,0.1-0.3c-0.3,0.5-0.4,0.9-0.6,1.3l-0.4,0.8
			c-0.1,0.3-0.2,0.5-0.4,0.8c0-0.1,0.1-0.3,0.2-0.4l0,0c0,0,0.1-0.1,0.1-0.2c-0.2,0.3-0.3,0.6-0.5,0.8c0-0.1,0.2-0.4,0.2-0.5
			c0,0-0.1,0.1-0.1,0.1l-0.1,0.3c0,0,0,0,0,0c0,0,0,0,0-0.1v0c-0.1,0.1-0.3,0.5-0.3,0.5c0,0,0,0-0.1,0c-0.1,0,0,0.1-0.1,0.1
			c0.1-0.4,0.1-0.5,0.3-1c0.3-0.9,0.3-1.4,0.4-1.9c-0.1,0-0.1-0.1-0.1-0.3l0-0.1c0-0.1,0-0.1,0.1-0.2c0,0,0,0,0,0c0,0,0-0.1,0.1-0.1
			l0-0.1l-0.1,0.1c-0.2,0.6-0.5,1.3-0.6,1.9c0,0,0-0.1,0-0.1c0-0.3,0.3-0.7,0.3-0.9c0,0,0,0-0.1,0c0-0.1,0.1-0.2,0.1-0.3v0
			c0,0,0-0.1,0-0.1c0,0,0,0,0-0.1c0,0,0,0,0,0v0c0.2-0.4,0-0.8,0.3-1.2v-0.2c0-0.1,0.1-0.1,0.1-0.2c2.1-7.2,0.9-3.3,2.5-9.7
			c-0.2,0-0.5,0-0.8,0c-1.2,0-2.3-0.1-2.7-0.3v0c-0.1-0.1-0.5-0.1-0.5-0.2c0,0,0,0,0,0H24c0,0-0.1,0-0.1-0.1c0,0,0,0,0,0l0.2,0.1v0
			C24.1,5.9,24,6,24,5.9c0,0,0,0,0,0v0c0,0,0,0,0,0c0,0-0.1-0.1-0.1-0.1c0,0,0.1,0,0.1,0c0,0,0,0,0.1,0c0,0-0.1,0-0.1,0
			c0,0,0,0,0-0.1c0,0-0.1,0-0.1,0c0,0,0,0,0,0c0,0,0,0,0.1,0v0c0,0,0,0,0,0c0,0,0.1-0.1,0.1-0.1h0c0-0.1-0.1-0.1-0.1-0.1
			c0,0,0,0,0,0c0,0,0.1,0,0.1,0c0-0.1-0.1-0.1-0.2-0.1l0,0c0,0,0,0,0.1,0c0,0,0.1,0,0.1,0c0,0,0,0-0.1-0.1l0-0.1c0.1,0,0.2,0,0.3,0
			c0.1,0,0.1,0,0.2,0c-0.1-0.1-0.4,0-0.5-0.1h0c0.1,0,0.1,0,0.2,0c0,0-0.2,0-0.2,0c0,0,0,0,0,0c0,0,0,0,0,0c0.5,0,0.9-0.4,1.4-0.4
			h2.8c0.3,0,0.7,0,1,0c0,0-0.1,0-0.1,0c-1,0.2-2.6,0.1-3.6,0.2c0,0.1,0.3,0.1,0.8,0.1c0.4,0,0.8,0,1,0c0.1,0,0.2,0,0.3,0
			S28,4.5,28,4.5l1.3-0.1c0.4,0,0.9-0.1,1.3-0.1h0.1c0,0,0,0,0,0v0c0.7,0,1.4-0.2,2.1-0.2c0.4,0,0.7,0,1.1,0c0.2,0,0.4-0.1,0.6-0.1
			c0.7,0,1.7,0.1,1.9,0.2c-0.1,0-0.1,0-0.2,0c-0.8,0-1.5-0.1-2.3-0.1c-0.8,0-1.7,0-2.6,0.1c0.1,0,0.2,0,0.3,0c0.7,0,1.3-0.1,1.9-0.1
			h0.1c-0.1,0-0.1,0-0.2,0c0.8,0,1.7,0,2.4,0.1c0,0-0.1,0-0.1,0c-0.1,0-0.1,0-0.2,0c0,0-0.1,0-0.1,0v0h-0.1c0.3,0.1,0.6,0,0.9,0.1
			c-0.1,0-0.2,0-0.3,0h-0.1c0,0,0,0,0,0c0,0-0.1,0-0.1,0c0,0,0,0-0.1,0c0,0.1,0.4,0,0.5,0c0,0.1-0.1,0-0.1,0.1
			C36,4.9,36.4,4.9,36.4,5l0,0c0,0,0.1,0,0.1,0c-0.3,0.1-0.6,0.5-0.9,0.5h-0.4c0,0,0,0,0,0l-1.2,0c-0.2,0-0.4,0-0.6,0.1c0,0,0,0,0,0
			c-0.6,0.1-1.2,0.1-1.8,0.2c0,0,0,0.1,0.1,0.1c0,0,0.4,0,0.5-0.1c0.1,0,0.2,0,0.3,0c0.4,0,0.8-0.1,1.2-0.1c-0.1,0-0.3,0.1-0.3,0.1
			c0,0,0,0-0.1,0c0,0,0,0-0.1,0C32.8,6,33,5.9,32.9,6c0,0,0,0-0.1,0c-0.1,0,0,0,0.1,0C33.3,6.1,33.1,6,33.6,6c0.5,0,0.9,0,1.4-0.1
			c0,0,0,0.1-0.1,0.1c-1.2,0.1-2.5,0.3-3.8,0.5c-0.1,0-0.3,0-0.5,0h-0.2l0.2,0.1c-0.1,0.3-0.2,0.5-0.2,0.8c-0.3,0.9-0.5,1.4-0.8,2.3
			c0.2-1.1,0.5-1.9,0.7-3c0,0,0,0.2-0.1,0.2l-0.3,1.1c-0.1,0.2-0.2,0.5-0.2,0.7v0c-0.1,0.5-0.5,2.6-0.9,4L28.2,14.5z M35.5,4.6
			L35.5,4.6L35.5,4.6C35.5,4.5,35.5,4.5,35.5,4.6z M38.4,25.2c0,0-0.1,0-0.1-0.1c0-0.3,0.1-0.8,0.1-0.8L38,25.3L37.9,25
			c0,0-0.1,0-0.1,0c-0.4,0-0.5-0.2-0.5-0.2c0,0,0-0.1,0-0.1c0-0.2-0.3-0.1-0.4-0.2l-0.2-0.1c-0.1,0.1-0.2,0.2-0.3,0.2
			c0,0-0.1,0-0.1-0.1c0,0,0.1-0.1,0.2-0.2c0-0.1,0-0.2,0-0.2c0,0,0,0-0.1,0s0,0,0,0l-0.1-0.6c-0.1,0-0.2-0.1-0.2-0.2
			c0-0.2,0.2-0.4,0.3-0.6c0,0,0,0,0,0.1c0.1-0.1,0.1-0.4,0.2-0.5l0-0.1c0,0.1-0.2,0.2-0.2,0.3c-1.5,0.5-1.9,0.6-2.3,0.6
			c-1.1,0-2.1-0.4-2.9-0.9c-0.8-0.5-1-0.8-1.5-1.9c-0.2-0.7-0.2-1.5-0.3-2.2c0,0.2,0,0.4,0,0.6c0,0.4,0.1,0.8,0.1,1.1
			c0,0.4,0.4,1.3,0.4,1.4c0,0-0.1-0.1-0.3-0.5l-0.1-0.4l0,0.1C29,20,29,19.6,29,19.2c0-3.1,2.1-6,4.1-8.3c0.2-0.1,0.4-0.3,0.5-0.5
			C35,9.4,36.4,8,38.3,8c0.2,0.1,0.4,0,0.5,0.2c-0.1,0-0.2,0-0.2,0.1l0.1,0.1c0.4,0.1,0.9,0.1,1.2,0.4c0.8,0.7,0.8,0.7,0.8,0.8
			l0.9,1.1c-0.2-0.1-0.4-0.3-0.6-0.4c0.1,0.2,0.3,0.4,0.5,0.5c0.1,0.2,0.1,0.4,0.3,0.6c-0.1,0.1-0.2,0.1-0.2,0.1
			c-0.1,0-0.1-0.1-0.1-0.1c0,0,0,0,0,0.1c0,0.2,0.1,0.3,0.2,0.5L41,11.3v0.1c0,0.3,0.5,0.6,0.5,0.8c0,0,0,0.1,0,0.1
			c0,0.1,0.2,0.2,0.2,0.3c0,0,0,0,0,0c-0.1,0-0.6-0.2-0.9-0.5c0,0.2,0.3,0.3,0.3,0.5c0,0,0,0.1-0.1,0.1c-0.2,0-0.3-0.2-0.5-0.3v0.1
			c0,0,0,0-0.1,0l-0.2,0.3c0-0.2-0.4-0.8-0.6-0.8l0.1,0.3c0,0.1,0,0.1,0,0.2c0,0.1,0.1,0.2,0.1,0.3l0,0c-0.1,0-0.1,0.1-0.2,0.1
			c-0.1,0-0.1-0.3-0.2-0.7c-0.4-0.3-0.5-1.7-1.4-1.7c-0.9,0-4.4,3.7-4.7,4.3c-0.7,1.3-1.6,2.6-1.6,4.2c0,1.7,1.3,2.3,2.6,2.3
			c1.4,0,2.6-0.8,3.1-1l1.3-3.6l-0.1,0.1v0c-1,0.2-2.3,0.4-3.2,0.9c0.8-0.2,2.5-0.7,2.5-0.7l-0.2,0.2c0,0,0,0,0,0.1v0
			c-0.4,0.3-2.6,0.8-3,1.1c-0.1-0.1-0.1-0.2-0.1-0.2c0-0.1,0-0.2,0.2-0.3c0,0-0.1,0-0.1,0c-0.2,0-0.3,0.2-0.5,0.2c0,0,0,0,0-0.1h0
			c0.1-0.1,0.2-0.2,0.2-0.4c0-0.1,0-0.2-0.1-0.3c0,0,0.1,0,0.1,0s0,0,0-0.1c0,0,0.1,0,0.1-0.1h-0.1c-0.1,0-0.2,0-0.2-0.1
			c0.1-0.1,0.4,0,0.5-0.2c-0.1,0-0.2-0.1-0.2-0.1v-0.1c0,0,0,0-0.1,0h-0.2C34,16,34.1,16,34.2,16c0,0-0.1,0-0.1-0.1h0
			c0.1,0,0.1,0,0.2,0c0.2,0,0.4,0,0.5-0.2l-0.9,0.1l1.6-0.4c-0.5,0-0.9,0.2-1.4,0.2c-0.1,0-0.2-0.1-0.2-0.2c0,0,0-0.1,0.1-0.1
			c0.1,0,0.2,0,0.4,0c1.8,0,3.6-1.1,5.6-1.3c0.2,0,0.5,0,0.7-0.2c0.1,0,0.1,0.1,0.2,0.1c0,0,0,0,0.1,0l0.8-0.1c0.1,0,0.2,0,0.3,0
			c0.3,0,0.5-0.1,0.7-0.1h0.1c0,0.1-0.5,0.2-0.6,0.3c0.3,0,0.6-0.1,0.8-0.1c0.1,0,0.2,0,0.2,0c-0.6,0.1-0.7,0.2-0.7,0.3
			c0,0,0,0,0.1,0c0,0,0,0,0.1,0v0c0,0.1,0.2,0,0.2,0.1c0,0-0.8,0-0.9,0.1c0,0,0,0,0.1,0c0.1,0,0.2,0,0.3,0c0,0,0.1,0,0.1,0
			s0,0,0,0.1h0.1c0,0,0,0,0,0.1c0,0.1-0.4,0.2-0.9,0.3c0,0,0,0,0-0.1c-0.1,0-0.3,0-0.3,0.1l0.7,0c0.1,0,0.1,0,0.1,0
			c0,0-0.2,0.1-0.3,0.1c0,0,0.1,0,0.1,0c0.1,0,0.3-0.1,0.3-0.1c0,0,0,0,0,0c0,0.1-0.6,0.2-0.7,0.3h0.3c0.1,0,0.2,0,0.3,0
			c0.1,0,0.1,0,0.1,0s0,0,0,0.1l-1.1,0.3c-0.6,1.2-1.1,2.5-1.6,3.8l1.5-3.5c0.2-0.1,0.3-0.3,0.3-0.3v0l0,0.1
			c-0.1,0.4-0.3,0.8-0.5,1.1c-0.5,1-0.5,1.3-0.6,1.5L39.6,20c0,0.8-0.5,1.8-0.6,2.1l-0.5,2.1L38.4,25.2z M33.3,14.8L33.3,14.8
			c0,0.2-1.1,1.9-1.1,2.4l0-0.1c0-0.6,0.5-1.1,0.7-1.7h0C33.1,15,33.3,14.8,33.3,14.8z M41.6,15.9c0,0.3-0.2,0.4-0.2,0.6
			c0,0-0.6,1.2-0.6,1.2l-0.2,0.3l0.8-2.1L41.6,15.9z M39.1,29.8c0,0-0.2,0-0.2,0v0c0,0-0.1,0-0.1,0.1c0,0,0,0,0,0
			c0-0.1,0.1-0.1,0.2-0.1H39.1z M38.9,30.8c0,0,0.1,0.1,0.1,0.1C38.9,30.8,38.9,30.8,38.9,30.8z M39.1,30.9
			C39.1,30.9,39.1,30.9,39.1,30.9L39.1,30.9C39.1,30.9,39.1,30.9,39.1,30.9z M40.2,31c0,0-0.1,0-0.1,0C40.1,31,40.2,31,40.2,31
			C40.2,31,40.3,31,40.2,31C40.3,31,40.3,31,40.2,31z M40.6,31L40.6,31C40.6,31,40.6,31,40.6,31L40.6,31z M41.4,30.9
			C41.4,30.9,41.4,30.9,41.4,30.9C41.4,30.8,41.4,30.8,41.4,30.9C41.4,30.9,41.4,30.9,41.4,30.9z M41.5,30.9c0.1,0,0.1,0,0.2,0
			C41.6,30.9,41.6,30.9,41.5,30.9C41.6,30.9,41.5,30.9,41.5,30.9z M41.6,30.9c0.1,0,0.1,0,0.2,0C41.8,30.9,41.7,30.9,41.6,30.9z
			 M41.8,30.9L41.8,30.9C41.8,30.8,41.8,30.8,41.8,30.9C41.9,30.9,41.8,30.9,41.8,30.9z M42,30.7C41.9,30.7,41.9,30.7,42,30.7
			L42,30.7C42,30.7,42,30.7,42,30.7z M42.2,30.8c0,0,0.1,0,0.1,0C42.3,30.8,42.2,30.8,42.2,30.8z M42.1,30.7
			c0.1-0.1,0.2-0.1,0.3-0.1C42.3,30.7,42.2,30.7,42.1,30.7z M42.2,30.7C42.2,30.6,42.3,30.6,42.2,30.7L42.2,30.7
			C42.3,30.7,42.2,30.7,42.2,30.7z M42.9,30.8c0,0,0.1,0.1,0.1,0.1C42.9,30.8,42.9,30.8,42.9,30.8z M43.1,30.9
			C43.1,30.9,43.1,30.9,43.1,30.9L43.1,30.9C43.1,30.9,43.1,30.9,43.1,30.9z M44.2,31c0,0-0.1,0-0.1,0C44.2,31,44.2,31,44.2,31
			C44.3,31,44.3,31,44.2,31C44.3,31,44.3,31,44.2,31z M44.6,31L44.6,31C44.6,31,44.6,31,44.6,31L44.6,31z M45.4,30.9
			C45.4,30.9,45.4,30.9,45.4,30.9C45.4,30.8,45.4,30.8,45.4,30.9C45.4,30.9,45.4,30.9,45.4,30.9z M45.5,30.9c0.1,0,0.1,0,0.2,0
			C45.7,30.9,45.6,30.9,45.5,30.9C45.6,30.9,45.6,30.9,45.5,30.9z M45.7,30.9c0.1,0,0.1,0,0.2,0C45.8,30.9,45.7,30.9,45.7,30.9z
			 M45.8,30.9L45.8,30.9C45.8,30.8,45.9,30.8,45.8,30.9C45.9,30.9,45.8,30.9,45.8,30.9z M46,30.7C46,30.7,46,30.7,46,30.7L46,30.7
			C46,30.7,46,30.7,46,30.7z M46.2,30.8c0,0,0.1,0,0.1,0C46.3,30.8,46.3,30.8,46.2,30.8z M46.1,30.7c0.1-0.1,0.2-0.1,0.3-0.1
			C46.3,30.7,46.2,30.7,46.1,30.7z M46.2,30.7C46.2,30.6,46.3,30.6,46.2,30.7L46.2,30.7C46.3,30.7,46.2,30.7,46.2,30.7z M47,24.2
			L47,24.2c0.1,0,0.2,0,0.4,0.1c0,0,0,0,0,0c0.2,0,0.4,0,0.6,0h-0.1c0,0,0.1,0,0.2,0c-0.1,0-0.1,0-0.2,0c-0.2,0-0.3,0-0.4,0
			c-0.2,0-0.4,0.1-0.6,0.1c-0.1,0-0.1,0-0.2,0c0,0,0,0,0,0c0,0,0,0,0,0h-0.1c-0.2,0.5-0.3,0.9-0.5,1.5c0,0,0,0,0,0c0,0,0,0,0,0
			c0.1-0.5,0.2-0.9,0.3-1.4h-0.1c0,0.1-0.1,0.3-0.2,0.5l0.1,0c-0.3,0.9-0.4,2.2-0.7,2.4c-0.3,0.8-0.5,1.7-0.7,2.5c0,0,0,0,0,0
			c0,0,0,0,0,0.1c0.3,0,0.6,0,0.9,0c0,0,0,0-0.1,0c0,0,0,0-0.1,0c0,0,0.1,0,0.1,0c0,0,0.1,0,0.1,0c-0.1,0-0.1,0-0.2,0
			c-0.1,0-0.2,0-0.3,0c0,0,0.1,0,0.2,0c0,0-0.1,0-0.1,0c-0.1,0-0.2,0-0.2,0v0h0c0,0,0,0.1-0.1,0.1c0,0,0,0-0.1,0c0,0,0,0,0,0
			c0,0-0.1,0-0.1,0c0,0,0,0-0.1,0c0,0,0,0,0,0v0h-0.1v0.1c0,0,0,0.1-0.1,0.1h0.4c0.1,0,0.3,0,0.4,0c0.3,0,0.6,0,0.9,0
			c-0.6,0.2-1.1,0.1-1.7,0.1l0,0c0.1,0,0.1,0,0.2,0c0.1,0,0.2,0,0.2,0c0.5,0,0.9-0.1,1.3-0.1c-0.3,0.1-0.7,0.1-1,0.2
			c0.1,0,0.1,0,0.1,0c0.1,0,0.3,0,0.4,0l0,0c0,0,0.1,0,0.1,0c0,0,0,0,0,0c-0.1,0-0.2,0-0.2,0c0,0,0,0,0,0c0,0-0.1,0-0.1,0.1
			c0,0,0,0,0.1,0c0.1,0,0.1,0,0.2,0l0,0l0.4-0.1c0,0,0,0,0.1,0h0.1c-0.1,0-0.2,0-0.3,0.1c0,0,0.1,0,0.1,0c-0.1,0.1-0.4,0.1-0.6,0.2
			c0,0,0,0,0,0c0.1,0,0.1-0.1,0.2-0.1c-0.1,0.1-0.1,0-0.2,0.1h0.1c-0.4,0.1-0.8,0-1.1,0.1c0,0,0,0,0.1,0c0.1,0,0.2,0,0.3,0
			c0,0,0.1,0,0.1,0l0,0h0.1v0c0,0,0,0,0,0c0.2,0,0.5,0,0.7,0c-0.2,0-0.4,0-0.6,0l0,0h0c0,0,0,0,0,0.1c0,0,0-0.1-0.1-0.1c0,0,0,0,0,0
			c0,0,0,0,0,0h0c0,0,0,0,0,0c0,0,0,0,0,0h0l0,0c0,0,0,0,0,0h0c0,0-0.1,0-0.1,0c-0.1,0-0.3,0-0.5,0c-0.4,0-0.8,0-1.1-0.1v0
			c-0.5-0.1-0.7-0.3-0.7-0.5c0,0,0,0,0.1,0c0,0,0,0,0,0v0c0,0,0,0-0.1,0c0,0,0-0.1,0-0.1l0,0c0,0,0,0,0-0.1c0,0,0,0-0.1,0
			c0,0,0,0,0,0c0.1,0,0.1-0.1,0.1-0.1l0,0c0,0,0,0,0,0c0,0,0,0,0,0c0,0,0,0,0,0v0c0,0,0.1,0,0.1,0c0.1,0.1,0.3,0.1,0.4,0.1l0-0.1
			c-0.2,0-0.5,0-0.7-0.1h0c0,0,0,0,0,0c0,0,0,0,0,0c0,0,0,0,0,0c0-0.1,0.2-0.1,0.3-0.1c0.1,0,0.2,0,0.3,0h0c0,0,0.1,0,0.1,0
			c0,0,0,0,0,0l0,0h0.2c0,0,0.1,0,0.1,0h0h0.1c0,0,0,0,0,0h0.1v0c0,0,0-0.1,0-0.2v0c0,0,0,0,0,0c0,0,0,0,0,0c0,0,0,0,0,0
			c0,0,0,0,0,0c0.1-0.6,0.3-1,0.3-1c0.2-0.6,0.3-1.2,0.4-1.7v0c0,0,0,0,0-0.1c0.2-0.4,0.1-1.2,0.4-1.4c0,0,0-0.1,0-0.1
			c0-0.2,0.2-0.4,0.2-0.6c-0.1,0-0.6-0.1-0.9-0.1c0,0-0.1,0-0.1,0c0,0,0,0,0,0c0,0,0,0,0,0c0,0-0.1,0-0.1,0c0-0.1,0-0.1,0-0.1
			c0,0,0,0,0,0v0c0,0,0.1,0,0.1-0.1c0,0,0,0,0,0c0,0,0,0,0,0c0-0.1,0.1-0.1,0.1-0.1c0,0,0,0,0,0c0,0,0,0,0,0c-0.1,0-0.1,0-0.2,0
			c0,0,0-0.1,0-0.1c0,0,0,0,0,0c0,0,0,0,0,0c0,0,0,0,0,0c0,0,0,0,0,0c0,0,0,0,0,0c0,0,0,0,0,0c0,0-0.1,0-0.1,0c0,0,0,0,0,0l0,0
			c0,0-0.1,0-0.1,0c0,0,0,0,0,0l0.1,0c0,0-0.1,0-0.1,0c0.1,0.1,0.2,0.1,0.3,0.1c-0.3-0.1-0.5-0.1-0.7-0.1c-0.2,0-0.3,0-0.5,0h0
			c0,0.1,0,0,0.1,0.1h-0.1c0.2,0,0.2,0,0.4,0.1c0,0,0,0,0,0c0.2,0,0.4,0,0.6,0h-0.1c0,0,0.1,0,0.2,0c-0.1,0-0.1,0-0.2,0
			c-0.2,0-0.3,0-0.4,0c-0.2,0-0.4,0.1-0.6,0.1c-0.1,0-0.1,0-0.2,0c0,0,0,0,0,0c0,0,0,0,0,0h-0.1c-0.2,0.5-0.3,0.9-0.5,1.5
			c0,0,0,0,0,0c0,0,0,0,0,0c0.1-0.5,0.2-0.9,0.3-1.4h-0.1c0,0.1-0.1,0.3-0.2,0.5l0.1,0c-0.3,0.9-0.4,2.2-0.7,2.4
			c-0.3,0.8-0.5,1.7-0.7,2.5c0,0,0,0,0,0c0,0,0,0,0,0.1c0.3,0,0.6,0,0.9,0c0,0,0,0-0.1,0c0,0,0,0-0.1,0c0,0,0.1,0,0.1,0
			c0,0,0.1,0,0.1,0c-0.1,0-0.1,0-0.2,0c-0.1,0-0.2,0-0.3,0c0,0,0.1,0,0.2,0c0,0-0.1,0-0.1,0c-0.1,0-0.2,0-0.2,0v0h0
			c0,0,0,0.1-0.1,0.1c0,0,0,0-0.1,0c0,0,0,0,0,0c0,0-0.1,0-0.1,0c0,0,0,0-0.1,0c0,0,0,0,0,0v0h-0.1v0.1c0,0,0,0.1-0.1,0.1h0.4
			c0.1,0,0.3,0,0.4,0c0.3,0,0.6,0,0.9,0c-0.6,0.2-1.1,0.1-1.7,0.1l0,0c0.1,0,0.1,0,0.2,0c0.1,0,0.2,0,0.2,0c0.5,0,0.9-0.1,1.3-0.1
			c-0.3,0.1-0.7,0.1-1,0.2c0.1,0,0.1,0,0.1,0c0.1,0,0.3,0,0.4,0l0,0c0,0,0.1,0,0.1,0c0,0,0,0,0,0c-0.1,0-0.2,0-0.2,0c0,0,0,0,0,0
			c0,0-0.1,0-0.1,0.1c0,0,0,0,0.1,0c0.1,0,0.1,0,0.2,0l0,0l0.4-0.1c0,0,0,0,0.1,0h0.1c-0.1,0-0.2,0-0.3,0.1c0,0,0.1,0,0.1,0
			c-0.1,0.1-0.4,0.1-0.6,0.2c0,0,0,0,0,0c0.1,0,0.1-0.1,0.2-0.1c-0.1,0.1-0.1,0-0.2,0.1h0.1c-0.4,0.1-0.8,0-1.1,0.1c0,0,0,0,0.1,0
			c0.1,0,0.2,0,0.3,0c0,0,0.1,0,0.1,0l0,0h0.1v0c0,0,0,0,0,0c0.2,0,0.5,0,0.7,0c-0.2,0-0.4,0-0.6,0l0,0h0c0,0,0,0,0,0.1
			c0,0,0-0.1-0.1-0.1c0,0,0,0,0,0c0,0,0,0,0,0h0c0,0,0,0,0,0c0,0,0,0,0,0h0l0,0c0,0,0,0,0,0h0c0,0-0.1,0-0.1,0c-0.1,0-0.3,0-0.5,0
			c-0.4,0-0.8,0-1.1-0.1v0c-0.5-0.1-0.7-0.3-0.7-0.5c0,0,0,0,0.1,0c0,0,0,0,0,0v0c0,0,0,0-0.1,0c0,0,0-0.1,0-0.1l0,0c0,0,0,0,0-0.1
			c0,0,0,0-0.1,0c0,0,0,0,0,0c0.1,0,0.1-0.1,0.1-0.1l0,0c0,0,0,0,0,0c0,0,0,0,0,0c0,0,0,0,0,0v0c0,0,0.1,0,0.1,0
			c0.1,0.1,0.3,0.1,0.4,0.1l0-0.1c-0.2,0-0.5,0-0.7-0.1h0c0,0,0,0,0,0c0,0,0,0,0,0c0,0,0,0,0,0c0-0.1,0.2-0.1,0.3-0.1
			c0.1,0,0.2,0,0.3,0h0c0,0,0.1,0,0.1,0c0,0,0,0,0,0l0,0h0.2c0,0,0.1,0,0.1,0h0h0.1c0,0,0,0,0,0h0.1v0c0,0,0-0.1,0-0.2v0
			c0,0,0,0,0,0c0,0,0,0,0,0c0,0,0,0,0,0c0,0,0,0,0,0c0.1-0.6,0.3-1,0.3-1c0.2-0.6,0.3-1.2,0.4-1.7v0c0,0,0,0,0-0.1
			c0.2-0.4,0.1-1.2,0.4-1.4c0,0,0-0.1,0-0.1c0-0.2,0.2-0.4,0.2-0.6c-0.1,0-0.6-0.1-0.9-0.1c0,0-0.1,0-0.1,0c0,0,0,0,0,0c0,0,0,0,0,0
			c0,0-0.1,0-0.1,0c0-0.1,0-0.1,0-0.1c0,0,0,0,0,0v0c0,0,0.1,0,0.1-0.1c0,0,0,0,0,0c0,0,0,0,0,0c0-0.1,0.1-0.1,0.1-0.1c0,0,0,0,0,0
			c0,0,0,0,0,0c-0.1,0-0.1,0-0.2,0c0,0,0-0.1,0-0.1c0,0,0,0,0,0c0,0,0.1-0.1,0.1-0.1h0v0h0.1c0,0,0,0,0,0v0c0,0,0,0,0,0l0-0.1
			c0,0,0,0,0,0c0,0,0,0,0,0c0,0.1,0,0,0,0.1h0.1c0,0,0,0-0.1,0c0,0,0,0,0,0c0-0.3,0.4-0.4,0.7-0.5c0,0,0,0,0.1,0c0.1,0,0.1,0,0.2,0
			c0,0,0.1,0,0.1,0c0,0,0,0,0.1,0c0,0,0.1,0,0.1,0c0,0,0.1,0,0.1,0c0,0,0.1,0,0.1,0h0.1c0.1,0,0.1,0,0.1,0c0,0,0,0,0,0c0,0,0,0,0,0
			v0c0.2,0.1,0.2,0.1,0.2,0.1c0,0,0,0-0.1,0c-0.1,0-0.4,0-0.6,0l0,0c0,0,0,0,0,0c-0.1,0-0.1,0.1-0.1,0.1v0h-0.1c-0.1,0-0.1,0-0.2,0
			c0,0,0,0,0,0h-0.1c0,0,0,0,0.1,0c0.3,0,0.6-0.1,0.9-0.1c0,0,0,0,0,0c0,0-0.1,0-0.1,0h0.1c0,0,0,0,0,0c0.3,0,0.7,0,1,0
			c0.3,0,0.6,0,0.6,0c0,0-0.1,0-0.1,0c0,0.1,0.5,0.1,0.6,0.1c0,0,0,0,0,0c0,0,0,0,0,0c0,0-0.1,0-0.1,0.1h0.1c0,0,0,0,0,0v0h0v0
			c0,0,0,0,0,0c0,0,0,0,0,0h0.1c0,0,0,0-0.1,0c0,0-0.1,0-0.1,0c0,0-0.1,0-0.1,0c0,0,0.1,0,0.1,0c-0.1,0-0.1,0-0.2,0
			c-0.1,0-0.2,0-0.4,0c0,0,0,0,0,0c0.3,0.1,0.6,0.1,0.8,0.2c0,0,0,0,0,0h0v0h0.1c0,0,0,0,0,0v0c0,0,0,0,0,0l0-0.1c0,0,0,0,0,0
			c0,0,0,0,0,0c0,0.1,0,0,0,0.1h0.1c0,0,0,0-0.1,0c0,0,0,0,0,0c0-0.3,0.4-0.4,0.7-0.5c0,0,0,0,0.1,0c0.1,0,0.1,0,0.2,0
			c0,0,0.1,0,0.1,0c0,0,0,0,0.1,0c0,0,0.1,0,0.1,0c0,0,0.1,0,0.1,0c0,0,0.1,0,0.1,0h0.1c0.1,0,0.1,0,0.1,0c0,0,0,0,0,0c0,0,0,0,0,0
			v0c0.2,0.1,0.2,0.1,0.2,0.1c0,0,0,0-0.1,0c-0.1,0-0.4,0-0.6,0l0,0c0,0,0,0,0,0c-0.1,0-0.1,0.1-0.1,0.1v0h-0.1c-0.1,0-0.1,0-0.2,0
			c0,0,0,0,0,0h-0.1c0,0,0,0,0.1,0c0.3,0,0.6-0.1,0.9-0.1c0,0,0,0,0,0c0,0-0.1,0-0.1,0h0.1c0,0,0,0,0,0c0.3,0,0.7,0,1,0
			c0.3,0,0.6,0,0.6,0c0,0-0.1,0-0.1,0c0,0.1,0.5,0.1,0.6,0.1c0,0,0,0,0,0c0,0,0,0,0,0c0,0-0.1,0-0.1,0.1h0.1c0,0,0,0,0,0v0h0v0
			c0,0,0,0,0,0c0,0,0,0,0,0h0.1c0,0,0,0-0.1,0c0,0-0.1,0-0.1,0c0,0-0.1,0-0.1,0c0,0,0.1,0,0.1,0c-0.1,0-0.1,0-0.2,0
			c-0.1,0-0.2,0-0.4,0c0,0,0,0,0,0c0.3,0.1,0.6,0.1,0.8,0.2c0,0,0,0-0.1,0c0,0-0.1,0-0.1,0c0,0,0,0,0,0l0,0c0,0-0.1,0-0.1,0
			c0,0,0,0,0,0l0.1,0c0,0-0.1,0-0.1,0c0.1,0.1,0.2,0.1,0.3,0.1c-0.3-0.1-0.5-0.1-0.7-0.1C47.3,24.2,47.1,24.2,47,24.2L47,24.2
			C46.9,24.2,46.9,24.2,47,24.2z M45.1,30.1C45.1,30.1,45.1,30.1,45.1,30.1C45.1,30.1,45.1,30.1,45.1,30.1L45.1,30.1z M42.8,29.9
			c0-0.1,0.1-0.1,0.2-0.1h0.1c0,0-0.2,0-0.2,0v0C42.9,29.9,42.9,29.8,42.8,29.9C42.8,29.9,42.8,29.9,42.8,29.9z M44,24.1h-0.1
			C43.9,24.1,44,24.1,44,24.1C44,24.1,44,24.1,44,24.1z M41.1,30.1C41.1,30.1,41.1,30.1,41.1,30.1C41,30.1,41,30.1,41.1,30.1
			L41.1,30.1z M41.2,23.5C41.2,23.5,41.1,23.5,41.2,23.5C41.1,23.5,41.2,23.5,41.2,23.5z M45.2,23.5C45.2,23.5,45.2,23.5,45.2,23.5
			C45.2,23.5,45.2,23.5,45.2,23.5z M48.1,24.1h-0.1C48,24.1,48,24.1,48.1,24.1C48,24.1,48,24.1,48.1,24.1z M48.2,24.1
			C48.1,24.1,48.1,24.1,48.2,24.1c0,0,0.1,0,0.1,0C48.3,24.1,48.2,24.1,48.2,24.1z"/>
		<path d="M45.2,30C45.2,30,45.2,30,45.2,30L45.2,30C45.2,30,45.2,30,45.2,30z"/>
		<path d="M40.8,23.5c0,0-0.1,0-0.1,0h0c0,0,0,0-0.1,0c0,0,0,0,0,0C40.7,23.6,40.8,23.5,40.8,23.5L40.8,23.5L40.8,23.5z"/>
		<path d="M44.7,29.9L44.7,29.9C44.8,29.9,44.8,29.9,44.7,29.9C44.7,29.9,44.7,29.9,44.7,29.9L44.7,29.9z"/>
		<polygon points="43.9,29.9 44.1,29.9 44.1,29.9 43.9,29.9 		"/>
		<path d="M44.1,29.5C44.1,29.5,44.1,29.5,44.1,29.5c0,0,0-0.1,0-0.1v-0.1c0,0,0-0.1,0-0.1c0,0,0,0,0-0.1c0,0,0.1,0,0.1-0.1
			c0,0,0,0,0,0c0,0-0.1,0.1-0.1,0.1c0,0,0,0,0-0.1c0,0.1,0,0.1-0.1,0.2c0,0,0-0.1,0.1-0.1c0,0.2-0.1,0.4-0.2,0.6l0,0c0,0,0,0,0.1,0
			c0,0,0,0,0,0h0.1c0-0.1,0.1-0.3,0.1-0.5c0,0,0,0,0,0c0,0,0,0.1,0,0.1C44.2,29.4,44.2,29.4,44.1,29.5c0.1-0.1,0.1-0.1,0.1-0.1
			c0-0.4,0.2-0.9,0.3-1.4C44.4,28.1,44.3,29,44.1,29.5z"/>
		<path d="M43.9,30.1C43.9,30.1,43.9,30.2,43.9,30.1l0.2,0.1c0,0,0-0.1,0-0.1L43.9,30.1c0.1,0,0.2,0,0.3,0v0
			C44.1,30,43.9,30.1,43.9,30.1L43.9,30.1z"/>
		<path d="M43.8,30.2L43.8,30.2L43.8,30.2C43.8,30.2,43.8,30.2,43.8,30.2z"/>
		<path d="M44.7,30.1C44.7,30.1,44.6,30.1,44.7,30.1L44.7,30.1c0,0.1-0.1,0.1-0.1,0.1h0.1C44.7,30.2,44.7,30.1,44.7,30.1
			C44.7,30,44.7,30,44.7,30.1L44.7,30.1z"/>
	</g>
	<g>
		<g>
			<path fill="#C02227" d="M36.9-7.2L36.9-7.2c0,0-0.1,0-0.1,0L36.9-7.2C36.9-7.2,36.9-7.2,36.9-7.2L36.9-7.2L36.9-7.2
				c0-0.1,0-0.2,0-0.2v0c0,0,0,0,0,0c0,0,0,0,0,0c0,0,0,0,0,0c0,0,0,0,0,0C37-8,37.2-8.3,37.2-8.3c0.1-0.5,0.2-0.9,0.3-1.3v0
				c0,0,0,0,0,0c0.1-0.3,0.1-0.9,0.3-1.1c0,0,0-0.1,0-0.1c0-0.2,0.1-0.3,0.2-0.5c-0.1,0-0.5,0-0.7,0c0,0-0.1,0-0.1,0c0,0,0,0,0,0
				c0,0,0,0,0,0c0,0,0,0-0.1,0c0,0,0,0,0-0.1c0,0,0,0,0,0v0c0,0,0.1,0,0.1-0.1c0,0,0,0,0,0c0,0,0,0,0,0c0-0.1,0.1-0.1,0.1-0.1
				c0,0,0,0,0,0c0,0,0,0,0,0c-0.1,0-0.1,0-0.1,0c0,0,0,0,0,0c0,0,0,0,0,0c0,0,0,0,0.1,0h0v0h0.1c0,0,0,0,0,0v0c0,0,0,0,0,0l0,0
				c0,0,0,0,0,0c0,0,0,0,0,0c0,0,0,0,0,0h0c0,0,0,0,0,0c0,0,0,0,0,0c0-0.3,0.3-0.3,0.5-0.4c0,0,0,0,0.1,0c0.1,0,0.1,0,0.2,0
				c0,0,0.1,0,0.1,0c0,0,0,0,0,0c0,0,0,0,0.1,0c0,0,0.1,0,0.1,0c0,0,0,0,0.1,0h0.1c0,0,0.1,0,0.1,0c0,0,0,0,0,0c0,0,0,0,0,0v0
				c0.1,0,0.2,0.1,0.2,0.1c0,0,0,0,0,0c-0.1,0-0.3,0-0.5,0l0,0c0,0,0,0,0,0c0,0-0.1,0.1-0.1,0.1v0h-0.1c-0.1,0-0.1,0-0.2,0
				c0,0,0,0,0,0h-0.1c0,0,0,0,0.1,0c0.2,0,0.4,0,0.7,0c0,0,0,0,0,0c0,0,0,0,0,0h0c0,0,0,0,0,0c0.2,0,0.5,0,0.8,0c0.2,0,0.5,0,0.5,0
				c0,0,0,0,0,0c0,0,0.4,0,0.5,0.1c0,0,0,0,0,0c0,0,0,0,0,0c0,0-0.1,0-0.1,0h0.1c0,0,0,0,0,0v0c0,0,0,0,0,0h0c0,0,0,0,0,0
				c0,0-0.1,0-0.1,0c0,0,0,0-0.1,0c0,0,0.1,0,0.1,0c0,0-0.1,0-0.1,0c-0.1,0-0.2,0-0.3,0c0,0,0,0,0,0c0.2,0.1,0.4,0.1,0.6,0.1
				c0,0,0,0,0,0c0,0-0.1,0-0.1,0c0,0,0,0,0,0l0,0c0,0,0,0-0.1,0c0,0,0,0,0,0l0.1,0c0,0,0,0-0.1,0c0,0,0.2,0,0.2,0.1
				c-0.2,0-0.4-0.1-0.6-0.1c-0.1,0-0.2,0-0.4,0h0c0,0,0,0,0.1,0h0c0.1,0,0.2,0,0.3,0c0,0,0,0,0,0c0.1,0,0.3,0,0.5,0h0
				c0,0,0.1,0,0.1,0c0,0-0.1,0-0.1,0c-0.1,0-0.2,0-0.3,0c-0.2,0-0.3,0-0.5,0c0,0-0.1,0-0.1,0c0,0,0,0,0,0c0,0,0,0,0,0H39
				c-0.1,0.4-0.3,0.7-0.4,1.1c0,0,0,0,0,0c0,0,0,0,0,0c0-0.4,0.2-0.7,0.3-1.1h0c0,0.1-0.1,0.2-0.1,0.4l0,0c-0.3,0.7-0.3,1.7-0.5,1.8
				c-0.2,0.6-0.4,1.3-0.6,1.9c0,0,0,0,0,0s0,0,0,0.1c0.2,0,0.5,0,0.7,0c0,0,0,0,0,0c0,0,0,0,0,0c0,0,0.1,0,0.1,0c0,0,0.1,0,0.1,0
				c0,0-0.1,0-0.1,0c-0.1,0-0.1,0-0.2,0c0,0,0.1,0,0.1,0c0,0-0.1,0-0.1,0c-0.1,0-0.1,0-0.2,0v0h0c0,0,0,0,0,0c0,0,0,0,0,0
				c0,0,0,0,0,0c0,0-0.1,0-0.1,0c0,0,0,0,0,0c0,0,0,0,0,0v0h-0.1V-7c0,0,0,0,0,0.1h0.3c0.1,0,0.2,0,0.3,0c0.2,0,0.4,0,0.7,0
				c-0.4,0.1-0.9,0.1-1.3,0.1l0,0c0,0,0.1,0,0.2,0c0.1,0,0.1,0,0.2,0c0.4,0,0.7-0.1,1-0.1c-0.2,0.1-0.5,0.1-0.8,0.1c0,0,0.1,0,0.1,0
				c0.1,0,0.2,0,0.3,0l0,0c0,0,0,0,0.1,0c0,0,0,0,0,0c0,0-0.1,0-0.2,0c0,0,0,0,0,0c0,0-0.1,0-0.1,0c0,0,0,0,0.1,0c0,0,0.1,0,0.2,0
				l0,0l0.3-0.1c0,0,0,0,0,0H39c-0.1,0-0.1,0-0.2,0.1c0,0,0.1,0,0.1,0c-0.1,0.1-0.3,0.1-0.4,0.1c0,0,0,0,0,0c0,0,0.1,0,0.2,0
				c0,0.1-0.1,0-0.2,0.1h0c-0.3,0-0.6,0-0.9,0.1c0,0,0,0,0,0c0.1,0,0.1,0,0.2,0c0,0,0,0,0.1,0l0,0H38l0,0c0,0,0,0,0,0h0
				c0,0-0.1,0-0.1,0c0,0,0,0,0,0h-0.1c0,0,0,0,0.1,0c-0.1,0-0.2,0-0.4,0c-0.3,0-0.6,0-0.9-0.1v0c-0.4-0.1-0.6-0.2-0.6-0.4
				c0,0,0,0,0,0c0,0,0,0,0,0v0c0,0,0,0-0.1,0c0,0,0,0,0-0.1l0,0c0,0,0,0,0,0c0,0,0,0,0,0c0,0,0,0,0,0c0.1,0,0.1-0.1,0.1-0.1l0,0
				c0,0,0,0,0,0c0,0,0,0,0,0c0,0,0,0,0,0v0c0,0,0.1,0,0.1,0c0.1,0,0.2,0,0.3,0l0,0c-0.2,0-0.4,0-0.5-0.1h0c0,0,0,0,0,0s0,0,0,0
				c0,0,0,0,0,0c0-0.1,0.1-0.1,0.2-0.1c0.1,0,0.1,0,0.2,0h0c0,0,0,0,0.1,0c0,0,0,0,0,0l0,0h0.1c0,0,0,0,0.1,0h0c0,0-0.1,0-0.1,0
				c0,0,0,0,0,0C36.8-7.2,36.8-7.2,36.9-7.2C36.9-7.2,36.9-7.2,36.9-7.2L36.9-7.2z M36.3-7.3c0,0-0.1,0-0.1,0v0c0,0-0.1,0-0.1,0.1
				c0,0,0,0,0,0C36.1-7.3,36.2-7.3,36.3-7.3L36.3-7.3z M36.3-6.5C36.2-6.5,36.2-6.5,36.3-6.5C36.2-6.5,36.2-6.5,36.3-6.5z M36.4-6.4
				C36.4-6.4,36.4-6.4,36.4-6.4C36.3-6.4,36.3-6.4,36.4-6.4L36.4-6.4z M36.5-7.3C36.5-7.3,36.5-7.3,36.5-7.3
				C36.5-7.3,36.5-7.3,36.5-7.3z M36.9-7L36.9-7C36.9-7,36.9-7,36.9-7L36.9-7z M37.1-7C37.1-7,37.1-7,37.1-7l-0.2,0
				C37-7.1,37.1-7.1,37.1-7l0-0.1c-0.1,0-0.2,0-0.2,0l0,0c0,0,0,0,0,0.1H37.1z M37.1-7.2L37.1-7.2l-0.2,0l0,0H37.1z M37.2-7.2
				c0-0.1,0.1-0.3,0.1-0.4c0,0,0,0,0,0c0-0.3,0.2-0.7,0.2-1c-0.1,0.1-0.2,0.8-0.3,1.1c0,0,0,0,0,0c0,0,0,0,0-0.1v0c0,0,0,0,0-0.1
				c0,0,0,0,0,0c0,0,0,0,0,0c0,0,0,0,0,0c0,0,0,0.1-0.1,0.1c0,0,0,0,0,0c0,0,0,0.1,0,0.1c0,0,0,0,0,0c0,0.1-0.1,0.3-0.1,0.4l0,0
				c0,0,0,0,0,0s0,0,0,0H37.2z M37.1-7.5C37-7.5,37-7.5,37.1-7.5C37-7.5,37-7.5,37.1-7.5L37.1-7.5z M37.2-7.8
				C37.2-7.9,37.2-7.9,37.2-7.8c0-0.1,0-0.1,0-0.1C37.1-8,37.1-7.8,37.2-7.8C37.1-7.8,37.1-7.8,37.2-7.8L37.2-7.8L37.2-7.8z
				 M37.2-6.4C37.2-6.4,37.2-6.4,37.2-6.4C37.1-6.4,37.2-6.4,37.2-6.4C37.2-6.4,37.2-6.4,37.2-6.4C37.3-6.4,37.2-6.4,37.2-6.4z
				 M37.2-7.6C37.2-7.6,37.2-7.6,37.2-7.6C37.2-7.6,37.2-7.6,37.2-7.6C37.2-7.6,37.2-7.6,37.2-7.6z M37.4-9C37.4-9,37.4-9,37.4-9
				c0-0.1,0-0.1,0-0.1c-0.1,0.1-0.1,0.5-0.2,0.7c0,0,0,0,0,0C37.3-8.6,37.3-8.7,37.4-9C37.4-9,37.4-9,37.4-9z M37.5-6.4L37.5-6.4
				C37.5-6.4,37.5-6.4,37.5-6.4L37.5-6.4z M37.5-7.1C37.5-7.1,37.5-7.1,37.5-7.1L37.5-7.1C37.5-7,37.5-7,37.5-7.1L37.5-7.1
				C37.6-7,37.6-7,37.5-7.1C37.6-7.1,37.6-7.1,37.5-7.1L37.5-7.1z M37.7-12.1C37.7-12.1,37.6-12.1,37.7-12.1l-0.1,0c0,0,0,0,0,0
				c0,0,0,0,0,0C37.6-12.1,37.6-12.1,37.7-12.1L37.7-12.1L37.7-12.1z M37.6-7.2L37.6-7.2L37.6-7.2C37.6-7.2,37.6-7.2,37.6-7.2
				C37.6-7.2,37.6-7.2,37.6-7.2z M37.6-7.2c0.2-0.5,0.4-1,0.4-1.5c-0.1,0.4-0.2,0.7-0.3,1.1c0,0,0,0,0,0.1c0,0.1,0,0.2-0.1,0.2
				c0,0,0,0,0,0c0,0,0,0,0,0C37.6-7.4,37.6-7.3,37.6-7.2L37.6-7.2z M37.6-7.5C37.7-7.5,37.7-7.6,37.6-7.5
				C37.7-7.6,37.7-7.6,37.6-7.5C37.7-7.6,37.6-7.5,37.6-7.5z M37.9-7.1C37.9-7.1,37.9-7.1,37.9-7.1C37.8-7.1,37.8-7.1,37.9-7.1
				L37.9-7.1z M37.9-12.1C37.9-12.1,37.9-12.1,37.9-12.1C37.9-12.1,37.9-12.1,37.9-12.1z M38-7.1L38-7.1C38-7.1,38-7.1,38-7.1
				C38-7.1,38-7.1,38-7.1z M38-6.5C38-6.5,38-6.5,38-6.5C38-6.5,38-6.5,38-6.5L38-6.5C38-6.5,38-6.5,38-6.5c0.1,0,0.3,0,0.4,0
				C38.3-6.5,38.2-6.5,38-6.5L38-6.5L38-6.5z M38.1-6.4C38-6.4,38-6.4,38.1-6.4C38-6.5,38-6.5,38.1-6.4L38.1-6.4
				C38.1-6.4,38.1-6.4,38.1-6.4C38.1-6.4,38.1-6.4,38.1-6.4z M38.1-6.4C38.1-6.4,38.1-6.4,38.1-6.4C38.1-6.5,38.1-6.5,38.1-6.4
				C38.1-6.4,38.1-6.4,38.1-6.4z M38.3-6.4C38.2-6.4,38.2-6.4,38.3-6.4C38.3-6.5,38.3-6.5,38.3-6.4C38.3-6.4,38.3-6.4,38.3-6.4z
				 M38.3-6.4c0,0,0.1,0,0.2,0C38.5-6.4,38.4-6.4,38.3-6.4z M38.3-6.5C38.3-6.5,38.3-6.5,38.3-6.5C38.4-6.5,38.3-6.5,38.3-6.5z
				 M38.4-6.5C38.4-6.4,38.4-6.4,38.4-6.5C38.4-6.4,38.4-6.4,38.4-6.5z M38.4-6.5L38.4-6.5C38.4-6.5,38.5-6.5,38.4-6.5
				C38.5-6.5,38.5-6.5,38.4-6.5z M38.6-6.6C38.6-6.6,38.6-6.6,38.6-6.6C38.5-6.6,38.5-6.6,38.6-6.6L38.6-6.6z M38.6-6.8
				C38.6-6.8,38.6-6.8,38.6-6.8C38.6-6.8,38.6-6.8,38.6-6.8z M38.6-6.6c0-0.1,0.1-0.1,0.2-0.1C38.8-6.6,38.7-6.6,38.6-6.6z
				 M38.7-6.5C38.7-6.5,38.7-6.5,38.7-6.5C38.7-6.5,38.7-6.5,38.7-6.5z M38.7-6.5c0,0,0,0,0.1,0C38.8-6.5,38.8-6.5,38.7-6.5z
				 M38.8-6.6C38.8-6.6,38.8-6.6,38.8-6.6C38.8-6.6,38.8-6.6,38.8-6.6L38.8-6.6z M39.6-11.5C39.6-11.5,39.6-11.5,39.6-11.5
				C39.6-11.5,39.6-11.5,39.6-11.5z M40.1-11.7L40.1-11.7C40.1-11.7,40.1-11.7,40.1-11.7C40.1-11.7,40.1-11.7,40.1-11.7z M40.2-11.9
				C40.2-11.9,40.2-11.9,40.2-11.9L40.2-11.9L40.2-11.9z M40.2-11.6C40.2-11.6,40.2-11.6,40.2-11.6c0,0,0,0,0.1,0
				C40.3-11.7,40.3-11.6,40.2-11.6z"/>
			<path fill="#C02227" d="M40-7.2L40-7.2c0,0-0.1,0-0.1,0L40-7.2C40-7.2,40-7.2,40-7.2L40-7.2L40-7.2c0-0.1,0-0.2,0-0.2v0
				c0,0,0,0,0,0c0,0,0,0,0,0c0,0,0,0,0,0c0,0,0,0,0,0c0.1-0.5,0.2-0.8,0.2-0.8c0.1-0.5,0.2-0.9,0.3-1.3v0c0,0,0,0,0,0
				c0.1-0.3,0.1-0.9,0.3-1.1c0,0,0-0.1,0-0.1c0-0.2,0.1-0.3,0.2-0.5c-0.1,0-0.5,0-0.7,0c0,0-0.1,0-0.1,0c0,0,0,0,0,0c0,0,0,0,0,0
				c0,0,0,0-0.1,0c0,0,0,0,0-0.1c0,0,0,0,0,0v0c0,0,0.1,0,0.1-0.1c0,0,0,0,0,0c0,0,0,0,0,0c0-0.1,0.1-0.1,0.1-0.1c0,0,0,0,0,0
				c0,0,0,0,0,0c-0.1,0-0.1,0-0.1,0c0,0,0,0,0,0c0,0,0,0,0,0c0,0,0,0,0.1,0h0v0h0.1c0,0,0,0,0,0v0c0,0,0,0,0,0l0,0c0,0,0,0,0,0
				c0,0,0,0,0,0c0,0,0,0,0,0h0c0,0,0,0,0,0c0,0,0,0,0,0c0-0.3,0.3-0.3,0.5-0.4c0,0,0,0,0.1,0c0.1,0,0.1,0,0.2,0c0,0,0.1,0,0.1,0
				c0,0,0,0,0,0c0,0,0,0,0.1,0c0,0,0.1,0,0.1,0c0,0,0,0,0.1,0h0.1c0,0,0.1,0,0.1,0c0,0,0,0,0,0c0,0,0,0,0,0v0c0.1,0,0.2,0.1,0.2,0.1
				c0,0,0,0,0,0c-0.1,0-0.3,0-0.5,0l0,0c0,0,0,0,0,0c0,0-0.1,0.1-0.1,0.1v0H41c-0.1,0-0.1,0-0.2,0c0,0,0,0,0,0h-0.1c0,0,0,0,0.1,0
				c0.2,0,0.4,0,0.7,0c0,0,0,0,0,0c0,0,0,0,0,0h0c0,0,0,0,0,0c0.2,0,0.5,0,0.8,0c0.2,0,0.5,0,0.5,0c0,0,0,0,0,0c0,0,0.4,0,0.5,0.1
				c0,0,0,0,0,0c0,0,0,0,0,0c0,0-0.1,0-0.1,0h0.1c0,0,0,0,0,0v0c0,0,0,0,0,0h0c0,0,0,0,0,0c0,0-0.1,0-0.1,0c0,0,0,0-0.1,0
				c0,0,0.1,0,0.1,0c0,0-0.1,0-0.1,0c-0.1,0-0.2,0-0.3,0c0,0,0,0,0,0c0.2,0.1,0.4,0.1,0.6,0.1c0,0,0,0,0,0c0,0-0.1,0-0.1,0
				c0,0,0,0,0,0l0,0c0,0,0,0-0.1,0c0,0,0,0,0,0l0.1,0c0,0,0,0-0.1,0c0,0,0.2,0,0.2,0.1c-0.2,0-0.4-0.1-0.6-0.1c-0.1,0-0.2,0-0.4,0h0
				c0,0,0,0,0.1,0h0c0.1,0,0.2,0,0.3,0c0,0,0,0,0,0c0.1,0,0.3,0,0.5,0h0c0,0,0.1,0,0.1,0c0,0-0.1,0-0.1,0c-0.1,0-0.2,0-0.3,0
				c-0.2,0-0.3,0-0.5,0c0,0-0.1,0-0.1,0c0,0,0,0,0,0c0,0,0,0,0,0h-0.1c-0.1,0.4-0.3,0.7-0.4,1.1c0,0,0,0,0,0c0,0,0,0,0,0
				c0-0.4,0.2-0.7,0.3-1.1h0c0,0.1-0.1,0.2-0.1,0.4l0,0c-0.3,0.7-0.3,1.7-0.5,1.8c-0.2,0.6-0.4,1.3-0.6,1.9c0,0,0,0,0,0s0,0,0,0.1
				c0.2,0,0.5,0,0.7,0c0,0,0,0,0,0c0,0,0,0,0,0c0,0,0.1,0,0.1,0c0,0,0.1,0,0.1,0c0,0-0.1,0-0.1,0c-0.1,0-0.1,0-0.2,0
				c0,0,0.1,0,0.1,0c0,0-0.1,0-0.1,0c-0.1,0-0.1,0-0.2,0v0h0c0,0,0,0,0,0c0,0,0,0,0,0c0,0,0,0,0,0c0,0-0.1,0-0.1,0c0,0,0,0,0,0
				c0,0,0,0,0,0v0h-0.1V-7c0,0,0,0,0,0.1H41c0.1,0,0.2,0,0.3,0c0.2,0,0.4,0,0.7,0c-0.4,0.1-0.9,0.1-1.3,0.1l0,0c0,0,0.1,0,0.2,0
				c0.1,0,0.1,0,0.2,0c0.4,0,0.7-0.1,1-0.1c-0.2,0.1-0.5,0.1-0.8,0.1c0,0,0.1,0,0.1,0c0.1,0,0.2,0,0.3,0l0,0c0,0,0,0,0.1,0
				c0,0,0,0,0,0c0,0-0.1,0-0.2,0c0,0,0,0,0,0c0,0-0.1,0-0.1,0c0,0,0,0,0.1,0c0,0,0.1,0,0.2,0l0,0l0.3-0.1c0,0,0,0,0,0h0.1
				c-0.1,0-0.1,0-0.2,0.1c0,0,0.1,0,0.1,0c-0.1,0.1-0.3,0.1-0.4,0.1c0,0,0,0,0,0c0,0,0.1,0,0.2,0c0,0.1-0.1,0-0.2,0.1h0
				c-0.3,0-0.6,0-0.9,0.1c0,0,0,0,0,0c0.1,0,0.1,0,0.2,0c0,0,0,0,0.1,0l0,0h0.1l0,0c0,0,0,0,0,0h0c0,0-0.1,0-0.1,0c0,0,0,0,0,0h-0.1
				c0,0,0,0,0.1,0c-0.1,0-0.2,0-0.4,0c-0.3,0-0.6,0-0.9-0.1v0c-0.4-0.1-0.6-0.2-0.6-0.4c0,0,0,0,0,0c0,0,0,0,0,0v0c0,0,0,0-0.1,0
				c0,0,0,0,0-0.1l0,0c0,0,0,0,0,0c0,0,0,0,0,0c0,0,0,0,0,0c0.1,0,0.1-0.1,0.1-0.1l0,0c0,0,0,0,0,0c0,0,0,0,0,0c0,0,0,0,0,0v0
				c0,0,0.1,0,0.1,0c0.1,0,0.2,0,0.3,0l0,0c-0.2,0-0.4,0-0.5-0.1h0c0,0,0,0,0,0s0,0,0,0c0,0,0,0,0,0c0-0.1,0.1-0.1,0.2-0.1
				c0.1,0,0.1,0,0.2,0h0c0,0,0,0,0.1,0c0,0,0,0,0,0l0,0h0.1c0,0,0,0,0.1,0h0c0,0-0.1,0-0.1,0c0,0,0,0,0,0C39.9-7.2,39.9-7.2,40-7.2
				C39.9-7.2,39.9-7.2,40-7.2L40-7.2z M39.4-7.3c0,0-0.1,0-0.1,0v0c0,0-0.1,0-0.1,0.1c0,0,0,0,0,0C39.2-7.3,39.3-7.3,39.4-7.3
				L39.4-7.3z M39.3-6.5C39.3-6.5,39.3-6.5,39.3-6.5C39.3-6.5,39.3-6.5,39.3-6.5z M39.5-6.4C39.5-6.4,39.4-6.4,39.5-6.4
				C39.4-6.4,39.4-6.4,39.5-6.4L39.5-6.4z M39.6-7.3C39.6-7.3,39.6-7.3,39.6-7.3C39.6-7.3,39.6-7.3,39.6-7.3z M40-7L40-7
				C39.9-7,39.9-7,40-7L40-7z M40.2-7C40.2-7,40.2-7,40.2-7L40-7C40.1-7.1,40.1-7.1,40.2-7l0-0.1c-0.1,0-0.2,0-0.2,0l0,0
				c0,0,0,0,0,0.1H40.2z M40.2-7.2L40.2-7.2l-0.2,0l0,0H40.2z M40.3-7.2c0-0.1,0.1-0.3,0.1-0.4c0,0,0,0,0,0c0-0.3,0.2-0.7,0.2-1
				c-0.1,0.1-0.2,0.8-0.3,1.1c0,0,0,0,0,0c0,0,0,0,0-0.1v0c0,0,0,0,0-0.1c0,0,0,0,0,0c0,0,0,0,0,0c0,0,0,0,0,0c0,0,0,0.1-0.1,0.1
				c0,0,0,0,0,0c0,0,0,0.1,0,0.1c0,0,0,0,0,0c0,0.1-0.1,0.3-0.1,0.4l0,0c0,0,0,0,0,0s0,0,0,0H40.3z M40.1-7.5
				C40.1-7.5,40.1-7.5,40.1-7.5C40.1-7.5,40.1-7.5,40.1-7.5L40.1-7.5z M40.3-7.8C40.3-7.9,40.3-7.9,40.3-7.8c0-0.1,0-0.1,0-0.1
				C40.2-8,40.2-7.8,40.3-7.8C40.2-7.8,40.2-7.8,40.3-7.8L40.3-7.8L40.3-7.8z M40.3-6.4C40.3-6.4,40.2-6.4,40.3-6.4
				C40.2-6.4,40.3-6.4,40.3-6.4C40.3-6.4,40.3-6.4,40.3-6.4C40.3-6.4,40.3-6.4,40.3-6.4z M40.3-7.6C40.3-7.6,40.3-7.6,40.3-7.6
				C40.3-7.6,40.3-7.6,40.3-7.6C40.3-7.6,40.3-7.6,40.3-7.6z M40.5-9C40.5-9,40.5-9,40.5-9c0-0.1,0-0.1,0-0.1
				c-0.1,0.1-0.1,0.5-0.2,0.7c0,0,0,0,0,0C40.4-8.6,40.4-8.7,40.5-9C40.5-9,40.5-9,40.5-9z M40.6-6.4L40.6-6.4
				C40.6-6.4,40.6-6.4,40.6-6.4L40.6-6.4z M40.6-7.1C40.6-7.1,40.6-7.1,40.6-7.1L40.6-7.1C40.6-7,40.6-7,40.6-7.1L40.6-7.1
				C40.6-7,40.6-7,40.6-7.1C40.7-7.1,40.7-7.1,40.6-7.1L40.6-7.1z M40.8-12.1C40.7-12.1,40.7-12.1,40.8-12.1l-0.1,0c0,0,0,0,0,0
				c0,0,0,0,0,0C40.7-12.1,40.7-12.1,40.8-12.1L40.8-12.1L40.8-12.1z M40.7-7.2L40.7-7.2L40.7-7.2C40.7-7.2,40.7-7.2,40.7-7.2
				C40.7-7.2,40.7-7.2,40.7-7.2z M40.7-7.2c0.2-0.5,0.4-1,0.4-1.5C41-8.4,41-8,40.8-7.7c0,0,0,0,0,0.1c0,0.1,0,0.2-0.1,0.2
				c0,0,0,0,0,0c0,0,0,0,0,0C40.7-7.4,40.7-7.3,40.7-7.2L40.7-7.2z M40.7-7.5C40.7-7.5,40.7-7.6,40.7-7.5
				C40.7-7.6,40.7-7.6,40.7-7.5C40.7-7.6,40.7-7.5,40.7-7.5z M41-7.1C41-7.1,40.9-7.1,41-7.1C40.9-7.1,40.9-7.1,41-7.1L41-7.1z
				 M41-12.1C41-12.1,41-12.1,41-12.1C41-12.1,41-12.1,41-12.1z M41.1-7.1L41.1-7.1C41.1-7.1,41.1-7.1,41.1-7.1
				C41.1-7.1,41.1-7.1,41.1-7.1z M41.1-6.5C41.1-6.5,41.1-6.5,41.1-6.5C41.1-6.5,41.1-6.5,41.1-6.5L41.1-6.5
				C41.1-6.5,41.1-6.5,41.1-6.5c0.1,0,0.3,0,0.4,0C41.4-6.5,41.3-6.5,41.1-6.5L41.1-6.5L41.1-6.5z M41.1-6.4
				C41.1-6.4,41.1-6.4,41.1-6.4C41.1-6.5,41.1-6.5,41.1-6.4L41.1-6.4C41.2-6.4,41.2-6.4,41.1-6.4C41.2-6.4,41.2-6.4,41.1-6.4z
				 M41.2-6.4C41.2-6.4,41.2-6.4,41.2-6.4C41.2-6.5,41.2-6.5,41.2-6.4C41.2-6.4,41.2-6.4,41.2-6.4z M41.3-6.4
				C41.3-6.4,41.3-6.4,41.3-6.4C41.3-6.5,41.4-6.5,41.3-6.4C41.4-6.4,41.4-6.4,41.3-6.4z M41.4-6.4c0,0,0.1,0,0.2,0
				C41.5-6.4,41.4-6.4,41.4-6.4z M41.4-6.5C41.4-6.5,41.4-6.5,41.4-6.5C41.4-6.5,41.4-6.5,41.4-6.5z M41.5-6.5
				C41.5-6.4,41.5-6.4,41.5-6.5C41.5-6.4,41.5-6.4,41.5-6.5z M41.5-6.5L41.5-6.5C41.5-6.5,41.5-6.5,41.5-6.5
				C41.6-6.5,41.5-6.5,41.5-6.5z M41.7-6.6C41.7-6.6,41.6-6.6,41.7-6.6C41.6-6.6,41.6-6.6,41.7-6.6L41.7-6.6z M41.7-6.8
				C41.7-6.8,41.7-6.8,41.7-6.8C41.7-6.8,41.7-6.8,41.7-6.8z M41.7-6.6c0-0.1,0.1-0.1,0.2-0.1C41.9-6.6,41.8-6.6,41.7-6.6z
				 M41.7-6.5C41.7-6.5,41.7-6.5,41.7-6.5C41.8-6.5,41.7-6.5,41.7-6.5z M41.8-6.5c0,0,0,0,0.1,0C41.9-6.5,41.9-6.5,41.8-6.5z
				 M41.9-6.6C41.9-6.6,41.8-6.6,41.9-6.6C41.8-6.6,41.9-6.6,41.9-6.6L41.9-6.6z M42.7-11.5C42.7-11.5,42.7-11.5,42.7-11.5
				C42.7-11.5,42.7-11.5,42.7-11.5z M43.2-11.7L43.2-11.7C43.2-11.7,43.2-11.7,43.2-11.7C43.2-11.7,43.2-11.7,43.2-11.7z M43.3-11.9
				C43.3-11.9,43.2-11.9,43.3-11.9L43.3-11.9L43.3-11.9z M43.3-11.6C43.3-11.6,43.3-11.6,43.3-11.6c0,0,0,0,0.1,0
				C43.4-11.7,43.4-11.6,43.3-11.6z"/>
		</g>
		<g>
			<g>
				<path fill="#C02227" d="M29-14.6c-0.2-0.6-0.1-1.1-0.2-1.7c0,0.1,0,0.3,0,0.5c0,0.3,0,0.6,0,0.8c0,0.3,0.3,1,0.3,1.1
					c0,0-0.1-0.1-0.2-0.3l-0.1-0.3l0,0c-0.1-0.2-0.1-0.6-0.1-0.8c0-2.4,1.6-4.6,3.1-6.4c0.1-0.1,0.3-0.2,0.4-0.4
					c1.1-0.9,2.2-1.9,3.7-1.9c0.1,0,0.3,0,0.4,0.1c-0.1,0-0.1,0-0.2,0.1l0.1,0c0.3,0.1,0.7,0.1,0.9,0.3c0.6,0.5,0.6,0.5,0.6,0.6
					l0.7,0.9c-0.2,0-0.3-0.2-0.4-0.3c0.1,0.1,0.2,0.3,0.3,0.4c0.1,0.1,0.1,0.3,0.2,0.4c-0.1,0.1-0.1,0.1-0.2,0.1c-0.1,0-0.1,0-0.1,0
					c0,0,0,0,0,0.1c0,0.1,0.1,0.3,0.1,0.4l-0.4-0.5v0c0,0.3,0.4,0.5,0.4,0.6c0,0,0,0,0,0.1c0,0,0.1,0.1,0.1,0.2c0,0,0,0,0,0
					c-0.1,0-0.4-0.2-0.7-0.4c0,0.1,0.2,0.3,0.2,0.4c0,0,0,0,0,0c-0.2,0-0.2-0.2-0.4-0.3v0c0,0,0,0,0,0l-0.2,0.2
					c0-0.2-0.3-0.6-0.5-0.6l0,0.2c0,0,0,0.1,0,0.1c0,0.1,0.1,0.2,0.1,0.2l0,0c0,0-0.1,0-0.1,0c-0.1,0-0.1-0.2-0.2-0.5
					c-0.3-0.2-0.4-1.3-1.1-1.3c-0.7,0-3.4,2.8-3.6,3.3c-0.5,1-1.2,2-1.2,3.2c0,1.3,1,1.7,2,1.7c1.1,0,2-0.6,2.4-0.8l1-2.7l-0.1,0.1
					v0c-0.7,0.2-1.8,0.3-2.4,0.7c0.6-0.1,1.9-0.5,1.9-0.5L35-17.2c0,0,0,0,0,0v0c-0.3,0.2-2,0.6-2.3,0.8c0-0.1-0.1-0.1-0.1-0.2
					c0-0.1,0-0.1,0.1-0.2c0,0-0.1,0-0.1,0c-0.1,0-0.3,0.1-0.4,0.2c0,0,0,0,0-0.1h0c0.1-0.1,0.1-0.2,0.1-0.3c0-0.1,0-0.2,0-0.3
					c0,0,0.1,0,0.1,0s0,0,0,0s0,0,0.1,0h-0.1c-0.1,0-0.1,0-0.2-0.1c0.1,0,0.3,0,0.4-0.1c0,0-0.1,0-0.1-0.1v0c0,0,0,0,0,0h-0.1
					c0.2-0.2,0.2-0.2,0.3-0.2c0,0-0.1,0-0.1,0h0c0,0,0.1,0,0.2,0c0.1,0,0.3,0,0.4-0.1L32.4-18l1.2-0.3c-0.4,0-0.7,0.2-1.1,0.2
					c-0.1,0-0.1-0.1-0.1-0.1c0,0,0-0.1,0.1-0.1c0.1,0,0.2,0,0.3,0c1.4,0,2.8-0.8,4.3-1c0.2,0,0.4,0,0.5-0.1c0,0,0.1,0,0.1,0
					c0,0,0,0,0.1,0l0.6-0.1c0.1,0,0.1,0,0.2,0c0.2,0,0.4-0.1,0.6-0.1h0.1c0,0-0.4,0.2-0.4,0.2c0.2,0,0.4-0.1,0.6-0.1
					c0,0,0.1,0,0.2,0c-0.4,0.1-0.5,0.2-0.5,0.2c0,0,0,0,0,0c0,0,0,0,0.1,0v0c0,0,0.1,0,0.1,0.1c0,0-0.6,0-0.7,0.1c0,0,0,0,0,0
					c0.1,0,0.1,0,0.2,0c0,0,0,0,0,0s0,0,0,0h0c0,0,0,0,0,0c0,0.1-0.3,0.1-0.7,0.2c0,0,0,0,0,0c-0.1,0-0.2,0-0.3,0.1l0.5,0
					c0,0,0.1,0,0.1,0c0,0-0.2,0.1-0.3,0.1c0,0,0,0,0.1,0c0.1,0,0.2-0.1,0.3-0.1c0,0,0,0,0,0c0,0.1-0.5,0.2-0.6,0.3h0.2
					c0,0,0.2,0,0.3,0c0,0,0.1,0,0.1,0s0,0,0,0l-0.9,0.2c-0.5,0.9-0.9,1.9-1.2,2.9l1.2-2.7c0.1-0.1,0.2-0.2,0.2-0.2v0l0,0.1
					c-0.1,0.3-0.2,0.6-0.3,0.9c-0.3,0.8-0.4,1-0.4,1.2l-0.4,1.1c0,0.6-0.4,1.4-0.5,1.6l-0.4,1.6l-0.1,0.7c0,0-0.1,0-0.1-0.1
					c0-0.2,0.1-0.6,0.1-0.6l-0.3,0.8l-0.1-0.2c0,0-0.1,0-0.1,0c-0.3,0-0.4-0.1-0.4-0.2c0,0,0-0.1,0-0.1c0-0.1-0.2-0.1-0.3-0.1
					l-0.1-0.1c-0.1,0.1-0.1,0.2-0.2,0.2c0,0,0,0,0,0c0,0,0.1-0.1,0.1-0.1c0,0,0-0.1,0-0.1c0,0,0,0,0,0s0,0,0,0l-0.1-0.5
					c-0.1,0-0.1-0.1-0.1-0.1c0-0.1,0.1-0.3,0.2-0.5c0,0,0,0,0,0c0.1-0.1,0-0.3,0.1-0.4l0-0.1c0,0.1-0.1,0.2-0.2,0.2
					c-1.1,0.4-1.5,0.4-1.8,0.4c-0.8,0-1.6-0.3-2.2-0.7C29.5-13.6,29.4-13.8,29-14.6z M29-16.7c0.5-1,0.7-1.5,0.7-1.6
					c0,0-0.1,0.1-0.2,0.2l0.2-0.3l-0.2,0.2L29-16.7z M29.1-15.8C29.1-15.8,29.1-15.8,29.1-15.8c0,0.1,0,0.3,0.1,0.4L29.1-15.8z
					 M29.3-16L29.3-16L29.3-16c-0.1,0.1,0,0.2,0,0.3V-16z M29.3-16.1C29.3-16.1,29.3-16.1,29.3-16.1L29.3-16.1
					C29.3-16,29.3-16,29.3-16.1C29.3-16,29.3-16.1,29.3-16.1z M29.7-18.5L29.7-18.5c0,0,0.2-0.2,0.2-0.4
					C29.9-18.8,29.7-18.5,29.7-18.5z M30.3-15.8l0-0.4c0,0,0-0.1,0-0.1c0-0.1,0-0.1,0-0.2c0,0,0,0,0-0.1c0,0,0,0.1-0.1,0.1l0,0.5
					L30.3-15.8z M30.4-15.8C30.4-15.8,30.4-15.8,30.4-15.8C30.4-15.8,30.3-15.8,30.4-15.8c0,0.1,0,0.2,0,0.2V-15.8z M32.4-22
					l-0.8,0.7c-0.4,0.3-1,1.3-1,1.4c0,0,0.2-0.2,0.6-0.7C31.5-21.1,32-21.6,32.4-22z M31-17c0-0.5,0.4-0.9,0.5-1.3h0
					c0.2-0.3,0.3-0.5,0.4-0.5v0C31.9-18.7,31.1-17.4,31-17L31-17z M32.5-22.2c-0.1,0.1-0.4,0.2-0.4,0.2c0,0,0,0,0,0.1L32.5-22.2z
					 M34.3-13.7c-0.3,0.2-0.6,0.4-0.9,0.5l-0.8,0.3c0,0,0.1,0,0.1,0C33.5-12.8,34.1-13.5,34.3-13.7L34.3-13.7z M35.3-23.8
					c0.1,0,0.1,0,0.2,0c0,0,0,0,0.1,0C35.5-23.8,35.4-23.9,35.3-23.8c-1.2-0.1-2.7,1.4-2.7,1.5c0,0,0,0,0,0
					C32.8-22.6,34.9-23.8,35.3-23.8z M33-12.7c0.1,0,0.1,0,0.2-0.1C33.2-12.8,33.1-12.7,33-12.7z M33.8-13c0.1,0,0.4-0.2,0.4-0.4
					L33.6-13h0C33.7-13,33.8-13,33.8-13L33.8-13z M34.3-13.5c-0.1,0-0.1,0.1-0.2,0.1L34.3-13.5C34.2-13.5,34.3-13.5,34.3-13.5
					L34.3-13.5z M35.7-23.9l0.1,0C35.8-23.9,35.7-23.9,35.7-23.9C35.6-23.9,35.6-23.9,35.7-23.9C35.6-23.9,35.6-23.9,35.7-23.9z
					 M37.5-16.5l0.6-1.6l0.1,0.1c0,0.2-0.1,0.3-0.1,0.4c0,0-0.4,0.9-0.4,0.9L37.5-16.5z"/>
			</g>
		</g>
		<g>
			<g>
				<path fill="#C02227" d="M26.9-16.3C26.9-16.3,26.9-16.3,26.9-16.3L26.9-16.3c0-0.1,0.1-0.2,0.1-0.3c-0.2,0.3-0.3,0.7-0.4,1
					L26.2-15c-0.1,0.2-0.2,0.4-0.3,0.6c0-0.1,0.1-0.2,0.1-0.3l0,0c0,0,0.1-0.1,0.1-0.1c-0.2,0.2-0.2,0.4-0.4,0.6
					c0-0.1,0.1-0.3,0.1-0.4c0,0,0,0.1-0.1,0.1l-0.1,0.2c0,0,0,0,0,0c0,0,0,0,0,0v0c-0.1,0.1-0.2,0.4-0.2,0.4c0,0,0,0,0,0
					c0,0,0,0-0.1,0.1c0-0.3,0.1-0.4,0.2-0.7c0.2-0.7,0.2-1.1,0.3-1.5c0,0-0.1-0.1-0.1-0.2l0-0.1c0,0,0-0.1,0-0.1c0,0,0,0,0,0
					c0,0,0,0,0-0.1l0,0l-0.1,0.1c-0.1,0.5-0.4,1-0.5,1.5c0,0,0,0,0-0.1c0-0.2,0.2-0.5,0.3-0.7c0,0,0,0,0,0c0-0.1,0.1-0.2,0.1-0.3v0
					c0,0,0,0,0,0c0,0,0,0,0,0c0,0,0,0,0,0v0c0.1-0.3,0-0.6,0.2-0.9v-0.1c0,0,0-0.1,0-0.1c1.6-5.6,0.7-2.5,1.9-7.4
					c-0.2,0-0.4,0-0.6,0c-0.9,0-1.8-0.1-2.1-0.3v0c-0.1-0.1-0.4-0.1-0.4-0.2c0,0,0,0,0,0h0c0,0,0,0,0,0c0,0,0,0,0,0l0.1,0v0
					c0-0.1-0.1,0-0.1-0.1c0,0,0,0,0,0v0c0,0,0,0,0,0c0,0,0,0,0-0.1c0,0,0,0,0.1,0c0,0,0,0,0,0c0,0-0.1,0-0.1,0c0,0,0,0,0,0
					c0,0-0.1,0-0.1,0c0,0,0,0,0,0c0,0,0,0,0,0v0c0,0,0,0,0,0c0,0,0.1-0.1,0.1-0.1h0c0-0.1-0.1-0.1-0.1-0.1c0,0,0,0,0,0
					c0,0,0.1,0,0.1,0c0-0.1-0.1,0-0.1,0l0,0c0,0,0,0,0,0c0,0,0,0,0,0c0,0,0,0,0-0.1l0-0.1c0.1,0,0.1,0,0.2,0c0.1,0,0.1,0,0.2,0
					c-0.1-0.1-0.3,0-0.4-0.1h0c0,0,0.1,0,0.1,0c0,0-0.2,0-0.2,0c0,0,0,0,0,0c0,0,0,0,0,0c0.4,0,0.7-0.3,1.1-0.3h2.2
					c0.3,0,0.5,0,0.8,0c0,0-0.1,0-0.1,0c-0.8,0.1-2,0.1-2.8,0.1c0,0.1,0.3,0.1,0.6,0.1c0.3,0,0.6,0,0.8,0c0.1,0,0.2,0,0.3,0
					s0.2,0,0.2,0l1-0.1c0.3,0,0.7,0,1-0.1h0.1c0,0,0,0,0,0v0c0.5,0,1.1-0.1,1.6-0.1c0.3,0,0.6,0,0.8,0c0.1,0,0.3,0,0.5,0
					c0.5,0,1.3,0.1,1.5,0.1c0,0-0.1,0-0.1,0c-0.6,0-1.2-0.1-1.8-0.1c-0.6,0-1.3,0-2,0.1c0.1,0,0.1,0,0.2,0c0.5,0,1-0.1,1.5-0.1h0.1
					c0,0-0.1,0-0.1,0c0.6,0,1.3,0,1.9,0.1c0,0-0.1,0-0.1,0c-0.1,0-0.1,0-0.2,0c0,0-0.1,0-0.1,0v0h-0.1c0.2,0.1,0.5,0,0.7,0.1
					c-0.1,0-0.2,0-0.2,0h-0.1c0,0,0,0,0,0c0,0,0,0,0,0c0,0,0,0,0,0c0,0,0.3,0,0.3,0c0,0-0.1,0-0.1,0c0.1,0,0.3,0.1,0.3,0.1l0,0
					c0,0,0,0,0.1,0c-0.2,0.1-0.5,0.4-0.7,0.4h-0.3c0,0,0,0,0,0l-0.9,0c-0.2,0-0.3,0-0.4,0.1c0,0,0,0,0,0c-0.4,0.1-0.9,0-1.4,0.1
					c0,0,0,0,0,0c0,0,0.3,0,0.4-0.1c0.1,0,0.1,0,0.2,0c0.3,0,0.6-0.1,0.9-0.1c-0.1,0-0.2,0-0.2,0c0,0,0,0,0,0c0,0,0,0,0,0
					c-0.2,0.1-0.1,0-0.1,0.1c0,0,0,0,0,0c-0.1,0,0,0,0,0c0.3,0,0.1-0.1,0.5,0c0.4,0,0.7,0,1.1,0c0,0,0,0-0.1,0
					c-0.9,0.1-1.9,0.2-2.9,0.4c-0.1,0-0.2,0-0.4,0h-0.1l0.1,0.1c-0.1,0.2-0.1,0.4-0.2,0.6c-0.2,0.7-0.4,1.1-0.6,1.8
					c0.1-0.8,0.4-1.4,0.6-2.3c0,0,0,0.1-0.1,0.1L29.2-24c0,0.2-0.1,0.4-0.1,0.6v0c-0.1,0.4-0.4,2-0.7,3.1L28-19c0,0,0,0,0,0h0
					c-0.2,0.7-0.4,1.5-0.7,2.2c-0.1,0.3-0.3,0.6-0.4,0.8l0,0.2c-0.1,0.3-0.3,0.5-0.4,0.8l-0.2,0.3L26-14.1c0,0,0,0,0-0.1
					c0-0.1,0-0.1,0.1-0.2l0.3-0.6C26.5-15.5,26.7-15.9,26.9-16.3C26.9-16.3,26.9-16.3,26.9-16.3z M25.6-16.5
					C25.6-16.5,25.6-16.5,25.6-16.5L25.6-16.5L25.6-16.5z M25.7-16.6C25.7-16.6,25.7-16.6,25.7-16.6C25.7-16.6,25.7-16.6,25.7-16.6z
					 M25.8-17.1C25.8-17.1,25.8-17.2,25.8-17.1L25.8-17.1l0-0.2C25.7-17.2,25.7-17.1,25.8-17.1C25.7-17.1,25.7-17.1,25.8-17.1l0,0.1
					C25.7-17,25.7-17,25.8-17.1C25.7-17,25.7-17,25.7-17c0,0,0,0,0,0l0.1,0l0-0.1l0,0c0-0.1,0.1-0.2,0.1-0.2
					C25.8-17.2,25.8-17.2,25.8-17.1z M25.7-17C25.7-17,25.7-17,25.7-17L25.7-17z M25.8-17.3L25.8-17.3
					C25.8-17.2,25.8-17.2,25.8-17.3L25.8-17.3z M25.8-17.4C25.8-17.4,25.8-17.4,25.8-17.4L25.8-17.4C25.8-17.4,25.8-17.4,25.8-17.4
					L25.8-17.4z M25.8-17.3C25.8-17.3,25.8-17.3,25.8-17.3C25.8-17.3,25.8-17.3,25.8-17.3L25.8-17.3z M25.8-17.5L25.8-17.5
					C25.8-17.5,25.8-17.5,25.8-17.5C25.8-17.4,25.8-17.4,25.8-17.5C25.8-17.5,25.8-17.5,25.8-17.5z M25.8-17.6
					C25.8-17.5,25.9-17.5,25.8-17.6C25.9-17.6,25.9-17.6,25.8-17.6C25.9-17.7,25.8-17.6,25.8-17.6z M25.9-17.5L25.9-17.5
					C25.9-17.5,25.9-17.5,25.9-17.5L25.9-17.5z M26.2-18.6L26.2-18.6c0-0.1,0-0.1,0-0.2c-0.1,0-0.2,0.8-0.3,1c0,0,0,0,0,0
					C25.9-17.7,26.1-18.5,26.2-18.6C26.2-18.6,26.2-18.6,26.2-18.6z M26.1-17.7L26.1-17.7c-0.1,0.2-0.1,0.5-0.2,0.7h0
					c0.1-0.4,0.3-0.9,0.3-1.1C26.2-18.1,26.1-17.8,26.1-17.7z M26.9-16.3L26.9-16.3C26.9-16.3,26.9-16.3,26.9-16.3L26.9-16.3z
					 M27-16.7l0,0.2c0.2-0.6,0.5-1.2,0.6-1.8C27.4-17.8,27.3-17.2,27-16.7z M30-25.4C30-25.4,30-25.4,30-25.4l-0.1,0
					C29.9-25.4,29.9-25.4,30-25.4c-0.1,0,0.8,0,0.8-0.1v0c-0.2,0-0.4,0.1-0.6,0.1H30z M30.9-25.5C31-25.5,31-25.5,30.9-25.5
					C31-25.5,30.9-25.5,30.9-25.5C30.9-25.5,30.9-25.5,30.9-25.5z M31.1-25.5C31.1-25.5,31.1-25.5,31.1-25.5
					C31.1-25.5,31.1-25.5,31.1-25.5C31-25.5,31-25.5,31.1-25.5C31-25.5,31-25.5,31.1-25.5z M31.1-25.5L31.1-25.5
					C31.1-25.6,31-25.5,31.1-25.5L31.1-25.5z M31.1-25.5C31.2-25.5,31.2-25.5,31.1-25.5C31.2-25.5,31.1-25.5,31.1-25.5
					C31.1-25.5,31.1-25.5,31.1-25.5z M31.3-25.5C31.3-25.5,31.3-25.6,31.3-25.5C31.2-25.6,31.2-25.5,31.3-25.5
					C31.2-25.5,31.2-25.5,31.3-25.5z M31.5-25.6c0,0-0.2,0-0.2,0c0,0,0,0,0,0h0l-0.2,0c0,0,0,0,0,0c0,0,0,0,0,0
					C31.4-25.5,31.4-25.5,31.5-25.6C31.5-25.5,31.5-25.5,31.5-25.6C31.5-25.6,31.5-25.6,31.5-25.6z M32-25.5
					C32-25.5,32-25.5,32-25.5C32-25.5,32-25.6,32-25.5C31.9-25.6,31.9-25.5,32-25.5L32-25.5z M33.6-26.7
					C33.6-26.7,33.6-26.7,33.6-26.7L33.6-26.7L33.6-26.7z"/>
			</g>
		</g>
	</g>
</g>
<g id="Layer_2" display="none">
	<rect display="inline" width="69.1" height="36"/>
	<g display="inline">
		<g>
			<path fill="#C02227" d="M38.2,24.2L38.2,24.2c0,0-0.1,0-0.1,0L38.2,24.2C38.2,24.1,38.2,24.1,38.2,24.2L38.2,24.2L38.2,24.2
				c0-0.1,0-0.2,0-0.2v0c0,0,0,0,0,0c0,0,0,0,0,0c0,0,0,0,0,0c0,0,0,0,0,0c0.1-0.5,0.2-0.8,0.2-0.8c0.1-0.5,0.2-0.9,0.3-1.3v0
				c0,0,0,0,0,0c0.1-0.3,0.1-0.9,0.3-1.1c0,0,0-0.1,0-0.1c0-0.2,0.1-0.3,0.2-0.5c-0.1,0-0.5,0-0.7,0c0,0-0.1,0-0.1,0c0,0,0,0,0,0
				c0,0,0,0,0,0c0,0,0,0-0.1,0c0,0,0,0,0-0.1c0,0,0,0,0,0v0c0,0,0.1,0,0.1-0.1c0,0,0,0,0,0c0,0,0,0,0,0c0-0.1,0.1-0.1,0.1-0.1
				c0,0,0,0,0,0c0,0,0,0,0,0c-0.1,0-0.1,0-0.1,0c0,0,0,0,0,0c0,0,0,0,0,0c0,0,0,0,0.1,0h0v0h0.1c0,0,0,0,0,0v0c0,0,0,0,0,0l0,0
				c0,0,0,0,0,0c0,0,0,0,0,0c0,0,0,0,0,0h0c0,0,0,0,0,0c0,0,0,0,0,0c0-0.3,0.3-0.3,0.5-0.4c0,0,0,0,0.1,0c0.1,0,0.1,0,0.2,0
				c0,0,0.1,0,0.1,0c0,0,0,0,0,0c0,0,0,0,0.1,0c0,0,0.1,0,0.1,0c0,0,0,0,0.1,0h0.1c0,0,0.1,0,0.1,0c0,0,0,0,0,0c0,0,0,0,0,0v0
				c0.1,0,0.2,0.1,0.2,0.1c0,0,0,0,0,0c-0.1,0-0.3,0-0.5,0l0,0c0,0,0,0,0,0c0,0-0.1,0.1-0.1,0.1v0h-0.1c-0.1,0-0.1,0-0.2,0
				c0,0,0,0,0,0H39c0,0,0,0,0.1,0c0.2,0,0.4,0,0.7,0c0,0,0,0,0,0c0,0,0,0,0,0h0c0,0,0,0,0,0c0.2,0,0.5,0,0.8,0c0.2,0,0.5,0,0.5,0
				c0,0,0,0,0,0c0,0,0.4,0,0.5,0.1c0,0,0,0,0,0c0,0,0,0,0,0c0,0-0.1,0-0.1,0h0.1c0,0,0,0,0,0v0c0,0,0,0,0,0h0c0,0,0,0,0,0
				c0,0-0.1,0-0.1,0c0,0,0,0-0.1,0c0,0,0.1,0,0.1,0c0,0-0.1,0-0.1,0c-0.1,0-0.2,0-0.3,0c0,0,0,0,0,0c0.2,0.1,0.4,0.1,0.6,0.1
				c0,0,0,0,0,0c0,0-0.1,0-0.1,0c0,0,0,0,0,0l0,0c0,0,0,0-0.1,0c0,0,0,0,0,0l0.1,0c0,0,0,0-0.1,0c0,0,0.2,0,0.2,0.1
				c-0.2,0-0.4-0.1-0.6-0.1c-0.1,0-0.2,0-0.4,0h0c0,0,0,0,0.1,0h0c0.1,0,0.2,0,0.3,0c0,0,0,0,0,0c0.1,0,0.3,0,0.5,0h0
				c0,0,0.1,0,0.1,0c0,0-0.1,0-0.1,0c-0.1,0-0.2,0-0.3,0c-0.2,0-0.3,0-0.5,0c0,0-0.1,0-0.1,0c0,0,0,0,0,0c0,0,0,0,0,0h-0.1
				c-0.1,0.4-0.3,0.7-0.4,1.1c0,0,0,0,0,0c0,0,0,0,0,0c0-0.4,0.2-0.7,0.3-1.1h0c0,0.1-0.1,0.2-0.1,0.4l0,0c-0.3,0.7-0.3,1.7-0.5,1.8
				c-0.2,0.6-0.4,1.3-0.6,1.9c0,0,0,0,0,0s0,0,0,0.1c0.2,0,0.5,0,0.7,0c0,0,0,0,0,0c0,0,0,0,0,0c0,0,0.1,0,0.1,0c0,0,0.1,0,0.1,0
				c0,0-0.1,0-0.1,0c-0.1,0-0.1,0-0.2,0c0,0,0.1,0,0.1,0c0,0-0.1,0-0.1,0c-0.1,0-0.1,0-0.2,0v0h0c0,0,0,0,0,0c0,0,0,0,0,0
				c0,0,0,0,0,0c0,0-0.1,0-0.1,0c0,0,0,0,0,0c0,0,0,0,0,0v0h-0.1v0.1c0,0,0,0,0,0.1h0.3c0.1,0,0.2,0,0.3,0c0.2,0,0.4,0,0.7,0
				c-0.4,0.1-0.9,0.1-1.3,0.1l0,0c0,0,0.1,0,0.2,0c0.1,0,0.1,0,0.2,0c0.4,0,0.7-0.1,1-0.1c-0.2,0.1-0.5,0.1-0.8,0.1c0,0,0.1,0,0.1,0
				c0.1,0,0.2,0,0.3,0l0,0c0,0,0,0,0.1,0c0,0,0,0,0,0c0,0-0.1,0-0.2,0c0,0,0,0,0,0c0,0-0.1,0-0.1,0c0,0,0,0,0.1,0c0,0,0.1,0,0.2,0
				l0,0l0.3-0.1c0,0,0,0,0,0h0.1c-0.1,0-0.1,0-0.2,0.1c0,0,0.1,0,0.1,0c-0.1,0.1-0.3,0.1-0.4,0.1c0,0,0,0,0,0c0,0,0.1,0,0.2,0
				c0,0.1-0.1,0-0.2,0.1h0c-0.3,0-0.6,0-0.9,0.1c0,0,0,0,0,0c0.1,0,0.1,0,0.2,0c0,0,0,0,0.1,0l0,0h0.1l0,0c0,0,0,0,0,0h0
				c0,0-0.1,0-0.1,0c0,0,0,0,0,0h-0.1c0,0,0,0,0.1,0c-0.1,0-0.2,0-0.4,0c-0.3,0-0.6,0-0.9-0.1v0c-0.4-0.1-0.6-0.2-0.6-0.4
				c0,0,0,0,0,0c0,0,0,0,0,0v0c0,0,0,0-0.1,0c0,0,0,0,0-0.1l0,0c0,0,0,0,0,0c0,0,0,0,0,0c0,0,0,0,0,0c0.1,0,0.1-0.1,0.1-0.1l0,0
				c0,0,0,0,0,0c0,0,0,0,0,0c0,0,0,0,0,0v0c0,0,0.1,0,0.1,0c0.1,0,0.2,0,0.3,0l0,0c-0.2,0-0.4,0-0.5-0.1h0c0,0,0,0,0,0s0,0,0,0
				c0,0,0,0,0,0c0-0.1,0.1-0.1,0.2-0.1c0.1,0,0.1,0,0.2,0h0c0,0,0,0,0.1,0c0,0,0,0,0,0l0,0H38c0,0,0,0,0.1,0h0c0,0-0.1,0-0.1,0
				c0,0,0,0,0,0C38,24.2,38.1,24.2,38.2,24.2C38.1,24.2,38.1,24.2,38.2,24.2L38.2,24.2z M37.6,24.1c0,0-0.1,0-0.1,0v0
				c0,0-0.1,0-0.1,0.1c0,0,0,0,0,0C37.4,24.1,37.4,24.1,37.6,24.1L37.6,24.1z M37.5,24.9C37.5,24.9,37.4,24.9,37.5,24.9
				C37.4,24.8,37.5,24.9,37.5,24.9z M37.6,24.9C37.6,24.9,37.6,24.9,37.6,24.9C37.6,24.9,37.6,24.9,37.6,24.9L37.6,24.9z M37.7,24.1
				C37.8,24.1,37.8,24.1,37.7,24.1C37.8,24.1,37.8,24.1,37.7,24.1z M38.1,24.4L38.1,24.4C38.1,24.4,38.1,24.4,38.1,24.4L38.1,24.4z
				 M38.3,24.4C38.4,24.4,38.4,24.3,38.3,24.4l-0.2,0C38.2,24.3,38.3,24.3,38.3,24.4l0-0.1c-0.1,0-0.2,0-0.2,0l0,0c0,0,0,0,0,0.1
				H38.3z M38.4,24.2L38.4,24.2l-0.2,0l0,0H38.4z M38.4,24.1c0-0.1,0.1-0.3,0.1-0.4c0,0,0,0,0,0c0-0.3,0.2-0.7,0.2-1
				c-0.1,0.1-0.2,0.8-0.3,1.1c0,0,0,0,0,0c0,0,0,0,0-0.1v0c0,0,0,0,0-0.1c0,0,0,0,0,0c0,0,0,0,0,0c0,0,0,0,0,0c0,0,0,0.1-0.1,0.1
				c0,0,0,0,0,0c0,0,0,0.1,0,0.1c0,0,0,0,0,0c0,0.1-0.1,0.3-0.1,0.4l0,0c0,0,0,0,0,0s0,0,0,0H38.4z M38.3,23.8
				C38.3,23.8,38.3,23.8,38.3,23.8C38.3,23.8,38.3,23.8,38.3,23.8L38.3,23.8z M38.4,23.5C38.4,23.5,38.4,23.5,38.4,23.5
				c0-0.1,0-0.1,0-0.1C38.4,23.4,38.4,23.5,38.4,23.5C38.4,23.5,38.4,23.5,38.4,23.5L38.4,23.5L38.4,23.5z M38.5,25
				C38.4,25,38.4,25,38.5,25C38.4,25,38.4,25,38.5,25C38.5,25,38.5,25,38.5,25C38.5,25,38.5,25,38.5,25z M38.5,23.8
				C38.5,23.8,38.5,23.8,38.5,23.8C38.5,23.8,38.5,23.8,38.5,23.8C38.5,23.8,38.5,23.8,38.5,23.8z M38.7,22.4
				C38.7,22.4,38.7,22.4,38.7,22.4c0-0.1,0-0.1,0-0.1c-0.1,0.1-0.1,0.5-0.2,0.7c0,0,0,0,0,0C38.6,22.8,38.6,22.6,38.7,22.4
				C38.7,22.4,38.7,22.4,38.7,22.4z M38.7,25L38.7,25C38.7,25,38.7,25,38.7,25L38.7,25z M38.8,24.3C38.8,24.3,38.8,24.3,38.8,24.3
				L38.8,24.3C38.8,24.4,38.7,24.4,38.8,24.3L38.8,24.3C38.8,24.4,38.8,24.3,38.8,24.3C38.8,24.3,38.8,24.3,38.8,24.3L38.8,24.3z
				 M38.9,19.2C38.9,19.2,38.8,19.3,38.9,19.2l-0.1,0c0,0,0,0,0,0c0,0,0,0,0,0C38.8,19.3,38.9,19.3,38.9,19.2L38.9,19.2L38.9,19.2z
				 M38.8,24.1L38.8,24.1L38.8,24.1C38.9,24.2,38.9,24.1,38.8,24.1C38.8,24.1,38.8,24.1,38.8,24.1z M38.9,24.1
				c0.2-0.5,0.4-1,0.4-1.5c-0.1,0.4-0.2,0.7-0.3,1.1c0,0,0,0,0,0.1c0,0.1,0,0.2-0.1,0.2c0,0,0,0,0,0c0,0,0,0,0,0
				C38.9,23.9,38.8,24,38.9,24.1L38.9,24.1z M38.9,23.8C38.9,23.8,38.9,23.8,38.9,23.8C38.9,23.8,38.9,23.8,38.9,23.8
				C38.9,23.8,38.9,23.8,38.9,23.8z M39.1,24.3C39.1,24.3,39.1,24.3,39.1,24.3C39.1,24.3,39.1,24.3,39.1,24.3L39.1,24.3z M39.2,19.2
				C39.2,19.2,39.2,19.2,39.2,19.2C39.2,19.2,39.2,19.2,39.2,19.2z M39.2,24.3L39.2,24.3C39.2,24.3,39.2,24.3,39.2,24.3
				C39.2,24.3,39.2,24.3,39.2,24.3z M39.3,24.9C39.3,24.9,39.3,24.9,39.3,24.9C39.3,24.9,39.3,24.9,39.3,24.9L39.3,24.9
				C39.2,24.9,39.2,24.9,39.3,24.9c0.1,0,0.3,0,0.4,0C39.6,24.9,39.5,24.9,39.3,24.9L39.3,24.9L39.3,24.9z M39.3,24.9
				C39.3,24.9,39.3,24.9,39.3,24.9C39.3,24.9,39.3,24.9,39.3,24.9L39.3,24.9C39.3,24.9,39.4,24.9,39.3,24.9
				C39.3,24.9,39.3,24.9,39.3,24.9z M39.4,24.9C39.4,24.9,39.4,24.9,39.4,24.9C39.4,24.9,39.4,24.9,39.4,24.9
				C39.4,24.9,39.4,24.9,39.4,24.9z M39.5,24.9C39.5,24.9,39.5,24.9,39.5,24.9C39.5,24.9,39.6,24.9,39.5,24.9
				C39.6,24.9,39.5,24.9,39.5,24.9z M39.6,25c0,0,0.1,0,0.2,0C39.7,25,39.6,25,39.6,25z M39.6,24.9C39.6,24.9,39.6,24.9,39.6,24.9
				C39.6,24.9,39.6,24.9,39.6,24.9z M39.6,24.9C39.6,24.9,39.6,24.9,39.6,24.9C39.6,24.9,39.6,24.9,39.6,24.9z M39.7,24.9L39.7,24.9
				C39.7,24.9,39.7,24.9,39.7,24.9C39.7,24.9,39.7,24.9,39.7,24.9z M39.8,24.8C39.8,24.8,39.8,24.8,39.8,24.8
				C39.8,24.8,39.8,24.8,39.8,24.8L39.8,24.8z M39.8,24.5C39.8,24.5,39.8,24.5,39.8,24.5C39.8,24.5,39.8,24.5,39.8,24.5z M39.9,24.8
				c0-0.1,0.1-0.1,0.2-0.1C40,24.8,40,24.8,39.9,24.8z M39.9,24.8C39.9,24.8,39.9,24.8,39.9,24.8C39.9,24.8,39.9,24.8,39.9,24.8z
				 M40,24.8c0,0,0,0,0.1,0C40.1,24.8,40,24.8,40,24.8z M40,24.7C40,24.7,40,24.7,40,24.7C40,24.7,40,24.7,40,24.7L40,24.7z
				 M40.9,19.8C40.9,19.8,40.9,19.8,40.9,19.8C40.9,19.8,40.9,19.8,40.9,19.8z M41.4,19.7L41.4,19.7C41.3,19.7,41.3,19.7,41.4,19.7
				C41.4,19.7,41.4,19.7,41.4,19.7z M41.4,19.5C41.4,19.5,41.4,19.5,41.4,19.5L41.4,19.5L41.4,19.5z M41.5,19.7
				C41.5,19.7,41.4,19.7,41.5,19.7c0,0,0,0,0.1,0C41.6,19.7,41.5,19.7,41.5,19.7z"/>
			<path fill="#C02227" d="M41.3,24.2L41.3,24.2c0,0-0.1,0-0.1,0L41.3,24.2C41.2,24.1,41.2,24.1,41.3,24.2L41.3,24.2L41.3,24.2
				c0-0.1,0-0.2,0-0.2v0c0,0,0,0,0,0c0,0,0,0,0,0c0,0,0,0,0,0c0,0,0,0,0,0c0.1-0.5,0.2-0.8,0.2-0.8c0.1-0.5,0.2-0.9,0.3-1.3v0
				c0,0,0,0,0,0c0.1-0.3,0.1-0.9,0.3-1.1c0,0,0-0.1,0-0.1c0-0.2,0.1-0.3,0.2-0.5c-0.1,0-0.5,0-0.7,0c0,0-0.1,0-0.1,0c0,0,0,0,0,0
				c0,0,0,0,0,0c0,0,0,0-0.1,0c0,0,0,0,0-0.1c0,0,0,0,0,0v0c0,0,0.1,0,0.1-0.1c0,0,0,0,0,0c0,0,0,0,0,0c0-0.1,0.1-0.1,0.1-0.1
				c0,0,0,0,0,0c0,0,0,0,0,0c-0.1,0-0.1,0-0.1,0c0,0,0,0,0,0c0,0,0,0,0,0c0,0,0,0,0.1,0h0v0h0.1c0,0,0,0,0,0v0c0,0,0,0,0,0l0,0
				c0,0,0,0,0,0c0,0,0,0,0,0c0,0,0,0,0,0h0c0,0,0,0,0,0c0,0,0,0,0,0c0-0.3,0.3-0.3,0.5-0.4c0,0,0,0,0.1,0c0.1,0,0.1,0,0.2,0
				c0,0,0.1,0,0.1,0c0,0,0,0,0,0c0,0,0,0,0.1,0c0,0,0.1,0,0.1,0c0,0,0,0,0.1,0h0.1c0,0,0.1,0,0.1,0c0,0,0,0,0,0c0,0,0,0,0,0v0
				c0.1,0,0.2,0.1,0.2,0.1c0,0,0,0,0,0c-0.1,0-0.3,0-0.5,0l0,0c0,0,0,0,0,0c0,0-0.1,0.1-0.1,0.1v0h-0.1c-0.1,0-0.1,0-0.2,0
				c0,0,0,0,0,0h-0.1c0,0,0,0,0.1,0c0.2,0,0.4,0,0.7,0c0,0,0,0,0,0c0,0,0,0,0,0h0c0,0,0,0,0,0c0.2,0,0.5,0,0.8,0c0.2,0,0.5,0,0.5,0
				c0,0,0,0,0,0c0,0,0.4,0,0.5,0.1c0,0,0,0,0,0c0,0,0,0,0,0c0,0-0.1,0-0.1,0h0.1c0,0,0,0,0,0v0c0,0,0,0,0,0h0c0,0,0,0,0,0
				c0,0-0.1,0-0.1,0c0,0,0,0-0.1,0c0,0,0.1,0,0.1,0c0,0-0.1,0-0.1,0c-0.1,0-0.2,0-0.3,0c0,0,0,0,0,0c0.2,0.1,0.4,0.1,0.6,0.1
				c0,0,0,0,0,0c0,0-0.1,0-0.1,0c0,0,0,0,0,0l0,0c0,0,0,0-0.1,0c0,0,0,0,0,0l0.1,0c0,0,0,0-0.1,0c0,0,0.2,0,0.2,0.1
				c-0.2,0-0.4-0.1-0.6-0.1c-0.1,0-0.2,0-0.4,0h0c0,0,0,0,0.1,0h0c0.1,0,0.2,0,0.3,0c0,0,0,0,0,0c0.1,0,0.3,0,0.5,0h0
				c0,0,0.1,0,0.1,0c0,0-0.1,0-0.1,0c-0.1,0-0.2,0-0.3,0c-0.2,0-0.3,0-0.5,0c0,0-0.1,0-0.1,0c0,0,0,0,0,0c0,0,0,0,0,0h-0.1
				c-0.1,0.4-0.3,0.7-0.4,1.1c0,0,0,0,0,0c0,0,0,0,0,0c0-0.4,0.2-0.7,0.3-1.1h0c0,0.1-0.1,0.2-0.1,0.4l0,0c-0.3,0.7-0.3,1.7-0.5,1.8
				c-0.2,0.6-0.4,1.3-0.6,1.9c0,0,0,0,0,0s0,0,0,0.1c0.2,0,0.5,0,0.7,0c0,0,0,0,0,0c0,0,0,0,0,0c0,0,0.1,0,0.1,0c0,0,0.1,0,0.1,0
				c0,0-0.1,0-0.1,0c-0.1,0-0.1,0-0.2,0c0,0,0.1,0,0.1,0c0,0-0.1,0-0.1,0c-0.1,0-0.1,0-0.2,0v0h0c0,0,0,0,0,0c0,0,0,0,0,0
				c0,0,0,0,0,0c0,0-0.1,0-0.1,0c0,0,0,0,0,0c0,0,0,0,0,0v0H42v0.1c0,0,0,0,0,0.1h0.3c0.1,0,0.2,0,0.3,0c0.2,0,0.4,0,0.7,0
				c-0.4,0.1-0.9,0.1-1.3,0.1l0,0c0,0,0.1,0,0.2,0c0.1,0,0.1,0,0.2,0c0.4,0,0.7-0.1,1-0.1c-0.2,0.1-0.5,0.1-0.8,0.1c0,0,0.1,0,0.1,0
				c0.1,0,0.2,0,0.3,0l0,0c0,0,0,0,0.1,0c0,0,0,0,0,0c0,0-0.1,0-0.2,0c0,0,0,0,0,0c0,0-0.1,0-0.1,0c0,0,0,0,0.1,0c0,0,0.1,0,0.2,0
				l0,0l0.3-0.1c0,0,0,0,0,0h0.1c-0.1,0-0.1,0-0.2,0.1c0,0,0.1,0,0.1,0c-0.1,0.1-0.3,0.1-0.4,0.1c0,0,0,0,0,0c0,0,0.1,0,0.2,0
				c0,0.1-0.1,0-0.2,0.1h0c-0.3,0-0.6,0-0.9,0.1c0,0,0,0,0,0c0.1,0,0.1,0,0.2,0c0,0,0,0,0.1,0l0,0h0.1l0,0c0,0,0,0,0,0h0
				c0,0-0.1,0-0.1,0c0,0,0,0,0,0h-0.1c0,0,0,0,0.1,0c-0.1,0-0.2,0-0.4,0c-0.3,0-0.6,0-0.9-0.1v0c-0.4-0.1-0.6-0.2-0.6-0.4
				c0,0,0,0,0,0c0,0,0,0,0,0v0c0,0,0,0-0.1,0c0,0,0,0,0-0.1l0,0c0,0,0,0,0,0c0,0,0,0,0,0c0,0,0,0,0,0c0.1,0,0.1-0.1,0.1-0.1l0,0
				c0,0,0,0,0,0c0,0,0,0,0,0c0,0,0,0,0,0v0c0,0,0.1,0,0.1,0c0.1,0,0.2,0,0.3,0l0,0c-0.2,0-0.4,0-0.5-0.1h0c0,0,0,0,0,0s0,0,0,0
				c0,0,0,0,0,0c0-0.1,0.1-0.1,0.2-0.1c0.1,0,0.1,0,0.2,0h0c0,0,0,0,0.1,0c0,0,0,0,0,0l0,0h0.1c0,0,0,0,0.1,0h0c0,0-0.1,0-0.1,0
				c0,0,0,0,0,0C41.1,24.2,41.2,24.2,41.3,24.2C41.2,24.2,41.2,24.2,41.3,24.2L41.3,24.2z M40.7,24.1c0,0-0.1,0-0.1,0v0
				c0,0-0.1,0-0.1,0.1c0,0,0,0,0,0C40.4,24.1,40.5,24.1,40.7,24.1L40.7,24.1z M40.6,24.9C40.6,24.9,40.5,24.9,40.6,24.9
				C40.5,24.8,40.6,24.9,40.6,24.9z M40.7,24.9C40.7,24.9,40.7,24.9,40.7,24.9C40.7,24.9,40.7,24.9,40.7,24.9L40.7,24.9z M40.8,24.1
				C40.8,24.1,40.8,24.1,40.8,24.1C40.9,24.1,40.8,24.1,40.8,24.1z M41.2,24.4L41.2,24.4C41.2,24.4,41.2,24.4,41.2,24.4L41.2,24.4z
				 M41.4,24.4C41.4,24.4,41.4,24.3,41.4,24.4l-0.2,0C41.3,24.3,41.4,24.3,41.4,24.4l0-0.1c-0.1,0-0.2,0-0.2,0l0,0c0,0,0,0,0,0.1
				H41.4z M41.5,24.2L41.5,24.2l-0.2,0l0,0H41.5z M41.5,24.1c0-0.1,0.1-0.3,0.1-0.4c0,0,0,0,0,0c0-0.3,0.2-0.7,0.2-1
				c-0.1,0.1-0.2,0.8-0.3,1.1c0,0,0,0,0,0c0,0,0,0,0-0.1v0c0,0,0,0,0-0.1c0,0,0,0,0,0c0,0,0,0,0,0c0,0,0,0,0,0c0,0,0,0.1-0.1,0.1
				c0,0,0,0,0,0c0,0,0,0.1,0,0.1c0,0,0,0,0,0c0,0.1-0.1,0.3-0.1,0.4l0,0c0,0,0,0,0,0s0,0,0,0H41.5z M41.4,23.8
				C41.4,23.8,41.4,23.8,41.4,23.8C41.4,23.8,41.4,23.8,41.4,23.8L41.4,23.8z M41.5,23.5C41.5,23.5,41.5,23.5,41.5,23.5
				c0-0.1,0-0.1,0-0.1C41.5,23.4,41.5,23.5,41.5,23.5C41.5,23.5,41.5,23.5,41.5,23.5L41.5,23.5L41.5,23.5z M41.6,25
				C41.5,25,41.5,25,41.6,25C41.5,25,41.5,25,41.6,25C41.6,25,41.6,25,41.6,25C41.6,25,41.6,25,41.6,25z M41.5,23.8
				C41.5,23.8,41.6,23.8,41.5,23.8C41.6,23.8,41.6,23.8,41.5,23.8C41.6,23.8,41.5,23.8,41.5,23.8z M41.8,22.4
				C41.8,22.4,41.8,22.4,41.8,22.4c0-0.1,0-0.1,0-0.1c-0.1,0.1-0.1,0.5-0.2,0.7c0,0,0,0,0,0C41.7,22.8,41.7,22.6,41.8,22.4
				C41.8,22.4,41.8,22.4,41.8,22.4z M41.8,25L41.8,25C41.8,25,41.8,25,41.8,25L41.8,25z M41.9,24.3C41.9,24.3,41.9,24.3,41.9,24.3
				L41.9,24.3C41.8,24.4,41.8,24.4,41.9,24.3L41.9,24.3C41.9,24.4,41.9,24.3,41.9,24.3C41.9,24.3,41.9,24.3,41.9,24.3L41.9,24.3z
				 M42,19.2C42,19.2,41.9,19.3,42,19.2l-0.1,0c0,0,0,0,0,0c0,0,0,0,0,0C41.9,19.3,42,19.3,42,19.2L42,19.2L42,19.2z M41.9,24.1
				L41.9,24.1L41.9,24.1C42,24.2,42,24.1,41.9,24.1C41.9,24.1,41.9,24.1,41.9,24.1z M42,24.1c0.2-0.5,0.4-1,0.4-1.5
				c-0.1,0.4-0.2,0.7-0.3,1.1c0,0,0,0,0,0.1c0,0.1,0,0.2-0.1,0.2c0,0,0,0,0,0c0,0,0,0,0,0C42,23.9,41.9,24,42,24.1L42,24.1z
				 M42,23.8C42,23.8,42,23.8,42,23.8C42,23.8,42,23.8,42,23.8C42,23.8,42,23.8,42,23.8z M42.2,24.3C42.2,24.3,42.2,24.3,42.2,24.3
				C42.2,24.3,42.2,24.3,42.2,24.3L42.2,24.3z M42.3,19.2C42.3,19.2,42.3,19.2,42.3,19.2C42.3,19.2,42.3,19.2,42.3,19.2z M42.3,24.3
				L42.3,24.3C42.3,24.3,42.3,24.3,42.3,24.3C42.3,24.3,42.3,24.3,42.3,24.3z M42.4,24.9C42.4,24.9,42.4,24.9,42.4,24.9
				C42.4,24.9,42.3,24.9,42.4,24.9L42.4,24.9C42.3,24.9,42.3,24.9,42.4,24.9c0.1,0,0.3,0,0.4,0C42.7,24.9,42.6,24.9,42.4,24.9
				L42.4,24.9L42.4,24.9z M42.4,24.9C42.4,24.9,42.4,24.9,42.4,24.9C42.4,24.9,42.4,24.9,42.4,24.9L42.4,24.9
				C42.4,24.9,42.4,24.9,42.4,24.9C42.4,24.9,42.4,24.9,42.4,24.9z M42.5,24.9C42.5,24.9,42.4,24.9,42.5,24.9
				C42.4,24.9,42.5,24.9,42.5,24.9C42.5,24.9,42.5,24.9,42.5,24.9z M42.6,24.9C42.6,24.9,42.6,24.9,42.6,24.9
				C42.6,24.9,42.6,24.9,42.6,24.9C42.6,24.9,42.6,24.9,42.6,24.9z M42.6,25c0,0,0.1,0,0.2,0C42.8,25,42.7,25,42.6,25z M42.7,24.9
				C42.7,24.9,42.7,24.9,42.7,24.9C42.7,24.9,42.7,24.9,42.7,24.9z M42.7,24.9C42.7,24.9,42.7,24.9,42.7,24.9
				C42.7,24.9,42.7,24.9,42.7,24.9z M42.8,24.9L42.8,24.9C42.8,24.9,42.8,24.9,42.8,24.9C42.8,24.9,42.8,24.9,42.8,24.9z M42.9,24.8
				C42.9,24.8,42.9,24.8,42.9,24.8C42.9,24.8,42.9,24.8,42.9,24.8L42.9,24.8z M42.9,24.5C42.9,24.5,42.9,24.5,42.9,24.5
				C42.9,24.5,42.9,24.5,42.9,24.5z M43,24.8c0-0.1,0.1-0.1,0.2-0.1C43.1,24.8,43.1,24.8,43,24.8z M43,24.8C43,24.8,43,24.8,43,24.8
				C43,24.8,43,24.8,43,24.8z M43.1,24.8c0,0,0,0,0.1,0C43.2,24.8,43.1,24.8,43.1,24.8z M43.1,24.7C43.1,24.7,43.1,24.7,43.1,24.7
				C43.1,24.7,43.1,24.7,43.1,24.7L43.1,24.7z M44,19.8C43.9,19.8,43.9,19.8,44,19.8C43.9,19.8,43.9,19.8,44,19.8z M44.5,19.7
				L44.5,19.7C44.4,19.7,44.4,19.7,44.5,19.7C44.5,19.7,44.5,19.7,44.5,19.7z M44.5,19.5C44.5,19.5,44.5,19.5,44.5,19.5L44.5,19.5
				L44.5,19.5z M44.6,19.7C44.6,19.7,44.5,19.7,44.6,19.7c0,0,0,0,0.1,0C44.7,19.7,44.6,19.7,44.6,19.7z"/>
		</g>
		<g>
			<g>
				<path fill="#C02227" d="M30.3,16.7c-0.2-0.6-0.1-1.1-0.2-1.7c0,0.1,0,0.3,0,0.5c0,0.3,0,0.6,0,0.8c0,0.3,0.3,1,0.3,1.1
					c0,0-0.1-0.1-0.2-0.3L30,16.7l0,0c-0.1-0.2-0.1-0.6-0.1-0.8c0-2.4,1.6-4.6,3.1-6.4c0.1-0.1,0.3-0.2,0.4-0.4
					c1.1-0.9,2.2-1.9,3.7-1.9c0.1,0,0.3,0,0.4,0.1c-0.1,0-0.1,0-0.2,0.1l0.1,0c0.3,0.1,0.7,0.1,0.9,0.3c0.6,0.5,0.6,0.5,0.6,0.6
					l0.7,0.9c-0.2,0-0.3-0.2-0.4-0.3c0.1,0.1,0.2,0.3,0.3,0.4c0.1,0.1,0.1,0.3,0.2,0.4c-0.1,0.1-0.1,0.1-0.2,0.1c-0.1,0-0.1,0-0.1,0
					c0,0,0,0,0,0.1c0,0.1,0.1,0.3,0.1,0.4L39,9.9v0c0,0.3,0.4,0.5,0.4,0.6c0,0,0,0,0,0.1c0,0,0.1,0.1,0.1,0.2c0,0,0,0,0,0
					c-0.1,0-0.4-0.2-0.7-0.4c0,0.1,0.2,0.3,0.2,0.4c0,0,0,0,0,0c-0.2,0-0.2-0.2-0.4-0.3v0c0,0,0,0,0,0l-0.2,0.2
					c0-0.2-0.3-0.6-0.5-0.6l0,0.2c0,0,0,0.1,0,0.1c0,0.1,0.1,0.2,0.1,0.2l0,0c0,0-0.1,0-0.1,0c-0.1,0-0.1-0.2-0.2-0.5
					C37.4,10.1,37.4,9,36.6,9c-0.7,0-3.4,2.8-3.6,3.3c-0.5,1-1.2,2-1.2,3.2c0,1.3,1,1.7,2,1.7c1.1,0,2-0.6,2.4-0.8l1-2.7L37,13.8v0
					c-0.7,0.2-1.8,0.3-2.4,0.7c0.6-0.1,1.9-0.5,1.9-0.5l-0.2,0.1c0,0,0,0,0,0v0c-0.3,0.2-2,0.6-2.3,0.8c0-0.1-0.1-0.1-0.1-0.2
					c0-0.1,0-0.1,0.1-0.2c0,0-0.1,0-0.1,0c-0.1,0-0.3,0.1-0.4,0.2c0,0,0,0,0-0.1h0c0.1-0.1,0.1-0.2,0.1-0.3c0-0.1,0-0.2,0-0.3
					c0,0,0.1,0,0.1,0s0,0,0,0s0,0,0.1,0h-0.1c-0.1,0-0.1,0-0.2-0.1c0.1,0,0.3,0,0.4-0.1c0,0-0.1,0-0.1-0.1v0c0,0,0,0,0,0h-0.1
					c0.2-0.2,0.2-0.2,0.3-0.2c0,0-0.1,0-0.1,0h0c0,0,0.1,0,0.2,0c0.1,0,0.3,0,0.4-0.1l-0.7,0.1l1.2-0.3c-0.4,0-0.7,0.2-1.1,0.2
					c-0.1,0-0.1-0.1-0.1-0.1c0,0,0-0.1,0.1-0.1c0.1,0,0.2,0,0.3,0c1.4,0,2.8-0.8,4.3-1c0.2,0,0.4,0,0.5-0.1c0,0,0.1,0,0.1,0
					c0,0,0,0,0.1,0l0.6-0.1c0.1,0,0.1,0,0.2,0c0.2,0,0.4-0.1,0.6-0.1h0.1c0,0-0.4,0.2-0.4,0.2c0.2,0,0.4-0.1,0.6-0.1
					c0,0,0.1,0,0.2,0c-0.4,0.1-0.5,0.2-0.5,0.2c0,0,0,0,0,0c0,0,0,0,0.1,0v0c0,0,0.1,0,0.1,0.1c0,0-0.6,0-0.7,0.1c0,0,0,0,0,0
					c0.1,0,0.1,0,0.2,0c0,0,0,0,0,0s0,0,0,0h0c0,0,0,0,0,0c0,0.1-0.3,0.1-0.7,0.2c0,0,0,0,0,0c-0.1,0-0.2,0-0.3,0.1l0.5,0
					c0,0,0.1,0,0.1,0c0,0-0.2,0.1-0.3,0.1c0,0,0,0,0.1,0c0.1,0,0.2-0.1,0.3-0.1c0,0,0,0,0,0c0,0.1-0.5,0.2-0.6,0.3h0.2
					c0,0,0.2,0,0.3,0c0,0,0.1,0,0.1,0s0,0,0,0L39,13.3c-0.5,0.9-0.9,1.9-1.2,2.9l1.2-2.7c0.1-0.1,0.2-0.2,0.2-0.2v0l0,0.1
					c-0.1,0.3-0.2,0.6-0.3,0.9c-0.3,0.8-0.4,1-0.4,1.2L38,16.5c0,0.6-0.4,1.4-0.5,1.6l-0.4,1.6L37,20.5c0,0-0.1,0-0.1-0.1
					c0-0.2,0.1-0.6,0.1-0.6l-0.3,0.8l-0.1-0.2c0,0-0.1,0-0.1,0c-0.3,0-0.4-0.1-0.4-0.2c0,0,0-0.1,0-0.1c0-0.1-0.2-0.1-0.3-0.1
					l-0.1-0.1c-0.1,0.1-0.1,0.2-0.2,0.2c0,0,0,0,0,0c0,0,0.1-0.1,0.1-0.1c0,0,0-0.1,0-0.1c0,0,0,0,0,0s0,0,0,0l-0.1-0.5
					c-0.1,0-0.1-0.1-0.1-0.1c0-0.1,0.1-0.3,0.2-0.5c0,0,0,0,0,0c0.1-0.1,0-0.3,0.1-0.4l0-0.1c0,0.1-0.1,0.2-0.2,0.2
					c-1.1,0.4-1.5,0.4-1.8,0.4c-0.8,0-1.6-0.3-2.2-0.7C30.8,17.8,30.7,17.6,30.3,16.7z M30.2,14.7c0.5-1,0.7-1.5,0.7-1.6
					c0,0-0.1,0.1-0.2,0.2l0.2-0.3l-0.2,0.2L30.2,14.7z M30.3,15.6C30.3,15.6,30.3,15.6,30.3,15.6c0,0.1,0,0.3,0.1,0.4L30.3,15.6z
					 M30.6,15.4L30.6,15.4L30.6,15.4c-0.1,0.1,0,0.2,0,0.3V15.4z M30.6,15.3C30.6,15.2,30.5,15.2,30.6,15.3L30.6,15.3
					C30.5,15.3,30.5,15.3,30.6,15.3C30.5,15.3,30.6,15.3,30.6,15.3z M31,12.9L31,12.9c0,0,0.2-0.2,0.2-0.4
					C31.2,12.6,31,12.8,31,12.9z M31.6,15.6l0-0.4c0,0,0-0.1,0-0.1c0-0.1,0-0.1,0-0.2c0,0,0,0,0-0.1c0,0,0,0.1-0.1,0.1l0,0.5
					L31.6,15.6z M31.6,15.6C31.6,15.6,31.6,15.5,31.6,15.6C31.6,15.6,31.6,15.6,31.6,15.6c0,0.1,0,0.2,0,0.2V15.6z M33.7,9.3
					L32.8,10c-0.4,0.3-1,1.3-1,1.4c0,0,0.2-0.2,0.6-0.7C32.8,10.3,33.2,9.8,33.7,9.3z M32.2,14.3c0-0.5,0.4-0.9,0.5-1.3h0
					c0.2-0.3,0.3-0.5,0.4-0.5v0C33.1,12.6,32.3,14,32.2,14.3L32.2,14.3z M33.8,9.1c-0.1,0.1-0.4,0.2-0.4,0.2c0,0,0,0,0,0.1L33.8,9.1
					z M35.6,17.7c-0.3,0.2-0.6,0.4-0.9,0.5l-0.8,0.3c0,0,0.1,0,0.1,0C34.7,18.5,35.4,17.9,35.6,17.7L35.6,17.7z M36.6,7.6
					c0.1,0,0.1,0,0.2,0c0,0,0,0,0.1,0C36.8,7.5,36.7,7.5,36.6,7.6c-1.2-0.1-2.7,1.4-2.7,1.5c0,0,0,0,0,0C34.1,8.7,36.2,7.6,36.6,7.6
					z M34.3,18.7c0.1,0,0.1,0,0.2-0.1C34.4,18.6,34.4,18.6,34.3,18.7z M35.1,18.3c0.1,0,0.4-0.2,0.4-0.4l-0.6,0.4h0
					C35,18.4,35,18.3,35.1,18.3L35.1,18.3z M35.5,17.8c-0.1,0-0.1,0.1-0.2,0.1L35.5,17.8C35.5,17.9,35.5,17.9,35.5,17.8L35.5,17.8z
					 M36.9,7.5l0.1,0C37,7.5,37,7.5,36.9,7.5C36.9,7.5,36.8,7.5,36.9,7.5C36.9,7.5,36.9,7.5,36.9,7.5z M38.8,14.9l0.6-1.6l0.1,0.1
					c0,0.2-0.1,0.3-0.1,0.4c0,0-0.4,0.9-0.4,0.9L38.8,14.9z"/>
			</g>
		</g>
		<g>
			<g>
				<path fill="#C02227" d="M28.1,15C28.1,15,28.1,15,28.1,15L28.1,15c0-0.1,0.1-0.2,0.1-0.3c-0.2,0.3-0.3,0.7-0.4,1l-0.3,0.6
					c-0.1,0.2-0.2,0.4-0.3,0.6c0-0.1,0.1-0.2,0.1-0.3l0,0c0,0,0.1-0.1,0.1-0.1c-0.2,0.2-0.2,0.4-0.4,0.6c0-0.1,0.1-0.3,0.1-0.4
					c0,0,0,0.1-0.1,0.1L26.9,17c0,0,0,0,0,0c0,0,0,0,0,0v0c-0.1,0.1-0.2,0.4-0.2,0.4c0,0,0,0,0,0c0,0,0,0-0.1,0.1
					c0-0.3,0.1-0.4,0.2-0.7c0.2-0.7,0.2-1.1,0.3-1.5c0,0-0.1-0.1-0.1-0.2l0-0.1c0,0,0-0.1,0-0.1c0,0,0,0,0,0c0,0,0,0,0-0.1l0,0
					L27,14.7c-0.1,0.5-0.4,1-0.5,1.5c0,0,0,0,0-0.1c0-0.2,0.2-0.5,0.3-0.7c0,0,0,0,0,0c0-0.1,0.1-0.2,0.1-0.3v0c0,0,0,0,0,0
					c0,0,0,0,0,0c0,0,0,0,0,0v0c0.1-0.3,0-0.6,0.2-0.9v-0.1c0,0,0-0.1,0-0.1c1.6-5.6,0.7-2.5,1.9-7.4c-0.2,0-0.4,0-0.6,0
					c-0.9,0-1.8-0.1-2.1-0.3v0C26.1,6,25.9,6,25.9,5.9c0,0,0,0,0,0h0c0,0,0,0,0,0c0,0,0,0,0,0l0.1,0v0c0-0.1-0.1,0-0.1-0.1
					c0,0,0,0,0,0v0c0,0,0,0,0,0c0,0,0,0,0-0.1c0,0,0,0,0.1,0c0,0,0,0,0,0c0,0-0.1,0-0.1,0c0,0,0,0,0,0c0,0-0.1,0-0.1,0c0,0,0,0,0,0
					c0,0,0,0,0,0v0c0,0,0,0,0,0c0,0,0.1-0.1,0.1-0.1h0c0-0.1-0.1-0.1-0.1-0.1c0,0,0,0,0,0c0,0,0.1,0,0.1,0c0-0.1-0.1,0-0.1,0l0,0
					c0,0,0,0,0,0c0,0,0,0,0,0c0,0,0,0,0-0.1l0-0.1c0.1,0,0.1,0,0.2,0c0.1,0,0.1,0,0.2,0c-0.1-0.1-0.3,0-0.4-0.1h0c0,0,0.1,0,0.1,0
					c0,0-0.2,0-0.2,0c0,0,0,0,0,0c0,0,0,0,0,0c0.4,0,0.7-0.3,1.1-0.3h2.2c0.3,0,0.5,0,0.8,0c0,0-0.1,0-0.1,0c-0.8,0.1-2,0.1-2.8,0.1
					c0,0.1,0.3,0.1,0.6,0.1c0.3,0,0.6,0,0.8,0c0.1,0,0.2,0,0.3,0s0.2,0,0.2,0l1-0.1c0.3,0,0.7,0,1-0.1h0.1c0,0,0,0,0,0v0
					c0.5,0,1.1-0.1,1.6-0.1c0.3,0,0.6,0,0.8,0c0.1,0,0.3,0,0.5,0c0.5,0,1.3,0.1,1.5,0.1c0,0-0.1,0-0.1,0c-0.6,0-1.2-0.1-1.8-0.1
					c-0.6,0-1.3,0-2,0.1c0.1,0,0.1,0,0.2,0c0.5,0,1-0.1,1.5-0.1h0.1c0,0-0.1,0-0.1,0c0.6,0,1.3,0,1.9,0.1c0,0-0.1,0-0.1,0
					c-0.1,0-0.1,0-0.2,0c0,0-0.1,0-0.1,0v0h-0.1c0.2,0.1,0.5,0,0.7,0.1c-0.1,0-0.2,0-0.2,0H35c0,0,0,0,0,0c0,0,0,0,0,0c0,0,0,0,0,0
					c0,0,0.3,0,0.3,0c0,0-0.1,0-0.1,0c0.1,0,0.3,0.1,0.3,0.1l0,0c0,0,0,0,0.1,0c-0.2,0.1-0.5,0.4-0.7,0.4h-0.3c0,0,0,0,0,0l-0.9,0
					c-0.2,0-0.3,0-0.4,0.1c0,0,0,0,0,0c-0.4,0.1-0.9,0-1.4,0.1c0,0,0,0,0,0c0,0,0.3,0,0.4-0.1c0.1,0,0.1,0,0.2,0
					c0.3,0,0.6-0.1,0.9-0.1c-0.1,0-0.2,0-0.2,0c0,0,0,0,0,0c0,0,0,0,0,0c-0.2,0.1-0.1,0-0.1,0.1c0,0,0,0,0,0c-0.1,0,0,0,0,0
					c0.3,0,0.1-0.1,0.5,0c0.4,0,0.7,0,1.1,0c0,0,0,0-0.1,0c-0.9,0.1-1.9,0.2-2.9,0.4c-0.1,0-0.2,0-0.4,0h-0.1L31,6.3
					c-0.1,0.2-0.1,0.4-0.2,0.6c-0.2,0.7-0.4,1.1-0.6,1.8c0.1-0.8,0.4-1.4,0.6-2.3c0,0,0,0.1-0.1,0.1l-0.2,0.8c0,0.2-0.1,0.4-0.1,0.6
					v0c-0.1,0.4-0.4,2-0.7,3.1l-0.4,1.3c0,0,0,0,0,0h0c-0.2,0.7-0.4,1.5-0.7,2.2c-0.1,0.3-0.3,0.6-0.4,0.8l0,0.2
					c-0.1,0.3-0.3,0.5-0.4,0.8l-0.2,0.3l-0.3,0.6c0,0,0,0,0-0.1c0-0.1,0-0.1,0.1-0.2l0.3-0.6C27.8,15.9,28,15.5,28.1,15
					C28.1,15,28.1,15,28.1,15z M26.9,14.9C26.9,14.9,26.9,14.9,26.9,14.9L26.9,14.9L26.9,14.9z M26.9,14.7
					C26.9,14.7,26.9,14.7,26.9,14.7C26.9,14.7,26.9,14.7,26.9,14.7z M27,14.2C27,14.2,27,14.2,27,14.2L27,14.2l0-0.2
					C27,14.1,27,14.2,27,14.2C27,14.3,27,14.2,27,14.2l0,0.1C27,14.3,27,14.3,27,14.2c-0.1,0.1-0.1,0.1-0.1,0.1c0,0,0,0,0,0l0.1,0
					l0-0.1l0,0c0-0.1,0.1-0.2,0.1-0.2C27.1,14.1,27.1,14.2,27,14.2z M27,14.3C27,14.3,27,14.3,27,14.3L27,14.3z M27,14.1L27,14.1
					C27,14.2,27,14.2,27,14.1L27,14.1z M27.1,13.9C27.1,13.9,27,14,27.1,13.9L27.1,13.9C27,14,27.1,14,27.1,13.9L27.1,13.9z
					 M27.1,14.1C27.1,14.1,27,14.1,27.1,14.1C27,14.1,27,14.1,27.1,14.1L27.1,14.1z M27.1,13.9L27.1,13.9
					C27.1,13.9,27.1,13.9,27.1,13.9C27.1,13.9,27.1,13.9,27.1,13.9C27.1,13.9,27.1,13.9,27.1,13.9z M27.1,13.8
					C27.1,13.8,27.1,13.8,27.1,13.8C27.1,13.8,27.1,13.7,27.1,13.8C27.1,13.7,27.1,13.7,27.1,13.8z M27.1,13.9L27.1,13.9
					C27.1,13.9,27.1,13.9,27.1,13.9L27.1,13.9z M27.4,12.8L27.4,12.8c0-0.1,0-0.1,0-0.2c-0.1,0-0.2,0.8-0.3,1c0,0,0,0,0,0
					C27.2,13.6,27.4,12.9,27.4,12.8C27.4,12.8,27.4,12.8,27.4,12.8z M27.3,13.7L27.3,13.7c-0.1,0.2-0.1,0.5-0.2,0.7h0
					c0.1-0.4,0.3-0.9,0.3-1.1C27.5,13.2,27.3,13.5,27.3,13.7z M28.1,15L28.1,15C28.1,15,28.1,15,28.1,15L28.1,15z M28.3,14.6l0,0.2
					c0.2-0.6,0.5-1.2,0.6-1.8C28.6,13.5,28.5,14.1,28.3,14.6z M31.3,5.9C31.3,6,31.2,6,31.3,5.9l-0.1,0C31.2,6,31.2,6,31.3,5.9
					c-0.1,0,0.8,0,0.8-0.1v0c-0.2,0-0.4,0.1-0.6,0.1H31.3z M32.2,5.9C32.2,5.9,32.2,5.9,32.2,5.9C32.2,5.9,32.2,5.9,32.2,5.9
					C32.1,5.9,32.2,5.9,32.2,5.9z M32.3,5.9C32.3,5.9,32.3,5.9,32.3,5.9C32.3,5.9,32.3,5.8,32.3,5.9C32.3,5.8,32.3,5.8,32.3,5.9
					C32.3,5.9,32.3,5.9,32.3,5.9z M32.3,5.8L32.3,5.8C32.3,5.8,32.3,5.8,32.3,5.8L32.3,5.8z M32.4,5.9C32.4,5.9,32.4,5.9,32.4,5.9
					C32.4,5.8,32.4,5.8,32.4,5.9C32.4,5.9,32.4,5.9,32.4,5.9z M32.5,5.8C32.5,5.8,32.5,5.8,32.5,5.8C32.5,5.8,32.5,5.8,32.5,5.8
					C32.5,5.8,32.5,5.8,32.5,5.8z M32.8,5.7c0,0-0.2,0-0.2,0c0,0,0,0,0,0h0l-0.2,0c0,0,0,0,0,0c0,0,0,0,0,0
					C32.6,5.8,32.7,5.8,32.8,5.7C32.8,5.8,32.8,5.8,32.8,5.7C32.8,5.8,32.7,5.8,32.8,5.7z M33.2,5.8C33.2,5.8,33.2,5.8,33.2,5.8
					C33.2,5.8,33.2,5.8,33.2,5.8C33.2,5.8,33.2,5.8,33.2,5.8L33.2,5.8z M34.8,4.6C34.8,4.6,34.8,4.6,34.8,4.6L34.8,4.6L34.8,4.6z"/>
			</g>
		</g>
	</g>
</g>
</svg>
