<?xml version="1.0" encoding="utf-8"?>
<!-- Generator: Adobe Illustrator 19.1.0, SVG Export Plug-In . SVG Version: 6.00 Build 0)  -->
<!DOCTYPE svg PUBLIC "-//W3C//DTD SVG 1.1//EN" "http://www.w3.org/Graphics/SVG/1.1/DTD/svg11.dtd">
<svg version="1.1" id="Layer_1" xmlns="http://www.w3.org/2000/svg" xmlns:xlink="http://www.w3.org/1999/xlink" x="0px" y="0px"
	 viewBox="0 0 69.1 36" enable-background="new 0 0 69.1 36" xml:space="preserve">
<g opacity="0.8">
	<path d="M30.5,12.5L30.5,12.5c0,0.1,0,0.1,0,0.1C30.5,12.6,30.6,12.6,30.5,12.5C30.6,12.5,30.5,12.5,30.5,12.5z"/>
	<path d="M30.3,12.8c0,0.2,0,0.3,0.1,0.5L30.3,12.8C30.3,12.8,30.3,12.8,30.3,12.8z"/>
	<path d="M30.5,12.7c0,0.1,0,0.1,0.1,0.2L30.5,12.7L30.5,12.7L30.5,12.7z"/>
	<path d="M30.7,10.4l-0.5,1.5c0.5-1,0.7-1.5,0.7-1.6C30.9,10.4,30.9,10.5,30.7,10.4l0.2-0.2L30.7,10.4z"/>
	<path d="M37.1,4.8c0,0-0.1,0-0.1,0c0,0-0.1,0-0.1,0c0,0,0,0,0.1,0L37.1,4.8z"/>
	<path d="M31,10.2c0,0,0.2-0.2,0.2-0.4C31.2,9.8,31,10.1,31,10.2L31,10.2z"/>
	<path d="M32.4,8.1c0.4-0.5,0.8-1,1.3-1.5l-0.8,0.7c-0.4,0.3-1,1.3-1,1.4C31.8,8.7,32,8.6,32.4,8.1z"/>
	<path d="M36.6,4.8c0.1,0,0.1,0,0.2,0c0,0,0,0,0.1,0C36.8,4.8,36.7,4.8,36.6,4.8c-1.2-0.1-2.7,1.4-2.7,1.5c0,0,0,0,0,0
		C34.1,6,36.2,4.8,36.6,4.8z"/>
	<path d="M33.8,6.4c-0.1,0.1-0.4,0.2-0.4,0.2c0,0,0,0,0,0.1L33.8,6.4z"/>
	<path d="M31.6,12.9c0,0,0,0.1,0,0.1L31.6,12.9c0-0.1,0-0.1,0-0.1C31.6,12.8,31.6,12.9,31.6,12.9z"/>
	<path d="M33.9,15.8C33.9,15.8,33.9,15.8,33.9,15.8c0.9,0,1.5-0.6,1.7-0.8l0,0c-0.3,0.2-0.6,0.4-0.9,0.5L33.9,15.8z"/>
	<path d="M39.1,22.2C39.1,22.2,39.2,22.2,39.1,22.2c0.1,0,0.1,0,0.1,0H39.1z"/>
	<path d="M38,21.4C38,21.4,38.1,21.4,38,21.4c0.1,0,0.1,0,0.1,0h0.1l0,0C38.2,21.4,38.1,21.4,38,21.4C38,21.4,38,21.4,38,21.4
		C38,21.4,38,21.4,38,21.4z"/>
	<path d="M39.2,21.5C39.2,21.5,39.2,21.5,39.2,21.5L39.2,21.5C39.2,21.5,39.2,21.5,39.2,21.5z"/>
	<path d="M34.5,15.9c-0.1,0-0.1,0-0.2,0.1C34.4,15.9,34.4,15.9,34.5,15.9z"/>
	<path d="M35.3,15.2L35.3,15.2c0.1-0.1,0.2-0.1,0.2-0.1l0,0C35.5,15.1,35.4,15.2,35.3,15.2z"/>
	<path d="M28.2,12.1c0.2-0.6,0.5-1.2,0.6-1.8c-0.2,0.5-0.4,1.1-0.6,1.6L28.2,12.1z"/>
	<path d="M34.9,15.6c0,0,0.1,0,0.1,0h0c0.1,0,0.4-0.2,0.4-0.4L34.9,15.6L34.9,15.6z"/>
	<path d="M27.2,10.9C27.1,11,27.1,11,27.2,10.9c-0.1,0.1-0.1,0.1,0,0.1C27.1,11,27.1,11,27.2,10.9z"/>
	<path d="M32.3,3.1C32.3,3.1,32.3,3.1,32.3,3.1C32.3,3.1,32.3,3.1,32.3,3.1C32.3,3.1,32.3,3.2,32.3,3.1C32.3,3.2,32.3,3.1,32.3,3.1z
		"/>
	<path d="M27.3,10.9L27.3,10.9c-0.1,0.2-0.1,0.5-0.2,0.7h0c0.1-0.4,0.3-0.9,0.3-1.1C27.5,10.5,27.3,10.8,27.3,10.9z"/>
	<path d="M32.1,3.1L32.1,3.1c-0.2,0-0.4,0.1-0.6,0.1h-0.1c0,0,0,0-0.1,0h-0.1c0,0,0,0,0,0C31.2,3.3,32.1,3.2,32.1,3.1z"/>
	<path d="M32.3,3.1C32.3,3.1,32.3,3.1,32.3,3.1L32.3,3.1L32.3,3.1z"/>
	<path d="M33.2,3.1C33.2,3.1,33.2,3.1,33.2,3.1C33.2,3.1,33.2,3.1,33.2,3.1L33.2,3.1C33.2,3.1,33.2,3.1,33.2,3.1z"/>
	<path d="M32.4,3.1C32.4,3.1,32.4,3.1,32.4,3.1C32.4,3.1,32.4,3.1,32.4,3.1C32.4,3.1,32.4,3.1,32.4,3.1z"/>
	<path d="M27.2,10.9c0,0,0.2-0.7,0.3-0.8c0,0,0,0,0,0v0c0,0,0-0.1,0-0.2C27.4,9.9,27.2,10.6,27.2,10.9
		C27.2,10.8,27.1,10.9,27.2,10.9z"/>
	<path d="M32.6,3.1l-0.2,0c0,0,0,0,0,0C32.5,3.1,32.5,3.1,32.6,3.1c0,0,0.1,0,0.1,0c0,0,0,0,0,0c0,0,0,0,0-0.1
		C32.7,3,32.6,3,32.6,3.1C32.5,3.1,32.5,3.1,32.6,3.1L32.6,3.1z"/>
	<path d="M32.5,3.1C32.5,3.1,32.5,3.1,32.5,3.1C32.5,3.1,32.5,3.1,32.5,3.1C32.5,3.1,32.5,3.1,32.5,3.1z"/>
	<path d="M32.3,3.1c0,0-0.1,0-0.1,0C32.1,3.2,32.2,3.2,32.3,3.1C32.2,3.2,32.2,3.2,32.3,3.1z"/>
	<path d="M27,11.4C27,11.4,27,11.4,27,11.4L27,11.4L27,11.4z"/>
	<path d="M27,11.5L27,11.5l0,0.1c0,0,0,0,0,0c0,0,0,0,0,0c0,0,0,0,0,0l0.1,0l0-0.1l0,0C27.1,11.5,27.1,11.5,27,11.5
		C27.1,11.4,27.1,11.5,27,11.5C27,11.5,27,11.5,27,11.5z"/>
	<path d="M41.1,21.4C41.1,21.4,41.2,21.4,41.1,21.4c0.1,0,0.1,0,0.1,0h0.1l0,0C41.3,21.4,41.2,21.4,41.1,21.4
		C41.1,21.4,41.1,21.4,41.1,21.4C41.1,21.4,41.1,21.4,41.1,21.4z"/>
	<path d="M27,11.5C27,11.5,27,11.5,27,11.5l0.1-0.2C27,11.4,27,11.5,27,11.5z"/>
	<path d="M27.1,11.1C27.1,11.1,27.1,11.1,27.1,11.1L27.1,11.1L27.1,11.1z"/>
	<path d="M27.1,11.1C27.1,11.1,27.1,11.1,27.1,11.1C27.1,11.2,27.1,11.2,27.1,11.1C27.1,11.2,27.1,11.1,27.1,11.1L27.1,11.1z"/>
	<path d="M26.9,12.2L26.9,12.2C26.9,12.1,26.9,12.1,26.9,12.2L26.9,12.2z"/>
	<path d="M27.1,11.2C27.1,11.2,27,11.2,27.1,11.2L27.1,11.2C27,11.2,27.1,11.2,27.1,11.2L27.1,11.2z"/>
	<path d="M27.1,11.3C27.1,11.3,27,11.3,27.1,11.3C27,11.4,27,11.4,27.1,11.3L27.1,11.3z"/>
	<path d="M31.6,12.3c0-0.1,0-0.1,0-0.2c0,0,0,0,0-0.1c0,0,0,0.1-0.1,0.1l0,0.5l0.1,0.2l0-0.4C31.6,12.4,31.6,12.4,31.6,12.3z"/>
	<path d="M38.8,21.6C38.8,21.6,38.8,21.6,38.8,21.6L38.8,21.6C38.8,21.6,38.7,21.6,38.8,21.6L38.8,21.6
		C38.8,21.6,38.8,21.6,38.8,21.6C38.8,21.5,38.8,21.5,38.8,21.6L38.8,21.6z"/>
	<path d="M38.4,21.1C38.4,21.1,38.4,21.1,38.4,21.1c0,0,0-0.1,0-0.1v0c0,0,0,0,0-0.1c0,0,0,0,0,0c0,0,0,0,0,0c0,0,0,0,0,0
		c0,0,0,0.1-0.1,0.1c0,0,0,0,0,0c0,0,0,0.1,0,0.1c0,0,0,0,0,0c0,0.1-0.1,0.3-0.1,0.4l0,0c0,0,0,0,0,0s0,0,0,0h0.1
		c0-0.1,0.1-0.3,0.1-0.4C38.5,21,38.5,21,38.4,21.1C38.5,21,38.5,21.1,38.4,21.1C38.5,21.1,38.5,21.1,38.4,21.1
		C38.5,21,38.5,21,38.4,21.1c0.1-0.4,0.2-0.8,0.3-1.1C38.6,20,38.5,20.8,38.4,21.1z"/>
	<path d="M38.8,21.4L38.8,21.4C38.9,21.4,38.9,21.4,38.8,21.4C38.8,21.4,38.8,21.4,38.8,21.4L38.8,21.4z"/>
	<path d="M42,21.1C42,21.1,42,21.1,42,21.1C42,21.1,42,21.1,42,21.1C42,21.1,42,21.1,42,21.1z"/>
	<path d="M39,21c0,0.1,0,0.2-0.1,0.2c0,0,0,0,0,0c0,0,0,0,0,0c0,0.1-0.1,0.2-0.1,0.3h0c0.2-0.5,0.4-1,0.4-1.5
		C39.2,20.2,39.1,20.6,39,21C39,21,39,21,39,21z"/>
	<polygon points="38.2,21.4 38.4,21.4 38.4,21.4 38.2,21.4 	"/>
	<path d="M42,16.5C42,16.5,41.9,16.5,42,16.5l-0.1,0c0,0,0,0,0,0c0,0,0,0,0,0C41.9,16.6,42,16.5,42,16.5L42,16.5L42,16.5z"/>
	<path d="M38.4,20.8L38.4,20.8L38.4,20.8C38.4,20.8,38.4,20.7,38.4,20.8c0-0.1,0-0.1,0-0.1C38.4,20.7,38.4,20.8,38.4,20.8
		C38.4,20.8,38.4,20.8,38.4,20.8z"/>
	<path d="M38.7,19.7C38.7,19.6,38.7,19.6,38.7,19.7C38.7,19.6,38.7,19.6,38.7,19.7c0-0.1,0-0.1,0-0.2c-0.1,0.1-0.1,0.5-0.2,0.7
		c0,0,0,0,0,0C38.6,20,38.6,19.9,38.7,19.7z"/>
	<path d="M38.1,21.6L38.1,21.6L38.1,21.6C38.1,21.6,38.1,21.6,38.1,21.6z"/>
	<path d="M38.9,21.1C38.9,21.1,38.9,21.1,38.9,21.1C38.9,21.1,38.9,21.1,38.9,21.1C38.9,21.1,38.9,21.1,38.9,21.1z"/>
	<path d="M38.2,21.6C38.2,21.6,38.2,21.6,38.2,21.6l0.2,0.1c0,0,0,0,0,0L38.2,21.6c0,0,0.1,0,0.2,0v0C38.3,21.5,38.2,21.6,38.2,21.6
		L38.2,21.6z"/>
	<path d="M38.3,21.1C38.3,21.1,38.3,21.1,38.3,21.1C38.3,21.1,38.3,21.1,38.3,21.1L38.3,21.1z"/>
	<path d="M42.2,22.2C42.2,22.2,42.2,22.2,42.2,22.2c0.1,0,0.1,0,0.1,0H42.2z"/>
	<path d="M41.9,21.4L41.9,21.4C42,21.4,42,21.4,41.9,21.4C41.9,21.4,41.9,21.4,41.9,21.4L41.9,21.4z"/>
	<path d="M41.9,21.6C41.9,21.6,41.9,21.6,41.9,21.6L41.9,21.6C41.8,21.6,41.8,21.6,41.9,21.6L41.9,21.6
		C41.9,21.6,41.9,21.6,41.9,21.6C41.9,21.5,41.9,21.5,41.9,21.6L41.9,21.6z"/>
	<path d="M42.1,21c0,0.1,0,0.2-0.1,0.2c0,0,0,0,0,0c0,0,0,0,0,0c0,0.1-0.1,0.2-0.1,0.3h0c0.2-0.5,0.4-1,0.4-1.5
		C42.3,20.2,42.2,20.6,42.1,21C42.1,21,42.1,21,42.1,21z"/>
	<path d="M0,0v36h69.1V0H0z M29.2,9.6C29.2,9.6,29.2,9.6,29.2,9.6L29.2,9.6c-0.3,0.8-0.5,1.5-0.8,2.2c-0.1,0.3-0.3,0.6-0.4,0.8
		l0,0.2c-0.1,0.3-0.3,0.5-0.4,0.8L27.5,14l-0.3,0.6c0,0,0,0,0-0.1c0-0.1,0-0.1,0.1-0.2l0.3-0.6c0.2-0.5,0.4-0.9,0.5-1.3c0,0,0,0,0,0
		v0c0,0,0,0,0,0h0c0-0.1,0.1-0.2,0.1-0.2c-0.2,0.3-0.3,0.7-0.4,1l-0.3,0.6c-0.1,0.2-0.2,0.4-0.3,0.6c0-0.1,0.1-0.2,0.1-0.3l0,0
		c0,0,0.1-0.1,0.1-0.1c-0.2,0.2-0.2,0.4-0.4,0.6c0-0.1,0.1-0.3,0.1-0.4c0,0,0,0.1-0.1,0.1l-0.1,0.2c0,0,0,0,0,0c0,0,0,0,0,0v0
		c-0.1,0.1-0.2,0.4-0.2,0.4c0,0,0,0,0,0c0,0,0,0-0.1,0.1c0-0.3,0.1-0.4,0.2-0.7c0.2-0.7,0.2-1.1,0.3-1.5c0,0-0.1-0.1-0.1-0.2l0-0.1
		c0,0,0-0.1,0-0.1c0,0,0,0,0,0c0,0,0,0,0-0.1l0,0L27,12c-0.1,0.5-0.4,1-0.5,1.5c0,0,0,0,0-0.1c0-0.2,0.2-0.5,0.3-0.7c0,0,0,0,0,0
		c0-0.1,0.1-0.2,0.1-0.3v0c0,0,0,0,0,0c0,0,0,0,0,0c0,0,0,0,0,0v0c0.1-0.3,0-0.6,0.2-0.9v-0.1c0,0,0-0.1,0-0.1
		c1.6-5.6,0.7-2.5,1.9-7.4c-0.2,0-0.4,0-0.6,0c-0.9,0-1.8-0.1-2.1-0.3v0c-0.1-0.1-0.4-0.1-0.4-0.2c0,0,0,0,0,0h0c0,0,0,0,0,0
		c0,0,0,0,0,0l0.1,0v0C26.1,3,26,3,26,2.9c0,0,0,0,0,0v0c0,0,0,0,0,0c0,0,0,0,0-0.1c0,0,0,0,0.1,0c0,0,0,0,0,0c0,0-0.1,0-0.1,0
		c0,0,0,0,0,0c0,0-0.1,0-0.1,0c0,0,0,0,0,0c0,0,0,0,0,0v0c0,0,0,0,0,0c0,0,0.1-0.1,0.1-0.1h0c0-0.1-0.1-0.1-0.1-0.1c0,0,0,0,0,0
		c0,0,0.1,0,0.1,0c0-0.1-0.1,0-0.1,0l0,0c0,0,0,0,0,0c0,0,0,0,0,0c0,0,0,0,0-0.1l0-0.1c0.1,0,0.1,0,0.2,0c0.1,0,0.1,0,0.2,0
		c-0.1-0.1-0.3,0-0.4-0.1h0c0,0,0.1,0,0.1,0c0,0-0.2,0-0.2,0c0,0,0,0,0,0c0,0,0,0,0,0c0.4,0,0.7-0.3,1.1-0.3h2.2c0.3,0,0.5,0,0.8,0
		c0,0-0.1,0-0.1,0c-0.8,0.1-2,0.1-2.8,0.1c0,0.1,0.3,0.1,0.6,0.1c0.3,0,0.6,0,0.8,0c0.1,0,0.2,0,0.3,0s0.2,0,0.2,0l1-0.1
		c0.3,0,0.7,0,1-0.1h0.1c0,0,0,0,0,0v0c0.5,0,1.1-0.1,1.6-0.1c0.3,0,0.6,0,0.8,0c0.1,0,0.3,0,0.5,0c0.5,0,1.3,0.1,1.5,0.1
		c0,0-0.1,0-0.1,0c-0.6,0-1.2-0.1-1.8-0.1c-0.6,0-1.3,0-2,0.1c0.1,0,0.1,0,0.2,0c0.5,0,1-0.1,1.5-0.1h0.1c0,0-0.1,0-0.1,0
		c0.6,0,1.3,0,1.9,0.1c0,0-0.1,0-0.1,0c-0.1,0-0.1,0-0.2,0c0,0-0.1,0-0.1,0v0h-0.1c0.2,0.1,0.5,0,0.7,0.1c-0.1,0-0.2,0-0.2,0H35
		c0,0,0,0,0,0c0,0,0,0,0,0c0,0,0,0,0,0c0,0,0.3,0,0.3,0c0,0-0.1,0-0.1,0c0.1,0,0.3,0.1,0.3,0.1l0,0c0,0,0,0,0.1,0
		c-0.2,0.1-0.5,0.4-0.7,0.4h-0.3c0,0,0,0,0,0l-0.9,0c-0.2,0-0.3,0-0.4,0.1c0,0,0,0,0,0c-0.4,0.1-0.9,0-1.4,0.1c0,0,0,0,0,0
		c0,0,0.3,0,0.4-0.1c0.1,0,0.1,0,0.2,0c0.3,0,0.6-0.1,0.9-0.1c-0.1,0-0.2,0-0.2,0c0,0,0,0,0,0c0,0,0,0,0,0C32.8,3,32.9,3,32.9,3
		c0,0,0,0,0,0c-0.1,0,0,0,0,0c0.3,0,0.1-0.1,0.5,0c0.4,0,0.7,0,1.1,0c0,0,0,0-0.1,0c-0.9,0.1-1.9,0.2-2.9,0.4c-0.1,0-0.2,0-0.4,0
		h-0.1L31,3.5c-0.1,0.2-0.1,0.4-0.2,0.6c-0.2,0.7-0.4,1.1-0.6,1.8c0.1-0.8,0.4-1.4,0.6-2.3c0,0,0,0.1-0.1,0.1l-0.2,0.8
		c0,0.2-0.1,0.4-0.1,0.6v0c-0.1,0.4-0.4,2-0.7,3.1L29.2,9.6z M34.8,1.9L34.8,1.9L34.8,1.9C34.8,1.9,34.8,1.9,34.8,1.9z M37,17.8
		C37,17.8,37,17.8,37,17.8c-0.1-0.3,0-0.7,0-0.7l-0.3,0.8l-0.1-0.2c0,0-0.1,0-0.1,0c-0.3,0-0.4-0.1-0.4-0.2c0,0,0-0.1,0-0.1
		c0-0.1-0.2-0.1-0.3-0.1l-0.1-0.1c-0.1,0.1-0.1,0.2-0.2,0.2c0,0,0,0,0,0c0,0,0.1-0.1,0.1-0.1c0,0,0-0.1,0-0.1c0,0,0,0,0,0s0,0,0,0
		l-0.1-0.5c-0.1,0-0.1-0.1-0.1-0.1c0-0.1,0.1-0.3,0.2-0.5c0,0,0,0,0,0c0.1-0.1,0-0.3,0.1-0.4l0-0.1c0,0.1-0.1,0.2-0.2,0.2
		c-1.1,0.4-1.5,0.4-1.8,0.4c-0.8,0-1.6-0.3-2.2-0.7c-0.6-0.4-0.8-0.6-1.1-1.5c-0.2-0.6-0.1-1.1-0.2-1.7c0,0.1,0,0.3,0,0.5
		c0,0.3,0,0.6,0,0.8c0,0.3,0.3,1,0.3,1.1c0,0-0.1-0.1-0.2-0.3L30,14l0,0c-0.1-0.2-0.1-0.6-0.1-0.8c0-2.4,1.6-4.6,3.1-6.4
		c0.1-0.1,0.3-0.2,0.4-0.4c1.1-0.9,2.2-1.9,3.7-1.9c0.1,0,0.3,0,0.4,0.1c-0.1,0-0.1,0-0.2,0.1l0.1,0c0.3,0.1,0.7,0.1,0.9,0.3
		c0.6,0.5,0.6,0.5,0.6,0.6l0.7,0.9c-0.2,0-0.3-0.2-0.4-0.3c0.1,0.1,0.2,0.3,0.3,0.4c0.1,0.1,0.1,0.3,0.2,0.4
		c-0.1,0.1-0.1,0.1-0.2,0.1c-0.1,0-0.1,0-0.1,0c0,0,0,0,0,0.1c0,0.1,0.1,0.3,0.1,0.4L39,7.1v0c0,0.3,0.4,0.5,0.4,0.6c0,0,0,0,0,0.1
		c0,0,0.1,0.1,0.1,0.2c0,0,0,0,0,0c-0.1,0-0.4-0.2-0.7-0.4c0,0.1,0.2,0.3,0.2,0.4c0,0,0,0,0,0c-0.2,0-0.2-0.2-0.4-0.3v0c0,0,0,0,0,0
		l-0.2,0.2c0-0.2-0.3-0.6-0.5-0.6l0,0.2c0,0,0,0.1,0,0.1C38,7.9,38,8,38,8.1l0,0c0,0-0.1,0-0.1,0c-0.1,0-0.1-0.2-0.2-0.5
		c-0.3-0.2-0.4-1.3-1.1-1.3c-0.7,0-3.4,2.8-3.6,3.3c-0.5,1-1.2,2-1.2,3.2c0,1.3,1,1.7,2,1.7c1.1,0,2-0.6,2.4-0.8l1-2.7L37,11.1v0
		c-0.7,0.2-1.8,0.3-2.4,0.7c0.6-0.1,1.9-0.5,1.9-0.5l-0.2,0.1c0,0,0,0,0,0v0c-0.3,0.2-2,0.6-2.3,0.8c0-0.1-0.1-0.1-0.1-0.2
		c0-0.1,0-0.1,0.1-0.2c0,0-0.1,0-0.1,0c-0.1,0-0.3,0.1-0.4,0.2c0,0,0,0,0-0.1h0c0.1-0.1,0.1-0.2,0.1-0.3c0-0.1,0-0.2,0-0.3
		c0,0,0.1,0,0.1,0s0,0,0,0s0,0,0.1,0h-0.1c-0.1,0-0.1,0-0.2-0.1c0.1,0,0.3,0,0.4-0.1c0,0-0.1,0-0.1-0.1v0c0,0,0,0,0,0h-0.1
		c0.2-0.2,0.2-0.2,0.3-0.2c0,0-0.1,0-0.1,0h0c0,0,0.1,0,0.2,0c0.1,0,0.3,0,0.4-0.1l-0.7,0.1l1.2-0.3c-0.4,0-0.7,0.2-1.1,0.2
		c-0.1,0-0.1-0.1-0.1-0.1c0,0,0-0.1,0.1-0.1c0.1,0,0.2,0,0.3,0c1.4,0,2.8-0.8,4.3-1c0.2,0,0.4,0,0.5-0.1c0,0,0.1,0,0.1,0
		c0,0,0,0,0.1,0L39.5,9c0.1,0,0.1,0,0.2,0C39.9,9,40.1,9,40.3,9h0.1c0,0-0.4,0.2-0.4,0.2c0.2,0,0.4-0.1,0.6-0.1c0,0,0.1,0,0.2,0
		c-0.4,0.1-0.5,0.2-0.5,0.2c0,0,0,0,0,0c0,0,0,0,0.1,0v0c0,0,0.1,0,0.1,0.1c0,0-0.6,0-0.7,0.1c0,0,0,0,0,0c0.1,0,0.1,0,0.2,0
		c0,0,0,0,0,0s0,0,0,0h0c0,0,0,0,0,0c0,0.1-0.3,0.1-0.7,0.2c0,0,0,0,0,0c-0.1,0-0.2,0-0.3,0.1l0.5,0c0,0,0.1,0,0.1,0
		c0,0-0.2,0.1-0.3,0.1c0,0,0,0,0.1,0c0.1,0,0.2-0.1,0.3-0.1c0,0,0,0,0,0c0,0.1-0.5,0.2-0.6,0.3h0.2c0,0,0.2,0,0.3,0c0,0,0.1,0,0.1,0
		s0,0,0,0L39,10.5c-0.5,0.9-0.9,1.9-1.2,2.9l1.2-2.7c0.1-0.1,0.2-0.2,0.2-0.2v0l0,0.1c-0.1,0.3-0.2,0.6-0.3,0.9
		c-0.3,0.8-0.4,1-0.4,1.2L38,13.8c0,0.6-0.4,1.4-0.5,1.6L37.2,17L37,17.8z M33.1,9.8L33.1,9.8c0,0.1-0.8,1.5-0.9,1.8l0,0
		c0-0.5,0.4-0.9,0.5-1.3h0C33,9.9,33.1,9.8,33.1,9.8z M39.5,10.6c0,0.2-0.1,0.3-0.1,0.4c0,0-0.4,0.9-0.4,0.9l-0.1,0.2l0.6-1.6
		L39.5,10.6z M37.6,21.3c0,0-0.1,0-0.1,0v0c0,0-0.1,0-0.1,0.1c0,0,0,0,0,0C37.4,21.3,37.4,21.3,37.6,21.3L37.6,21.3z M37.4,22.1
		C37.4,22.1,37.5,22.1,37.4,22.1C37.5,22.2,37.4,22.1,37.4,22.1z M37.6,22.2C37.6,22.2,37.6,22.2,37.6,22.2L37.6,22.2
		C37.6,22.2,37.6,22.2,37.6,22.2z M38.5,22.3C38.4,22.3,38.4,22.3,38.5,22.3C38.4,22.2,38.4,22.2,38.5,22.3
		C38.5,22.2,38.5,22.2,38.5,22.3C38.5,22.3,38.5,22.3,38.5,22.3z M38.7,22.3L38.7,22.3C38.7,22.2,38.7,22.3,38.7,22.3L38.7,22.3z
		 M39.4,22.2C39.4,22.2,39.4,22.2,39.4,22.2C39.4,22.2,39.4,22.2,39.4,22.2C39.4,22.2,39.4,22.2,39.4,22.2z M39.5,22.2
		c0,0,0.1,0,0.1,0C39.6,22.2,39.5,22.2,39.5,22.2C39.5,22.2,39.5,22.2,39.5,22.2z M39.6,22.2c0,0,0.1,0,0.2,0
		C39.7,22.2,39.6,22.2,39.6,22.2z M39.7,22.2L39.7,22.2C39.7,22.2,39.7,22.2,39.7,22.2C39.7,22.2,39.7,22.2,39.7,22.2z M39.8,22.1
		C39.8,22.1,39.8,22.1,39.8,22.1L39.8,22.1C39.8,22.1,39.8,22.1,39.8,22.1z M40,22.1c0,0,0,0,0.1,0C40.1,22.1,40,22.1,40,22.1z
		 M39.9,22.1c0-0.1,0.1-0.1,0.2-0.1C40,22.1,40,22,39.9,22.1z M40,22C40,22,40,22,40,22L40,22C40,22,40,22,40,22z M40.5,22.1
		C40.5,22.1,40.6,22.1,40.5,22.1C40.6,22.2,40.5,22.1,40.5,22.1z M40.7,22.2C40.7,22.2,40.7,22.2,40.7,22.2L40.7,22.2
		C40.7,22.2,40.7,22.2,40.7,22.2z M41.6,22.3C41.5,22.3,41.5,22.3,41.6,22.3C41.5,22.2,41.5,22.2,41.6,22.3
		C41.6,22.2,41.6,22.2,41.6,22.3C41.6,22.3,41.6,22.3,41.6,22.3z M41.8,22.3L41.8,22.3C41.8,22.2,41.8,22.3,41.8,22.3L41.8,22.3z
		 M42.5,22.2C42.5,22.2,42.4,22.2,42.5,22.2C42.4,22.2,42.5,22.2,42.5,22.2C42.5,22.2,42.5,22.2,42.5,22.2z M42.6,22.2
		c0,0,0.1,0,0.1,0C42.6,22.2,42.6,22.2,42.6,22.2C42.6,22.2,42.6,22.2,42.6,22.2z M42.6,22.2c0,0,0.1,0,0.2,0
		C42.8,22.2,42.7,22.2,42.6,22.2z M42.8,22.2L42.8,22.2C42.8,22.2,42.8,22.2,42.8,22.2C42.8,22.2,42.8,22.2,42.8,22.2z M42.9,22.1
		C42.9,22.1,42.9,22.1,42.9,22.1L42.9,22.1C42.9,22.1,42.9,22.1,42.9,22.1z M43.1,22.1c0,0,0,0,0.1,0C43.2,22.1,43.1,22.1,43.1,22.1
		z M43,22.1c0-0.1,0.1-0.1,0.2-0.1C43.1,22.1,43.1,22,43,22.1z M43.1,22C43.1,22,43.1,22,43.1,22L43.1,22C43.1,22,43.1,22,43.1,22z
		 M43.7,17.1L43.7,17.1c0.1,0,0.2,0,0.3,0c0,0,0,0,0,0c0.1,0,0.3,0,0.5,0h0c0,0,0.1,0,0.1,0c0,0-0.1,0-0.1,0c-0.1,0-0.2,0-0.3,0
		c-0.2,0-0.3,0-0.5,0c0,0-0.1,0-0.1,0c0,0,0,0,0,0c0,0,0,0,0,0h-0.1c-0.1,0.4-0.3,0.7-0.4,1.1c0,0,0,0,0,0c0,0,0,0,0,0
		c0-0.4,0.2-0.7,0.3-1.1h0c0,0.1-0.1,0.2-0.1,0.4l0,0c-0.3,0.7-0.3,1.7-0.5,1.8c-0.2,0.6-0.4,1.3-0.6,1.9c0,0,0,0,0,0s0,0,0,0.1
		c0.2,0,0.5,0,0.7,0c0,0,0,0,0,0c0,0,0,0,0,0c0,0,0.1,0,0.1,0c0,0,0.1,0,0.1,0c0,0-0.1,0-0.1,0c-0.1,0-0.1,0-0.2,0c0,0,0.1,0,0.1,0
		c0,0-0.1,0-0.1,0c-0.1,0-0.1,0-0.2,0v0h0c0,0,0,0,0,0c0,0,0,0,0,0c0,0,0,0,0,0c0,0-0.1,0-0.1,0c0,0,0,0,0,0c0,0,0,0,0,0v0H42v0.1
		c0,0,0,0,0,0.1h0.3c0.1,0,0.2,0,0.3,0c0.2,0,0.4,0,0.7,0c-0.4,0.1-0.9,0.1-1.3,0.1l0,0c0,0,0.1,0,0.2,0c0.1,0,0.1,0,0.2,0
		c0.4,0,0.7-0.1,1-0.1c-0.2,0.1-0.5,0.1-0.8,0.1c0,0,0.1,0,0.1,0c0.1,0,0.2,0,0.3,0l0,0c0,0,0,0,0.1,0c0,0,0,0,0,0c0,0-0.1,0-0.2,0
		c0,0,0,0,0,0c0,0-0.1,0-0.1,0c0,0,0,0,0.1,0c0,0,0.1,0,0.2,0l0,0l0.3-0.1c0,0,0,0,0,0h0.1c-0.1,0-0.1,0-0.2,0.1c0,0,0.1,0,0.1,0
		C43.1,22,42.9,22,42.8,22c0,0,0,0,0,0c0,0,0.1,0,0.2,0c0,0.1-0.1,0-0.2,0.1h0c-0.3,0-0.6,0-0.9,0.1c0,0,0,0,0,0c0.1,0,0.1,0,0.2,0
		c0,0,0,0,0.1,0l0,0h0.1v0c0,0,0,0,0,0c0.2,0,0.4,0,0.5,0c-0.2,0-0.3,0-0.4,0l0,0h0c0,0,0,0,0,0.1c0,0,0,0,0,0c0,0,0,0,0,0
		c0,0,0,0,0,0h0c0,0,0,0,0,0c0,0,0,0,0,0h0l0,0c0,0,0,0,0,0h0c0,0-0.1,0-0.1,0c-0.1,0-0.2,0-0.4,0c-0.3,0-0.6,0-0.9-0.1v0
		c-0.4-0.1-0.6-0.2-0.6-0.4c0,0,0,0,0,0c0,0,0,0,0,0v0c0,0,0,0-0.1,0c0,0,0,0,0-0.1l0,0c0,0,0,0,0,0c0,0,0,0,0,0c0,0,0,0,0,0
		c0.1,0,0.1-0.1,0.1-0.1l0,0c0,0,0,0,0,0c0,0,0,0,0,0c0,0,0,0,0,0v0c0,0,0.1,0,0.1,0c0.1,0,0.2,0,0.3,0l0,0c-0.2,0-0.4,0-0.5-0.1h0
		c0,0,0,0,0,0s0,0,0,0c0,0,0,0,0,0c0-0.1,0.1-0.1,0.2-0.1c0.1,0,0.1,0,0.2,0h0c0,0,0,0,0.1,0c0,0,0,0,0,0l0,0h0.1c0,0,0,0,0.1,0h0
		h0.1c0,0,0,0,0,0h0v0c0,0,0-0.1,0-0.1v0c0,0,0,0,0,0c0,0,0,0,0,0c0,0,0,0,0,0c0,0,0,0,0,0c0.1-0.5,0.2-0.8,0.2-0.8
		c0.1-0.5,0.2-0.9,0.3-1.3v0c0,0,0,0,0,0c0.1-0.3,0.1-0.9,0.3-1.1c0,0,0-0.1,0-0.1c0-0.2,0.1-0.3,0.2-0.5c-0.1,0-0.5,0-0.7,0
		c0,0-0.1,0-0.1,0c0,0,0,0,0,0c0,0,0,0,0,0c0,0,0,0-0.1,0c0,0,0,0,0-0.1c0,0,0,0,0,0v0c0,0,0.1,0,0.1-0.1c0,0,0,0,0,0c0,0,0,0,0,0
		c0-0.1,0.1-0.1,0.1-0.1c0,0,0,0,0,0c0,0,0,0,0,0c-0.1,0-0.1,0-0.1,0c0,0,0,0,0,0c0,0,0,0,0,0c0,0,0,0,0,0c0,0,0,0,0,0c0,0,0,0,0,0
		c0,0,0,0,0,0c0,0,0,0,0,0c0,0-0.1,0-0.1,0c0,0,0,0,0,0l0,0c0,0,0,0-0.1,0c0,0,0,0,0,0l0.1,0c0,0,0,0-0.1,0c0,0,0.2,0,0.2,0.1
		c-0.2,0-0.4-0.1-0.6-0.1c-0.1,0-0.2,0-0.4,0h0c0,0,0,0,0.1,0h0c0.1,0,0.2,0,0.3,0c0,0,0,0,0,0c0.1,0,0.3,0,0.5,0h0c0,0,0.1,0,0.1,0
		c0,0-0.1,0-0.1,0c-0.1,0-0.2,0-0.3,0c-0.2,0-0.3,0-0.5,0c0,0-0.1,0-0.1,0c0,0,0,0,0,0c0,0,0,0,0,0h-0.1c-0.1,0.4-0.3,0.7-0.4,1.1
		c0,0,0,0,0,0c0,0,0,0,0,0c0-0.4,0.2-0.7,0.3-1.1h0c0,0.1-0.1,0.2-0.1,0.4l0,0c-0.3,0.7-0.3,1.7-0.5,1.8c-0.2,0.6-0.4,1.3-0.6,1.9
		c0,0,0,0,0,0s0,0,0,0.1c0.2,0,0.5,0,0.7,0c0,0,0,0,0,0c0,0,0,0,0,0c0,0,0.1,0,0.1,0c0,0,0.1,0,0.1,0c0,0-0.1,0-0.1,0
		c-0.1,0-0.1,0-0.2,0c0,0,0.1,0,0.1,0c0,0-0.1,0-0.1,0c-0.1,0-0.1,0-0.2,0v0h0c0,0,0,0,0,0c0,0,0,0,0,0c0,0,0,0,0,0c0,0-0.1,0-0.1,0
		c0,0,0,0,0,0c0,0,0,0,0,0v0h-0.1v0.1c0,0,0,0,0,0.1h0.3c0.1,0,0.2,0,0.3,0c0.2,0,0.4,0,0.7,0c-0.4,0.1-0.9,0.1-1.3,0.1l0,0
		c0,0,0.1,0,0.2,0c0.1,0,0.1,0,0.2,0c0.4,0,0.7-0.1,1-0.1c-0.2,0.1-0.5,0.1-0.8,0.1c0,0,0.1,0,0.1,0c0.1,0,0.2,0,0.3,0l0,0
		c0,0,0,0,0.1,0c0,0,0,0,0,0c0,0-0.1,0-0.2,0c0,0,0,0,0,0c0,0-0.1,0-0.1,0c0,0,0,0,0.1,0c0,0,0.1,0,0.2,0l0,0l0.3-0.1c0,0,0,0,0,0
		h0.1c-0.1,0-0.1,0-0.2,0.1c0,0,0.1,0,0.1,0C40,22,39.8,22,39.7,22c0,0,0,0,0,0c0,0,0.1,0,0.2,0c0,0.1-0.1,0-0.2,0.1h0
		c-0.3,0-0.6,0-0.9,0.1c0,0,0,0,0,0c0.1,0,0.1,0,0.2,0c0,0,0,0,0.1,0l0,0h0.1v0c0,0,0,0,0,0c0.2,0,0.4,0,0.5,0c-0.2,0-0.3,0-0.4,0
		l0,0h0c0,0,0,0,0,0.1c0,0,0,0,0,0c0,0,0,0,0,0c0,0,0,0,0,0h0c0,0,0,0,0,0c0,0,0,0,0,0h0l0,0c0,0,0,0,0,0h0c0,0-0.1,0-0.1,0
		c-0.1,0-0.2,0-0.4,0c-0.3,0-0.6,0-0.9-0.1v0c-0.4-0.1-0.6-0.2-0.6-0.4c0,0,0,0,0,0c0,0,0,0,0,0v0c0,0,0,0-0.1,0c0,0,0,0,0-0.1l0,0
		c0,0,0,0,0,0c0,0,0,0,0,0c0,0,0,0,0,0c0.1,0,0.1-0.1,0.1-0.1l0,0c0,0,0,0,0,0c0,0,0,0,0,0c0,0,0,0,0,0v0c0,0,0.1,0,0.1,0
		c0.1,0,0.2,0,0.3,0l0,0c-0.2,0-0.4,0-0.5-0.1h0c0,0,0,0,0,0s0,0,0,0c0,0,0,0,0,0c0-0.1,0.1-0.1,0.2-0.1c0.1,0,0.1,0,0.2,0h0
		c0,0,0,0,0.1,0c0,0,0,0,0,0l0,0H38c0,0,0,0,0.1,0h0h0.1c0,0,0,0,0,0h0v0c0,0,0-0.1,0-0.1v0c0,0,0,0,0,0c0,0,0,0,0,0c0,0,0,0,0,0
		c0,0,0,0,0,0c0.1-0.5,0.2-0.8,0.2-0.8c0.1-0.5,0.2-0.9,0.3-1.3v0c0,0,0,0,0,0c0.1-0.3,0.1-0.9,0.3-1.1c0,0,0-0.1,0-0.1
		c0-0.2,0.1-0.3,0.2-0.5c-0.1,0-0.5,0-0.7,0c0,0-0.1,0-0.1,0c0,0,0,0,0,0c0,0,0,0,0,0c0,0,0,0-0.1,0c0,0,0,0,0-0.1c0,0,0,0,0,0v0
		c0,0,0.1,0,0.1-0.1c0,0,0,0,0,0c0,0,0,0,0,0c0-0.1,0.1-0.1,0.1-0.1c0,0,0,0,0,0c0,0,0,0,0,0c-0.1,0-0.1,0-0.1,0c0,0,0,0,0,0
		c0,0,0,0,0,0c0,0,0,0,0.1,0h0v0h0.1c0,0,0,0,0,0v0c0,0,0,0,0,0l0,0c0,0,0,0,0,0c0,0,0,0,0,0c0,0,0,0,0,0h0c0,0,0,0,0,0c0,0,0,0,0,0
		c0-0.3,0.3-0.3,0.5-0.4c0,0,0,0,0.1,0c0.1,0,0.1,0,0.2,0c0,0,0.1,0,0.1,0c0,0,0,0,0,0c0,0,0,0,0.1,0c0,0,0.1,0,0.1,0c0,0,0,0,0.1,0
		h0.1c0,0,0.1,0,0.1,0c0,0,0,0,0,0c0,0,0,0,0,0v0c0.1,0,0.2,0.1,0.2,0.1c0,0,0,0,0,0c-0.1,0-0.3,0-0.5,0l0,0c0,0,0,0,0,0
		c0,0-0.1,0.1-0.1,0.1v0h-0.1c-0.1,0-0.1,0-0.2,0c0,0,0,0,0,0H39c0,0,0,0,0.1,0c0.2,0,0.4,0,0.7,0c0,0,0,0,0,0c0,0,0,0,0,0h0
		c0,0,0,0,0,0c0.2,0,0.5,0,0.8,0c0.2,0,0.5,0,0.5,0c0,0,0,0,0,0c0,0,0.4,0,0.5,0.1c0,0,0,0,0,0c0,0,0,0,0,0c0,0-0.1,0-0.1,0h0.1
		c0,0,0,0,0,0v0h0v0c0,0,0,0,0,0c0,0,0,0,0,0h0c0,0,0,0,0,0c0,0-0.1,0-0.1,0c0,0,0,0-0.1,0c0,0,0.1,0,0.1,0c0,0-0.1,0-0.1,0
		c-0.1,0-0.2,0-0.3,0c0,0,0,0,0,0c0.2,0.1,0.4,0.1,0.6,0.1c0,0,0,0,0,0h0v0h0.1c0,0,0,0,0,0v0c0,0,0,0,0,0l0,0c0,0,0,0,0,0
		c0,0,0,0,0,0c0,0,0,0,0,0h0c0,0,0,0,0,0c0,0,0,0,0,0c0-0.3,0.3-0.3,0.5-0.4c0,0,0,0,0.1,0c0.1,0,0.1,0,0.2,0c0,0,0.1,0,0.1,0
		c0,0,0,0,0,0c0,0,0,0,0.1,0c0,0,0.1,0,0.1,0c0,0,0,0,0.1,0h0.1c0,0,0.1,0,0.1,0c0,0,0,0,0,0c0,0,0,0,0,0v0c0.1,0,0.2,0.1,0.2,0.1
		c0,0,0,0,0,0c-0.1,0-0.3,0-0.5,0l0,0c0,0,0,0,0,0c0,0-0.1,0.1-0.1,0.1v0h-0.1c-0.1,0-0.1,0-0.2,0c0,0,0,0,0,0h-0.1c0,0,0,0,0.1,0
		c0.2,0,0.4,0,0.7,0c0,0,0,0,0,0c0,0,0,0,0,0h0c0,0,0,0,0,0c0.2,0,0.5,0,0.8,0c0.2,0,0.5,0,0.5,0c0,0,0,0,0,0c0,0,0.4,0,0.5,0.1
		c0,0,0,0,0,0c0,0,0,0,0,0c0,0-0.1,0-0.1,0h0.1c0,0,0,0,0,0v0h0v0c0,0,0,0,0,0c0,0,0,0,0,0h0c0,0,0,0,0,0c0,0-0.1,0-0.1,0
		c0,0,0,0-0.1,0c0,0,0.1,0,0.1,0c0,0-0.1,0-0.1,0c-0.1,0-0.2,0-0.3,0c0,0,0,0,0,0c0.2,0.1,0.4,0.1,0.6,0.1c0,0,0,0,0,0
		c0,0-0.1,0-0.1,0c0,0,0,0,0,0l0,0c0,0,0,0-0.1,0c0,0,0,0,0,0l0.1,0c0,0,0,0-0.1,0c0,0,0.2,0,0.2,0.1C44.4,17,44.2,17,44,17
		C43.9,17,43.8,17,43.7,17.1L43.7,17.1C43.6,17.1,43.6,17,43.7,17.1z M42.2,21.6C42.2,21.6,42.2,21.6,42.2,21.6
		C42.2,21.6,42.2,21.6,42.2,21.6L42.2,21.6z M40.4,21.4c0-0.1,0.1-0.1,0.2-0.1h0.1c0,0-0.1,0-0.1,0v0C40.6,21.4,40.5,21.4,40.4,21.4
		C40.5,21.4,40.4,21.4,40.4,21.4z M41.4,17L41.4,17C41.3,17,41.3,17,41.4,17C41.4,17,41.4,17,41.4,17z M39.1,21.6
		C39.1,21.6,39.1,21.6,39.1,21.6C39.1,21.6,39.1,21.6,39.1,21.6L39.1,21.6z M39.2,16.5C39.2,16.5,39.2,16.5,39.2,16.5
		C39.2,16.5,39.2,16.5,39.2,16.5z M42.3,16.5C42.3,16.5,42.3,16.5,42.3,16.5C42.3,16.5,42.3,16.5,42.3,16.5z M44.5,17L44.5,17
		C44.4,17,44.4,17,44.5,17C44.5,17,44.5,17,44.5,17z M44.6,17C44.6,17,44.5,17,44.6,17c0,0,0,0,0.1,0C44.7,17,44.6,17,44.6,17z"/>
	<path d="M41.8,19.7C41.8,19.6,41.8,19.6,41.8,19.7C41.8,19.6,41.8,19.6,41.8,19.7c0-0.1,0-0.1,0-0.2c-0.1,0.1-0.1,0.5-0.2,0.7
		c0,0,0,0,0,0C41.7,20,41.7,19.9,41.8,19.7z"/>
	<path d="M41.5,20.8L41.5,20.8L41.5,20.8C41.5,20.8,41.5,20.7,41.5,20.8c0-0.1,0-0.1,0-0.1C41.5,20.7,41.5,20.8,41.5,20.8
		C41.5,20.8,41.5,20.8,41.5,20.8z"/>
	<path d="M41.4,21.1C41.4,21.1,41.4,21.1,41.4,21.1C41.4,21.1,41.4,21.1,41.4,21.1L41.4,21.1z"/>
	<path d="M41.2,21.6L41.2,21.6L41.2,21.6C41.2,21.6,41.2,21.6,41.2,21.6z"/>
	<path d="M41.3,21.6C41.3,21.6,41.3,21.6,41.3,21.6l0.2,0.1c0,0,0,0,0,0L41.3,21.6c0,0,0.1,0,0.2,0v0C41.4,21.5,41.3,21.6,41.3,21.6
		L41.3,21.6z"/>
	<polygon points="41.3,21.4 41.5,21.4 41.5,21.4 41.3,21.4 	"/>
	<path d="M41.5,21.1C41.5,21.1,41.5,21.1,41.5,21.1c0,0,0-0.1,0-0.1v0c0,0,0,0,0-0.1c0,0,0,0,0,0c0,0,0,0,0,0c0,0,0,0,0,0
		c0,0,0,0.1-0.1,0.1c0,0,0,0,0,0c0,0,0,0.1,0,0.1c0,0,0,0,0,0c0,0.1-0.1,0.3-0.1,0.4l0,0c0,0,0,0,0,0s0,0,0,0h0.1
		c0-0.1,0.1-0.3,0.1-0.4C41.6,21,41.6,21,41.5,21.1C41.6,21,41.6,21.1,41.5,21.1C41.6,21.1,41.5,21.1,41.5,21.1
		C41.5,21,41.6,21,41.5,21.1c0.1-0.4,0.2-0.8,0.3-1.1C41.7,20,41.6,20.8,41.5,21.1z"/>
	<path d="M42.3,21.5C42.3,21.5,42.3,21.5,42.3,21.5L42.3,21.5C42.3,21.5,42.3,21.5,42.3,21.5z"/>
	<path d="M38.9,16.5C38.9,16.5,38.8,16.5,38.9,16.5l-0.1,0c0,0,0,0,0,0c0,0,0,0,0,0C38.8,16.6,38.9,16.5,38.9,16.5L38.9,16.5
		L38.9,16.5z"/>
</g>
<text transform="matrix(1 0 0 1 39.1463 -6.3886)" fill="#C02227" font-family="'DHFDexsarBrush'" font-size="8px">II</text>
<g>
	<text transform="matrix(1 0 0 1 31.4826 -12.0637)" fill="#C02227" font-family="'DHFDexsarBrush'" font-size="16.5021px">G</text>
</g>
<g>
	<text transform="matrix(1 0 0 1 26.3238 -14.8517)" fill="#C02227" font-family="'DHFDexsarBrush'" font-size="16.5021px">T</text>
</g>
</svg>
