<?xml version="1.0" encoding="utf-8"?>
<!-- Generator: Adobe Illustrator 19.1.0, SVG Export Plug-In . SVG Version: 6.00 Build 0)  -->
<!DOCTYPE svg PUBLIC "-//W3C//DTD SVG 1.1//EN" "http://www.w3.org/Graphics/SVG/1.1/DTD/svg11.dtd">
<svg version="1.1" xmlns="http://www.w3.org/2000/svg" xmlns:xlink="http://www.w3.org/1999/xlink" x="0px" y="0px"
	 viewBox="0 0 69.1 36" enable-background="new 0 0 69.1 36" xml:space="preserve">
<g id="Layer_1">
	<g opacity="0.8">
		<path d="M30.7,13.2l-0.5,1.5c0.5-1,0.7-1.5,0.7-1.6C30.9,13.1,30.9,13.3,30.7,13.2l0.2-0.2L30.7,13.2z"/>
		<path d="M31,12.9c0,0,0.2-0.2,0.2-0.4C31.2,12.6,31,12.8,31,12.9L31,12.9z"/>
		<path d="M30.5,15.5c0,0.1,0,0.1,0.1,0.2L30.5,15.5L30.5,15.5L30.5,15.5z"/>
		<path d="M30.5,15.2L30.5,15.2c0,0.1,0,0.1,0,0.1C30.5,15.3,30.6,15.3,30.5,15.2C30.6,15.2,30.5,15.2,30.5,15.2z"/>
		<path d="M30.3,15.5c0,0.2,0,0.3,0.1,0.5L30.3,15.5C30.3,15.6,30.3,15.6,30.3,15.5z"/>
		<path d="M28.2,14.8c0.2-0.6,0.5-1.2,0.6-1.8c-0.2,0.5-0.4,1.1-0.6,1.6L28.2,14.8z"/>
		<path d="M37.1,7.5c0,0-0.1,0-0.1,0c0,0-0.1,0-0.1,0c0,0,0,0,0.1,0L37.1,7.5z"/>
		<path d="M36.6,7.6c0.1,0,0.1,0,0.2,0c0,0,0,0,0.1,0C36.8,7.5,36.7,7.5,36.6,7.6c-1.2-0.1-2.7,1.4-2.7,1.5c0,0,0,0,0,0
			C34.1,8.7,36.2,7.6,36.6,7.6z"/>
		<path d="M33.8,9.1c-0.1,0.1-0.4,0.2-0.4,0.2c0,0,0,0,0,0.1L33.8,9.1z"/>
		<path d="M32.4,10.8c0.4-0.5,0.8-1,1.3-1.5L32.8,10c-0.4,0.3-1,1.3-1,1.4C31.8,11.5,32,11.3,32.4,10.8z"/>
		<path d="M39.1,24.9C39.1,25,39.2,25,39.1,24.9c0.1,0,0.1,0,0.1,0H39.1z"/>
		<path d="M38,24.2C38,24.2,38.1,24.2,38,24.2c0.1,0,0.1,0,0.1,0h0.1l0,0C38.2,24.2,38.1,24.2,38,24.2C38,24.2,38,24.1,38,24.2
			C38,24.2,38,24.2,38,24.2z"/>
		<path d="M33.9,18.5C33.9,18.5,33.9,18.5,33.9,18.5c0.9,0,1.5-0.6,1.7-0.8l0,0c-0.3,0.2-0.6,0.4-0.9,0.5L33.9,18.5z"/>
		<path d="M39.2,24.3C39.2,24.3,39.2,24.3,39.2,24.3L39.2,24.3C39.2,24.3,39.2,24.3,39.2,24.3z"/>
		<path d="M31.6,15.7c0,0,0,0.1,0,0.1L31.6,15.7c0-0.1,0-0.1,0-0.1C31.6,15.6,31.6,15.6,31.6,15.7z"/>
		<path d="M35.3,18L35.3,18c0.1-0.1,0.2-0.1,0.2-0.1l0,0C35.5,17.9,35.4,17.9,35.3,18z"/>
		<path d="M31.6,15.1c0-0.1,0-0.1,0-0.2c0,0,0,0,0-0.1c0,0,0,0.1-0.1,0.1l0,0.5l0.1,0.2l0-0.4C31.6,15.2,31.6,15.1,31.6,15.1z"/>
		<path d="M34.5,18.6c-0.1,0-0.1,0-0.2,0.1C34.4,18.7,34.4,18.6,34.5,18.6z"/>
		<path d="M34.9,18.4c0,0,0.1,0,0.1,0h0c0.1,0,0.4-0.2,0.4-0.4L34.9,18.4L34.9,18.4z"/>
		<path d="M27.3,13.7L27.3,13.7c-0.1,0.2-0.1,0.5-0.2,0.7h0c0.1-0.4,0.3-0.9,0.3-1.1C27.5,13.2,27.3,13.5,27.3,13.7z"/>
		<path d="M32.3,5.9C32.3,5.9,32.3,5.8,32.3,5.9C32.3,5.8,32.3,5.8,32.3,5.9C32.3,5.9,32.3,5.9,32.3,5.9C32.3,5.9,32.3,5.9,32.3,5.9
			z"/>
		<path d="M32.3,5.8c0,0-0.1,0-0.1,0C32.1,5.9,32.2,5.9,32.3,5.8C32.2,5.9,32.2,5.9,32.3,5.8z"/>
		<path d="M32.3,5.8C32.3,5.8,32.3,5.8,32.3,5.8L32.3,5.8L32.3,5.8z"/>
		<path d="M32.1,5.9L32.1,5.9c-0.2,0-0.4,0.1-0.6,0.1h-0.1c0,0,0,0-0.1,0h-0.1c0,0,0,0,0,0C31.2,6,32.1,5.9,32.1,5.9z"/>
		<path d="M32.4,5.8C32.4,5.8,32.4,5.8,32.4,5.8C32.4,5.9,32.4,5.9,32.4,5.8C32.4,5.9,32.4,5.9,32.4,5.8z"/>
		<path d="M32.6,5.8l-0.2,0c0,0,0,0,0,0C32.5,5.9,32.5,5.9,32.6,5.8c0,0,0.1,0,0.1,0c0,0,0,0,0,0c0,0,0,0,0-0.1
			C32.7,5.7,32.6,5.7,32.6,5.8C32.5,5.8,32.5,5.8,32.6,5.8L32.6,5.8z"/>
		<path d="M27.2,13.6c0,0,0.2-0.7,0.3-0.8c0,0,0,0,0,0v0c0,0,0-0.1,0-0.2C27.4,12.6,27.2,13.3,27.2,13.6
			C27.2,13.6,27.1,13.6,27.2,13.6z"/>
		<path d="M33.2,5.8C33.2,5.8,33.2,5.8,33.2,5.8C33.2,5.8,33.2,5.8,33.2,5.8L33.2,5.8C33.2,5.8,33.2,5.8,33.2,5.8z"/>
		<path d="M32.5,5.8C32.5,5.8,32.5,5.8,32.5,5.8C32.5,5.8,32.5,5.8,32.5,5.8C32.5,5.8,32.5,5.8,32.5,5.8z"/>
		<path d="M27.1,13.8C27.1,13.9,27.1,13.9,27.1,13.8C27.1,13.9,27.1,13.9,27.1,13.8C27.1,13.9,27.1,13.9,27.1,13.8L27.1,13.8z"/>
		<path d="M27,14.2C27,14.2,27,14.2,27,14.2L27,14.2L27,14.2z"/>
		<path d="M27,14.2L27,14.2l0,0.1c0,0,0,0,0,0c0,0,0,0,0,0c0,0,0,0,0,0l0.1,0l0-0.1l0,0C27.1,14.3,27.1,14.2,27,14.2
			C27.1,14.1,27.1,14.2,27,14.2C27,14.2,27,14.2,27,14.2z"/>
		<path d="M27.1,13.9C27.1,13.9,27.1,13.9,27.1,13.9L27.1,13.9L27.1,13.9z"/>
		<path d="M26.9,14.9L26.9,14.9C26.9,14.9,26.9,14.9,26.9,14.9L26.9,14.9z"/>
		<path d="M27.2,13.7C27.1,13.7,27.1,13.7,27.2,13.7c-0.1,0.1-0.1,0.1,0,0.1C27.1,13.8,27.1,13.7,27.2,13.7z"/>
		<path d="M41.1,24.2C41.1,24.2,41.2,24.2,41.1,24.2c0.1,0,0.1,0,0.1,0h0.1l0,0C41.3,24.2,41.2,24.2,41.1,24.2
			C41.1,24.2,41.1,24.1,41.1,24.2C41.1,24.2,41.1,24.2,41.1,24.2z"/>
		<path d="M27.1,14.1C27.1,14.1,27,14.1,27.1,14.1C27,14.1,27,14.1,27.1,14.1L27.1,14.1z"/>
		<path d="M27.1,13.9C27.1,13.9,27,14,27.1,13.9L27.1,13.9C27,14,27.1,14,27.1,13.9L27.1,13.9z"/>
		<path d="M27,14.3C27,14.3,27,14.2,27,14.3L27,14C27,14.1,27,14.2,27,14.3z"/>
		<polygon points="38.2,24.2 38.4,24.2 38.4,24.2 38.2,24.2 		"/>
		<path d="M38.8,24.2L38.8,24.2C38.9,24.2,38.9,24.1,38.8,24.2C38.8,24.1,38.8,24.1,38.8,24.2L38.8,24.2z"/>
		<path d="M38.8,24.3C38.8,24.3,38.8,24.3,38.8,24.3L38.8,24.3C38.8,24.4,38.7,24.4,38.8,24.3L38.8,24.3
			C38.8,24.4,38.8,24.3,38.8,24.3C38.8,24.3,38.8,24.3,38.8,24.3L38.8,24.3z"/>
		<path d="M39,23.7c0,0.1,0,0.2-0.1,0.2c0,0,0,0,0,0c0,0,0,0,0,0c0,0.1-0.1,0.2-0.1,0.3h0c0.2-0.5,0.4-1,0.4-1.5
			C39.2,23,39.1,23.3,39,23.7C39,23.7,39,23.7,39,23.7z"/>
		<path d="M41.8,22.4C41.8,22.4,41.8,22.4,41.8,22.4C41.8,22.4,41.8,22.4,41.8,22.4c0-0.1,0-0.1,0-0.2c-0.1,0.1-0.1,0.5-0.2,0.7
			c0,0,0,0,0,0C41.7,22.8,41.7,22.6,41.8,22.4z"/>
		<path d="M42,23.8C42,23.8,42,23.8,42,23.8C42,23.8,42,23.8,42,23.8C42,23.8,42,23.8,42,23.8z"/>
		<path d="M42,19.2C42,19.2,41.9,19.3,42,19.2l-0.1,0c0,0,0,0,0,0c0,0,0,0,0,0C41.9,19.3,42,19.3,42,19.2L42,19.2L42,19.2z"/>
		<path d="M38.2,24.3C38.2,24.3,38.2,24.4,38.2,24.3l0.2,0.1c0,0,0,0,0,0L38.2,24.3c0,0,0.1,0,0.2,0v0
			C38.3,24.3,38.2,24.3,38.2,24.3L38.2,24.3z"/>
		<path d="M38.9,23.8C38.9,23.8,38.9,23.8,38.9,23.8C38.9,23.8,38.9,23.8,38.9,23.8C38.9,23.8,38.9,23.8,38.9,23.8z"/>
		<path d="M41.5,23.5L41.5,23.5L41.5,23.5C41.5,23.5,41.5,23.5,41.5,23.5c0-0.1,0-0.1,0-0.1C41.5,23.4,41.5,23.5,41.5,23.5
			C41.5,23.5,41.5,23.5,41.5,23.5z"/>
		<path d="M38.7,22.4C38.7,22.4,38.7,22.4,38.7,22.4C38.7,22.4,38.7,22.4,38.7,22.4c0-0.1,0-0.1,0-0.2c-0.1,0.1-0.1,0.5-0.2,0.7
			c0,0,0,0,0,0C38.6,22.8,38.6,22.6,38.7,22.4z"/>
		<path d="M42.2,24.9C42.2,25,42.2,25,42.2,24.9c0.1,0,0.1,0,0.1,0H42.2z"/>
		<path d="M38.1,24.4L38.1,24.4L38.1,24.4C38.1,24.4,38.1,24.4,38.1,24.4z"/>
		<path d="M38.3,23.8C38.3,23.8,38.3,23.8,38.3,23.8C38.3,23.8,38.3,23.8,38.3,23.8L38.3,23.8z"/>
		<path d="M38.4,23.5L38.4,23.5L38.4,23.5C38.4,23.5,38.4,23.5,38.4,23.5c0-0.1,0-0.1,0-0.1C38.4,23.4,38.4,23.5,38.4,23.5
			C38.4,23.5,38.4,23.5,38.4,23.5z"/>
		<path d="M38.4,23.9C38.4,23.8,38.4,23.8,38.4,23.9c0,0,0-0.1,0-0.1v0c0,0,0,0,0-0.1c0,0,0,0,0,0c0,0,0,0,0,0c0,0,0,0,0,0
			c0,0,0,0.1-0.1,0.1c0,0,0,0,0,0c0,0,0,0.1,0,0.1c0,0,0,0,0,0c0,0.1-0.1,0.3-0.1,0.4l0,0c0,0,0,0,0,0s0,0,0,0h0.1
			c0-0.1,0.1-0.3,0.1-0.4C38.5,23.7,38.5,23.8,38.4,23.9C38.5,23.8,38.5,23.8,38.4,23.9C38.5,23.8,38.5,23.8,38.4,23.9
			C38.5,23.8,38.5,23.8,38.4,23.9c0.1-0.4,0.2-0.8,0.3-1.1C38.6,22.8,38.5,23.5,38.4,23.9z"/>
		<path d="M41.4,23.8C41.4,23.8,41.4,23.8,41.4,23.8C41.4,23.8,41.4,23.8,41.4,23.8L41.4,23.8z"/>
		<path d="M42.1,23.7c0,0.1,0,0.2-0.1,0.2c0,0,0,0,0,0c0,0,0,0,0,0c0,0.1-0.1,0.2-0.1,0.3h0c0.2-0.5,0.4-1,0.4-1.5
			C42.3,23,42.2,23.3,42.1,23.7C42.1,23.7,42.1,23.7,42.1,23.7z"/>
		<path d="M0,0v36h69.1V0H0z M29.2,12.3C29.2,12.3,29.2,12.3,29.2,12.3L29.2,12.3c-0.3,0.8-0.5,1.5-0.8,2.2
			c-0.1,0.3-0.3,0.6-0.4,0.8l0,0.2c-0.1,0.3-0.3,0.5-0.4,0.8l-0.2,0.3l-0.3,0.6c0,0,0,0,0-0.1c0-0.1,0-0.1,0.1-0.2l0.3-0.6
			c0.2-0.5,0.4-0.9,0.5-1.3c0,0,0,0,0,0v0c0,0,0,0,0,0h0c0-0.1,0.1-0.2,0.1-0.2c-0.2,0.3-0.3,0.7-0.4,1l-0.3,0.6
			c-0.1,0.2-0.2,0.4-0.3,0.6c0-0.1,0.1-0.2,0.1-0.3l0,0c0,0,0.1-0.1,0.1-0.1c-0.2,0.2-0.2,0.4-0.4,0.6c0-0.1,0.1-0.3,0.1-0.4
			c0,0,0,0.1-0.1,0.1L26.9,17c0,0,0,0,0,0c0,0,0,0,0,0v0c-0.1,0.1-0.2,0.4-0.2,0.4c0,0,0,0,0,0c0,0,0,0-0.1,0.1
			c0-0.3,0.1-0.4,0.2-0.7c0.2-0.7,0.2-1.1,0.3-1.5c0,0-0.1-0.1-0.1-0.2l0-0.1c0,0,0-0.1,0-0.1c0,0,0,0,0,0c0,0,0,0,0-0.1l0,0
			L27,14.7c-0.1,0.5-0.4,1-0.5,1.5c0,0,0,0,0-0.1c0-0.2,0.2-0.5,0.3-0.7c0,0,0,0,0,0c0-0.1,0.1-0.2,0.1-0.3v0c0,0,0,0,0,0
			c0,0,0,0,0,0c0,0,0,0,0,0v0c0.1-0.3,0-0.6,0.2-0.9v-0.1c0,0,0-0.1,0-0.1c1.6-5.6,0.7-2.5,1.9-7.4c-0.2,0-0.4,0-0.6,0
			c-0.9,0-1.8-0.1-2.1-0.3v0C26.1,6,25.9,6,25.9,5.9c0,0,0,0,0,0h0c0,0,0,0,0,0c0,0,0,0,0,0l0.1,0v0c0-0.1-0.1,0-0.1-0.1
			c0,0,0,0,0,0v0c0,0,0,0,0,0c0,0,0,0,0-0.1c0,0,0,0,0.1,0c0,0,0,0,0,0c0,0-0.1,0-0.1,0c0,0,0,0,0,0c0,0-0.1,0-0.1,0c0,0,0,0,0,0
			c0,0,0,0,0,0v0c0,0,0,0,0,0c0,0,0.1-0.1,0.1-0.1h0c0-0.1-0.1-0.1-0.1-0.1c0,0,0,0,0,0c0,0,0.1,0,0.1,0c0-0.1-0.1,0-0.1,0l0,0
			c0,0,0,0,0,0c0,0,0,0,0,0c0,0,0,0,0-0.1l0-0.1c0.1,0,0.1,0,0.2,0c0.1,0,0.1,0,0.2,0c-0.1-0.1-0.3,0-0.4-0.1h0c0,0,0.1,0,0.1,0
			c0,0-0.2,0-0.2,0c0,0,0,0,0,0c0,0,0,0,0,0c0.4,0,0.7-0.3,1.1-0.3h2.2c0.3,0,0.5,0,0.8,0c0,0-0.1,0-0.1,0c-0.8,0.1-2,0.1-2.8,0.1
			c0,0.1,0.3,0.1,0.6,0.1c0.3,0,0.6,0,0.8,0c0.1,0,0.2,0,0.3,0s0.2,0,0.2,0l1-0.1c0.3,0,0.7,0,1-0.1h0.1c0,0,0,0,0,0v0
			c0.5,0,1.1-0.1,1.6-0.1c0.3,0,0.6,0,0.8,0c0.1,0,0.3,0,0.5,0c0.5,0,1.3,0.1,1.5,0.1c0,0-0.1,0-0.1,0c-0.6,0-1.2-0.1-1.8-0.1
			c-0.6,0-1.3,0-2,0.1c0.1,0,0.1,0,0.2,0c0.5,0,1-0.1,1.5-0.1h0.1c0,0-0.1,0-0.1,0c0.6,0,1.3,0,1.9,0.1c0,0-0.1,0-0.1,0
			c-0.1,0-0.1,0-0.2,0c0,0-0.1,0-0.1,0v0h-0.1c0.2,0.1,0.5,0,0.7,0.1c-0.1,0-0.2,0-0.2,0H35c0,0,0,0,0,0c0,0,0,0,0,0c0,0,0,0,0,0
			c0,0,0.3,0,0.3,0c0,0-0.1,0-0.1,0c0.1,0,0.3,0.1,0.3,0.1l0,0c0,0,0,0,0.1,0c-0.2,0.1-0.5,0.4-0.7,0.4h-0.3c0,0,0,0,0,0l-0.9,0
			c-0.2,0-0.3,0-0.4,0.1c0,0,0,0,0,0c-0.4,0.1-0.9,0-1.4,0.1c0,0,0,0,0,0c0,0,0.3,0,0.4-0.1c0.1,0,0.1,0,0.2,0
			c0.3,0,0.6-0.1,0.9-0.1c-0.1,0-0.2,0-0.2,0c0,0,0,0,0,0c0,0,0,0,0,0c-0.2,0.1-0.1,0-0.1,0.1c0,0,0,0,0,0c-0.1,0,0,0,0,0
			c0.3,0,0.1-0.1,0.5,0c0.4,0,0.7,0,1.1,0c0,0,0,0-0.1,0c-0.9,0.1-1.9,0.2-2.9,0.4c-0.1,0-0.2,0-0.4,0h-0.1L31,6.3
			c-0.1,0.2-0.1,0.4-0.2,0.6c-0.2,0.7-0.4,1.1-0.6,1.8c0.1-0.8,0.4-1.4,0.6-2.3c0,0,0,0.1-0.1,0.1l-0.2,0.8c0,0.2-0.1,0.4-0.1,0.6v0
			c-0.1,0.4-0.4,2-0.7,3.1L29.2,12.3z M34.8,4.7L34.8,4.7L34.8,4.7C34.8,4.6,34.8,4.6,34.8,4.7z M37,20.5C37,20.5,37,20.5,37,20.5
			c-0.1-0.3,0-0.7,0-0.7l-0.3,0.8l-0.1-0.2c0,0-0.1,0-0.1,0c-0.3,0-0.4-0.1-0.4-0.2c0,0,0-0.1,0-0.1c0-0.1-0.2-0.1-0.3-0.1l-0.1-0.1
			c-0.1,0.1-0.1,0.2-0.2,0.2c0,0,0,0,0,0c0,0,0.1-0.1,0.1-0.1c0,0,0-0.1,0-0.1c0,0,0,0,0,0s0,0,0,0l-0.1-0.5c-0.1,0-0.1-0.1-0.1-0.1
			c0-0.1,0.1-0.3,0.2-0.5c0,0,0,0,0,0c0.1-0.1,0-0.3,0.1-0.4l0-0.1c0,0.1-0.1,0.2-0.2,0.2c-1.1,0.4-1.5,0.4-1.8,0.4
			c-0.8,0-1.6-0.3-2.2-0.7c-0.6-0.4-0.8-0.6-1.1-1.5c-0.2-0.6-0.1-1.1-0.2-1.7c0,0.1,0,0.3,0,0.5c0,0.3,0,0.6,0,0.8
			c0,0.3,0.3,1,0.3,1.1c0,0-0.1-0.1-0.2-0.3L30,16.7l0,0c-0.1-0.2-0.1-0.6-0.1-0.8c0-2.4,1.6-4.6,3.1-6.4c0.1-0.1,0.3-0.2,0.4-0.4
			c1.1-0.9,2.2-1.9,3.7-1.9c0.1,0,0.3,0,0.4,0.1c-0.1,0-0.1,0-0.2,0.1l0.1,0c0.3,0.1,0.7,0.1,0.9,0.3c0.6,0.5,0.6,0.5,0.6,0.6
			l0.7,0.9c-0.2,0-0.3-0.2-0.4-0.3c0.1,0.1,0.2,0.3,0.3,0.4c0.1,0.1,0.1,0.3,0.2,0.4c-0.1,0.1-0.1,0.1-0.2,0.1c-0.1,0-0.1,0-0.1,0
			c0,0,0,0,0,0.1c0,0.1,0.1,0.3,0.1,0.4L39,9.9v0c0,0.3,0.4,0.5,0.4,0.6c0,0,0,0,0,0.1c0,0,0.1,0.1,0.1,0.2c0,0,0,0,0,0
			c-0.1,0-0.4-0.2-0.7-0.4c0,0.1,0.2,0.3,0.2,0.4c0,0,0,0,0,0c-0.2,0-0.2-0.2-0.4-0.3v0c0,0,0,0,0,0l-0.2,0.2c0-0.2-0.3-0.6-0.5-0.6
			l0,0.2c0,0,0,0.1,0,0.1c0,0.1,0.1,0.2,0.1,0.2l0,0c0,0-0.1,0-0.1,0c-0.1,0-0.1-0.2-0.2-0.5C37.4,10.1,37.4,9,36.6,9
			c-0.7,0-3.4,2.8-3.6,3.3c-0.5,1-1.2,2-1.2,3.2c0,1.3,1,1.7,2,1.7c1.1,0,2-0.6,2.4-0.8l1-2.7L37,13.8v0c-0.7,0.2-1.8,0.3-2.4,0.7
			c0.6-0.1,1.9-0.5,1.9-0.5l-0.2,0.1c0,0,0,0,0,0v0c-0.3,0.2-2,0.6-2.3,0.8c0-0.1-0.1-0.1-0.1-0.2c0-0.1,0-0.1,0.1-0.2
			c0,0-0.1,0-0.1,0c-0.1,0-0.3,0.1-0.4,0.2c0,0,0,0,0-0.1h0c0.1-0.1,0.1-0.2,0.1-0.3c0-0.1,0-0.2,0-0.3c0,0,0.1,0,0.1,0s0,0,0,0
			s0,0,0.1,0h-0.1c-0.1,0-0.1,0-0.2-0.1c0.1,0,0.3,0,0.4-0.1c0,0-0.1,0-0.1-0.1v0c0,0,0,0,0,0h-0.1c0.2-0.2,0.2-0.2,0.3-0.2
			c0,0-0.1,0-0.1,0h0c0,0,0.1,0,0.2,0c0.1,0,0.3,0,0.4-0.1l-0.7,0.1l1.2-0.3c-0.4,0-0.7,0.2-1.1,0.2c-0.1,0-0.1-0.1-0.1-0.1
			c0,0,0-0.1,0.1-0.1c0.1,0,0.2,0,0.3,0c1.4,0,2.8-0.8,4.3-1c0.2,0,0.4,0,0.5-0.1c0,0,0.1,0,0.1,0c0,0,0,0,0.1,0l0.6-0.1
			c0.1,0,0.1,0,0.2,0c0.2,0,0.4-0.1,0.6-0.1h0.1c0,0-0.4,0.2-0.4,0.2c0.2,0,0.4-0.1,0.6-0.1c0,0,0.1,0,0.2,0
			c-0.4,0.1-0.5,0.2-0.5,0.2c0,0,0,0,0,0c0,0,0,0,0.1,0v0c0,0,0.1,0,0.1,0.1c0,0-0.6,0-0.7,0.1c0,0,0,0,0,0c0.1,0,0.1,0,0.2,0
			c0,0,0,0,0,0s0,0,0,0h0c0,0,0,0,0,0c0,0.1-0.3,0.1-0.7,0.2c0,0,0,0,0,0c-0.1,0-0.2,0-0.3,0.1l0.5,0c0,0,0.1,0,0.1,0
			c0,0-0.2,0.1-0.3,0.1c0,0,0,0,0.1,0c0.1,0,0.2-0.1,0.3-0.1c0,0,0,0,0,0c0,0.1-0.5,0.2-0.6,0.3h0.2c0,0,0.2,0,0.3,0
			c0,0,0.1,0,0.1,0s0,0,0,0L39,13.3c-0.5,0.9-0.9,1.9-1.2,2.9l1.2-2.7c0.1-0.1,0.2-0.2,0.2-0.2v0l0,0.1c-0.1,0.3-0.2,0.6-0.3,0.9
			c-0.3,0.8-0.4,1-0.4,1.2L38,16.5c0,0.6-0.4,1.4-0.5,1.6l-0.4,1.6L37,20.5z M33.1,12.5L33.1,12.5c0,0.1-0.8,1.5-0.9,1.8l0,0
			c0-0.5,0.4-0.9,0.5-1.3h0C33,12.7,33.1,12.5,33.1,12.5z M39.5,13.3c0,0.2-0.1,0.3-0.1,0.4c0,0-0.4,0.9-0.4,0.9l-0.1,0.2l0.6-1.6
			L39.5,13.3z M37.6,24.1c0,0-0.1,0-0.1,0v0c0,0-0.1,0-0.1,0.1c0,0,0,0,0,0C37.4,24.1,37.4,24.1,37.6,24.1L37.6,24.1z M37.4,24.8
			C37.4,24.8,37.5,24.9,37.4,24.8C37.5,24.9,37.4,24.9,37.4,24.8z M37.6,24.9C37.6,24.9,37.6,24.9,37.6,24.9L37.6,24.9
			C37.6,24.9,37.6,24.9,37.6,24.9z M38.5,25C38.4,25,38.4,25,38.5,25C38.4,25,38.4,25,38.5,25C38.5,25,38.5,25,38.5,25
			C38.5,25,38.5,25,38.5,25z M38.7,25L38.7,25C38.7,25,38.7,25,38.7,25L38.7,25z M39.4,24.9C39.4,24.9,39.4,24.9,39.4,24.9
			C39.4,24.9,39.4,24.9,39.4,24.9C39.4,24.9,39.4,24.9,39.4,24.9z M39.5,24.9c0,0,0.1,0,0.1,0C39.6,24.9,39.5,24.9,39.5,24.9
			C39.5,24.9,39.5,24.9,39.5,24.9z M39.6,25c0,0,0.1,0,0.2,0C39.7,25,39.6,25,39.6,25z M39.7,24.9L39.7,24.9
			C39.7,24.9,39.7,24.9,39.7,24.9C39.7,24.9,39.7,24.9,39.7,24.9z M39.8,24.8C39.8,24.8,39.8,24.8,39.8,24.8L39.8,24.8
			C39.8,24.8,39.8,24.8,39.8,24.8z M40,24.8c0,0,0,0,0.1,0C40.1,24.8,40,24.8,40,24.8z M39.9,24.8c0-0.1,0.1-0.1,0.2-0.1
			C40,24.8,40,24.8,39.9,24.8z M40,24.7C40,24.7,40,24.7,40,24.7L40,24.7C40,24.7,40,24.7,40,24.7z M40.5,24.8
			C40.5,24.8,40.6,24.9,40.5,24.8C40.6,24.9,40.5,24.9,40.5,24.8z M40.7,24.9C40.7,24.9,40.7,24.9,40.7,24.9L40.7,24.9
			C40.7,24.9,40.7,24.9,40.7,24.9z M41.6,25C41.5,25,41.5,25,41.6,25C41.5,25,41.5,25,41.6,25C41.6,25,41.6,25,41.6,25
			C41.6,25,41.6,25,41.6,25z M41.8,25L41.8,25C41.8,25,41.8,25,41.8,25L41.8,25z M42.5,24.9C42.5,24.9,42.4,24.9,42.5,24.9
			C42.4,24.9,42.5,24.9,42.5,24.9C42.5,24.9,42.5,24.9,42.5,24.9z M42.6,24.9c0,0,0.1,0,0.1,0C42.6,24.9,42.6,24.9,42.6,24.9
			C42.6,24.9,42.6,24.9,42.6,24.9z M42.6,25c0,0,0.1,0,0.2,0C42.8,25,42.7,25,42.6,25z M42.8,24.9L42.8,24.9
			C42.8,24.9,42.8,24.9,42.8,24.9C42.8,24.9,42.8,24.9,42.8,24.9z M42.9,24.8C42.9,24.8,42.9,24.8,42.9,24.8L42.9,24.8
			C42.9,24.8,42.9,24.8,42.9,24.8z M43.1,24.8c0,0,0,0,0.1,0C43.2,24.8,43.1,24.8,43.1,24.8z M43,24.8c0-0.1,0.1-0.1,0.2-0.1
			C43.1,24.8,43.1,24.8,43,24.8z M43.1,24.7C43.1,24.7,43.1,24.7,43.1,24.7L43.1,24.7C43.1,24.7,43.1,24.7,43.1,24.7z M43.7,19.8
			L43.7,19.8c0.1,0,0.2,0,0.3,0c0,0,0,0,0,0c0.1,0,0.3,0,0.5,0h0c0,0,0.1,0,0.1,0c0,0-0.1,0-0.1,0c-0.1,0-0.2,0-0.3,0
			c-0.2,0-0.3,0-0.5,0c0,0-0.1,0-0.1,0c0,0,0,0,0,0c0,0,0,0,0,0h-0.1c-0.1,0.4-0.3,0.7-0.4,1.1c0,0,0,0,0,0c0,0,0,0,0,0
			c0-0.4,0.2-0.7,0.3-1.1h0c0,0.1-0.1,0.2-0.1,0.4l0,0c-0.3,0.7-0.3,1.7-0.5,1.8c-0.2,0.6-0.4,1.3-0.6,1.9c0,0,0,0,0,0s0,0,0,0.1
			c0.2,0,0.5,0,0.7,0c0,0,0,0,0,0c0,0,0,0,0,0c0,0,0.1,0,0.1,0c0,0,0.1,0,0.1,0c0,0-0.1,0-0.1,0c-0.1,0-0.1,0-0.2,0c0,0,0.1,0,0.1,0
			c0,0-0.1,0-0.1,0c-0.1,0-0.1,0-0.2,0v0h0c0,0,0,0,0,0c0,0,0,0,0,0c0,0,0,0,0,0c0,0-0.1,0-0.1,0c0,0,0,0,0,0c0,0,0,0,0,0v0H42v0.1
			c0,0,0,0,0,0.1h0.3c0.1,0,0.2,0,0.3,0c0.2,0,0.4,0,0.7,0c-0.4,0.1-0.9,0.1-1.3,0.1l0,0c0,0,0.1,0,0.2,0c0.1,0,0.1,0,0.2,0
			c0.4,0,0.7-0.1,1-0.1c-0.2,0.1-0.5,0.1-0.8,0.1c0,0,0.1,0,0.1,0c0.1,0,0.2,0,0.3,0l0,0c0,0,0,0,0.1,0c0,0,0,0,0,0c0,0-0.1,0-0.2,0
			c0,0,0,0,0,0c0,0-0.1,0-0.1,0c0,0,0,0,0.1,0c0,0,0.1,0,0.2,0l0,0l0.3-0.1c0,0,0,0,0,0h0.1c-0.1,0-0.1,0-0.2,0.1c0,0,0.1,0,0.1,0
			c-0.1,0.1-0.3,0.1-0.4,0.1c0,0,0,0,0,0c0,0,0.1,0,0.2,0c0,0.1-0.1,0-0.2,0.1h0c-0.3,0-0.6,0-0.9,0.1c0,0,0,0,0,0
			c0.1,0,0.1,0,0.2,0c0,0,0,0,0.1,0l0,0h0.1v0c0,0,0,0,0,0c0.2,0,0.4,0,0.5,0c-0.2,0-0.3,0-0.4,0l0,0h0c0,0,0,0,0,0.1c0,0,0,0,0,0
			c0,0,0,0,0,0c0,0,0,0,0,0h0c0,0,0,0,0,0c0,0,0,0,0,0h0l0,0c0,0,0,0,0,0h0c0,0-0.1,0-0.1,0c-0.1,0-0.2,0-0.4,0
			c-0.3,0-0.6,0-0.9-0.1v0c-0.4-0.1-0.6-0.2-0.6-0.4c0,0,0,0,0,0c0,0,0,0,0,0v0c0,0,0,0-0.1,0c0,0,0,0,0-0.1l0,0c0,0,0,0,0,0
			c0,0,0,0,0,0c0,0,0,0,0,0c0.1,0,0.1-0.1,0.1-0.1l0,0c0,0,0,0,0,0c0,0,0,0,0,0c0,0,0,0,0,0v0c0,0,0.1,0,0.1,0c0.1,0,0.2,0,0.3,0
			l0,0c-0.2,0-0.4,0-0.5-0.1h0c0,0,0,0,0,0s0,0,0,0c0,0,0,0,0,0c0-0.1,0.1-0.1,0.2-0.1c0.1,0,0.1,0,0.2,0h0c0,0,0,0,0.1,0
			c0,0,0,0,0,0l0,0h0.1c0,0,0,0,0.1,0h0h0.1c0,0,0,0,0,0h0v0c0,0,0-0.1,0-0.1v0c0,0,0,0,0,0c0,0,0,0,0,0c0,0,0,0,0,0c0,0,0,0,0,0
			c0.1-0.5,0.2-0.8,0.2-0.8c0.1-0.5,0.2-0.9,0.3-1.3v0c0,0,0,0,0,0c0.1-0.3,0.1-0.9,0.3-1.1c0,0,0-0.1,0-0.1c0-0.2,0.1-0.3,0.2-0.5
			c-0.1,0-0.5,0-0.7,0c0,0-0.1,0-0.1,0c0,0,0,0,0,0c0,0,0,0,0,0c0,0,0,0-0.1,0c0,0,0,0,0-0.1c0,0,0,0,0,0v0c0,0,0.1,0,0.1-0.1
			c0,0,0,0,0,0c0,0,0,0,0,0c0-0.1,0.1-0.1,0.1-0.1c0,0,0,0,0,0c0,0,0,0,0,0c-0.1,0-0.1,0-0.1,0c0,0,0,0,0,0c0,0,0,0,0,0c0,0,0,0,0,0
			c0,0,0,0,0,0c0,0,0,0,0,0c0,0,0,0,0,0c0,0,0,0,0,0c0,0-0.1,0-0.1,0c0,0,0,0,0,0l0,0c0,0,0,0-0.1,0c0,0,0,0,0,0l0.1,0
			c0,0,0,0-0.1,0c0,0,0.2,0,0.2,0.1c-0.2,0-0.4-0.1-0.6-0.1c-0.1,0-0.2,0-0.4,0h0c0,0,0,0,0.1,0h0c0.1,0,0.2,0,0.3,0c0,0,0,0,0,0
			c0.1,0,0.3,0,0.5,0h0c0,0,0.1,0,0.1,0c0,0-0.1,0-0.1,0c-0.1,0-0.2,0-0.3,0c-0.2,0-0.3,0-0.5,0c0,0-0.1,0-0.1,0c0,0,0,0,0,0
			c0,0,0,0,0,0h-0.1c-0.1,0.4-0.3,0.7-0.4,1.1c0,0,0,0,0,0c0,0,0,0,0,0c0-0.4,0.2-0.7,0.3-1.1h0c0,0.1-0.1,0.2-0.1,0.4l0,0
			c-0.3,0.7-0.3,1.7-0.5,1.8c-0.2,0.6-0.4,1.3-0.6,1.9c0,0,0,0,0,0s0,0,0,0.1c0.2,0,0.5,0,0.7,0c0,0,0,0,0,0c0,0,0,0,0,0
			c0,0,0.1,0,0.1,0c0,0,0.1,0,0.1,0c0,0-0.1,0-0.1,0c-0.1,0-0.1,0-0.2,0c0,0,0.1,0,0.1,0c0,0-0.1,0-0.1,0c-0.1,0-0.1,0-0.2,0v0h0
			c0,0,0,0,0,0c0,0,0,0,0,0c0,0,0,0,0,0c0,0-0.1,0-0.1,0c0,0,0,0,0,0c0,0,0,0,0,0v0h-0.1v0.1c0,0,0,0,0,0.1h0.3c0.1,0,0.2,0,0.3,0
			c0.2,0,0.4,0,0.7,0c-0.4,0.1-0.9,0.1-1.3,0.1l0,0c0,0,0.1,0,0.2,0c0.1,0,0.1,0,0.2,0c0.4,0,0.7-0.1,1-0.1
			c-0.2,0.1-0.5,0.1-0.8,0.1c0,0,0.1,0,0.1,0c0.1,0,0.2,0,0.3,0l0,0c0,0,0,0,0.1,0c0,0,0,0,0,0c0,0-0.1,0-0.2,0c0,0,0,0,0,0
			c0,0-0.1,0-0.1,0c0,0,0,0,0.1,0c0,0,0.1,0,0.2,0l0,0l0.3-0.1c0,0,0,0,0,0h0.1c-0.1,0-0.1,0-0.2,0.1c0,0,0.1,0,0.1,0
			c-0.1,0.1-0.3,0.1-0.4,0.1c0,0,0,0,0,0c0,0,0.1,0,0.2,0c0,0.1-0.1,0-0.2,0.1h0c-0.3,0-0.6,0-0.9,0.1c0,0,0,0,0,0
			c0.1,0,0.1,0,0.2,0c0,0,0,0,0.1,0l0,0h0.1v0c0,0,0,0,0,0c0.2,0,0.4,0,0.5,0c-0.2,0-0.3,0-0.4,0l0,0h0c0,0,0,0,0,0.1c0,0,0,0,0,0
			c0,0,0,0,0,0c0,0,0,0,0,0h0c0,0,0,0,0,0c0,0,0,0,0,0h0l0,0c0,0,0,0,0,0h0c0,0-0.1,0-0.1,0c-0.1,0-0.2,0-0.4,0
			c-0.3,0-0.6,0-0.9-0.1v0c-0.4-0.1-0.6-0.2-0.6-0.4c0,0,0,0,0,0c0,0,0,0,0,0v0c0,0,0,0-0.1,0c0,0,0,0,0-0.1l0,0c0,0,0,0,0,0
			c0,0,0,0,0,0c0,0,0,0,0,0c0.1,0,0.1-0.1,0.1-0.1l0,0c0,0,0,0,0,0c0,0,0,0,0,0c0,0,0,0,0,0v0c0,0,0.1,0,0.1,0c0.1,0,0.2,0,0.3,0
			l0,0c-0.2,0-0.4,0-0.5-0.1h0c0,0,0,0,0,0s0,0,0,0c0,0,0,0,0,0c0-0.1,0.1-0.1,0.2-0.1c0.1,0,0.1,0,0.2,0h0c0,0,0,0,0.1,0
			c0,0,0,0,0,0l0,0H38c0,0,0,0,0.1,0h0h0.1c0,0,0,0,0,0h0v0c0,0,0-0.1,0-0.1v0c0,0,0,0,0,0c0,0,0,0,0,0c0,0,0,0,0,0c0,0,0,0,0,0
			c0.1-0.5,0.2-0.8,0.2-0.8c0.1-0.5,0.2-0.9,0.3-1.3v0c0,0,0,0,0,0c0.1-0.3,0.1-0.9,0.3-1.1c0,0,0-0.1,0-0.1c0-0.2,0.1-0.3,0.2-0.5
			c-0.1,0-0.5,0-0.7,0c0,0-0.1,0-0.1,0c0,0,0,0,0,0c0,0,0,0,0,0c0,0,0,0-0.1,0c0,0,0,0,0-0.1c0,0,0,0,0,0v0c0,0,0.1,0,0.1-0.1
			c0,0,0,0,0,0c0,0,0,0,0,0c0-0.1,0.1-0.1,0.1-0.1c0,0,0,0,0,0c0,0,0,0,0,0c-0.1,0-0.1,0-0.1,0c0,0,0,0,0,0c0,0,0,0,0,0
			c0,0,0,0,0.1,0h0v0h0.1c0,0,0,0,0,0v0c0,0,0,0,0,0l0,0c0,0,0,0,0,0c0,0,0,0,0,0c0,0,0,0,0,0h0c0,0,0,0,0,0c0,0,0,0,0,0
			c0-0.3,0.3-0.3,0.5-0.4c0,0,0,0,0.1,0c0.1,0,0.1,0,0.2,0c0,0,0.1,0,0.1,0c0,0,0,0,0,0c0,0,0,0,0.1,0c0,0,0.1,0,0.1,0
			c0,0,0,0,0.1,0h0.1c0,0,0.1,0,0.1,0c0,0,0,0,0,0c0,0,0,0,0,0v0c0.1,0,0.2,0.1,0.2,0.1c0,0,0,0,0,0c-0.1,0-0.3,0-0.5,0l0,0
			c0,0,0,0,0,0c0,0-0.1,0.1-0.1,0.1v0h-0.1c-0.1,0-0.1,0-0.2,0c0,0,0,0,0,0H39c0,0,0,0,0.1,0c0.2,0,0.4,0,0.7,0c0,0,0,0,0,0
			c0,0,0,0,0,0h0c0,0,0,0,0,0c0.2,0,0.5,0,0.8,0c0.2,0,0.5,0,0.5,0c0,0,0,0,0,0c0,0,0.4,0,0.5,0.1c0,0,0,0,0,0c0,0,0,0,0,0
			c0,0-0.1,0-0.1,0h0.1c0,0,0,0,0,0v0h0v0c0,0,0,0,0,0c0,0,0,0,0,0h0c0,0,0,0,0,0c0,0-0.1,0-0.1,0c0,0,0,0-0.1,0c0,0,0.1,0,0.1,0
			c0,0-0.1,0-0.1,0c-0.1,0-0.2,0-0.3,0c0,0,0,0,0,0c0.2,0.1,0.4,0.1,0.6,0.1c0,0,0,0,0,0h0v0h0.1c0,0,0,0,0,0v0c0,0,0,0,0,0l0,0
			c0,0,0,0,0,0c0,0,0,0,0,0c0,0,0,0,0,0h0c0,0,0,0,0,0c0,0,0,0,0,0c0-0.3,0.3-0.3,0.5-0.4c0,0,0,0,0.1,0c0.1,0,0.1,0,0.2,0
			c0,0,0.1,0,0.1,0c0,0,0,0,0,0c0,0,0,0,0.1,0c0,0,0.1,0,0.1,0c0,0,0,0,0.1,0h0.1c0,0,0.1,0,0.1,0c0,0,0,0,0,0c0,0,0,0,0,0v0
			c0.1,0,0.2,0.1,0.2,0.1c0,0,0,0,0,0c-0.1,0-0.3,0-0.5,0l0,0c0,0,0,0,0,0c0,0-0.1,0.1-0.1,0.1v0h-0.1c-0.1,0-0.1,0-0.2,0
			c0,0,0,0,0,0h-0.1c0,0,0,0,0.1,0c0.2,0,0.4,0,0.7,0c0,0,0,0,0,0c0,0,0,0,0,0h0c0,0,0,0,0,0c0.2,0,0.5,0,0.8,0c0.2,0,0.5,0,0.5,0
			c0,0,0,0,0,0c0,0,0.4,0,0.5,0.1c0,0,0,0,0,0c0,0,0,0,0,0c0,0-0.1,0-0.1,0h0.1c0,0,0,0,0,0v0h0v0c0,0,0,0,0,0c0,0,0,0,0,0h0
			c0,0,0,0,0,0c0,0-0.1,0-0.1,0c0,0,0,0-0.1,0c0,0,0.1,0,0.1,0c0,0-0.1,0-0.1,0c-0.1,0-0.2,0-0.3,0c0,0,0,0,0,0
			c0.2,0.1,0.4,0.1,0.6,0.1c0,0,0,0,0,0c0,0-0.1,0-0.1,0c0,0,0,0,0,0l0,0c0,0,0,0-0.1,0c0,0,0,0,0,0l0.1,0c0,0,0,0-0.1,0
			c0,0,0.2,0,0.2,0.1c-0.2,0-0.4-0.1-0.6-0.1C43.9,19.8,43.8,19.8,43.7,19.8L43.7,19.8C43.6,19.8,43.6,19.8,43.7,19.8z M42.2,24.3
			C42.2,24.3,42.2,24.3,42.2,24.3C42.2,24.3,42.2,24.3,42.2,24.3L42.2,24.3z M40.4,24.1c0-0.1,0.1-0.1,0.2-0.1h0.1c0,0-0.1,0-0.1,0
			v0C40.6,24.1,40.5,24.1,40.4,24.1C40.5,24.2,40.4,24.1,40.4,24.1z M41.4,19.7L41.4,19.7C41.3,19.7,41.3,19.7,41.4,19.7
			C41.4,19.7,41.4,19.7,41.4,19.7z M39.1,24.3C39.1,24.3,39.1,24.3,39.1,24.3C39.1,24.3,39.1,24.3,39.1,24.3L39.1,24.3z M39.2,19.2
			C39.2,19.2,39.2,19.2,39.2,19.2C39.2,19.2,39.2,19.2,39.2,19.2z M42.3,19.2C42.3,19.2,42.3,19.2,42.3,19.2
			C42.3,19.2,42.3,19.2,42.3,19.2z M44.5,19.7L44.5,19.7C44.4,19.7,44.4,19.7,44.5,19.7C44.5,19.7,44.5,19.7,44.5,19.7z M44.6,19.7
			C44.6,19.7,44.5,19.7,44.6,19.7c0,0,0,0,0.1,0C44.7,19.7,44.6,19.7,44.6,19.7z"/>
		<path d="M42.3,24.3C42.3,24.3,42.3,24.3,42.3,24.3L42.3,24.3C42.3,24.3,42.3,24.3,42.3,24.3z"/>
		<path d="M38.9,19.2C38.9,19.2,38.8,19.3,38.9,19.2l-0.1,0c0,0,0,0,0,0c0,0,0,0,0,0C38.8,19.3,38.9,19.3,38.9,19.2L38.9,19.2
			L38.9,19.2z"/>
		<path d="M41.9,24.2L41.9,24.2C42,24.2,42,24.1,41.9,24.2C41.9,24.1,41.9,24.1,41.9,24.2L41.9,24.2z"/>
		<polygon points="41.3,24.2 41.5,24.2 41.5,24.2 41.3,24.2 		"/>
		<path d="M41.5,23.9C41.5,23.8,41.5,23.8,41.5,23.9c0,0,0-0.1,0-0.1v0c0,0,0,0,0-0.1c0,0,0,0,0,0c0,0,0,0,0,0c0,0,0,0,0,0
			c0,0,0,0.1-0.1,0.1c0,0,0,0,0,0c0,0,0,0.1,0,0.1c0,0,0,0,0,0c0,0.1-0.1,0.3-0.1,0.4l0,0c0,0,0,0,0,0s0,0,0,0h0.1
			c0-0.1,0.1-0.3,0.1-0.4C41.6,23.7,41.6,23.8,41.5,23.9C41.6,23.8,41.6,23.8,41.5,23.9C41.6,23.8,41.5,23.8,41.5,23.9
			C41.5,23.8,41.6,23.8,41.5,23.9c0.1-0.4,0.2-0.8,0.3-1.1C41.7,22.8,41.6,23.5,41.5,23.9z"/>
		<path d="M41.3,24.3C41.3,24.3,41.3,24.4,41.3,24.3l0.2,0.1c0,0,0,0,0,0L41.3,24.3c0,0,0.1,0,0.2,0v0
			C41.4,24.3,41.3,24.3,41.3,24.3L41.3,24.3z"/>
		<path d="M41.2,24.4L41.2,24.4L41.2,24.4C41.2,24.4,41.2,24.4,41.2,24.4z"/>
		<path d="M41.9,24.3C41.9,24.3,41.9,24.3,41.9,24.3L41.9,24.3C41.8,24.4,41.8,24.4,41.9,24.3L41.9,24.3
			C41.9,24.4,41.9,24.3,41.9,24.3C41.9,24.3,41.9,24.3,41.9,24.3L41.9,24.3z"/>
	</g>
	<g>
		<text transform="matrix(1 0 0 1 36.2296 -6.5136)" fill="#C02227" font-family="'DHFDexsarBrush'" font-size="8px">II</text>
		<g>
			<text transform="matrix(1 0 0 1 28.566 -12.1887)" fill="#C02227" font-family="'DHFDexsarBrush'" font-size="16.5021px">G</text>
		</g>
		<g>
			<text transform="matrix(1 0 0 1 23.4072 -14.9767)" fill="#C02227" font-family="'DHFDexsarBrush'" font-size="16.5021px">T</text>
		</g>
	</g>
</g>
<g id="Layer_2" display="none">
	<rect display="inline" width="69.1" height="36"/>
	<g display="inline">
		<g>
			<path fill="#C02227" d="M38.2,24.2L38.2,24.2c0,0-0.1,0-0.1,0L38.2,24.2C38.2,24.1,38.2,24.1,38.2,24.2L38.2,24.2L38.2,24.2
				c0-0.1,0-0.2,0-0.2v0c0,0,0,0,0,0c0,0,0,0,0,0c0,0,0,0,0,0c0,0,0,0,0,0c0.1-0.5,0.2-0.8,0.2-0.8c0.1-0.5,0.2-0.9,0.3-1.3v0
				c0,0,0,0,0,0c0.1-0.3,0.1-0.9,0.3-1.1c0,0,0-0.1,0-0.1c0-0.2,0.1-0.3,0.2-0.5c-0.1,0-0.5,0-0.7,0c0,0-0.1,0-0.1,0c0,0,0,0,0,0
				c0,0,0,0,0,0c0,0,0,0-0.1,0c0,0,0,0,0-0.1c0,0,0,0,0,0v0c0,0,0.1,0,0.1-0.1c0,0,0,0,0,0c0,0,0,0,0,0c0-0.1,0.1-0.1,0.1-0.1
				c0,0,0,0,0,0c0,0,0,0,0,0c-0.1,0-0.1,0-0.1,0c0,0,0,0,0,0c0,0,0,0,0,0c0,0,0,0,0.1,0h0v0h0.1c0,0,0,0,0,0v0c0,0,0,0,0,0l0,0
				c0,0,0,0,0,0c0,0,0,0,0,0c0,0,0,0,0,0h0c0,0,0,0,0,0c0,0,0,0,0,0c0-0.3,0.3-0.3,0.5-0.4c0,0,0,0,0.1,0c0.1,0,0.1,0,0.2,0
				c0,0,0.1,0,0.1,0c0,0,0,0,0,0c0,0,0,0,0.1,0c0,0,0.1,0,0.1,0c0,0,0,0,0.1,0h0.1c0,0,0.1,0,0.1,0c0,0,0,0,0,0c0,0,0,0,0,0v0
				c0.1,0,0.2,0.1,0.2,0.1c0,0,0,0,0,0c-0.1,0-0.3,0-0.5,0l0,0c0,0,0,0,0,0c0,0-0.1,0.1-0.1,0.1v0h-0.1c-0.1,0-0.1,0-0.2,0
				c0,0,0,0,0,0H39c0,0,0,0,0.1,0c0.2,0,0.4,0,0.7,0c0,0,0,0,0,0c0,0,0,0,0,0h0c0,0,0,0,0,0c0.2,0,0.5,0,0.8,0c0.2,0,0.5,0,0.5,0
				c0,0,0,0,0,0c0,0,0.4,0,0.5,0.1c0,0,0,0,0,0c0,0,0,0,0,0c0,0-0.1,0-0.1,0h0.1c0,0,0,0,0,0v0c0,0,0,0,0,0h0c0,0,0,0,0,0
				c0,0-0.1,0-0.1,0c0,0,0,0-0.1,0c0,0,0.1,0,0.1,0c0,0-0.1,0-0.1,0c-0.1,0-0.2,0-0.3,0c0,0,0,0,0,0c0.2,0.1,0.4,0.1,0.6,0.1
				c0,0,0,0,0,0c0,0-0.1,0-0.1,0c0,0,0,0,0,0l0,0c0,0,0,0-0.1,0c0,0,0,0,0,0l0.1,0c0,0,0,0-0.1,0c0,0,0.2,0,0.2,0.1
				c-0.2,0-0.4-0.1-0.6-0.1c-0.1,0-0.2,0-0.4,0h0c0,0,0,0,0.1,0h0c0.1,0,0.2,0,0.3,0c0,0,0,0,0,0c0.1,0,0.3,0,0.5,0h0
				c0,0,0.1,0,0.1,0c0,0-0.1,0-0.1,0c-0.1,0-0.2,0-0.3,0c-0.2,0-0.3,0-0.5,0c0,0-0.1,0-0.1,0c0,0,0,0,0,0c0,0,0,0,0,0h-0.1
				c-0.1,0.4-0.3,0.7-0.4,1.1c0,0,0,0,0,0c0,0,0,0,0,0c0-0.4,0.2-0.7,0.3-1.1h0c0,0.1-0.1,0.2-0.1,0.4l0,0c-0.3,0.7-0.3,1.7-0.5,1.8
				c-0.2,0.6-0.4,1.3-0.6,1.9c0,0,0,0,0,0s0,0,0,0.1c0.2,0,0.5,0,0.7,0c0,0,0,0,0,0c0,0,0,0,0,0c0,0,0.1,0,0.1,0c0,0,0.1,0,0.1,0
				c0,0-0.1,0-0.1,0c-0.1,0-0.1,0-0.2,0c0,0,0.1,0,0.1,0c0,0-0.1,0-0.1,0c-0.1,0-0.1,0-0.2,0v0h0c0,0,0,0,0,0c0,0,0,0,0,0
				c0,0,0,0,0,0c0,0-0.1,0-0.1,0c0,0,0,0,0,0c0,0,0,0,0,0v0h-0.1v0.1c0,0,0,0,0,0.1h0.3c0.1,0,0.2,0,0.3,0c0.2,0,0.4,0,0.7,0
				c-0.4,0.1-0.9,0.1-1.3,0.1l0,0c0,0,0.1,0,0.2,0c0.1,0,0.1,0,0.2,0c0.4,0,0.7-0.1,1-0.1c-0.2,0.1-0.5,0.1-0.8,0.1c0,0,0.1,0,0.1,0
				c0.1,0,0.2,0,0.3,0l0,0c0,0,0,0,0.1,0c0,0,0,0,0,0c0,0-0.1,0-0.2,0c0,0,0,0,0,0c0,0-0.1,0-0.1,0c0,0,0,0,0.1,0c0,0,0.1,0,0.2,0
				l0,0l0.3-0.1c0,0,0,0,0,0h0.1c-0.1,0-0.1,0-0.2,0.1c0,0,0.1,0,0.1,0c-0.1,0.1-0.3,0.1-0.4,0.1c0,0,0,0,0,0c0,0,0.1,0,0.2,0
				c0,0.1-0.1,0-0.2,0.1h0c-0.3,0-0.6,0-0.9,0.1c0,0,0,0,0,0c0.1,0,0.1,0,0.2,0c0,0,0,0,0.1,0l0,0h0.1l0,0c0,0,0,0,0,0h0
				c0,0-0.1,0-0.1,0c0,0,0,0,0,0h-0.1c0,0,0,0,0.1,0c-0.1,0-0.2,0-0.4,0c-0.3,0-0.6,0-0.9-0.1v0c-0.4-0.1-0.6-0.2-0.6-0.4
				c0,0,0,0,0,0c0,0,0,0,0,0v0c0,0,0,0-0.1,0c0,0,0,0,0-0.1l0,0c0,0,0,0,0,0c0,0,0,0,0,0c0,0,0,0,0,0c0.1,0,0.1-0.1,0.1-0.1l0,0
				c0,0,0,0,0,0c0,0,0,0,0,0c0,0,0,0,0,0v0c0,0,0.1,0,0.1,0c0.1,0,0.2,0,0.3,0l0,0c-0.2,0-0.4,0-0.5-0.1h0c0,0,0,0,0,0s0,0,0,0
				c0,0,0,0,0,0c0-0.1,0.1-0.1,0.2-0.1c0.1,0,0.1,0,0.2,0h0c0,0,0,0,0.1,0c0,0,0,0,0,0l0,0H38c0,0,0,0,0.1,0h0c0,0-0.1,0-0.1,0
				c0,0,0,0,0,0C38,24.2,38.1,24.2,38.2,24.2C38.1,24.2,38.1,24.2,38.2,24.2L38.2,24.2z M37.6,24.1c0,0-0.1,0-0.1,0v0
				c0,0-0.1,0-0.1,0.1c0,0,0,0,0,0C37.4,24.1,37.4,24.1,37.6,24.1L37.6,24.1z M37.5,24.9C37.5,24.9,37.4,24.9,37.5,24.9
				C37.4,24.8,37.5,24.9,37.5,24.9z M37.6,24.9C37.6,24.9,37.6,24.9,37.6,24.9C37.6,24.9,37.6,24.9,37.6,24.9L37.6,24.9z M37.7,24.1
				C37.8,24.1,37.8,24.1,37.7,24.1C37.8,24.1,37.8,24.1,37.7,24.1z M38.1,24.4L38.1,24.4C38.1,24.4,38.1,24.4,38.1,24.4L38.1,24.4z
				 M38.3,24.4C38.4,24.4,38.4,24.3,38.3,24.4l-0.2,0C38.2,24.3,38.3,24.3,38.3,24.4l0-0.1c-0.1,0-0.2,0-0.2,0l0,0c0,0,0,0,0,0.1
				H38.3z M38.4,24.2L38.4,24.2l-0.2,0l0,0H38.4z M38.4,24.1c0-0.1,0.1-0.3,0.1-0.4c0,0,0,0,0,0c0-0.3,0.2-0.7,0.2-1
				c-0.1,0.1-0.2,0.8-0.3,1.1c0,0,0,0,0,0c0,0,0,0,0-0.1v0c0,0,0,0,0-0.1c0,0,0,0,0,0c0,0,0,0,0,0c0,0,0,0,0,0c0,0,0,0.1-0.1,0.1
				c0,0,0,0,0,0c0,0,0,0.1,0,0.1c0,0,0,0,0,0c0,0.1-0.1,0.3-0.1,0.4l0,0c0,0,0,0,0,0s0,0,0,0H38.4z M38.3,23.8
				C38.3,23.8,38.3,23.8,38.3,23.8C38.3,23.8,38.3,23.8,38.3,23.8L38.3,23.8z M38.4,23.5C38.4,23.5,38.4,23.5,38.4,23.5
				c0-0.1,0-0.1,0-0.1C38.4,23.4,38.4,23.5,38.4,23.5C38.4,23.5,38.4,23.5,38.4,23.5L38.4,23.5L38.4,23.5z M38.5,25
				C38.4,25,38.4,25,38.5,25C38.4,25,38.4,25,38.5,25C38.5,25,38.5,25,38.5,25C38.5,25,38.5,25,38.5,25z M38.5,23.8
				C38.5,23.8,38.5,23.8,38.5,23.8C38.5,23.8,38.5,23.8,38.5,23.8C38.5,23.8,38.5,23.8,38.5,23.8z M38.7,22.4
				C38.7,22.4,38.7,22.4,38.7,22.4c0-0.1,0-0.1,0-0.1c-0.1,0.1-0.1,0.5-0.2,0.7c0,0,0,0,0,0C38.6,22.8,38.6,22.6,38.7,22.4
				C38.7,22.4,38.7,22.4,38.7,22.4z M38.7,25L38.7,25C38.7,25,38.7,25,38.7,25L38.7,25z M38.8,24.3C38.8,24.3,38.8,24.3,38.8,24.3
				L38.8,24.3C38.8,24.4,38.7,24.4,38.8,24.3L38.8,24.3C38.8,24.4,38.8,24.3,38.8,24.3C38.8,24.3,38.8,24.3,38.8,24.3L38.8,24.3z
				 M38.9,19.2C38.9,19.2,38.8,19.3,38.9,19.2l-0.1,0c0,0,0,0,0,0c0,0,0,0,0,0C38.8,19.3,38.9,19.3,38.9,19.2L38.9,19.2L38.9,19.2z
				 M38.8,24.1L38.8,24.1L38.8,24.1C38.9,24.2,38.9,24.1,38.8,24.1C38.8,24.1,38.8,24.1,38.8,24.1z M38.9,24.1
				c0.2-0.5,0.4-1,0.4-1.5c-0.1,0.4-0.2,0.7-0.3,1.1c0,0,0,0,0,0.1c0,0.1,0,0.2-0.1,0.2c0,0,0,0,0,0c0,0,0,0,0,0
				C38.9,23.9,38.8,24,38.9,24.1L38.9,24.1z M38.9,23.8C38.9,23.8,38.9,23.8,38.9,23.8C38.9,23.8,38.9,23.8,38.9,23.8
				C38.9,23.8,38.9,23.8,38.9,23.8z M39.1,24.3C39.1,24.3,39.1,24.3,39.1,24.3C39.1,24.3,39.1,24.3,39.1,24.3L39.1,24.3z M39.2,19.2
				C39.2,19.2,39.2,19.2,39.2,19.2C39.2,19.2,39.2,19.2,39.2,19.2z M39.2,24.3L39.2,24.3C39.2,24.3,39.2,24.3,39.2,24.3
				C39.2,24.3,39.2,24.3,39.2,24.3z M39.3,24.9C39.3,24.9,39.3,24.9,39.3,24.9C39.3,24.9,39.3,24.9,39.3,24.9L39.3,24.9
				C39.2,24.9,39.2,24.9,39.3,24.9c0.1,0,0.3,0,0.4,0C39.6,24.9,39.5,24.9,39.3,24.9L39.3,24.9L39.3,24.9z M39.3,24.9
				C39.3,24.9,39.3,24.9,39.3,24.9C39.3,24.9,39.3,24.9,39.3,24.9L39.3,24.9C39.3,24.9,39.4,24.9,39.3,24.9
				C39.3,24.9,39.3,24.9,39.3,24.9z M39.4,24.9C39.4,24.9,39.4,24.9,39.4,24.9C39.4,24.9,39.4,24.9,39.4,24.9
				C39.4,24.9,39.4,24.9,39.4,24.9z M39.5,24.9C39.5,24.9,39.5,24.9,39.5,24.9C39.5,24.9,39.6,24.9,39.5,24.9
				C39.6,24.9,39.5,24.9,39.5,24.9z M39.6,25c0,0,0.1,0,0.2,0C39.7,25,39.6,25,39.6,25z M39.6,24.9C39.6,24.9,39.6,24.9,39.6,24.9
				C39.6,24.9,39.6,24.9,39.6,24.9z M39.6,24.9C39.6,24.9,39.6,24.9,39.6,24.9C39.6,24.9,39.6,24.9,39.6,24.9z M39.7,24.9L39.7,24.9
				C39.7,24.9,39.7,24.9,39.7,24.9C39.7,24.9,39.7,24.9,39.7,24.9z M39.8,24.8C39.8,24.8,39.8,24.8,39.8,24.8
				C39.8,24.8,39.8,24.8,39.8,24.8L39.8,24.8z M39.8,24.5C39.8,24.5,39.8,24.5,39.8,24.5C39.8,24.5,39.8,24.5,39.8,24.5z M39.9,24.8
				c0-0.1,0.1-0.1,0.2-0.1C40,24.8,40,24.8,39.9,24.8z M39.9,24.8C39.9,24.8,39.9,24.8,39.9,24.8C39.9,24.8,39.9,24.8,39.9,24.8z
				 M40,24.8c0,0,0,0,0.1,0C40.1,24.8,40,24.8,40,24.8z M40,24.7C40,24.7,40,24.7,40,24.7C40,24.7,40,24.7,40,24.7L40,24.7z
				 M40.9,19.8C40.9,19.8,40.9,19.8,40.9,19.8C40.9,19.8,40.9,19.8,40.9,19.8z M41.4,19.7L41.4,19.7C41.3,19.7,41.3,19.7,41.4,19.7
				C41.4,19.7,41.4,19.7,41.4,19.7z M41.4,19.5C41.4,19.5,41.4,19.5,41.4,19.5L41.4,19.5L41.4,19.5z M41.5,19.7
				C41.5,19.7,41.4,19.7,41.5,19.7c0,0,0,0,0.1,0C41.6,19.7,41.5,19.7,41.5,19.7z"/>
			<path fill="#C02227" d="M41.3,24.2L41.3,24.2c0,0-0.1,0-0.1,0L41.3,24.2C41.2,24.1,41.2,24.1,41.3,24.2L41.3,24.2L41.3,24.2
				c0-0.1,0-0.2,0-0.2v0c0,0,0,0,0,0c0,0,0,0,0,0c0,0,0,0,0,0c0,0,0,0,0,0c0.1-0.5,0.2-0.8,0.2-0.8c0.1-0.5,0.2-0.9,0.3-1.3v0
				c0,0,0,0,0,0c0.1-0.3,0.1-0.9,0.3-1.1c0,0,0-0.1,0-0.1c0-0.2,0.1-0.3,0.2-0.5c-0.1,0-0.5,0-0.7,0c0,0-0.1,0-0.1,0c0,0,0,0,0,0
				c0,0,0,0,0,0c0,0,0,0-0.1,0c0,0,0,0,0-0.1c0,0,0,0,0,0v0c0,0,0.1,0,0.1-0.1c0,0,0,0,0,0c0,0,0,0,0,0c0-0.1,0.1-0.1,0.1-0.1
				c0,0,0,0,0,0c0,0,0,0,0,0c-0.1,0-0.1,0-0.1,0c0,0,0,0,0,0c0,0,0,0,0,0c0,0,0,0,0.1,0h0v0h0.1c0,0,0,0,0,0v0c0,0,0,0,0,0l0,0
				c0,0,0,0,0,0c0,0,0,0,0,0c0,0,0,0,0,0h0c0,0,0,0,0,0c0,0,0,0,0,0c0-0.3,0.3-0.3,0.5-0.4c0,0,0,0,0.1,0c0.1,0,0.1,0,0.2,0
				c0,0,0.1,0,0.1,0c0,0,0,0,0,0c0,0,0,0,0.1,0c0,0,0.1,0,0.1,0c0,0,0,0,0.1,0h0.1c0,0,0.1,0,0.1,0c0,0,0,0,0,0c0,0,0,0,0,0v0
				c0.1,0,0.2,0.1,0.2,0.1c0,0,0,0,0,0c-0.1,0-0.3,0-0.5,0l0,0c0,0,0,0,0,0c0,0-0.1,0.1-0.1,0.1v0h-0.1c-0.1,0-0.1,0-0.2,0
				c0,0,0,0,0,0h-0.1c0,0,0,0,0.1,0c0.2,0,0.4,0,0.7,0c0,0,0,0,0,0c0,0,0,0,0,0h0c0,0,0,0,0,0c0.2,0,0.5,0,0.8,0c0.2,0,0.5,0,0.5,0
				c0,0,0,0,0,0c0,0,0.4,0,0.5,0.1c0,0,0,0,0,0c0,0,0,0,0,0c0,0-0.1,0-0.1,0h0.1c0,0,0,0,0,0v0c0,0,0,0,0,0h0c0,0,0,0,0,0
				c0,0-0.1,0-0.1,0c0,0,0,0-0.1,0c0,0,0.1,0,0.1,0c0,0-0.1,0-0.1,0c-0.1,0-0.2,0-0.3,0c0,0,0,0,0,0c0.2,0.1,0.4,0.1,0.6,0.1
				c0,0,0,0,0,0c0,0-0.1,0-0.1,0c0,0,0,0,0,0l0,0c0,0,0,0-0.1,0c0,0,0,0,0,0l0.1,0c0,0,0,0-0.1,0c0,0,0.2,0,0.2,0.1
				c-0.2,0-0.4-0.1-0.6-0.1c-0.1,0-0.2,0-0.4,0h0c0,0,0,0,0.1,0h0c0.1,0,0.2,0,0.3,0c0,0,0,0,0,0c0.1,0,0.3,0,0.5,0h0
				c0,0,0.1,0,0.1,0c0,0-0.1,0-0.1,0c-0.1,0-0.2,0-0.3,0c-0.2,0-0.3,0-0.5,0c0,0-0.1,0-0.1,0c0,0,0,0,0,0c0,0,0,0,0,0h-0.1
				c-0.1,0.4-0.3,0.7-0.4,1.1c0,0,0,0,0,0c0,0,0,0,0,0c0-0.4,0.2-0.7,0.3-1.1h0c0,0.1-0.1,0.2-0.1,0.4l0,0c-0.3,0.7-0.3,1.7-0.5,1.8
				c-0.2,0.6-0.4,1.3-0.6,1.9c0,0,0,0,0,0s0,0,0,0.1c0.2,0,0.5,0,0.7,0c0,0,0,0,0,0c0,0,0,0,0,0c0,0,0.1,0,0.1,0c0,0,0.1,0,0.1,0
				c0,0-0.1,0-0.1,0c-0.1,0-0.1,0-0.2,0c0,0,0.1,0,0.1,0c0,0-0.1,0-0.1,0c-0.1,0-0.1,0-0.2,0v0h0c0,0,0,0,0,0c0,0,0,0,0,0
				c0,0,0,0,0,0c0,0-0.1,0-0.1,0c0,0,0,0,0,0c0,0,0,0,0,0v0H42v0.1c0,0,0,0,0,0.1h0.3c0.1,0,0.2,0,0.3,0c0.2,0,0.4,0,0.7,0
				c-0.4,0.1-0.9,0.1-1.3,0.1l0,0c0,0,0.1,0,0.2,0c0.1,0,0.1,0,0.2,0c0.4,0,0.7-0.1,1-0.1c-0.2,0.1-0.5,0.1-0.8,0.1c0,0,0.1,0,0.1,0
				c0.1,0,0.2,0,0.3,0l0,0c0,0,0,0,0.1,0c0,0,0,0,0,0c0,0-0.1,0-0.2,0c0,0,0,0,0,0c0,0-0.1,0-0.1,0c0,0,0,0,0.1,0c0,0,0.1,0,0.2,0
				l0,0l0.3-0.1c0,0,0,0,0,0h0.1c-0.1,0-0.1,0-0.2,0.1c0,0,0.1,0,0.1,0c-0.1,0.1-0.3,0.1-0.4,0.1c0,0,0,0,0,0c0,0,0.1,0,0.2,0
				c0,0.1-0.1,0-0.2,0.1h0c-0.3,0-0.6,0-0.9,0.1c0,0,0,0,0,0c0.1,0,0.1,0,0.2,0c0,0,0,0,0.1,0l0,0h0.1l0,0c0,0,0,0,0,0h0
				c0,0-0.1,0-0.1,0c0,0,0,0,0,0h-0.1c0,0,0,0,0.1,0c-0.1,0-0.2,0-0.4,0c-0.3,0-0.6,0-0.9-0.1v0c-0.4-0.1-0.6-0.2-0.6-0.4
				c0,0,0,0,0,0c0,0,0,0,0,0v0c0,0,0,0-0.1,0c0,0,0,0,0-0.1l0,0c0,0,0,0,0,0c0,0,0,0,0,0c0,0,0,0,0,0c0.1,0,0.1-0.1,0.1-0.1l0,0
				c0,0,0,0,0,0c0,0,0,0,0,0c0,0,0,0,0,0v0c0,0,0.1,0,0.1,0c0.1,0,0.2,0,0.3,0l0,0c-0.2,0-0.4,0-0.5-0.1h0c0,0,0,0,0,0s0,0,0,0
				c0,0,0,0,0,0c0-0.1,0.1-0.1,0.2-0.1c0.1,0,0.1,0,0.2,0h0c0,0,0,0,0.1,0c0,0,0,0,0,0l0,0h0.1c0,0,0,0,0.1,0h0c0,0-0.1,0-0.1,0
				c0,0,0,0,0,0C41.1,24.2,41.2,24.2,41.3,24.2C41.2,24.2,41.2,24.2,41.3,24.2L41.3,24.2z M40.7,24.1c0,0-0.1,0-0.1,0v0
				c0,0-0.1,0-0.1,0.1c0,0,0,0,0,0C40.4,24.1,40.5,24.1,40.7,24.1L40.7,24.1z M40.6,24.9C40.6,24.9,40.5,24.9,40.6,24.9
				C40.5,24.8,40.6,24.9,40.6,24.9z M40.7,24.9C40.7,24.9,40.7,24.9,40.7,24.9C40.7,24.9,40.7,24.9,40.7,24.9L40.7,24.9z M40.8,24.1
				C40.8,24.1,40.8,24.1,40.8,24.1C40.9,24.1,40.8,24.1,40.8,24.1z M41.2,24.4L41.2,24.4C41.2,24.4,41.2,24.4,41.2,24.4L41.2,24.4z
				 M41.4,24.4C41.4,24.4,41.4,24.3,41.4,24.4l-0.2,0C41.3,24.3,41.4,24.3,41.4,24.4l0-0.1c-0.1,0-0.2,0-0.2,0l0,0c0,0,0,0,0,0.1
				H41.4z M41.5,24.2L41.5,24.2l-0.2,0l0,0H41.5z M41.5,24.1c0-0.1,0.1-0.3,0.1-0.4c0,0,0,0,0,0c0-0.3,0.2-0.7,0.2-1
				c-0.1,0.1-0.2,0.8-0.3,1.1c0,0,0,0,0,0c0,0,0,0,0-0.1v0c0,0,0,0,0-0.1c0,0,0,0,0,0c0,0,0,0,0,0c0,0,0,0,0,0c0,0,0,0.1-0.1,0.1
				c0,0,0,0,0,0c0,0,0,0.1,0,0.1c0,0,0,0,0,0c0,0.1-0.1,0.3-0.1,0.4l0,0c0,0,0,0,0,0s0,0,0,0H41.5z M41.4,23.8
				C41.4,23.8,41.4,23.8,41.4,23.8C41.4,23.8,41.4,23.8,41.4,23.8L41.4,23.8z M41.5,23.5C41.5,23.5,41.5,23.5,41.5,23.5
				c0-0.1,0-0.1,0-0.1C41.5,23.4,41.5,23.5,41.5,23.5C41.5,23.5,41.5,23.5,41.5,23.5L41.5,23.5L41.5,23.5z M41.6,25
				C41.5,25,41.5,25,41.6,25C41.5,25,41.5,25,41.6,25C41.6,25,41.6,25,41.6,25C41.6,25,41.6,25,41.6,25z M41.5,23.8
				C41.5,23.8,41.6,23.8,41.5,23.8C41.6,23.8,41.6,23.8,41.5,23.8C41.6,23.8,41.5,23.8,41.5,23.8z M41.8,22.4
				C41.8,22.4,41.8,22.4,41.8,22.4c0-0.1,0-0.1,0-0.1c-0.1,0.1-0.1,0.5-0.2,0.7c0,0,0,0,0,0C41.7,22.8,41.7,22.6,41.8,22.4
				C41.8,22.4,41.8,22.4,41.8,22.4z M41.8,25L41.8,25C41.8,25,41.8,25,41.8,25L41.8,25z M41.9,24.3C41.9,24.3,41.9,24.3,41.9,24.3
				L41.9,24.3C41.8,24.4,41.8,24.4,41.9,24.3L41.9,24.3C41.9,24.4,41.9,24.3,41.9,24.3C41.9,24.3,41.9,24.3,41.9,24.3L41.9,24.3z
				 M42,19.2C42,19.2,41.9,19.3,42,19.2l-0.1,0c0,0,0,0,0,0c0,0,0,0,0,0C41.9,19.3,42,19.3,42,19.2L42,19.2L42,19.2z M41.9,24.1
				L41.9,24.1L41.9,24.1C42,24.2,42,24.1,41.9,24.1C41.9,24.1,41.9,24.1,41.9,24.1z M42,24.1c0.2-0.5,0.4-1,0.4-1.5
				c-0.1,0.4-0.2,0.7-0.3,1.1c0,0,0,0,0,0.1c0,0.1,0,0.2-0.1,0.2c0,0,0,0,0,0c0,0,0,0,0,0C42,23.9,41.9,24,42,24.1L42,24.1z
				 M42,23.8C42,23.8,42,23.8,42,23.8C42,23.8,42,23.8,42,23.8C42,23.8,42,23.8,42,23.8z M42.2,24.3C42.2,24.3,42.2,24.3,42.2,24.3
				C42.2,24.3,42.2,24.3,42.2,24.3L42.2,24.3z M42.3,19.2C42.3,19.2,42.3,19.2,42.3,19.2C42.3,19.2,42.3,19.2,42.3,19.2z M42.3,24.3
				L42.3,24.3C42.3,24.3,42.3,24.3,42.3,24.3C42.3,24.3,42.3,24.3,42.3,24.3z M42.4,24.9C42.4,24.9,42.4,24.9,42.4,24.9
				C42.4,24.9,42.3,24.9,42.4,24.9L42.4,24.9C42.3,24.9,42.3,24.9,42.4,24.9c0.1,0,0.3,0,0.4,0C42.7,24.9,42.6,24.9,42.4,24.9
				L42.4,24.9L42.4,24.9z M42.4,24.9C42.4,24.9,42.4,24.9,42.4,24.9C42.4,24.9,42.4,24.9,42.4,24.9L42.4,24.9
				C42.4,24.9,42.4,24.9,42.4,24.9C42.4,24.9,42.4,24.9,42.4,24.9z M42.5,24.9C42.5,24.9,42.4,24.9,42.5,24.9
				C42.4,24.9,42.5,24.9,42.5,24.9C42.5,24.9,42.5,24.9,42.5,24.9z M42.6,24.9C42.6,24.9,42.6,24.9,42.6,24.9
				C42.6,24.9,42.6,24.9,42.6,24.9C42.6,24.9,42.6,24.9,42.6,24.9z M42.6,25c0,0,0.1,0,0.2,0C42.8,25,42.7,25,42.6,25z M42.7,24.9
				C42.7,24.9,42.7,24.9,42.7,24.9C42.7,24.9,42.7,24.9,42.7,24.9z M42.7,24.9C42.7,24.9,42.7,24.9,42.7,24.9
				C42.7,24.9,42.7,24.9,42.7,24.9z M42.8,24.9L42.8,24.9C42.8,24.9,42.8,24.9,42.8,24.9C42.8,24.9,42.8,24.9,42.8,24.9z M42.9,24.8
				C42.9,24.8,42.9,24.8,42.9,24.8C42.9,24.8,42.9,24.8,42.9,24.8L42.9,24.8z M42.9,24.5C42.9,24.5,42.9,24.5,42.9,24.5
				C42.9,24.5,42.9,24.5,42.9,24.5z M43,24.8c0-0.1,0.1-0.1,0.2-0.1C43.1,24.8,43.1,24.8,43,24.8z M43,24.8C43,24.8,43,24.8,43,24.8
				C43,24.8,43,24.8,43,24.8z M43.1,24.8c0,0,0,0,0.1,0C43.2,24.8,43.1,24.8,43.1,24.8z M43.1,24.7C43.1,24.7,43.1,24.7,43.1,24.7
				C43.1,24.7,43.1,24.7,43.1,24.7L43.1,24.7z M44,19.8C43.9,19.8,43.9,19.8,44,19.8C43.9,19.8,43.9,19.8,44,19.8z M44.5,19.7
				L44.5,19.7C44.4,19.7,44.4,19.7,44.5,19.7C44.5,19.7,44.5,19.7,44.5,19.7z M44.5,19.5C44.5,19.5,44.5,19.5,44.5,19.5L44.5,19.5
				L44.5,19.5z M44.6,19.7C44.6,19.7,44.5,19.7,44.6,19.7c0,0,0,0,0.1,0C44.7,19.7,44.6,19.7,44.6,19.7z"/>
		</g>
		<g>
			<g>
				<path fill="#C02227" d="M30.3,16.7c-0.2-0.6-0.1-1.1-0.2-1.7c0,0.1,0,0.3,0,0.5c0,0.3,0,0.6,0,0.8c0,0.3,0.3,1,0.3,1.1
					c0,0-0.1-0.1-0.2-0.3L30,16.7l0,0c-0.1-0.2-0.1-0.6-0.1-0.8c0-2.4,1.6-4.6,3.1-6.4c0.1-0.1,0.3-0.2,0.4-0.4
					c1.1-0.9,2.2-1.9,3.7-1.9c0.1,0,0.3,0,0.4,0.1c-0.1,0-0.1,0-0.2,0.1l0.1,0c0.3,0.1,0.7,0.1,0.9,0.3c0.6,0.5,0.6,0.5,0.6,0.6
					l0.7,0.9c-0.2,0-0.3-0.2-0.4-0.3c0.1,0.1,0.2,0.3,0.3,0.4c0.1,0.1,0.1,0.3,0.2,0.4c-0.1,0.1-0.1,0.1-0.2,0.1c-0.1,0-0.1,0-0.1,0
					c0,0,0,0,0,0.1c0,0.1,0.1,0.3,0.1,0.4L39,9.9v0c0,0.3,0.4,0.5,0.4,0.6c0,0,0,0,0,0.1c0,0,0.1,0.1,0.1,0.2c0,0,0,0,0,0
					c-0.1,0-0.4-0.2-0.7-0.4c0,0.1,0.2,0.3,0.2,0.4c0,0,0,0,0,0c-0.2,0-0.2-0.2-0.4-0.3v0c0,0,0,0,0,0l-0.2,0.2
					c0-0.2-0.3-0.6-0.5-0.6l0,0.2c0,0,0,0.1,0,0.1c0,0.1,0.1,0.2,0.1,0.2l0,0c0,0-0.1,0-0.1,0c-0.1,0-0.1-0.2-0.2-0.5
					C37.4,10.1,37.4,9,36.6,9c-0.7,0-3.4,2.8-3.6,3.3c-0.5,1-1.2,2-1.2,3.2c0,1.3,1,1.7,2,1.7c1.1,0,2-0.6,2.4-0.8l1-2.7L37,13.8v0
					c-0.7,0.2-1.8,0.3-2.4,0.7c0.6-0.1,1.9-0.5,1.9-0.5l-0.2,0.1c0,0,0,0,0,0v0c-0.3,0.2-2,0.6-2.3,0.8c0-0.1-0.1-0.1-0.1-0.2
					c0-0.1,0-0.1,0.1-0.2c0,0-0.1,0-0.1,0c-0.1,0-0.3,0.1-0.4,0.2c0,0,0,0,0-0.1h0c0.1-0.1,0.1-0.2,0.1-0.3c0-0.1,0-0.2,0-0.3
					c0,0,0.1,0,0.1,0s0,0,0,0s0,0,0.1,0h-0.1c-0.1,0-0.1,0-0.2-0.1c0.1,0,0.3,0,0.4-0.1c0,0-0.1,0-0.1-0.1v0c0,0,0,0,0,0h-0.1
					c0.2-0.2,0.2-0.2,0.3-0.2c0,0-0.1,0-0.1,0h0c0,0,0.1,0,0.2,0c0.1,0,0.3,0,0.4-0.1l-0.7,0.1l1.2-0.3c-0.4,0-0.7,0.2-1.1,0.2
					c-0.1,0-0.1-0.1-0.1-0.1c0,0,0-0.1,0.1-0.1c0.1,0,0.2,0,0.3,0c1.4,0,2.8-0.8,4.3-1c0.2,0,0.4,0,0.5-0.1c0,0,0.1,0,0.1,0
					c0,0,0,0,0.1,0l0.6-0.1c0.1,0,0.1,0,0.2,0c0.2,0,0.4-0.1,0.6-0.1h0.1c0,0-0.4,0.2-0.4,0.2c0.2,0,0.4-0.1,0.6-0.1
					c0,0,0.1,0,0.2,0c-0.4,0.1-0.5,0.2-0.5,0.2c0,0,0,0,0,0c0,0,0,0,0.1,0v0c0,0,0.1,0,0.1,0.1c0,0-0.6,0-0.7,0.1c0,0,0,0,0,0
					c0.1,0,0.1,0,0.2,0c0,0,0,0,0,0s0,0,0,0h0c0,0,0,0,0,0c0,0.1-0.3,0.1-0.7,0.2c0,0,0,0,0,0c-0.1,0-0.2,0-0.3,0.1l0.5,0
					c0,0,0.1,0,0.1,0c0,0-0.2,0.1-0.3,0.1c0,0,0,0,0.1,0c0.1,0,0.2-0.1,0.3-0.1c0,0,0,0,0,0c0,0.1-0.5,0.2-0.6,0.3h0.2
					c0,0,0.2,0,0.3,0c0,0,0.1,0,0.1,0s0,0,0,0L39,13.3c-0.5,0.9-0.9,1.9-1.2,2.9l1.2-2.7c0.1-0.1,0.2-0.2,0.2-0.2v0l0,0.1
					c-0.1,0.3-0.2,0.6-0.3,0.9c-0.3,0.8-0.4,1-0.4,1.2L38,16.5c0,0.6-0.4,1.4-0.5,1.6l-0.4,1.6L37,20.5c0,0-0.1,0-0.1-0.1
					c0-0.2,0.1-0.6,0.1-0.6l-0.3,0.8l-0.1-0.2c0,0-0.1,0-0.1,0c-0.3,0-0.4-0.1-0.4-0.2c0,0,0-0.1,0-0.1c0-0.1-0.2-0.1-0.3-0.1
					l-0.1-0.1c-0.1,0.1-0.1,0.2-0.2,0.2c0,0,0,0,0,0c0,0,0.1-0.1,0.1-0.1c0,0,0-0.1,0-0.1c0,0,0,0,0,0s0,0,0,0l-0.1-0.5
					c-0.1,0-0.1-0.1-0.1-0.1c0-0.1,0.1-0.3,0.2-0.5c0,0,0,0,0,0c0.1-0.1,0-0.3,0.1-0.4l0-0.1c0,0.1-0.1,0.2-0.2,0.2
					c-1.1,0.4-1.5,0.4-1.8,0.4c-0.8,0-1.6-0.3-2.2-0.7C30.8,17.8,30.7,17.6,30.3,16.7z M30.2,14.7c0.5-1,0.7-1.5,0.7-1.6
					c0,0-0.1,0.1-0.2,0.2l0.2-0.3l-0.2,0.2L30.2,14.7z M30.3,15.6C30.3,15.6,30.3,15.6,30.3,15.6c0,0.1,0,0.3,0.1,0.4L30.3,15.6z
					 M30.6,15.4L30.6,15.4L30.6,15.4c-0.1,0.1,0,0.2,0,0.3V15.4z M30.6,15.3C30.6,15.2,30.5,15.2,30.6,15.3L30.6,15.3
					C30.5,15.3,30.5,15.3,30.6,15.3C30.5,15.3,30.6,15.3,30.6,15.3z M31,12.9L31,12.9c0,0,0.2-0.2,0.2-0.4
					C31.2,12.6,31,12.8,31,12.9z M31.6,15.6l0-0.4c0,0,0-0.1,0-0.1c0-0.1,0-0.1,0-0.2c0,0,0,0,0-0.1c0,0,0,0.1-0.1,0.1l0,0.5
					L31.6,15.6z M31.6,15.6C31.6,15.6,31.6,15.5,31.6,15.6C31.6,15.6,31.6,15.6,31.6,15.6c0,0.1,0,0.2,0,0.2V15.6z M33.7,9.3
					L32.8,10c-0.4,0.3-1,1.3-1,1.4c0,0,0.2-0.2,0.6-0.7C32.8,10.3,33.2,9.8,33.7,9.3z M32.2,14.3c0-0.5,0.4-0.9,0.5-1.3h0
					c0.2-0.3,0.3-0.5,0.4-0.5v0C33.1,12.6,32.3,14,32.2,14.3L32.2,14.3z M33.8,9.1c-0.1,0.1-0.4,0.2-0.4,0.2c0,0,0,0,0,0.1L33.8,9.1
					z M35.6,17.7c-0.3,0.2-0.6,0.4-0.9,0.5l-0.8,0.3c0,0,0.1,0,0.1,0C34.7,18.5,35.4,17.9,35.6,17.7L35.6,17.7z M36.6,7.6
					c0.1,0,0.1,0,0.2,0c0,0,0,0,0.1,0C36.8,7.5,36.7,7.5,36.6,7.6c-1.2-0.1-2.7,1.4-2.7,1.5c0,0,0,0,0,0C34.1,8.7,36.2,7.6,36.6,7.6
					z M34.3,18.7c0.1,0,0.1,0,0.2-0.1C34.4,18.6,34.4,18.6,34.3,18.7z M35.1,18.3c0.1,0,0.4-0.2,0.4-0.4l-0.6,0.4h0
					C35,18.4,35,18.3,35.1,18.3L35.1,18.3z M35.5,17.8c-0.1,0-0.1,0.1-0.2,0.1L35.5,17.8C35.5,17.9,35.5,17.9,35.5,17.8L35.5,17.8z
					 M36.9,7.5l0.1,0C37,7.5,37,7.5,36.9,7.5C36.9,7.5,36.8,7.5,36.9,7.5C36.9,7.5,36.9,7.5,36.9,7.5z M38.8,14.9l0.6-1.6l0.1,0.1
					c0,0.2-0.1,0.3-0.1,0.4c0,0-0.4,0.9-0.4,0.9L38.8,14.9z"/>
			</g>
		</g>
		<g>
			<g>
				<path fill="#C02227" d="M28.1,15C28.1,15,28.1,15,28.1,15L28.1,15c0-0.1,0.1-0.2,0.1-0.3c-0.2,0.3-0.3,0.7-0.4,1l-0.3,0.6
					c-0.1,0.2-0.2,0.4-0.3,0.6c0-0.1,0.1-0.2,0.1-0.3l0,0c0,0,0.1-0.1,0.1-0.1c-0.2,0.2-0.2,0.4-0.4,0.6c0-0.1,0.1-0.3,0.1-0.4
					c0,0,0,0.1-0.1,0.1L26.9,17c0,0,0,0,0,0c0,0,0,0,0,0v0c-0.1,0.1-0.2,0.4-0.2,0.4c0,0,0,0,0,0c0,0,0,0-0.1,0.1
					c0-0.3,0.1-0.4,0.2-0.7c0.2-0.7,0.2-1.1,0.3-1.5c0,0-0.1-0.1-0.1-0.2l0-0.1c0,0,0-0.1,0-0.1c0,0,0,0,0,0c0,0,0,0,0-0.1l0,0
					L27,14.7c-0.1,0.5-0.4,1-0.5,1.5c0,0,0,0,0-0.1c0-0.2,0.2-0.5,0.3-0.7c0,0,0,0,0,0c0-0.1,0.1-0.2,0.1-0.3v0c0,0,0,0,0,0
					c0,0,0,0,0,0c0,0,0,0,0,0v0c0.1-0.3,0-0.6,0.2-0.9v-0.1c0,0,0-0.1,0-0.1c1.6-5.6,0.7-2.5,1.9-7.4c-0.2,0-0.4,0-0.6,0
					c-0.9,0-1.8-0.1-2.1-0.3v0C26.1,6,25.9,6,25.9,5.9c0,0,0,0,0,0h0c0,0,0,0,0,0c0,0,0,0,0,0l0.1,0v0c0-0.1-0.1,0-0.1-0.1
					c0,0,0,0,0,0v0c0,0,0,0,0,0c0,0,0,0,0-0.1c0,0,0,0,0.1,0c0,0,0,0,0,0c0,0-0.1,0-0.1,0c0,0,0,0,0,0c0,0-0.1,0-0.1,0c0,0,0,0,0,0
					c0,0,0,0,0,0v0c0,0,0,0,0,0c0,0,0.1-0.1,0.1-0.1h0c0-0.1-0.1-0.1-0.1-0.1c0,0,0,0,0,0c0,0,0.1,0,0.1,0c0-0.1-0.1,0-0.1,0l0,0
					c0,0,0,0,0,0c0,0,0,0,0,0c0,0,0,0,0-0.1l0-0.1c0.1,0,0.1,0,0.2,0c0.1,0,0.1,0,0.2,0c-0.1-0.1-0.3,0-0.4-0.1h0c0,0,0.1,0,0.1,0
					c0,0-0.2,0-0.2,0c0,0,0,0,0,0c0,0,0,0,0,0c0.4,0,0.7-0.3,1.1-0.3h2.2c0.3,0,0.5,0,0.8,0c0,0-0.1,0-0.1,0c-0.8,0.1-2,0.1-2.8,0.1
					c0,0.1,0.3,0.1,0.6,0.1c0.3,0,0.6,0,0.8,0c0.1,0,0.2,0,0.3,0s0.2,0,0.2,0l1-0.1c0.3,0,0.7,0,1-0.1h0.1c0,0,0,0,0,0v0
					c0.5,0,1.1-0.1,1.6-0.1c0.3,0,0.6,0,0.8,0c0.1,0,0.3,0,0.5,0c0.5,0,1.3,0.1,1.5,0.1c0,0-0.1,0-0.1,0c-0.6,0-1.2-0.1-1.8-0.1
					c-0.6,0-1.3,0-2,0.1c0.1,0,0.1,0,0.2,0c0.5,0,1-0.1,1.5-0.1h0.1c0,0-0.1,0-0.1,0c0.6,0,1.3,0,1.9,0.1c0,0-0.1,0-0.1,0
					c-0.1,0-0.1,0-0.2,0c0,0-0.1,0-0.1,0v0h-0.1c0.2,0.1,0.5,0,0.7,0.1c-0.1,0-0.2,0-0.2,0H35c0,0,0,0,0,0c0,0,0,0,0,0c0,0,0,0,0,0
					c0,0,0.3,0,0.3,0c0,0-0.1,0-0.1,0c0.1,0,0.3,0.1,0.3,0.1l0,0c0,0,0,0,0.1,0c-0.2,0.1-0.5,0.4-0.7,0.4h-0.3c0,0,0,0,0,0l-0.9,0
					c-0.2,0-0.3,0-0.4,0.1c0,0,0,0,0,0c-0.4,0.1-0.9,0-1.4,0.1c0,0,0,0,0,0c0,0,0.3,0,0.4-0.1c0.1,0,0.1,0,0.2,0
					c0.3,0,0.6-0.1,0.9-0.1c-0.1,0-0.2,0-0.2,0c0,0,0,0,0,0c0,0,0,0,0,0c-0.2,0.1-0.1,0-0.1,0.1c0,0,0,0,0,0c-0.1,0,0,0,0,0
					c0.3,0,0.1-0.1,0.5,0c0.4,0,0.7,0,1.1,0c0,0,0,0-0.1,0c-0.9,0.1-1.9,0.2-2.9,0.4c-0.1,0-0.2,0-0.4,0h-0.1L31,6.3
					c-0.1,0.2-0.1,0.4-0.2,0.6c-0.2,0.7-0.4,1.1-0.6,1.8c0.1-0.8,0.4-1.4,0.6-2.3c0,0,0,0.1-0.1,0.1l-0.2,0.8c0,0.2-0.1,0.4-0.1,0.6
					v0c-0.1,0.4-0.4,2-0.7,3.1l-0.4,1.3c0,0,0,0,0,0h0c-0.2,0.7-0.4,1.5-0.7,2.2c-0.1,0.3-0.3,0.6-0.4,0.8l0,0.2
					c-0.1,0.3-0.3,0.5-0.4,0.8l-0.2,0.3l-0.3,0.6c0,0,0,0,0-0.1c0-0.1,0-0.1,0.1-0.2l0.3-0.6C27.8,15.9,28,15.5,28.1,15
					C28.1,15,28.1,15,28.1,15z M26.9,14.9C26.9,14.9,26.9,14.9,26.9,14.9L26.9,14.9L26.9,14.9z M26.9,14.7
					C26.9,14.7,26.9,14.7,26.9,14.7C26.9,14.7,26.9,14.7,26.9,14.7z M27,14.2C27,14.2,27,14.2,27,14.2L27,14.2l0-0.2
					C27,14.1,27,14.2,27,14.2C27,14.3,27,14.2,27,14.2l0,0.1C27,14.3,27,14.3,27,14.2c-0.1,0.1-0.1,0.1-0.1,0.1c0,0,0,0,0,0l0.1,0
					l0-0.1l0,0c0-0.1,0.1-0.2,0.1-0.2C27.1,14.1,27.1,14.2,27,14.2z M27,14.3C27,14.3,27,14.3,27,14.3L27,14.3z M27,14.1L27,14.1
					C27,14.2,27,14.2,27,14.1L27,14.1z M27.1,13.9C27.1,13.9,27,14,27.1,13.9L27.1,13.9C27,14,27.1,14,27.1,13.9L27.1,13.9z
					 M27.1,14.1C27.1,14.1,27,14.1,27.1,14.1C27,14.1,27,14.1,27.1,14.1L27.1,14.1z M27.1,13.9L27.1,13.9
					C27.1,13.9,27.1,13.9,27.1,13.9C27.1,13.9,27.1,13.9,27.1,13.9C27.1,13.9,27.1,13.9,27.1,13.9z M27.1,13.8
					C27.1,13.8,27.1,13.8,27.1,13.8C27.1,13.8,27.1,13.7,27.1,13.8C27.1,13.7,27.1,13.7,27.1,13.8z M27.1,13.9L27.1,13.9
					C27.1,13.9,27.1,13.9,27.1,13.9L27.1,13.9z M27.4,12.8L27.4,12.8c0-0.1,0-0.1,0-0.2c-0.1,0-0.2,0.8-0.3,1c0,0,0,0,0,0
					C27.2,13.6,27.4,12.9,27.4,12.8C27.4,12.8,27.4,12.8,27.4,12.8z M27.3,13.7L27.3,13.7c-0.1,0.2-0.1,0.5-0.2,0.7h0
					c0.1-0.4,0.3-0.9,0.3-1.1C27.5,13.2,27.3,13.5,27.3,13.7z M28.1,15L28.1,15C28.1,15,28.1,15,28.1,15L28.1,15z M28.3,14.6l0,0.2
					c0.2-0.6,0.5-1.2,0.6-1.8C28.6,13.5,28.5,14.1,28.3,14.6z M31.3,5.9C31.3,6,31.2,6,31.3,5.9l-0.1,0C31.2,6,31.2,6,31.3,5.9
					c-0.1,0,0.8,0,0.8-0.1v0c-0.2,0-0.4,0.1-0.6,0.1H31.3z M32.2,5.9C32.2,5.9,32.2,5.9,32.2,5.9C32.2,5.9,32.2,5.9,32.2,5.9
					C32.1,5.9,32.2,5.9,32.2,5.9z M32.3,5.9C32.3,5.9,32.3,5.9,32.3,5.9C32.3,5.9,32.3,5.8,32.3,5.9C32.3,5.8,32.3,5.8,32.3,5.9
					C32.3,5.9,32.3,5.9,32.3,5.9z M32.3,5.8L32.3,5.8C32.3,5.8,32.3,5.8,32.3,5.8L32.3,5.8z M32.4,5.9C32.4,5.9,32.4,5.9,32.4,5.9
					C32.4,5.8,32.4,5.8,32.4,5.9C32.4,5.9,32.4,5.9,32.4,5.9z M32.5,5.8C32.5,5.8,32.5,5.8,32.5,5.8C32.5,5.8,32.5,5.8,32.5,5.8
					C32.5,5.8,32.5,5.8,32.5,5.8z M32.8,5.7c0,0-0.2,0-0.2,0c0,0,0,0,0,0h0l-0.2,0c0,0,0,0,0,0c0,0,0,0,0,0
					C32.6,5.8,32.7,5.8,32.8,5.7C32.8,5.8,32.8,5.8,32.8,5.7C32.8,5.8,32.7,5.8,32.8,5.7z M33.2,5.8C33.2,5.8,33.2,5.8,33.2,5.8
					C33.2,5.8,33.2,5.8,33.2,5.8C33.2,5.8,33.2,5.8,33.2,5.8L33.2,5.8z M34.8,4.6C34.8,4.6,34.8,4.6,34.8,4.6L34.8,4.6L34.8,4.6z"/>
			</g>
		</g>
	</g>
</g>
</svg>
