<?xml version="1.0" encoding="utf-8"?>
<!-- Generator: Adobe Illustrator 19.1.0, SVG Export Plug-In . SVG Version: 6.00 Build 0)  -->
<!DOCTYPE svg PUBLIC "-//W3C//DTD SVG 1.1//EN" "http://www.w3.org/Graphics/SVG/1.1/DTD/svg11.dtd">
<svg version="1.1" id="Layer_1" xmlns="http://www.w3.org/2000/svg" xmlns:xlink="http://www.w3.org/1999/xlink" x="0px" y="0px"
	 viewBox="0 0 69.1 36" enable-background="new 0 0 69.1 36" xml:space="preserve">
<g display="none">
	<g display="inline">
		<path fill="#C02327" d="M28.4,13.9C28.4,13.9,28.4,13.9,28.4,13.9L28.4,13.9c0-0.2,0.1-0.2,0.1-0.3c-0.2,0.4-0.3,0.8-0.5,1.2
			l-0.3,0.7c-0.1,0.2-0.2,0.5-0.3,0.7c0-0.1,0.1-0.2,0.2-0.4l0,0c0,0,0.1-0.1,0.1-0.2c-0.2,0.2-0.3,0.5-0.4,0.7
			c0-0.1,0.2-0.4,0.2-0.5c0,0-0.1,0.1-0.1,0.1L27,16.3c0,0,0,0,0,0s0,0,0-0.1v0c-0.1,0.1-0.3,0.5-0.3,0.5c0,0,0,0-0.1,0
			c-0.1,0,0,0.1-0.1,0.1c0.1-0.4,0.1-0.5,0.2-0.9c0.2-0.8,0.2-1.2,0.3-1.7c-0.1,0-0.1-0.1-0.1-0.2l0-0.1c0-0.1,0-0.1,0.1-0.2
			c0,0,0,0,0,0c0,0,0-0.1,0.1-0.1l0-0.1L27,13.5c-0.1,0.6-0.4,1.2-0.6,1.7c0,0,0-0.1,0-0.1c0-0.3,0.2-0.6,0.3-0.8c0,0,0,0-0.1,0
			c0-0.1,0.1-0.2,0.1-0.3v0c0,0,0-0.1,0-0.1c0,0,0,0,0-0.1c0,0,0,0,0,0v0c0.2-0.3,0-0.7,0.2-1.1v-0.2c0-0.1,0.1-0.1,0.1-0.2
			c1.9-6.5,0.8-2.9,2.3-8.7c-0.2,0-0.4,0-0.7,0c-1,0-2.1-0.1-2.4-0.3v0c-0.1-0.1-0.4-0.1-0.4-0.2c0,0,0,0,0,0h0.1c0,0-0.1,0-0.1-0.1
			c0,0,0,0,0,0L26,3.2v0c0-0.1-0.1-0.1-0.1-0.2c0,0,0,0,0,0v0c0,0,0,0,0,0c0,0-0.1-0.1-0.1-0.1c0,0,0.1,0,0.1,0c0,0,0,0,0.1,0
			c0,0-0.1,0-0.1,0c0,0,0,0,0-0.1c0,0-0.1,0-0.1,0c0,0,0,0,0,0c0,0,0,0,0.1,0v0c0,0,0,0,0,0c0,0,0.1-0.1,0.1-0.1h0
			c0-0.1-0.1-0.1-0.1-0.1c0,0,0,0,0,0c0,0,0.1,0,0.1,0c0-0.1-0.1-0.1-0.2-0.1l0,0c0,0,0,0,0.1,0c0,0,0.1,0,0.1,0s0,0-0.1-0.1l0-0.1
			c0.1,0,0.2,0,0.2,0c0.1,0,0.1,0,0.2,0c-0.1-0.1-0.3,0-0.4-0.1h0c0.1,0,0.1,0,0.1,0c0,0-0.2,0-0.2,0c0,0,0,0,0,0c0,0,0,0,0,0
			c0.4,0,0.8-0.3,1.2-0.3h2.5c0.3,0,0.6,0,0.9,0c0,0-0.1,0-0.1,0c-0.9,0.2-2.3,0.1-3.3,0.2c0,0.1,0.3,0.1,0.7,0.1c0.3,0,0.7,0,0.9,0
			c0.1,0,0.2,0,0.3,0s0.3-0.1,0.3-0.1l1.2-0.1c0.4,0,0.8-0.1,1.2-0.1H32c0,0,0,0,0,0v0c0.6,0,1.2-0.1,1.9-0.1c0.3,0,0.7,0,1,0
			c0.2,0,0.3-0.1,0.5-0.1c0.6,0,1.5,0.1,1.7,0.2c-0.1,0-0.1,0-0.2,0c-0.7,0-1.4-0.1-2.1-0.1c-0.7,0-1.6,0-2.3,0.1c0.1,0,0.2,0,0.2,0
			c0.6,0,1.2-0.1,1.7-0.1h0.1c-0.1,0-0.1,0-0.2,0c0.7,0,1.5,0,2.2,0.1c0,0-0.1,0-0.1,0c-0.1,0-0.1,0-0.2,0c0,0-0.1,0-0.1,0v0h-0.1
			c0.2,0.1,0.6,0,0.8,0.1c-0.1,0-0.2,0-0.3,0h-0.1c0,0,0,0,0,0c0,0-0.1,0-0.1,0c0,0,0,0-0.1,0c0,0.1,0.3,0,0.4,0
			c0,0.1-0.1,0-0.1,0.1C36.7,2.1,37,2.2,37,2.2l0,0c0,0,0.1,0,0.1,0c-0.2,0.1-0.6,0.4-0.8,0.5h-0.4c0,0,0,0,0,0l-1.1,0
			c-0.2,0-0.3,0-0.5,0.1c0,0,0,0,0,0C33.7,3,33.2,3,32.6,3.1c0,0,0,0.1,0.1,0.1c0,0,0.3,0,0.4-0.1c0.1,0,0.2,0,0.2,0
			c0.3,0,0.7-0.1,1.1-0.1c-0.1,0-0.2,0.1-0.2,0.1c0,0,0,0-0.1,0c0,0,0,0-0.1,0c-0.3,0.1-0.1,0-0.2,0.1c0,0,0,0-0.1,0
			c-0.1,0,0,0,0.1,0c0.3,0.1,0.1-0.1,0.6-0.1c0.4,0,0.8,0,1.2-0.1c0,0,0,0.1-0.1,0.1c-1.1,0.1-2.3,0.2-3.4,0.4c-0.1,0-0.2,0-0.4,0
			h-0.2l0.2,0.1c-0.1,0.2-0.2,0.5-0.2,0.7c-0.2,0.8-0.5,1.3-0.7,2.1c0.2-1,0.4-1.7,0.7-2.7c0,0,0,0.2-0.1,0.2l-0.3,1
			C31.1,5.2,31,5.4,31,5.7v0c-0.1,0.5-0.5,2.3-0.8,3.6l-0.5,1.5c0,0,0,0,0,0h-0.1c-0.3,0.9-0.4,1.7-0.8,2.6c-0.1,0.3-0.3,0.7-0.4,1
			l0,0.2c-0.1,0.3-0.3,0.6-0.5,0.9l-0.2,0.4l-0.3,0.7c0,0,0-0.1,0-0.1c0-0.1,0.1-0.2,0.1-0.3l0.3-0.7C28,14.9,28.2,14.5,28.4,13.9
			C28.4,13.9,28.4,13.9,28.4,13.9z M27,13.7C26.9,13.7,26.9,13.7,27,13.7L27,13.7L27,13.7z M27,13.5C27,13.5,27,13.6,27,13.5
			C27,13.6,27,13.5,27,13.5z M27.1,13C27.1,13,27.1,12.9,27.1,13L27.1,13l0-0.2C27.1,12.9,27.1,13,27.1,13C27.1,13,27.1,13,27.1,13
			l-0.1,0.1c0,0,0,0,0,0c0,0,0,0.1,0,0.1c0,0,0,0,0,0.1l0.1,0l0-0.1l0.1,0c0-0.1,0.1-0.2,0.1-0.3C27.2,12.9,27.2,12.9,27.1,13z
			 M27,13.1C27,13.1,27.1,13.1,27,13.1L27,13.1z M27.1,12.8L27.1,12.8C27.1,12.9,27.1,12.9,27.1,12.8L27.1,12.8z M27.2,12.6
			C27.2,12.6,27.1,12.7,27.2,12.6L27.2,12.6C27.1,12.7,27.2,12.7,27.2,12.6L27.2,12.6z M27.2,12.8C27.2,12.8,27.1,12.8,27.2,12.8
			C27.1,12.8,27.1,12.8,27.2,12.8L27.2,12.8z M27.2,12.5L27.2,12.5C27.2,12.5,27.2,12.6,27.2,12.5C27.2,12.6,27.2,12.6,27.2,12.5
			C27.2,12.6,27.2,12.6,27.2,12.5z M27.2,12.5C27.2,12.5,27.2,12.5,27.2,12.5c0,0,0.1-0.1,0.1-0.1C27.2,12.4,27.2,12.4,27.2,12.5z
			 M27.3,12.6L27.3,12.6C27.3,12.5,27.2,12.5,27.3,12.6L27.3,12.6z M27.6,11.3L27.6,11.3c0-0.1,0.1-0.2,0.1-0.2
			c-0.1,0-0.3,0.9-0.4,1.2c0,0,0,0.1,0.1,0.1C27.3,12.3,27.5,11.4,27.6,11.3C27.6,11.3,27.6,11.3,27.6,11.3z M27.5,12.3L27.5,12.3
			c-0.1,0.3-0.2,0.5-0.2,0.8h0.1c0.2-0.5,0.4-1,0.4-1.3C27.6,11.8,27.5,12.2,27.5,12.3z M28.4,13.9L28.4,13.9
			C28.4,13.9,28.4,13.9,28.4,13.9L28.4,13.9z M28.6,13.4l-0.1,0.2c0.3-0.7,0.6-1.4,0.7-2.1C29,12.2,28.8,12.9,28.6,13.4z M32.1,3.3
			C32.1,3.3,32,3.3,32.1,3.3l-0.2,0C31.9,3.4,32,3.4,32.1,3.3C32,3.4,33,3.3,33,3.3v0c-0.2,0-0.5,0.1-0.7,0.1
			C32.3,3.3,32.1,3.3,32.1,3.3z M33.1,3.3C33.2,3.3,33.2,3.3,33.1,3.3C33.2,3.3,33.1,3.3,33.1,3.3C33.1,3.3,33.1,3.3,33.1,3.3z
			 M33.3,3.3C33.3,3.3,33.3,3.3,33.3,3.3C33.3,3.2,33.3,3.2,33.3,3.3C33.2,3.2,33.2,3.2,33.3,3.3C33.2,3.3,33.2,3.3,33.3,3.3z
			 M33.3,3.2L33.3,3.2C33.3,3.2,33.2,3.2,33.3,3.2L33.3,3.2z M33.4,3.3C33.4,3.3,33.4,3.2,33.4,3.3C33.4,3.2,33.3,3.2,33.4,3.3
			C33.3,3.3,33.3,3.3,33.4,3.3z M33.5,3.2C33.5,3.2,33.5,3.2,33.5,3.2C33.5,3.2,33.4,3.2,33.5,3.2C33.5,3.2,33.5,3.2,33.5,3.2z
			 M33.8,3.1c-0.1,0-0.2,0-0.3,0c0,0,0,0,0.1,0h0.1l-0.2,0.1c0,0,0,0,0.1,0c0,0,0,0,0.1,0c0.1-0.1,0.2-0.1,0.2,0
			C33.8,3.2,33.8,3.2,33.8,3.1C33.8,3.2,33.7,3.1,33.8,3.1z M34.3,3.2C34.3,3.2,34.3,3.2,34.3,3.2C34.3,3.2,34.3,3.2,34.3,3.2
			C34.3,3.2,34.3,3.2,34.3,3.2L34.3,3.2z M36.2,1.8C36.2,1.8,36.2,1.8,36.2,1.8L36.2,1.8L36.2,1.8z"/>
	</g>
	<g display="inline">
		<path fill="#C02327" d="M30.7,15.2c-0.2-0.7-0.2-1.3-0.3-2c0,0.2,0,0.3,0,0.5c0,0.3,0.1,0.7,0.1,1c0,0.4,0.3,1.2,0.3,1.3
			c0,0-0.1-0.1-0.3-0.4l-0.1-0.3l0,0.1c-0.1-0.3-0.1-0.7-0.1-1c0-2.7,1.9-5.4,3.6-7.4c0.2-0.1,0.3-0.2,0.4-0.4
			c1.2-1,2.6-2.2,4.3-2.2c0.2,0.1,0.3,0,0.5,0.1c-0.1,0-0.2,0-0.2,0.1l0.1,0.1c0.4,0.1,0.8,0.1,1.1,0.3c0.7,0.6,0.7,0.6,0.7,0.7
			l0.8,1c-0.2-0.1-0.3-0.3-0.5-0.4c0.1,0.2,0.2,0.3,0.4,0.4c0.1,0.2,0.1,0.3,0.2,0.5c-0.1,0.1-0.1,0.1-0.2,0.1
			c-0.1,0-0.1-0.1-0.1-0.1s0,0,0,0.1c0,0.2,0.1,0.3,0.2,0.5l-0.5-0.6v0.1c0,0.3,0.5,0.6,0.5,0.7c0,0,0,0.1,0,0.1
			c0,0.1,0.2,0.2,0.2,0.2c0,0,0,0,0,0c-0.1,0-0.5-0.2-0.8-0.5c0,0.2,0.3,0.3,0.3,0.4c0,0,0,0.1-0.1,0.1c-0.2,0-0.3-0.2-0.5-0.3V8
			c0,0,0,0-0.1,0l-0.2,0.3c0-0.2-0.3-0.7-0.5-0.7l0.1,0.2c0,0.1,0,0.1,0,0.2c0,0.1,0.1,0.2,0.1,0.3l0,0c-0.1,0-0.1,0.1-0.1,0.1
			c-0.1,0-0.1-0.3-0.2-0.6c-0.4-0.2-0.4-1.6-1.3-1.6c-0.8,0-4,3.3-4.2,3.9c-0.6,1.2-1.4,2.4-1.4,3.8c0,1.5,1.1,2,2.3,2
			c1.2,0,2.3-0.7,2.8-0.9l1.1-3.2l-0.1,0.1v0c-0.9,0.2-2.1,0.3-2.8,0.8c0.7-0.2,2.2-0.6,2.2-0.6l-0.2,0.2c0,0,0,0,0,0.1v0
			c-0.3,0.2-2.4,0.7-2.7,1c-0.1-0.1-0.1-0.2-0.1-0.2c0-0.1,0-0.1,0.2-0.2c0,0-0.1,0-0.1,0c-0.2,0-0.3,0.2-0.5,0.2c0,0,0,0,0-0.1h0
			c0.1-0.1,0.1-0.2,0.1-0.3c0-0.1,0-0.2-0.1-0.3c0,0,0.1,0,0.1,0s0,0,0-0.1s0.1,0,0.1-0.1h-0.1c-0.1,0-0.2,0-0.2-0.1
			c0.1-0.1,0.3,0,0.4-0.1c-0.1,0-0.2-0.1-0.2-0.1v-0.1c0,0,0,0-0.1,0h-0.2c0.2-0.2,0.3-0.2,0.3-0.3c0,0-0.1,0-0.1-0.1h0
			c0.1,0,0.1,0,0.2,0c0.2,0,0.4,0,0.5-0.2l-0.8,0.1l1.4-0.4c-0.4,0-0.8,0.2-1.3,0.2c-0.1,0-0.2-0.1-0.2-0.2c0,0,0-0.1,0.1-0.1
			c0.1,0,0.2,0,0.3,0c1.6,0,3.2-1,5-1.2c0.2,0,0.4,0,0.6-0.2c0.1,0,0.1,0.1,0.2,0.1c0,0,0,0,0.1,0l0.7-0.1c0.1,0,0.2,0,0.2,0
			c0.2,0,0.4-0.1,0.7-0.1h0.1c0,0.1-0.5,0.2-0.5,0.2c0.2,0,0.5-0.1,0.7-0.1c0.1,0,0.2,0,0.2,0c-0.5,0.1-0.6,0.2-0.6,0.2
			c0,0,0,0,0.1,0c0,0,0,0,0.1,0v0c0,0.1,0.2,0,0.2,0.1c0,0-0.7,0-0.8,0.1c0,0,0,0,0.1,0c0.1,0,0.2,0,0.2,0c0,0,0.1,0,0.1,0
			c0,0,0,0,0,0.1h0.1c0,0,0,0,0,0.1c0,0.1-0.3,0.2-0.8,0.3c0,0,0,0,0-0.1c-0.1,0-0.2,0-0.3,0.1l0.6,0c0.1,0,0.1,0,0.1,0
			c0,0-0.2,0.1-0.3,0.1c0,0,0.1,0,0.1,0c0.1,0,0.3-0.1,0.3-0.1c0,0,0,0,0,0c0,0.1-0.5,0.2-0.7,0.3h0.2c0.1,0,0.2,0,0.3,0
			c0.1,0,0.1,0,0.1,0s0,0,0,0.1l-1,0.2c-0.6,1.1-1,2.2-1.4,3.4l1.4-3.1c0.2-0.1,0.2-0.2,0.2-0.2v0l0,0.1c-0.1,0.4-0.3,0.7-0.4,1
			c-0.4,0.9-0.5,1.1-0.5,1.4L39.7,15c0,0.7-0.5,1.6-0.5,1.9l-0.4,1.9l-0.2,0.9c0,0-0.1,0-0.1-0.1c0-0.2,0.1-0.7,0.1-0.7l-0.3,0.9
			l-0.1-0.2c0,0-0.1,0-0.1,0c-0.4,0-0.5-0.1-0.5-0.2c0,0,0-0.1,0-0.1c0-0.1-0.3-0.1-0.3-0.2L37,18.9c-0.1,0.1-0.1,0.2-0.2,0.2
			c0,0-0.1,0-0.1-0.1c0,0,0.1-0.1,0.2-0.2c0-0.1,0-0.2,0-0.2c0,0,0,0-0.1,0c0,0,0,0,0,0l-0.1-0.6c-0.1,0-0.2-0.1-0.2-0.2
			c0-0.2,0.2-0.4,0.3-0.6c0,0,0,0,0,0.1c0.1-0.1,0.1-0.3,0.2-0.5l0-0.1c0,0.1-0.1,0.2-0.2,0.3c-1.3,0.4-1.7,0.5-2.1,0.5
			c-1,0-1.8-0.4-2.6-0.8C31.3,16.4,31.1,16.2,30.7,15.2z M30.6,12.8c0.6-1.2,0.8-1.8,0.8-1.8c0,0-0.1,0.2-0.2,0.2l0.2-0.4L31.2,11
			L30.6,12.8z M30.8,13.8C30.8,13.8,30.7,13.8,30.8,13.8c0,0.1,0,0.3,0.1,0.5L30.8,13.8z M31,13.6L31,13.7L31,13.6
			c-0.1,0.2-0.1,0.2,0,0.3C31,13.9,31,13.6,31,13.6z M31,13.5C31,13.4,31,13.4,31,13.5L31,13.5C31,13.5,31,13.5,31,13.5
			C31,13.5,31,13.5,31,13.5z M31.5,10.7L31.5,10.7c0.1,0,0.2-0.3,0.3-0.4C31.7,10.3,31.5,10.6,31.5,10.7z M32.2,13.8l0-0.4
			c0,0,0-0.1,0-0.2c0-0.1,0-0.2,0-0.2c0,0,0-0.1,0-0.1c0,0-0.1,0.1-0.1,0.1l0,0.6L32.2,13.8z M32.3,13.8
			C32.3,13.8,32.3,13.8,32.3,13.8C32.2,13.8,32.2,13.9,32.3,13.8c0,0.1,0,0.2,0,0.2C32.3,14.1,32.3,13.8,32.3,13.8z M34.6,6.5
			l-1,0.8c-0.5,0.4-1.2,1.5-1.2,1.7c0.1,0,0.2-0.2,0.7-0.8C33.6,7.6,34.1,7.1,34.6,6.5z M33,12.4c0-0.6,0.5-1,0.6-1.6h0
			c0.3-0.4,0.4-0.5,0.4-0.5v0C34,10.4,33.1,12,33,12.4L33,12.4z M34.7,6.3c-0.2,0.1-0.4,0.2-0.4,0.3c0,0,0,0.1,0.1,0.1L34.7,6.3z
			 M36.8,16.3c-0.4,0.2-0.7,0.4-1.1,0.6l-0.9,0.3c0,0,0.1,0,0.1,0C35.8,17.2,36.6,16.5,36.8,16.3L36.8,16.3z M38,4.5
			c0.1,0,0.2,0,0.2,0c0,0,0,0,0.1,0C38.2,4.5,38.1,4.4,38,4.5c-1.4-0.1-3.1,1.7-3.1,1.8c0,0,0,0,0,0C35.1,5.9,37.6,4.5,38,4.5z
			 M35.3,17.4c0.1,0,0.2,0,0.2-0.1C35.5,17.3,35.4,17.4,35.3,17.4z M36.3,17c0.1,0,0.5-0.2,0.5-0.5L36,17.1h0.1
			C36.1,17.1,36.2,17,36.3,17L36.3,17z M36.8,16.5c-0.1,0-0.2,0.1-0.2,0.2l0.1-0.1C36.7,16.5,36.8,16.5,36.8,16.5L36.8,16.5z
			 M38.4,4.4l0.2,0C38.5,4.4,38.5,4.4,38.4,4.4C38.4,4.4,38.3,4.4,38.4,4.4C38.3,4.4,38.4,4.4,38.4,4.4z M40.6,13l0.7-1.9l0.2,0.1
			c0,0.2-0.2,0.4-0.2,0.5c0,0-0.5,1-0.5,1.1L40.6,13z"/>
	</g>
	<g display="inline">
		<g>
			<path fill="#C02327" d="M39.4,21.8L39.4,21.8C39.4,21.7,39.3,21.7,39.4,21.8L39.4,21.8C39.4,21.7,39.4,21.7,39.4,21.8L39.4,21.8
				L39.4,21.8c0-0.1,0-0.1,0-0.1v0c0,0,0,0,0,0c0,0,0,0,0,0c0,0,0,0,0,0c0,0,0,0,0,0c0-0.3,0.1-0.5,0.1-0.5c0.1-0.3,0.1-0.6,0.2-0.9
				v0c0,0,0,0,0,0c0.1-0.2,0-0.6,0.2-0.7c0,0,0,0,0,0c0-0.1,0.1-0.2,0.1-0.3c-0.1,0-0.3,0-0.4,0c0,0,0,0,0,0c0,0,0,0,0,0
				c0,0,0,0,0,0c0,0,0,0,0,0c0,0,0,0,0,0c0,0,0,0,0,0v0c0,0,0,0,0,0c0,0,0,0,0,0s0,0,0,0c0,0,0.1,0,0.1-0.1c0,0,0,0,0,0c0,0,0,0,0,0
				c0,0-0.1,0-0.1,0c0,0,0,0,0,0c0,0,0,0,0,0c0,0,0,0,0,0h0v0h0c0,0,0,0,0,0v0c0,0,0,0,0,0v0c0,0,0,0,0,0c0,0,0,0,0,0c0,0,0,0,0,0h0
				c0,0,0,0,0,0c0,0,0,0,0,0c0-0.2,0.2-0.2,0.3-0.2c0,0,0,0,0,0c0,0,0.1,0,0.1,0c0,0,0,0,0,0c0,0,0,0,0,0c0,0,0,0,0,0s0,0,0,0
				c0,0,0,0,0,0h0.1c0,0,0,0,0.1,0c0,0,0,0,0,0c0,0,0,0,0,0v0c0.1,0,0.1,0,0.1,0c0,0,0,0,0,0c-0.1,0-0.2,0-0.3,0h0c0,0,0,0,0,0
				c0,0-0.1,0-0.1,0v0h-0.1c0,0-0.1,0-0.1,0c0,0,0,0,0,0h0c0,0,0,0,0,0c0.1,0,0.3,0,0.4,0c0,0,0,0,0,0c0,0,0,0,0,0h0c0,0,0,0,0,0
				c0.1,0,0.3,0,0.5,0c0.2,0,0.3,0,0.3,0c0,0,0,0,0,0c0,0,0.2,0,0.3,0c0,0,0,0,0,0c0,0,0,0,0,0c0,0-0.1,0-0.1,0h0.1c0,0,0,0,0,0v0
				c0,0,0,0,0,0h0c0,0,0,0,0,0c0,0,0,0-0.1,0s0,0,0,0c0,0,0.1,0,0.1,0c0,0-0.1,0-0.1,0c-0.1,0-0.1,0-0.2,0c0,0,0,0,0,0
				c0.1,0,0.3,0,0.4,0.1c0,0,0,0,0,0c0,0,0,0-0.1,0c0,0,0,0,0,0v0c0,0,0,0,0,0c0,0,0,0,0,0l0,0c0,0,0,0,0,0c0,0,0.1,0,0.2,0
				c-0.1,0-0.2,0-0.4,0c-0.1,0-0.2,0-0.2,0h0c0,0,0,0,0,0h0c0.1,0,0.1,0,0.2,0c0,0,0,0,0,0c0.1,0,0.2,0,0.3,0h0c0,0,0,0,0.1,0
				c0,0,0,0-0.1,0c-0.1,0-0.1,0-0.2,0c-0.1,0-0.2,0-0.3,0c0,0,0,0-0.1,0c0,0,0,0,0,0c0,0,0,0,0,0h-0.1c-0.1,0.2-0.1,0.5-0.2,0.7
				c0,0,0,0,0,0c0,0,0,0,0,0c0-0.3,0.1-0.5,0.1-0.7h0c0,0.1-0.1,0.2-0.1,0.2l0,0c-0.1,0.4-0.2,1.1-0.3,1.2c-0.1,0.4-0.2,0.9-0.3,1.2
				c0,0,0,0,0,0c0,0,0,0,0,0c0.1,0,0.3,0,0.4,0c0,0,0,0,0,0c0,0,0,0,0,0c0,0,0,0,0.1,0c0,0,0,0,0.1,0c0,0-0.1,0-0.1,0
				c0,0-0.1,0-0.1,0c0,0,0.1,0,0.1,0c0,0,0,0-0.1,0c0,0-0.1,0-0.1,0v0h0c0,0,0,0,0,0c0,0,0,0,0,0c0,0,0,0,0,0c0,0,0,0-0.1,0
				c0,0,0,0,0,0c0,0,0,0,0,0v0h-0.1v0c0,0,0,0,0,0l0.2,0c0.1,0,0.1,0,0.2,0c0.1,0,0.3,0,0.4,0c-0.3,0.1-0.5,0.1-0.8,0.1v0
				c0,0,0.1,0,0.1,0c0,0,0.1,0,0.1,0c0.2,0,0.4-0.1,0.6-0.1c-0.1,0.1-0.3,0-0.5,0.1c0,0,0,0,0.1,0c0.1,0,0.1,0,0.2,0l0,0
				c0,0,0,0,0,0s0,0,0,0c0,0-0.1,0-0.1,0c0,0,0,0,0,0c0,0,0,0,0,0c0,0,0,0,0,0c0,0,0.1,0,0.1,0v0l0.2-0.1c0,0,0,0,0,0h0.1
				c-0.1,0-0.1,0-0.1,0c0,0,0,0,0.1,0c-0.1,0.1-0.2,0.1-0.3,0.1c0,0,0,0,0,0c0,0,0.1,0,0.1,0c0,0-0.1,0-0.1,0h0
				c-0.2,0-0.4,0-0.6,0.1c0,0,0,0,0,0c0,0,0.1,0,0.1,0c0,0,0,0,0,0v0h0.1l0,0c0,0,0,0,0,0h0c0,0,0,0,0,0c0,0,0,0,0,0H40c0,0,0,0,0,0
				c-0.1,0-0.2,0-0.2,0c-0.2,0-0.4,0-0.5,0v0c-0.3,0-0.4-0.1-0.4-0.2c0,0,0,0,0,0c0,0,0,0,0,0v0c0,0,0,0,0,0c0,0,0,0,0,0h0
				c0,0,0,0,0,0c0,0,0,0,0,0l0,0c0,0,0.1,0,0.1-0.1l0,0c0,0,0,0,0,0s0,0,0,0c0,0,0,0,0,0v0c0,0,0,0,0,0c0.1,0,0.1,0,0.2,0v0
				c-0.1,0-0.2,0-0.3,0h0l0,0c0,0,0,0,0,0c0,0,0,0,0,0c0,0,0.1-0.1,0.1-0.1c0,0,0.1,0,0.1,0h0c0,0,0,0,0,0c0,0,0,0,0,0l0,0h0.1
				c0,0,0,0,0,0L39.4,21.8c-0.1,0-0.1,0-0.1,0c0,0,0,0,0,0C39.3,21.8,39.3,21.7,39.4,21.8C39.3,21.7,39.3,21.8,39.4,21.8L39.4,21.8z
				 M39,21.7C39,21.7,38.9,21.7,39,21.7L39,21.7c-0.1,0.1-0.1,0-0.1,0.1c0,0,0,0,0,0C38.9,21.7,38.9,21.7,39,21.7L39,21.7z M39,22.2
				C39,22.2,39,22.2,39,22.2C39,22.2,39,22.2,39,22.2z M39.1,22.2C39.1,22.2,39,22.2,39.1,22.2C39,22.2,39,22.2,39.1,22.2L39.1,22.2
				z M39.1,21.7C39.1,21.7,39.1,21.7,39.1,21.7C39.1,21.7,39.1,21.7,39.1,21.7z M39.4,21.9L39.4,21.9C39.4,21.9,39.4,21.9,39.4,21.9
				L39.4,21.9z M39.5,21.9C39.5,21.9,39.5,21.8,39.5,21.9L39.5,21.9C39.4,21.8,39.5,21.8,39.5,21.9L39.5,21.9
				C39.5,21.8,39.4,21.8,39.5,21.9L39.5,21.9c-0.1,0-0.1,0-0.1,0H39.5z M39.5,21.7L39.5,21.7l-0.1,0v0L39.5,21.7z M39.5,21.7
				c0-0.1,0-0.2,0-0.2c0,0,0,0,0,0c0-0.2,0.1-0.5,0.1-0.7c-0.1,0-0.1,0.5-0.2,0.7c0,0,0,0,0,0c0,0,0,0,0-0.1v0c0,0,0,0,0,0
				c0,0,0,0,0,0c0,0,0,0,0,0c0,0,0,0,0,0s0,0.1,0,0.1c0,0,0,0,0,0c0,0,0,0.1,0,0.1c0,0,0,0,0,0c0,0.1,0,0.2-0.1,0.3l0,0
				C39.4,21.7,39.4,21.7,39.5,21.7C39.5,21.7,39.5,21.7,39.5,21.7L39.5,21.7z M39.5,21.5C39.4,21.5,39.4,21.5,39.5,21.5
				C39.4,21.5,39.5,21.5,39.5,21.5L39.5,21.5z M39.5,21.3C39.5,21.3,39.5,21.3,39.5,21.3C39.5,21.3,39.5,21.3,39.5,21.3
				C39.5,21.3,39.5,21.3,39.5,21.3C39.5,21.4,39.5,21.3,39.5,21.3L39.5,21.3L39.5,21.3z M39.6,22.3C39.6,22.3,39.6,22.3,39.6,22.3
				C39.6,22.3,39.6,22.2,39.6,22.3C39.6,22.2,39.6,22.2,39.6,22.3C39.6,22.3,39.6,22.3,39.6,22.3z M39.7,20.6
				C39.7,20.6,39.7,20.6,39.7,20.6C39.7,20.5,39.7,20.5,39.7,20.6c-0.1,0-0.1,0.3-0.1,0.4c0,0,0,0,0,0
				C39.6,20.9,39.6,20.8,39.7,20.6C39.6,20.6,39.6,20.6,39.7,20.6z M39.6,21.5C39.6,21.5,39.6,21.5,39.6,21.5
				C39.6,21.5,39.6,21.5,39.6,21.5C39.6,21.5,39.6,21.5,39.6,21.5z M39.7,18.6C39.7,18.6,39.7,18.6,39.7,18.6L39.7,18.6
				C39.7,18.6,39.6,18.6,39.7,18.6C39.6,18.7,39.6,18.7,39.7,18.6C39.7,18.7,39.7,18.6,39.7,18.6L39.7,18.6L39.7,18.6z M39.8,21.8
				C39.8,21.8,39.8,21.8,39.8,21.8L39.8,21.8C39.8,21.8,39.8,21.9,39.8,21.8L39.8,21.8C39.8,21.8,39.8,21.8,39.8,21.8
				C39.8,21.8,39.8,21.8,39.8,21.8L39.8,21.8z M39.7,22.3L39.7,22.3C39.8,22.2,39.8,22.3,39.7,22.3L39.7,22.3z M39.8,21.7L39.8,21.7
				L39.8,21.7C39.8,21.7,39.8,21.7,39.8,21.7C39.8,21.7,39.8,21.7,39.8,21.7z M39.8,21.7c0.1-0.3,0.2-0.6,0.2-1
				C40,21,40,21.2,39.9,21.4c0,0,0,0,0,0c0,0,0,0.1,0,0.1c0,0,0,0,0,0c0,0,0,0,0,0C39.8,21.6,39.8,21.6,39.8,21.7L39.8,21.7z
				 M39.8,21.5C39.8,21.5,39.8,21.5,39.8,21.5C39.8,21.5,39.8,21.5,39.8,21.5C39.8,21.5,39.8,21.5,39.8,21.5z M39.9,18.6
				C39.9,18.6,39.9,18.6,39.9,18.6C39.9,18.6,39.9,18.6,39.9,18.6z M40,21.8C40,21.8,40,21.8,40,21.8C40,21.8,40,21.8,40,21.8
				L40,21.8z M40.1,21.8L40.1,21.8C40,21.8,40,21.8,40.1,21.8C40.1,21.8,40.1,21.8,40.1,21.8z M40.1,22.2
				C40.1,22.2,40.1,22.2,40.1,22.2C40.1,22.2,40.1,22.2,40.1,22.2L40.1,22.2C40.1,22.2,40.1,22.2,40.1,22.2c0,0,0.2,0,0.3,0
				C40.3,22.2,40.2,22.2,40.1,22.2L40.1,22.2L40.1,22.2z M40.1,22.2C40.1,22.2,40.1,22.2,40.1,22.2C40.1,22.2,40.1,22.2,40.1,22.2
				L40.1,22.2C40.1,22.2,40.2,22.2,40.1,22.2C40.1,22.2,40.1,22.2,40.1,22.2z M40.2,22.2L40.2,22.2C40.2,22.2,40.2,22.2,40.2,22.2
				C40.2,22.2,40.2,22.2,40.2,22.2z M40.2,22.2C40.2,22.2,40.2,22.2,40.2,22.2C40.2,22.2,40.3,22.2,40.2,22.2
				C40.3,22.2,40.3,22.2,40.2,22.2z M40.3,22.2c0,0,0.1,0,0.1,0C40.4,22.2,40.3,22.2,40.3,22.2z M40.3,22.2
				C40.3,22.1,40.3,22.1,40.3,22.2C40.3,22.2,40.3,22.2,40.3,22.2z M40.3,22.2C40.3,22.2,40.3,22.2,40.3,22.2
				C40.3,22.2,40.3,22.2,40.3,22.2z M40.4,22.2L40.4,22.2C40.4,22.2,40.4,22.2,40.4,22.2C40.4,22.2,40.4,22.2,40.4,22.2z M40.4,22.1
				C40.4,22.1,40.4,22.1,40.4,22.1C40.4,22.1,40.4,22.1,40.4,22.1L40.4,22.1z M40.4,21.9C40.5,21.9,40.5,21.9,40.4,21.9
				C40.5,21.9,40.5,21.9,40.4,21.9z M40.5,22.1c0,0,0.1,0,0.1,0C40.6,22.1,40.5,22.1,40.5,22.1z M40.5,22.1
				C40.5,22.1,40.5,22.1,40.5,22.1C40.5,22.1,40.5,22.1,40.5,22.1z M40.6,22.1C40.6,22.1,40.6,22.1,40.6,22.1
				C40.6,22.1,40.6,22.1,40.6,22.1z M40.6,22.1C40.6,22.1,40.6,22.1,40.6,22.1C40.6,22,40.6,22,40.6,22.1L40.6,22.1z M41,18.9
				C41,18.9,41,18.9,41,18.9C41,18.9,41,18.9,41,18.9z M41.3,18.8L41.3,18.8C41.3,18.8,41.3,18.8,41.3,18.8
				C41.3,18.8,41.3,18.8,41.3,18.8z M41.3,18.7C41.3,18.7,41.3,18.7,41.3,18.7L41.3,18.7L41.3,18.7z M41.4,18.8
				C41.3,18.8,41.3,18.8,41.4,18.8C41.3,18.8,41.4,18.8,41.4,18.8C41.4,18.8,41.4,18.8,41.4,18.8z"/>
			<path fill="#C02327" d="M41.3,21.7L41.3,21.7C41.3,21.6,41.3,21.6,41.3,21.7L41.3,21.7C41.3,21.6,41.3,21.6,41.3,21.7L41.3,21.7
				L41.3,21.7c0-0.1,0-0.1,0-0.1v0c0,0,0,0,0,0c0,0,0,0,0,0c0,0,0,0,0,0c0,0,0,0,0,0c0-0.3,0.1-0.5,0.1-0.5c0.1-0.3,0.1-0.6,0.2-0.9
				v0c0,0,0,0,0,0c0.1-0.2,0-0.6,0.2-0.7c0,0,0,0,0,0c0-0.1,0.1-0.2,0.1-0.3c-0.1,0-0.3,0-0.4,0c0,0,0,0,0,0c0,0,0,0,0,0
				c0,0,0,0,0,0c0,0,0,0,0,0c0,0,0,0,0,0c0,0,0,0,0,0v0c0,0,0,0,0,0c0,0,0,0,0,0s0,0,0,0c0,0,0.1,0,0.1-0.1c0,0,0,0,0,0c0,0,0,0,0,0
				c0,0-0.1,0-0.1,0c0,0,0,0,0,0c0,0,0,0,0,0c0,0,0,0,0,0h0v0h0c0,0,0,0,0,0v0c0,0,0,0,0,0v0c0,0,0,0,0,0c0,0,0,0,0,0c0,0,0,0,0,0h0
				c0,0,0,0,0,0c0,0,0,0,0,0c0-0.2,0.2-0.2,0.3-0.2c0,0,0,0,0,0c0,0,0.1,0,0.1,0c0,0,0,0,0,0c0,0,0,0,0,0c0,0,0,0,0,0s0,0,0,0
				c0,0,0,0,0,0h0.1c0,0,0,0,0.1,0c0,0,0,0,0,0c0,0,0,0,0,0v0c0.1,0,0.1,0,0.1,0c0,0,0,0,0,0c-0.1,0-0.2,0-0.3,0h0c0,0,0,0,0,0
				c0,0-0.1,0-0.1,0v0h-0.1c0,0-0.1,0-0.1,0c0,0,0,0,0,0h0c0,0,0,0,0,0c0.1,0,0.3,0,0.4,0c0,0,0,0,0,0c0,0,0,0,0,0h0c0,0,0,0,0,0
				c0.1,0,0.3,0,0.5,0c0.2,0,0.3,0,0.3,0c0,0,0,0,0,0c0,0,0.2,0,0.3,0c0,0,0,0,0,0c0,0,0,0,0,0c0,0-0.1,0-0.1,0h0.1c0,0,0,0,0,0v0
				c0,0,0,0,0,0h0c0,0,0,0,0,0c0,0,0,0-0.1,0c0,0,0,0,0,0c0,0,0.1,0,0.1,0c0,0-0.1,0-0.1,0c-0.1,0-0.1,0-0.2,0c0,0,0,0,0,0
				c0.1,0,0.3,0,0.4,0.1c0,0,0,0,0,0c0,0,0,0-0.1,0c0,0,0,0,0,0v0c0,0,0,0,0,0s0,0,0,0l0,0c0,0,0,0,0,0c0,0,0.1,0,0.2,0
				c-0.1,0-0.2,0-0.4,0c-0.1,0-0.2,0-0.2,0h0c0,0,0,0,0,0h0c0.1,0,0.1,0,0.2,0c0,0,0,0,0,0c0.1,0,0.2,0,0.3,0h0c0,0,0,0,0.1,0
				c0,0,0,0-0.1,0c-0.1,0-0.1,0-0.2,0c-0.1,0-0.2,0-0.3,0c0,0,0,0-0.1,0c0,0,0,0,0,0c0,0,0,0,0,0h-0.1c-0.1,0.2-0.1,0.5-0.2,0.7
				c0,0,0,0,0,0c0,0,0,0,0,0c0-0.3,0.1-0.5,0.1-0.7h0c0,0.1-0.1,0.2-0.1,0.2l0,0c-0.1,0.4-0.2,1.1-0.3,1.2c-0.1,0.4-0.2,0.9-0.3,1.2
				c0,0,0,0,0,0c0,0,0,0,0,0c0.1,0,0.3,0,0.4,0c0,0,0,0,0,0s0,0,0,0c0,0,0,0,0.1,0s0,0,0.1,0c0,0-0.1,0-0.1,0c0,0-0.1,0-0.1,0
				c0,0,0.1,0,0.1,0c0,0,0,0-0.1,0c0,0-0.1,0-0.1,0v0h0c0,0,0,0,0,0c0,0,0,0,0,0c0,0,0,0,0,0c0,0,0,0-0.1,0c0,0,0,0,0,0c0,0,0,0,0,0
				v0h-0.1v0c0,0,0,0,0,0l0.2,0c0.1,0,0.1,0,0.2,0c0.1,0,0.3,0,0.4,0c-0.3,0.1-0.5,0.1-0.8,0.1v0c0,0,0.1,0,0.1,0c0,0,0.1,0,0.1,0
				c0.2,0,0.4-0.1,0.6-0.1c-0.1,0.1-0.3,0-0.5,0.1c0,0,0,0,0.1,0c0.1,0,0.1,0,0.2,0l0,0c0,0,0,0,0,0s0,0,0,0c0,0-0.1,0-0.1,0
				c0,0,0,0,0,0c0,0,0,0,0,0c0,0,0,0,0,0c0,0,0.1,0,0.1,0v0l0.2-0.1c0,0,0,0,0,0h0.1c-0.1,0-0.1,0-0.1,0c0,0,0,0,0.1,0
				C42.5,22,42.4,22,42.3,22c0,0,0,0,0,0c0,0,0.1,0,0.1,0c0,0-0.1,0-0.1,0h0c-0.2,0-0.4,0-0.6,0.1c0,0,0,0,0,0c0,0,0.1,0,0.1,0
				c0,0,0,0,0,0v0H42l0,0c0,0,0,0,0,0h0c0,0,0,0,0,0c0,0,0,0,0,0h-0.1c0,0,0,0,0,0c-0.1,0-0.2,0-0.2,0c-0.2,0-0.4,0-0.5,0v0
				c-0.3,0-0.4-0.1-0.4-0.2c0,0,0,0,0,0c0,0,0,0,0,0v0c0,0,0,0,0,0c0,0,0,0,0,0l0,0c0,0,0,0,0,0c0,0,0,0,0,0l0,0c0,0,0.1,0,0.1-0.1
				l0,0c0,0,0,0,0,0s0,0,0,0c0,0,0,0,0,0v0c0,0,0,0,0,0c0.1,0,0.1,0,0.2,0v0c-0.1,0-0.2,0-0.3,0h0l0,0c0,0,0,0,0,0c0,0,0,0,0,0
				c0,0,0.1-0.1,0.1-0.1c0,0,0.1,0,0.1,0h0c0,0,0,0,0,0c0,0,0,0,0,0l0,0h0.1c0,0,0,0,0,0L41.3,21.7c-0.1,0-0.1,0-0.2,0c0,0,0,0,0,0
				C41.2,21.7,41.2,21.7,41.3,21.7C41.3,21.7,41.3,21.7,41.3,21.7L41.3,21.7z M41,21.6C40.9,21.6,40.9,21.6,41,21.6L41,21.6
				c-0.1,0.1-0.1,0-0.1,0.1c0,0,0,0,0,0C40.8,21.6,40.8,21.6,41,21.6L41,21.6z M40.9,22.1C40.9,22.1,40.9,22.1,40.9,22.1
				C40.9,22.1,40.9,22.1,40.9,22.1z M41,22.1L41,22.1C41,22.2,41,22.1,41,22.1L41,22.1z M41.1,21.6C41.1,21.6,41.1,21.6,41.1,21.6
				C41.1,21.6,41.1,21.6,41.1,21.6z M41.3,21.8L41.3,21.8C41.3,21.8,41.3,21.8,41.3,21.8L41.3,21.8z M41.4,21.8
				C41.4,21.8,41.4,21.7,41.4,21.8L41.4,21.8C41.4,21.7,41.4,21.7,41.4,21.8L41.4,21.8C41.4,21.7,41.4,21.7,41.4,21.8L41.4,21.8
				c-0.1,0-0.1,0-0.1,0H41.4z M41.5,21.7L41.5,21.7l-0.1,0v0L41.5,21.7z M41.5,21.6c0-0.1,0-0.2,0-0.2c0,0,0,0,0,0
				c0-0.2,0.1-0.5,0.1-0.7c-0.1,0-0.1,0.5-0.2,0.7c0,0,0,0,0,0c0,0,0,0,0-0.1v0c0,0,0,0,0,0s0,0,0,0c0,0,0,0,0,0c0,0,0,0,0,0
				s0,0.1,0,0.1c0,0,0,0,0,0c0,0,0,0.1,0,0.1c0,0,0,0,0,0c0,0.1,0,0.2-0.1,0.3h0C41.4,21.6,41.4,21.6,41.5,21.6
				C41.4,21.6,41.4,21.6,41.5,21.6L41.5,21.6z M41.4,21.4C41.4,21.4,41.4,21.4,41.4,21.4C41.4,21.4,41.4,21.4,41.4,21.4L41.4,21.4z
				 M41.5,21.3C41.5,21.2,41.5,21.2,41.5,21.3C41.5,21.2,41.5,21.2,41.5,21.3C41.4,21.2,41.4,21.2,41.5,21.3
				C41.4,21.3,41.4,21.2,41.5,21.3L41.5,21.3L41.5,21.3z M41.5,22.2C41.5,22.2,41.5,22.2,41.5,22.2C41.5,22.2,41.5,22.2,41.5,22.2
				C41.5,22.2,41.6,22.2,41.5,22.2C41.6,22.2,41.6,22.2,41.5,22.2z M41.6,20.5C41.6,20.5,41.6,20.5,41.6,20.5
				C41.6,20.5,41.6,20.4,41.6,20.5c-0.1,0-0.1,0.3-0.1,0.4c0,0,0,0,0,0C41.5,20.8,41.6,20.7,41.6,20.5
				C41.6,20.5,41.6,20.5,41.6,20.5z M41.5,21.4C41.5,21.4,41.5,21.4,41.5,21.4C41.5,21.4,41.5,21.4,41.5,21.4
				C41.5,21.4,41.5,21.4,41.5,21.4z M41.7,18.5C41.7,18.5,41.6,18.5,41.7,18.5L41.7,18.5C41.6,18.5,41.6,18.5,41.7,18.5
				C41.6,18.6,41.6,18.6,41.7,18.5C41.6,18.6,41.6,18.5,41.7,18.5L41.7,18.5L41.7,18.5z M41.7,21.7C41.7,21.7,41.7,21.7,41.7,21.7
				L41.7,21.7C41.7,21.8,41.7,21.8,41.7,21.7L41.7,21.7C41.7,21.8,41.7,21.7,41.7,21.7C41.7,21.7,41.7,21.7,41.7,21.7L41.7,21.7z
				 M41.7,22.2L41.7,22.2C41.7,22.2,41.7,22.2,41.7,22.2L41.7,22.2z M41.7,21.6L41.7,21.6L41.7,21.6C41.8,21.6,41.8,21.6,41.7,21.6
				C41.8,21.6,41.8,21.6,41.7,21.6z M41.8,21.6c0.1-0.3,0.2-0.6,0.2-1c-0.1,0.2-0.1,0.5-0.2,0.7c0,0,0,0,0,0c0,0,0,0.1,0,0.1
				c0,0,0,0,0,0c0,0,0,0,0,0C41.8,21.5,41.7,21.5,41.8,21.6L41.8,21.6z M41.8,21.4C41.8,21.4,41.8,21.4,41.8,21.4
				C41.8,21.4,41.8,21.4,41.8,21.4C41.8,21.4,41.8,21.4,41.8,21.4z M41.8,18.5C41.8,18.5,41.8,18.5,41.8,18.5
				C41.8,18.5,41.8,18.5,41.8,18.5z M41.9,21.7C41.9,21.7,41.9,21.7,41.9,21.7C41.9,21.7,41.9,21.7,41.9,21.7L41.9,21.7z M42,21.7
				L42,21.7C42,21.7,42,21.7,42,21.7L42,21.7z M42.1,22.1C42,22.1,42,22.1,42.1,22.1C42,22.1,42,22.1,42.1,22.1L42.1,22.1
				C42,22.1,42,22.1,42.1,22.1c0,0,0.2,0,0.3,0C42.2,22.1,42.2,22.1,42.1,22.1L42.1,22.1L42.1,22.1z M42.1,22.1
				C42.1,22.1,42,22.1,42.1,22.1C42,22.1,42.1,22.1,42.1,22.1L42.1,22.1C42.1,22.1,42.1,22.1,42.1,22.1
				C42.1,22.1,42.1,22.1,42.1,22.1z M42.1,22.1L42.1,22.1C42.1,22.1,42.1,22.1,42.1,22.1C42.1,22.1,42.1,22.1,42.1,22.1z M42.2,22.1
				C42.2,22.1,42.2,22.1,42.2,22.1C42.2,22.1,42.2,22.1,42.2,22.1C42.2,22.1,42.2,22.1,42.2,22.1z M42.2,22.1c0,0,0.1,0,0.1,0
				C42.3,22.1,42.3,22.1,42.2,22.1z M42.2,22.1C42.2,22.1,42.2,22.1,42.2,22.1C42.3,22.1,42.2,22.1,42.2,22.1z M42.3,22.1
				C42.3,22.1,42.3,22.1,42.3,22.1C42.3,22.1,42.3,22.1,42.3,22.1z M42.3,22.1L42.3,22.1C42.3,22.1,42.3,22.1,42.3,22.1
				C42.3,22.1,42.3,22.1,42.3,22.1z M42.4,22C42.4,22,42.4,22,42.4,22C42.4,22,42.4,22,42.4,22L42.4,22z M42.4,21.9
				C42.4,21.8,42.4,21.8,42.4,21.9C42.4,21.9,42.4,21.9,42.4,21.9z M42.4,22c0,0,0.1,0,0.1,0C42.5,22,42.5,22,42.4,22z M42.4,22
				C42.4,22,42.4,22,42.4,22C42.5,22,42.4,22,42.4,22z M42.5,22C42.5,22,42.5,22,42.5,22C42.6,22,42.5,22,42.5,22z M42.5,22
				C42.5,22,42.5,22,42.5,22C42.5,22,42.5,22,42.5,22L42.5,22z M42.9,18.9C42.9,18.9,42.9,18.9,42.9,18.9L42.9,18.9z M43.2,18.8
				L43.2,18.8C43.2,18.8,43.2,18.7,43.2,18.8C43.2,18.7,43.2,18.8,43.2,18.8z M43.3,18.6C43.2,18.6,43.2,18.6,43.3,18.6L43.3,18.6
				L43.3,18.6z M43.3,18.8C43.3,18.8,43.3,18.8,43.3,18.8C43.3,18.7,43.3,18.7,43.3,18.8C43.3,18.7,43.3,18.8,43.3,18.8z"/>
		</g>
	</g>
</g>
<g opacity="0.8">
	<path d="M30.7,13.8c0,0.2,0,0.4,0.2,0.5L30.7,13.8C30.8,13.8,30.7,13.8,30.7,13.8z"/>
	<path d="M31,13.4L31,13.4c0,0.1,0,0.1,0,0.1C31,13.5,31,13.5,31,13.4C31,13.4,31,13.4,31,13.4z"/>
	<path d="M33.1,8.3c0.4-0.6,1-1.2,1.5-1.7l-1,0.8c-0.5,0.4-1.2,1.5-1.2,1.7C32.5,9,32.7,8.8,33.1,8.3z"/>
	<path d="M31.2,11l-0.6,1.7c0.6-1.2,0.8-1.8,0.8-1.8c0,0-0.1,0.2-0.2,0.2l0.2-0.4L31.2,11z"/>
	<path d="M30.9,13.7c0,0.1,0,0.2,0.1,0.2L30.9,13.7L30.9,13.7L30.9,13.7z"/>
	<path d="M31.5,10.7c0,0,0.2-0.3,0.2-0.5C31.7,10.3,31.5,10.6,31.5,10.7L31.5,10.7z"/>
	<path d="M34.7,6.3c-0.2,0.1-0.4,0.2-0.4,0.3c0,0,0,0.1,0.1,0.1L34.7,6.3z"/>
	<path d="M38.6,4.4c0,0-0.1,0-0.2,0c0,0-0.1,0-0.1,0c0,0,0.1,0,0.1,0L38.6,4.4z"/>
	<path d="M38,4.5c0.1,0,0.2,0,0.2,0c0,0,0,0,0.1,0C38.2,4.5,38.1,4.4,38,4.5c-1.4-0.1-3.1,1.7-3.1,1.8c0,0,0,0,0,0
		C35.1,5.9,37.6,4.5,38,4.5z"/>
	<path d="M28.5,13.7c0.3-0.7,0.6-1.4,0.7-2.1c-0.3,0.6-0.4,1.3-0.7,1.9L28.5,13.7z"/>
	<path d="M40,22.2C40,22.2,40,22.2,40,22.2C40,22.2,40,22.2,40,22.2L40,22.2z"/>
	<path d="M41.7,18.5C41.7,18.5,41.6,18.5,41.7,18.5L41.7,18.5C41.6,18.5,41.6,18.5,41.7,18.5C41.6,18.6,41.6,18.6,41.7,18.5
		C41.6,18.6,41.6,18.5,41.7,18.5L41.7,18.5L41.7,18.5z"/>
	<path d="M34.8,17.2c0,0,0.1,0,0.1,0c0.9,0,1.6-0.7,1.8-1l0,0c-0.4,0.2-0.7,0.4-1.1,0.6L34.8,17.2z"/>
	<path d="M39.9,21.4C39.9,21.4,39.9,21.4,39.9,21.4C39.9,21.5,39.9,21.5,39.9,21.4C39.9,21.5,39.9,21.5,39.9,21.4
		c0-0.1,0.1-0.3,0.1-0.4c0-0.1,0-0.2,0.1-0.3C40,21,40,21.2,39.9,21.4z"/>
	<path d="M39.8,21.8C39.8,21.8,39.8,21.8,39.8,21.8L39.8,21.8C39.8,21.8,39.8,21.9,39.8,21.8L39.8,21.8
		C39.8,21.8,39.8,21.8,39.8,21.8L39.8,21.8L39.8,21.8C39.8,21.8,39.8,21.8,39.8,21.8L39.8,21.8z"/>
	<path d="M35.6,17.3c-0.1,0-0.2,0.1-0.2,0.1C35.5,17.4,35.5,17.4,35.6,17.3z"/>
	<path d="M32.2,13.9c0,0,0,0.1,0,0.2L32.2,13.9c0-0.1,0-0.2,0-0.2C32.2,13.8,32.2,13.9,32.2,13.9z"/>
	<path d="M36.1,17.1c0.1,0,0.1,0,0.1,0h0c0.1,0,0.5-0.2,0.5-0.5L36.1,17.1L36.1,17.1z"/>
	<path d="M36.6,16.6l0.1-0.1c0,0,0.1,0,0.1-0.1l0,0C36.7,16.5,36.6,16.5,36.6,16.6z"/>
	<path d="M32.2,13.2c0-0.1,0-0.2,0-0.2c0,0,0-0.1,0-0.1c0,0-0.1,0.1-0.1,0.1l0,0.6l0.1,0.2l0-0.4C32.2,13.3,32.2,13.3,32.2,13.2z"/>
	<path d="M33.2,3.2c0,0-0.1,0-0.2,0C33.1,3.3,33.1,3.3,33.2,3.2C33.2,3.3,33.2,3.3,33.2,3.2z"/>
	<path d="M33.3,3.2C33.3,3.2,33.3,3.2,33.3,3.2C33.2,3.2,33.2,3.2,33.3,3.2C33.2,3.3,33.2,3.3,33.3,3.2C33.3,3.3,33.3,3.3,33.3,3.2z
		"/>
	<path d="M32,3.4c0,0,1-0.1,1-0.1v0c-0.2,0-0.5,0.1-0.7,0.1L32,3.4C32.1,3.3,32,3.3,32,3.4L32,3.4C31.9,3.4,32,3.4,32,3.4z"/>
	<path d="M33.3,3.2C33.3,3.2,33.2,3.2,33.3,3.2L33.3,3.2L33.3,3.2z"/>
	<path d="M27.3,12.3c0,0,0.2-0.8,0.3-1c0,0,0,0,0,0v0c0,0,0.1-0.1,0.1-0.2C27.5,11.1,27.4,12,27.3,12.3
		C27.3,12.2,27.2,12.3,27.3,12.3z"/>
	<path d="M33.6,3.2L33.6,3.2l-0.1,0.1C33.5,3.2,33.5,3.2,33.6,3.2C33.5,3.2,33.5,3.2,33.6,3.2c0.1,0,0.1,0,0.2,0.1c0,0,0,0,0,0
		c0,0-0.1-0.1,0-0.1C33.7,3.1,33.6,3.1,33.6,3.2C33.5,3.2,33.5,3.2,33.6,3.2z"/>
	<path d="M34.3,3.2C34.3,3.2,34.3,3.2,34.3,3.2C34.3,3.2,34.3,3.2,34.3,3.2L34.3,3.2C34.3,3.2,34.3,3.2,34.3,3.2z"/>
	<path d="M33.5,3.2C33.5,3.2,33.4,3.2,33.5,3.2C33.5,3.2,33.5,3.2,33.5,3.2C33.5,3.2,33.5,3.2,33.5,3.2z"/>
	<path d="M33.4,3.2C33.4,3.2,33.3,3.2,33.4,3.2C33.3,3.3,33.3,3.3,33.4,3.2C33.4,3.3,33.4,3.2,33.4,3.2z"/>
	<path d="M27.2,12.9L27.2,12.9C27.2,12.8,27.1,12.8,27.2,12.9C27.1,12.8,27.1,12.8,27.2,12.9z"/>
	<path d="M27.1,12.9C27.1,12.9,27.1,12.9,27.1,12.9L27.1,12.9L27.1,12.9z"/>
	<path d="M27.1,12.9L27.1,12.9l0,0.2c0,0,0,0,0,0c0,0,0,0.1,0,0.1c0,0,0,0,0,0.1l0.1,0l0-0.1l0.1,0c0-0.1,0.1-0.2,0.1-0.3
		C27.2,12.9,27.2,12.9,27.1,12.9C27.1,13,27.1,12.9,27.1,12.9z"/>
	<path d="M27.3,12.6C27.3,12.5,27.2,12.5,27.3,12.6L27.3,12.6L27.3,12.6z"/>
	<path d="M27,13C27.1,13,27.1,13,27,13l0.1-0.3C27.1,12.9,27.1,13,27,13z"/>
	<path d="M27.2,12.5c0,0,0-0.1,0.1-0.2C27.2,12.4,27.2,12.4,27.2,12.5C27.2,12.5,27.2,12.5,27.2,12.5z"/>
	<path d="M27.2,12.5C27.2,12.5,27.2,12.6,27.2,12.5C27.2,12.6,27.2,12.6,27.2,12.5C27.2,12.6,27.2,12.6,27.2,12.5L27.2,12.5z"/>
	<path d="M27.5,12.3L27.5,12.3c-0.1,0.3-0.2,0.5-0.2,0.8h0.1c0.2-0.5,0.4-1,0.4-1.3C27.6,11.8,27.5,12.2,27.5,12.3z"/>
	<path d="M27,13.8L27,13.8C26.9,13.7,26.9,13.7,27,13.8L27,13.8z"/>
	<path d="M27.2,12.6C27.2,12.6,27.1,12.7,27.2,12.6L27.2,12.6C27.1,12.7,27.2,12.7,27.2,12.6L27.2,12.6z"/>
	<path d="M39.5,21.3C39.5,21.3,39.5,21.3,39.5,21.3C39.5,21.3,39.5,21.3,39.5,21.3C39.5,21.4,39.5,21.3,39.5,21.3L39.5,21.3
		C39.5,21.4,39.5,21.3,39.5,21.3C39.5,21.3,39.5,21.3,39.5,21.3z"/>
	<path d="M39.6,21.5C39.6,21.5,39.6,21.5,39.6,21.5C39.6,21.5,39.6,21.5,39.6,21.5C39.6,21.5,39.6,21.5,39.6,21.5z"/>
	<path d="M41.8,21.3C41.8,21.3,41.8,21.3,41.8,21.3C41.8,21.4,41.8,21.4,41.8,21.3c0-0.1,0.1-0.3,0.1-0.4c0-0.1,0-0.2,0-0.3
		C41.9,20.9,41.9,21.1,41.8,21.3z"/>
	<path d="M39.5,21.5C39.5,21.5,39.5,21.5,39.5,21.5L39.5,21.5c0-0.1,0-0.1,0-0.1c0,0,0,0,0,0c0,0,0,0,0,0c0,0,0,0,0,0l0,0.1v0
		c0,0,0,0,0,0c0,0,0,0,0,0C39.5,21.4,39.5,21.4,39.5,21.5C39.5,21.4,39.5,21.4,39.5,21.5C39.5,21.5,39.5,21.5,39.5,21.5
		C39.5,21.5,39.5,21.5,39.5,21.5L39.5,21.5C39.5,21.5,39.5,21.5,39.5,21.5c-0.1,0.1-0.1,0.1-0.1,0.2l0,0c0,0,0,0,0,0s0,0,0,0l0.1,0
		C39.5,21.7,39.6,21.6,39.5,21.5C39.6,21.5,39.6,21.5,39.5,21.5C39.6,21.5,39.6,21.5,39.5,21.5c0.1-0.3,0.1-0.5,0.2-0.7
		C39.6,20.9,39.6,21.3,39.5,21.5C39.5,21.5,39.5,21.5,39.5,21.5z"/>
	<path d="M40,22.2c0,0-0.1,0-0.1,0c0,0,0,0,0,0C39.9,22.2,39.9,22.2,40,22.2z"/>
	<path d="M39.8,21.5C39.8,21.5,39.8,21.5,39.8,21.5C39.8,21.5,39.8,21.5,39.8,21.5C39.8,21.5,39.8,21.5,39.8,21.5z"/>
	<path d="M39.8,21.7L39.8,21.7C39.8,21.7,39.8,21.7,39.8,21.7C39.8,21.7,39.8,21.7,39.8,21.7L39.8,21.7z"/>
	<path d="M39.7,18.6L39.7,18.6C39.7,18.6,39.7,18.6,39.7,18.6L39.7,18.6C39.7,18.6,39.6,18.6,39.7,18.6
		C39.6,18.7,39.6,18.7,39.7,18.6C39.7,18.7,39.7,18.6,39.7,18.6L39.7,18.6z"/>
	<path d="M39.7,20.6C39.6,20.6,39.6,20.6,39.7,20.6C39.7,20.6,39.7,20.6,39.7,20.6C39.7,20.5,39.7,20.5,39.7,20.6
		c-0.1,0-0.1,0.2-0.1,0.4c0,0,0,0,0,0C39.6,20.9,39.6,20.8,39.7,20.6z"/>
	<rect x="39.4" y="21.7" transform="matrix(-0.9965 8.339492e-02 -8.339492e-02 -0.9965 80.599 40.1137)" width="0.1" height="0"/>
	<path d="M39.4,21.8C39.4,21.8,39.4,21.9,39.4,21.8L39.4,21.8C39.5,21.9,39.5,21.8,39.4,21.8L39.4,21.8c0,0,0.1,0,0.1,0v0
		C39.5,21.8,39.4,21.8,39.4,21.8L39.4,21.8z"/>
	<path d="M39.4,21.9L39.4,21.9L39.4,21.9C39.4,21.9,39.4,21.9,39.4,21.9z"/>
	<polygon points="39.4,21.5 39.5,21.5 39.5,21.5 	"/>
	<path d="M41.5,21.2C41.5,21.2,41.5,21.2,41.5,21.2C41.4,21.2,41.4,21.2,41.5,21.2C41.4,21.3,41.4,21.2,41.5,21.2L41.5,21.2
		C41.5,21.3,41.5,21.3,41.5,21.2C41.5,21.2,41.5,21.2,41.5,21.2z"/>
	<path d="M41.4,21.4C41.4,21.4,41.5,21.4,41.4,21.4L41.4,21.4c0-0.1,0-0.1,0-0.1c0,0,0,0,0,0c0,0,0,0,0,0c0,0,0,0,0,0l0,0.1v0
		c0,0,0,0,0,0c0,0,0,0,0,0C41.4,21.3,41.4,21.4,41.4,21.4C41.4,21.4,41.4,21.4,41.4,21.4C41.4,21.4,41.4,21.4,41.4,21.4
		C41.4,21.4,41.4,21.4,41.4,21.4L41.4,21.4C41.4,21.4,41.4,21.4,41.4,21.4c-0.1,0.1-0.1,0.1-0.1,0.2h0c0,0,0,0,0,0c0,0,0,0,0,0
		l0.1,0C41.5,21.6,41.5,21.4,41.4,21.4C41.5,21.4,41.5,21.4,41.4,21.4c0.1-0.3,0.1-0.5,0.2-0.7C41.6,20.8,41.5,21.2,41.4,21.4
		C41.5,21.4,41.4,21.4,41.4,21.4z M41.5,21.4C41.5,21.4,41.5,21.4,41.5,21.4C41.5,21.4,41.5,21.4,41.5,21.4
		C41.5,21.4,41.5,21.4,41.5,21.4z"/>
	<path d="M41.8,21.4C41.8,21.4,41.8,21.4,41.8,21.4C41.8,21.4,41.8,21.4,41.8,21.4C41.8,21.4,41.8,21.4,41.8,21.4z"/>
	<path d="M41.7,21.6L41.7,21.6C41.8,21.6,41.8,21.6,41.7,21.6C41.8,21.6,41.8,21.6,41.7,21.6L41.7,21.6z"/>
	<polygon points="41.4,21.4 41.4,21.4 41.4,21.4 	"/>
	<path d="M41.3,21.8L41.3,21.8L41.3,21.8C41.3,21.8,41.3,21.8,41.3,21.8z"/>
	<path d="M41.9,22.1c0,0-0.1,0-0.1,0c0,0,0,0,0,0C41.8,22.1,41.9,22.1,41.9,22.1z"/>
	<path d="M41.6,20.5C41.6,20.5,41.6,20.5,41.6,20.5C41.6,20.5,41.6,20.5,41.6,20.5C41.6,20.5,41.6,20.4,41.6,20.5
		c-0.1,0-0.1,0.2-0.1,0.4c0,0,0,0,0,0C41.5,20.8,41.6,20.7,41.6,20.5z"/>
	<path d="M39.8,21.5C39.8,21.5,39.8,21.5,39.8,21.5c0,0,0,0.1,0,0.1h0C39.8,21.6,39.9,21.6,39.8,21.5C39.9,21.6,39.9,21.6,39.8,21.5
		C39.9,21.6,39.8,21.6,39.8,21.5z"/>
	<path d="M41.3,21.7C41.3,21.8,41.3,21.8,41.3,21.7L41.3,21.7C41.4,21.8,41.4,21.7,41.3,21.7L41.3,21.7c0,0,0.1,0,0.1,0v0
		C41.4,21.7,41.4,21.7,41.3,21.7L41.3,21.7z"/>
	<rect x="41.4" y="21.6" transform="matrix(-0.9966 8.287074e-02 -8.287074e-02 -0.9966 84.4738 39.8013)" width="0.1" height="0"/>
	<path d="M41.8,21.5C41.8,21.4,41.8,21.4,41.8,21.5c0,0,0,0.1,0,0.1h0C41.8,21.6,41.8,21.5,41.8,21.5C41.8,21.5,41.8,21.5,41.8,21.5
		C41.8,21.5,41.8,21.5,41.8,21.5z"/>
	<path d="M41.9,22.1C41.9,22.1,41.9,22.1,41.9,22.1C41.9,22.1,42,22.1,41.9,22.1L41.9,22.1z"/>
	<polygon points="41.8,21.4 41.8,21.4 41.8,21.4 	"/>
	<path d="M41.7,21.7C41.7,21.7,41.7,21.7,41.7,21.7L41.7,21.7C41.7,21.8,41.7,21.8,41.7,21.7L41.7,21.7
		C41.7,21.8,41.7,21.8,41.7,21.7C41.7,21.8,41.7,21.7,41.7,21.7L41.7,21.7C41.7,21.7,41.7,21.7,41.7,21.7L41.7,21.7z"/>
	<path d="M0,0v36h69.1V0H0z M43.3,18.6C43.2,18.6,43.2,18.6,43.3,18.6C43.2,18.6,43.2,18.6,43.3,18.6z M29.7,10.8
		C29.7,10.8,29.7,10.8,29.7,10.8L29.7,10.8c-0.4,0.9-0.5,1.8-0.9,2.6c-0.1,0.3-0.3,0.7-0.4,1l0,0.2c-0.1,0.3-0.3,0.6-0.5,0.9
		l-0.2,0.4l-0.3,0.7c0,0,0-0.1,0-0.1c0-0.1,0.1-0.2,0.1-0.3l0.3-0.7c0.2-0.5,0.4-1,0.6-1.5c0,0,0,0,0-0.1v0c0,0,0,0,0,0h0
		c0-0.1,0.1-0.2,0.1-0.3c-0.2,0.4-0.3,0.8-0.5,1.2l-0.3,0.7c-0.1,0.2-0.2,0.5-0.3,0.7c0-0.1,0.1-0.2,0.2-0.4l0,0
		c0,0,0.1-0.1,0.1-0.2c-0.2,0.2-0.3,0.5-0.4,0.7c0-0.1,0.2-0.4,0.2-0.5c0,0-0.1,0.1-0.1,0.1L27,16.3c0,0,0,0,0,0c0,0,0,0,0-0.1v0
		c-0.1,0.1-0.3,0.5-0.3,0.5c0,0,0,0-0.1,0c-0.1,0,0,0.1-0.1,0.1c0.1-0.4,0.1-0.5,0.2-0.9c0.2-0.8,0.2-1.2,0.3-1.7
		c-0.1,0-0.1-0.1-0.1-0.2l0-0.1c0-0.1,0-0.1,0.1-0.2c0,0,0,0,0,0c0,0,0-0.1,0.1-0.1l0-0.1L27,13.5c-0.1,0.6-0.4,1.2-0.6,1.7
		c0,0,0-0.1,0-0.1c0-0.3,0.2-0.6,0.3-0.8c0,0,0,0-0.1,0c0-0.1,0.1-0.2,0.1-0.3v0c0,0,0-0.1,0-0.1c0,0,0,0,0-0.1c0,0,0,0,0,0v0
		c0.2-0.3,0-0.7,0.2-1.1v-0.2c0-0.1,0.1-0.1,0.1-0.2c1.9-6.5,0.8-2.9,2.3-8.7c-0.2,0-0.4,0-0.7,0c-1,0-2.1-0.1-2.4-0.3v0
		c-0.1-0.1-0.4-0.1-0.4-0.2c0,0,0,0,0,0h0.1c0,0-0.1,0-0.1-0.1c0,0,0,0,0,0L26,3.2v0c0-0.1-0.1-0.1-0.1-0.2c0,0,0,0,0,0v0
		c0,0,0,0,0,0c0,0-0.1-0.1-0.1-0.1c0,0,0.1,0,0.1,0c0,0,0,0,0.1,0c0,0-0.1,0-0.1,0c0,0,0,0,0-0.1c0,0-0.1,0-0.1,0c0,0,0,0,0,0
		c0,0,0,0,0.1,0v0c0,0,0,0,0,0c0,0,0.1-0.1,0.1-0.1h0c0-0.1-0.1-0.1-0.1-0.1c0,0,0,0,0,0c0,0,0.1,0,0.1,0c0-0.1-0.1-0.1-0.2-0.1l0,0
		c0,0,0,0,0.1,0c0,0,0.1,0,0.1,0c0,0,0,0-0.1-0.1l0-0.1c0.1,0,0.2,0,0.2,0c0.1,0,0.1,0,0.2,0c-0.1-0.1-0.3,0-0.4-0.1h0
		c0.1,0,0.1,0,0.1,0c0,0-0.2,0-0.2,0s0,0,0,0c0,0,0,0,0,0c0.4,0,0.8-0.3,1.2-0.3h2.5c0.3,0,0.6,0,0.9,0c0,0-0.1,0-0.1,0
		c-0.9,0.2-2.3,0.1-3.3,0.2c0,0.1,0.3,0.1,0.7,0.1c0.3,0,0.7,0,0.9,0c0.1,0,0.2,0,0.3,0s0.3-0.1,0.3-0.1l1.2-0.1
		c0.4,0,0.8-0.1,1.2-0.1H32c0,0,0,0,0,0v0c0.6,0,1.2-0.1,1.9-0.1c0.3,0,0.7,0,1,0c0.2,0,0.3-0.1,0.5-0.1c0.6,0,1.5,0.1,1.7,0.2
		c-0.1,0-0.1,0-0.2,0c-0.7,0-1.4-0.1-2.1-0.1c-0.7,0-1.6,0-2.3,0.1c0.1,0,0.2,0,0.2,0c0.6,0,1.2-0.1,1.7-0.1h0.1c-0.1,0-0.1,0-0.2,0
		c0.7,0,1.5,0,2.2,0.1c0,0-0.1,0-0.1,0c-0.1,0-0.1,0-0.2,0c0,0-0.1,0-0.1,0v0h-0.1c0.2,0.1,0.6,0,0.8,0.1c-0.1,0-0.2,0-0.3,0h-0.1
		c0,0,0,0,0,0c0,0-0.1,0-0.1,0c0,0,0,0-0.1,0c0,0.1,0.3,0,0.4,0c0,0.1-0.1,0-0.1,0.1C36.7,2.1,37,2.2,37,2.2l0,0c0,0,0.1,0,0.1,0
		c-0.2,0.1-0.6,0.4-0.8,0.5h-0.4c0,0,0,0,0,0l-1.1,0c-0.2,0-0.3,0-0.5,0.1c0,0,0,0,0,0C33.7,3,33.2,3,32.6,3.1c0,0,0,0.1,0.1,0.1
		c0,0,0.3,0,0.4-0.1c0.1,0,0.2,0,0.2,0c0.3,0,0.7-0.1,1.1-0.1c-0.1,0-0.2,0.1-0.2,0.1c0,0,0,0-0.1,0c0,0,0,0-0.1,0
		c-0.3,0.1-0.1,0-0.2,0.1c0,0,0,0-0.1,0c-0.1,0,0,0,0.1,0c0.3,0.1,0.1-0.1,0.6-0.1c0.4,0,0.8,0,1.2-0.1c0,0,0,0.1-0.1,0.1
		c-1.1,0.1-2.3,0.2-3.4,0.4c-0.1,0-0.2,0-0.4,0h-0.2l0.2,0.1c-0.1,0.2-0.2,0.5-0.2,0.7c-0.2,0.8-0.5,1.3-0.7,2.1
		c0.2-1,0.4-1.7,0.7-2.7c0,0,0,0.2-0.1,0.2l-0.3,1C31.1,5.2,31,5.4,31,5.7v0c-0.1,0.5-0.5,2.3-0.8,3.6L29.7,10.8z M36.2,1.8
		L36.2,1.8L36.2,1.8C36.2,1.8,36.2,1.8,36.2,1.8z M38.5,19.6c0,0-0.1,0-0.1-0.1c0-0.2,0.1-0.7,0.1-0.7l-0.3,0.9l-0.1-0.2
		c0,0-0.1,0-0.1,0c-0.4,0-0.5-0.1-0.5-0.2c0,0,0-0.1,0-0.1c0-0.1-0.3-0.1-0.3-0.2L37,18.9c-0.1,0.1-0.1,0.2-0.2,0.2
		c0,0-0.1,0-0.1-0.1c0,0,0.1-0.1,0.2-0.2c0-0.1,0-0.2,0-0.2c0,0,0,0-0.1,0c0,0,0,0,0,0l-0.1-0.6c-0.1,0-0.2-0.1-0.2-0.2
		c0-0.2,0.2-0.4,0.3-0.6c0,0,0,0,0,0.1c0.1-0.1,0.1-0.3,0.2-0.5l0-0.1c0,0.1-0.1,0.2-0.2,0.3c-1.3,0.4-1.7,0.5-2.1,0.5
		c-1,0-1.8-0.4-2.6-0.8c-0.7-0.4-0.9-0.7-1.3-1.7c-0.2-0.7-0.2-1.3-0.3-2c0,0.2,0,0.3,0,0.5c0,0.3,0.1,0.7,0.1,1
		c0,0.4,0.3,1.2,0.3,1.3c0,0-0.1-0.1-0.3-0.4l-0.1-0.3l0,0.1c-0.1-0.3-0.1-0.7-0.1-1c0-2.7,1.9-5.4,3.6-7.4c0.2-0.1,0.3-0.2,0.4-0.4
		c1.2-1,2.6-2.2,4.3-2.2c0.2,0.1,0.3,0,0.5,0.1c-0.1,0-0.2,0-0.2,0.1l0.1,0.1c0.4,0.1,0.8,0.1,1.1,0.3c0.7,0.6,0.7,0.6,0.7,0.7
		l0.8,1c-0.2-0.1-0.3-0.3-0.5-0.4c0.1,0.2,0.2,0.3,0.4,0.4c0.1,0.2,0.1,0.3,0.2,0.5c-0.1,0.1-0.1,0.1-0.2,0.1
		c-0.1,0-0.1-0.1-0.1-0.1c0,0,0,0,0,0.1c0,0.2,0.1,0.3,0.2,0.5l-0.5-0.6v0.1c0,0.3,0.5,0.6,0.5,0.7c0,0,0,0.1,0,0.1
		c0,0.1,0.2,0.2,0.2,0.2c0,0,0,0,0,0c-0.1,0-0.5-0.2-0.8-0.5c0,0.2,0.3,0.3,0.3,0.4c0,0,0,0.1-0.1,0.1c-0.2,0-0.3-0.2-0.5-0.3V8
		c0,0,0,0-0.1,0l-0.2,0.3c0-0.2-0.3-0.7-0.5-0.7l0.1,0.2c0,0.1,0,0.1,0,0.2c0,0.1,0.1,0.2,0.1,0.3l0,0c-0.1,0-0.1,0.1-0.1,0.1
		c-0.1,0-0.1-0.3-0.2-0.6c-0.4-0.2-0.4-1.6-1.3-1.6c-0.8,0-4,3.3-4.2,3.9c-0.6,1.2-1.4,2.4-1.4,3.8c0,1.5,1.1,2,2.3,2
		c1.2,0,2.3-0.7,2.8-0.9l1.1-3.2l-0.1,0.1v0c-0.9,0.2-2.1,0.3-2.8,0.8c0.7-0.2,2.2-0.6,2.2-0.6l-0.2,0.2c0,0,0,0,0,0.1v0
		c-0.3,0.2-2.4,0.7-2.7,1c-0.1-0.1-0.1-0.2-0.1-0.2c0-0.1,0-0.1,0.2-0.2c0,0-0.1,0-0.1,0c-0.2,0-0.3,0.2-0.5,0.2c0,0,0,0,0-0.1h0
		c0.1-0.1,0.1-0.2,0.1-0.3c0-0.1,0-0.2-0.1-0.3c0,0,0.1,0,0.1,0s0,0,0-0.1c0,0,0.1,0,0.1-0.1h-0.1c-0.1,0-0.2,0-0.2-0.1
		c0.1-0.1,0.3,0,0.4-0.1c-0.1,0-0.2-0.1-0.2-0.1v-0.1c0,0,0,0-0.1,0h-0.2c0.2-0.2,0.3-0.2,0.3-0.3c0,0-0.1,0-0.1-0.1h0
		c0.1,0,0.1,0,0.2,0c0.2,0,0.4,0,0.5-0.2l-0.8,0.1l1.4-0.4c-0.4,0-0.8,0.2-1.3,0.2c-0.1,0-0.2-0.1-0.2-0.2c0,0,0-0.1,0.1-0.1
		c0.1,0,0.2,0,0.3,0c1.6,0,3.2-1,5-1.2c0.2,0,0.4,0,0.6-0.2c0.1,0,0.1,0.1,0.2,0.1c0,0,0,0,0.1,0l0.7-0.1c0.1,0,0.2,0,0.2,0
		c0.2,0,0.4-0.1,0.7-0.1h0.1c0,0.1-0.5,0.2-0.5,0.2c0.2,0,0.5-0.1,0.7-0.1c0.1,0,0.2,0,0.2,0c-0.5,0.1-0.6,0.2-0.6,0.2
		c0,0,0,0,0.1,0c0,0,0,0,0.1,0v0c0,0.1,0.2,0,0.2,0.1c0,0-0.7,0-0.8,0.1c0,0,0,0,0.1,0c0.1,0,0.2,0,0.2,0c0,0,0.1,0,0.1,0
		c0,0,0,0,0,0.1h0.1c0,0,0,0,0,0.1c0,0.1-0.3,0.2-0.8,0.3c0,0,0,0,0-0.1c-0.1,0-0.2,0-0.3,0.1l0.6,0c0.1,0,0.1,0,0.1,0
		c0,0-0.2,0.1-0.3,0.1c0,0,0.1,0,0.1,0c0.1,0,0.3-0.1,0.3-0.1c0,0,0,0,0,0c0,0.1-0.5,0.2-0.7,0.3h0.2c0.1,0,0.2,0,0.3,0
		c0.1,0,0.1,0,0.1,0c0,0,0,0,0,0.1l-1,0.2c-0.6,1.1-1,2.2-1.4,3.4l1.4-3.1c0.2-0.1,0.2-0.2,0.2-0.2v0l0,0.1c-0.1,0.4-0.3,0.7-0.4,1
		c-0.4,0.9-0.5,1.1-0.5,1.4L39.7,15c0,0.7-0.5,1.6-0.5,1.9l-0.4,1.9L38.5,19.6z M34,10.3L34,10.3c0,0.1-0.9,1.7-1,2.2l0-0.1
		c0-0.6,0.5-1,0.6-1.6h0C33.8,10.4,34,10.3,34,10.3z M41.3,11.7c0,0-0.5,1-0.5,1.1L40.6,13l0.7-1.9l0.2,0.1
		C41.4,11.5,41.3,11.6,41.3,11.7z M41.3,18.7C41.3,18.7,41.3,18.7,41.3,18.7C41.3,18.7,41.3,18.7,41.3,18.7z M39.1,21.7
		C39.1,21.7,39.1,21.7,39.1,21.7C39.1,21.7,39.1,21.7,39.1,21.7z M38.9,22.2C39,22.2,39,22.2,38.9,22.2C39,22.2,39,22.2,38.9,22.2z
		 M40.2,22.2L40.2,22.2C40.2,22.2,40.2,22.2,40.2,22.2C40.2,22.2,40.2,22.2,40.2,22.2z M40.2,22.2C40.2,22.2,40.3,22.2,40.2,22.2
		C40.3,22.2,40.3,22.2,40.2,22.2C40.2,22.2,40.2,22.2,40.2,22.2z M40.3,22.2c0,0,0.1,0,0.1,0C40.4,22.2,40.3,22.2,40.3,22.2z
		 M40.3,22.2C40.3,22.1,40.3,22.1,40.3,22.2C40.3,22.1,40.3,22.1,40.3,22.2z M40.4,22.2L40.4,22.2C40.3,22.2,40.3,22.2,40.4,22.2
		C40.3,22.2,40.3,22.2,40.4,22.2C40.4,22.2,40.4,22.2,40.4,22.2C40.4,22.2,40.4,22.2,40.4,22.2z M40.5,22.1
		C40.5,22.1,40.5,22.1,40.5,22.1C40.5,22.1,40.5,22.1,40.5,22.1z M40.6,22.1C40.6,22.1,40.6,22.1,40.6,22.1
		C40.6,22.1,40.6,22.1,40.6,22.1z M40.5,22.1C40.5,22.1,40.5,22.1,40.5,22.1C40.6,22,40.6,22,40.5,22.1L40.5,22.1
		C40.6,22.1,40.6,22.1,40.5,22.1c0.1,0,0.1,0,0.1,0C40.6,22.1,40.5,22.1,40.5,22.1z M40.9,22.1C40.9,22.1,40.9,22.1,40.9,22.1
		C40.9,22.1,40.9,22.1,40.9,22.1z M41,22.1C41,22.1,41,22.2,41,22.1C41,22.2,41,22.1,41,22.1z M42,22.1L42,22.1
		C42,22.1,42,22.1,42,22.1c0.1,0,0.2,0,0.3,0C42.2,22.1,42.2,22.1,42,22.1C42,22.1,42,22.1,42,22.1C42,22.1,42,22.1,42,22.1z
		 M42.3,22.1C42.2,22.1,42.2,22.1,42.3,22.1C42.2,22.1,42.2,22.1,42.3,22.1z M42.1,22.1C42.1,22.1,42,22.1,42.1,22.1
		C42,22.1,42.1,22.1,42.1,22.1L42.1,22.1C42.1,22.1,42.1,22.1,42.1,22.1C42.1,22.1,42.1,22.1,42.1,22.1z M42.1,22.1L42.1,22.1
		C42.1,22.1,42.1,22.1,42.1,22.1C42.1,22.1,42.1,22.1,42.1,22.1z M42.2,22.1C42.2,22.1,42.2,22.1,42.2,22.1
		C42.2,22.1,42.2,22.1,42.2,22.1C42.2,22.1,42.2,22.1,42.2,22.1z M42.2,22.1c0,0,0.1,0,0.1,0C42.3,22.1,42.3,22.1,42.2,22.1z
		 M42.3,22.1L42.3,22.1C42.3,22.1,42.3,22.1,42.3,22.1C42.3,22.1,42.3,22.1,42.3,22.1C42.3,22.1,42.3,22.1,42.3,22.1
		C42.3,22.1,42.3,22.1,42.3,22.1z M42.4,22C42.4,22,42.4,22,42.4,22L42.4,22C42.4,22,42.4,22,42.4,22z M42.4,22
		C42.4,22,42.4,22,42.4,22C42.4,22,42.4,22,42.4,22z M42.5,22C42.5,22,42.5,22,42.5,22C42.6,22,42.5,22,42.5,22z M42.4,22
		C42.4,22,42.5,22,42.4,22C42.5,22,42.5,22,42.4,22l0.1,0c0,0,0,0,0,0c0,0,0,0,0,0C42.5,22,42.5,22,42.4,22z M42.7,18.8L42.7,18.8
		C42.7,18.9,42.7,18.8,42.7,18.8L42.7,18.8c0.1,0,0.1,0,0.2,0c0,0,0,0,0,0c0.1,0,0.2,0,0.3,0h0c0,0,0,0,0.1,0c0,0,0,0-0.1,0
		c-0.1,0-0.1,0-0.2,0C42.8,18.9,42.7,18.9,42.7,18.8c-0.1,0.1-0.1,0.1-0.1,0.1c0,0,0,0,0,0c0,0,0,0,0,0h-0.1
		c-0.1,0.2-0.1,0.5-0.2,0.7c0,0,0,0,0,0c0,0,0,0,0,0c0-0.3,0.1-0.5,0.1-0.7h0c0,0.1-0.1,0.2-0.1,0.2l0,0c-0.1,0.4-0.2,1.1-0.3,1.2
		c0,0.2-0.1,0.3-0.1,0.5c0,0.2-0.1,0.3-0.1,0.5c0,0,0,0,0,0.1c0,0.1,0,0.1,0,0.2c0,0,0,0,0,0c0,0,0,0,0,0c0.1,0,0.3,0,0.4,0
		c0,0,0,0,0,0c0,0,0,0,0,0c0,0,0,0,0.1,0c0,0-0.1,0-0.1,0c0,0-0.1,0-0.1,0c0,0,0.1,0,0.1,0c0,0,0,0-0.1,0c0,0-0.1,0-0.1,0v0h0h0
		c0,0,0,0,0,0c0,0,0,0,0,0c0,0,0,0,0,0c0,0,0,0,0,0h0c0,0,0,0,0,0c0,0,0,0-0.1,0c0,0,0,0,0,0c0,0,0,0,0,0v0h-0.1v0c0,0,0,0,0,0
		c0,0,0,0,0,0v0c0,0,0,0,0,0l0,0l0,0c0,0,0,0,0,0l0.2,0c0.1,0,0.1,0,0.2,0c0.1,0,0.3,0,0.4,0c-0.3,0.1-0.5,0.1-0.8,0.1v0
		c0,0,0.1,0,0.1,0c0,0,0.1,0,0.1,0c0.2,0,0.4-0.1,0.6-0.1c0,0-0.1,0-0.1,0c0,0,0,0,0,0c0,0,0,0,0,0c-0.1,0-0.2,0-0.4,0.1
		c0,0,0,0,0.1,0c0.1,0,0.1,0,0.2,0l0,0c0,0,0,0,0,0s0,0,0,0c0,0-0.1,0-0.1,0c0,0,0,0,0,0c0,0,0,0,0,0c0,0,0,0,0,0c0,0,0.1,0,0.1,0v0
		l0.2-0.1c0,0,0,0,0,0h0.1c-0.1,0-0.1,0-0.1,0c0,0,0,0,0.1,0C42.5,22,42.4,22,42.3,22c0,0,0,0,0,0c0,0,0.1,0,0.1,0c0,0-0.1,0-0.1,0
		h0c-0.1,0-0.3,0-0.4,0c0,0,0,0,0,0v0H42l0,0c0,0,0,0,0,0h0c0,0,0,0,0,0c-0.1,0-0.2,0-0.2,0h0v0c0,0-0.1,0-0.1,0c0,0,0,0,0,0
		c0,0,0,0,0,0c0,0,0,0-0.1,0c0,0,0,0,0,0c-0.1,0-0.2,0-0.3,0v0c-0.3,0-0.4-0.1-0.4-0.2c0,0,0,0,0,0c0,0,0,0,0,0v0c0,0,0,0,0,0
		c0,0,0,0,0,0l0,0c0,0,0,0,0,0c0,0,0,0,0,0l0,0c0,0,0.1,0,0.1-0.1l0,0c0,0,0,0,0,0s0,0,0,0c0,0,0,0,0,0v0c0,0,0,0,0,0
		c0.1,0,0.1,0,0.2,0v0c-0.1,0-0.2,0-0.3,0h0l0,0c0,0,0,0,0,0c0,0,0,0,0,0c0,0,0,0,0,0c0,0,0,0,0,0c0,0,0,0,0.1-0.1H41
		c0,0-0.1,0-0.1,0v0c0,0,0,0,0,0c0,0,0,0,0.1,0c0,0,0.1,0,0.1,0h0c0,0,0,0,0,0c0,0,0,0,0,0l0,0h0.1c0,0,0,0,0,0h0c0,0,0,0-0.1,0
		c0,0,0,0,0,0c0,0,0,0,0,0c0,0,0,0,0,0l0.1,0v0c0,0-0.1,0-0.1,0h0.1c0,0,0,0,0,0h0v0c0,0,0-0.1,0-0.1v0c0,0,0,0,0,0c0,0,0,0,0,0
		c0,0,0,0,0,0c0,0,0,0,0,0c0-0.3,0.1-0.5,0.1-0.5c0.1-0.3,0.1-0.6,0.2-0.9v0c0,0,0,0,0,0c0.1-0.2,0-0.6,0.2-0.7c0,0,0,0,0,0
		c0-0.1,0.1-0.2,0.1-0.3c-0.1,0-0.3,0-0.4,0c0,0,0,0,0,0c0,0,0,0,0,0c0,0,0,0,0,0c0,0,0,0,0,0c0,0,0,0,0,0c0,0,0,0,0,0v0
		c0,0,0,0,0,0c0,0,0,0,0,0c0,0,0.1,0,0.1-0.1c0,0,0,0,0,0s0,0,0,0c0,0-0.1,0-0.1,0c0,0,0,0,0,0c0,0,0,0,0,0c0,0,0,0,0,0c0,0,0,0,0,0
		c0,0,0,0,0,0h0c0,0,0,0,0,0c0,0,0,0,0,0c0,0,0,0,0,0v0c0,0,0,0,0,0c0,0,0,0,0,0l0,0c0,0,0,0,0,0c0,0,0.1,0,0.2,0
		c-0.1,0-0.2,0-0.4,0c-0.1,0-0.2,0-0.2,0h0c0,0,0,0,0,0h0c0.1,0,0.1,0,0.2,0c0,0,0,0,0,0c0.1,0,0.2,0,0.3,0h0c0,0,0,0,0.1,0
		c0,0,0,0-0.1,0c-0.1,0-0.1,0-0.2,0c-0.1,0-0.2,0-0.3,0c0,0,0,0-0.1,0c0,0,0,0,0,0c0,0,0,0,0,0h-0.1c-0.1,0.2-0.1,0.5-0.2,0.7
		c0,0,0,0,0,0c0,0,0,0,0,0c0-0.3,0.1-0.5,0.1-0.7h0c0,0.1-0.1,0.2-0.1,0.2l0,0c-0.1,0.4-0.2,1.1-0.3,1.2c0,0.2-0.1,0.4-0.1,0.5
		c0,0.1-0.1,0.3-0.1,0.4c0,0,0,0,0,0.1c0,0,0,0,0,0c0,0.1,0,0.1,0,0.2c0,0,0,0,0,0c0,0,0,0,0,0c0.1,0,0.3,0,0.4,0c0,0,0,0,0.1,0
		c0,0,0,0,0,0c0,0,0,0,0,0c0,0,0,0,0.1,0c0,0,0,0,0.1,0c0,0-0.1,0-0.1,0c0,0-0.1,0-0.1,0c0,0,0.1,0,0.1,0c0,0,0,0-0.1,0
		c0,0-0.1,0-0.1,0v0h0c0,0,0,0,0,0c0,0,0,0,0,0c0,0,0,0,0,0c0,0,0,0,0,0c0,0,0,0,0,0h0c0,0,0,0-0.1,0c0,0,0,0,0,0c0,0,0,0,0,0v0h0
		c0,0,0,0,0,0v0c0,0,0,0,0,0l0.2,0c0.1,0,0.1,0,0.2,0c0.1,0,0.3,0,0.4,0c-0.3,0.1-0.5,0.1-0.8,0.1v0c0,0,0.1,0,0.1,0
		c0,0,0.1,0,0.1,0c0.2,0,0.4-0.1,0.6-0.1c-0.1,0.1-0.3,0-0.5,0.1c0,0,0,0,0.1,0c0.1,0,0.1,0,0.2,0l0,0c0,0,0,0,0,0c0,0,0,0,0,0
		c0,0-0.1,0-0.1,0c0,0,0,0,0,0c0,0,0,0,0,0c0,0,0,0,0,0c0,0,0.1,0,0.1,0v0l0.2-0.1c0,0,0,0,0,0h0.1c-0.1,0-0.1,0-0.1,0
		c0,0,0,0,0.1,0c0,0-0.1,0.1-0.2,0.1c0,0,0,0,0,0c0,0,0,0,0,0l0,0c0,0-0.1,0-0.1,0c0,0,0,0,0,0c0,0,0.1,0,0.1,0c0,0-0.1,0-0.1,0h0
		c0,0,0,0,0,0c0,0,0,0,0.1,0c-0.1,0-0.1,0-0.1,0c0,0-0.1,0-0.1,0h0c0,0,0,0,0,0c0,0,0,0,0,0c0,0,0,0,0,0c0,0,0,0,0,0c0,0,0,0,0,0
		c0,0,0,0,0,0v0c0,0-0.1,0-0.1,0c0,0,0,0,0,0v0h0.1l0,0c0,0,0,0,0,0h0c0,0,0,0,0,0c-0.1,0-0.2,0-0.2,0c-0.1,0-0.1,0-0.2,0
		c0,0,0,0,0,0c0,0,0,0-0.1,0c0,0,0,0,0,0c-0.1,0-0.2,0-0.3,0v0c-0.1,0-0.1,0-0.2-0.1c0,0,0,0,0,0c0,0,0,0,0,0
		c-0.1,0-0.2-0.1-0.2-0.2c0,0,0,0,0,0c0,0,0,0,0,0v0c0,0,0,0,0,0c0,0,0,0,0,0h0c0,0,0,0,0,0c0,0,0,0,0,0l0,0c0,0,0.1,0,0.1-0.1l0,0
		c0,0,0,0,0,0s0,0,0,0c0,0,0,0,0,0v0c0,0,0,0,0,0c0.1,0,0.1,0,0.2,0v0c-0.1,0-0.2,0-0.3,0h0l0,0c0,0,0,0,0,0c0,0,0,0,0,0
		c0,0,0,0,0,0c0,0,0,0,0,0c0,0,0,0,0,0c0,0,0,0,0.1-0.1H39c0,0-0.1,0-0.1,0v0c0,0,0,0-0.1,0c0,0,0.1,0,0.1,0c0,0,0.1,0,0.1,0h0
		c0,0,0,0,0,0c0,0,0,0,0,0l0,0h0.1c0,0,0,0,0,0h0c0,0,0,0-0.1,0c0,0,0,0,0,0c0,0,0,0,0,0c0,0,0,0,0,0l0,0v0c0,0-0.1,0-0.1,0h0.1
		c0,0,0,0,0,0h0v0c0,0,0-0.1,0-0.1v0c0,0,0,0,0,0c0,0,0,0,0,0c0,0,0,0,0,0c0,0,0,0,0,0c0-0.3,0.1-0.5,0.1-0.5
		c0.1-0.3,0.1-0.6,0.2-0.9v0c0,0,0,0,0,0c0.1-0.2,0-0.6,0.2-0.7c0,0,0,0,0,0c0-0.1,0.1-0.2,0.1-0.3c-0.1,0-0.3,0-0.4,0c0,0,0,0,0,0
		c0,0,0,0,0,0c0,0,0,0,0,0c0,0,0,0,0,0c0,0,0,0,0,0c0,0,0,0,0,0v0c0,0,0,0,0,0c0,0,0,0,0,0c0,0,0,0,0,0c0,0,0.1,0,0.1-0.1
		c0,0,0,0,0,0c0,0,0,0,0,0c0,0-0.1,0-0.1,0c0,0,0,0,0,0c0,0,0,0,0,0c0,0,0,0,0,0h0v0h0c0,0,0,0,0,0v0c0,0,0,0,0,0v0c0,0,0,0,0,0
		c0,0,0,0,0,0c0,0,0,0,0,0h0c0,0,0,0,0,0c0,0,0,0,0,0c0-0.2,0.2-0.2,0.3-0.2c0,0,0,0,0,0c0,0,0.1,0,0.1,0c0,0,0,0,0,0c0,0,0,0,0,0
		c0,0,0,0,0,0c0,0,0,0,0,0c0,0,0,0,0,0h0.1c0,0,0,0,0.1,0c0,0,0,0,0,0c0,0,0,0,0,0v0c0.1,0,0.1,0,0.1,0c0,0,0,0,0,0
		c-0.1,0-0.2,0-0.3,0h0c0,0,0,0,0,0c0,0-0.1,0-0.1,0v0h-0.1c0,0-0.1,0-0.1,0c0,0,0,0,0,0h0c0,0,0,0,0,0c0.1,0,0.3,0,0.4,0
		c0,0,0,0,0,0c0,0,0,0,0,0h0c0,0,0,0,0,0c0.1,0,0.3,0,0.5,0c0.2,0,0.3,0,0.3,0c0,0,0,0,0,0c0,0,0.2,0,0.3,0c0,0,0,0,0,0c0,0,0,0,0,0
		c0,0-0.1,0-0.1,0h0.1c0,0,0,0,0,0v0c0,0,0,0,0,0h0c0,0,0,0,0,0c0,0,0,0-0.1,0c0,0,0,0,0,0c0,0,0.1,0,0.1,0c0,0-0.1,0-0.1,0
		c-0.1,0-0.1,0-0.2,0c0,0,0,0,0,0c0.1,0,0.3,0,0.4,0.1c0,0,0,0,0,0h0v0h0c0,0,0,0,0,0v0c0,0,0,0,0,0v0c0,0,0,0,0,0c0,0,0,0,0,0
		c0,0,0,0,0,0h0c0,0,0,0,0,0c0,0,0,0,0,0c0-0.2,0.2-0.2,0.3-0.2c0,0,0,0,0,0c0,0,0.1,0,0.1,0c0,0,0,0,0,0c0,0,0,0,0,0c0,0,0,0,0,0
		s0,0,0,0c0,0,0,0,0,0h0.1c0,0,0,0,0.1,0c0,0,0,0,0,0c0,0,0,0,0,0v0c0.1,0,0.1,0,0.1,0c0,0,0,0,0,0c-0.1,0-0.2,0-0.3,0h0
		c0,0,0,0,0,0c0,0-0.1,0-0.1,0v0h-0.1c0,0-0.1,0-0.1,0c0,0,0,0,0,0h0c0,0,0,0,0,0c0.1,0,0.3,0,0.4,0c0,0,0,0,0,0c0,0,0,0,0,0h0
		c0,0,0,0,0,0c0.1,0,0.3,0,0.5,0c0.2,0,0.3,0,0.3,0c0,0,0,0,0,0c0,0,0.2,0,0.3,0c0,0,0,0,0,0c0,0,0,0,0,0c0,0-0.1,0-0.1,0h0.1
		c0,0,0,0,0,0v0c0,0,0,0,0,0h0c0,0,0,0,0,0c0,0,0,0-0.1,0c0,0,0,0,0,0c0,0,0.1,0,0.1,0c0,0-0.1,0-0.1,0c-0.1,0-0.1,0-0.2,0
		c0,0,0,0,0,0c0.1,0,0.3,0,0.4,0.1c0,0,0,0,0,0c0,0,0,0-0.1,0c0,0,0,0,0,0v0c0,0,0,0,0,0s0,0,0,0l0,0c0,0,0,0,0,0c0,0,0.1,0,0.2,0
		c-0.1,0-0.2,0-0.4,0C42.8,18.8,42.8,18.8,42.7,18.8z M42.9,18.9C42.9,18.9,42.9,18.9,42.9,18.9C42.9,18.9,42.9,18.9,42.9,18.9z
		 M41.1,21.6C41.1,21.6,41.1,21.6,41.1,21.6C41.1,21.6,41.1,21.6,41.1,21.6z M41,18.9C41,18.9,41,18.9,41,18.9
		C41,18.9,41,18.9,41,18.9z M39.9,18.6C39.9,18.6,39.9,18.6,39.9,18.6C39.9,18.6,39.9,18.6,39.9,18.6z M41.8,18.5
		C41.8,18.5,41.8,18.5,41.8,18.5C41.8,18.5,41.8,18.5,41.8,18.5z M43.2,18.8L43.2,18.8C43.2,18.8,43.2,18.7,43.2,18.8
		C43.2,18.7,43.2,18.8,43.2,18.8z M43.3,18.8C43.3,18.8,43.3,18.8,43.3,18.8C43.3,18.7,43.3,18.7,43.3,18.8
		C43.3,18.7,43.3,18.8,43.3,18.8z"/>
	<path fill="#C02327" d="M31,5.7c0-0.2,0.1-0.4,0.2-0.7l0.3-1c0.1,0,0.1-0.2,0.1-0.2c-0.2,1-0.5,1.7-0.7,2.7
		c0.2-0.8,0.5-1.3,0.7-2.1c0-0.3,0.1-0.5,0.2-0.7l-0.2-0.1h0.2c0.2,0,0.3,0,0.4,0c1.1-0.2,2.3-0.3,3.4-0.4c0,0,0,0,0.1-0.1
		c-0.4,0-0.8,0-1.2,0.1c-0.4,0-0.2,0.1-0.6,0.1c0,0-0.2,0-0.1,0c0,0,0,0,0.1,0c0.1-0.1-0.1,0,0.2-0.1c0,0,0,0,0.1,0c0,0,0,0,0.1,0
		c0,0,0.2,0,0.2-0.1c-0.3,0-0.7,0.1-1.1,0.1c-0.1,0-0.2,0-0.2,0c-0.1,0.1-0.4,0.1-0.4,0.1c0,0-0.1,0-0.1-0.1C33.2,3,33.7,3,34.2,2.9
		c0,0,0,0,0,0c0.2-0.1,0.3-0.1,0.5-0.1l1.1,0c0,0,0,0,0,0h0.4c0.3-0.1,0.6-0.4,0.8-0.5c0,0-0.1,0-0.1,0l0,0c0,0-0.3-0.1-0.4-0.1
		c0-0.1,0.1,0,0.1-0.1c-0.1,0-0.4,0-0.4,0c0,0,0,0,0.1,0c0,0,0,0,0.1,0c0,0,0,0,0,0h0.1c0.1,0,0.2,0,0.3,0c-0.2-0.1-0.5,0-0.8-0.1
		h0.1v0c0,0,0.1,0,0.1,0c0.1,0,0.1,0,0.2,0c0,0,0.1,0,0.1,0c-0.7-0.1-1.4-0.1-2.2-0.1c0.1,0,0.1,0,0.2,0h-0.1
		c-0.6,0-1.1,0.1-1.7,0.1c-0.1,0-0.2,0-0.2,0c0.7-0.1,1.6-0.1,2.3-0.1c0.7,0,1.4,0.1,2.1,0.1c0,0,0.1,0,0.2,0
		c-0.2-0.1-1.1-0.2-1.7-0.2c-0.2,0-0.4,0.1-0.5,0.1c-0.3,0-0.6,0-1,0c-0.6,0-1.3,0.1-1.9,0.1v0c0,0,0,0,0,0h-0.1
		c-0.4,0-0.8,0.1-1.2,0.1l-1.2,0.1c0,0-0.2,0.1-0.3,0.1s-0.2,0-0.3,0c-0.2,0-0.6,0-0.9,0c-0.4,0-0.7,0-0.7-0.1c0.9,0,2.3,0,3.3-0.2
		c0,0,0.1,0,0.1,0c-0.3,0-0.6,0-0.9,0h-2.5c-0.4,0-0.8,0.3-1.2,0.3c0,0,0,0,0,0c0,0,0,0,0,0s0.2,0,0.2,0c0,0-0.1,0-0.1,0h0
		c0.1,0.1,0.3,0,0.4,0.1c-0.1,0-0.1,0-0.2,0c-0.1,0-0.2,0-0.2,0l0,0.1c0,0,0.1,0.1,0.1,0.1c0,0-0.1,0-0.1,0c0,0,0,0-0.1,0l0,0
		c0,0,0.2,0,0.2,0.1c0,0-0.1,0-0.1,0c0,0,0,0,0,0c0,0,0.1,0,0.1,0.1h0c0,0-0.1,0-0.1,0.1c0,0,0,0,0,0v0c0,0,0,0-0.1,0c0,0,0,0,0,0
		c0,0,0.1,0,0.1,0c0,0,0,0,0,0.1c0,0,0.1,0,0.1,0c0,0,0,0-0.1,0c0,0-0.1,0-0.1,0c0,0.1,0.1,0.1,0.1,0.1c0,0,0,0,0,0v0c0,0,0,0,0,0
		c0,0.1,0.1,0.1,0.1,0.2v0l-0.2-0.1c0,0,0,0,0,0c0,0,0.1,0,0.1,0.1h-0.1c0,0,0,0,0,0c0,0.1,0.3,0.1,0.4,0.2v0
		c0.3,0.2,1.4,0.3,2.4,0.3c0.3,0,0.5,0,0.7,0c-1.4,5.7-0.4,2.2-2.3,8.7c0,0,0,0.1-0.1,0.2v0.2c-0.2,0.4-0.1,0.7-0.2,1.1v0
		c0,0,0,0,0,0c0,0,0,0,0,0.1c0,0,0,0,0,0.1v0c0,0.1-0.1,0.2-0.1,0.3c0,0,0,0,0.1,0c-0.1,0.2-0.3,0.6-0.3,0.8c0,0,0,0.1,0,0.1
		c0.2-0.6,0.4-1.2,0.6-1.7l0.1-0.1l0,0.1c0,0.1-0.1,0.1-0.1,0.1c0,0,0,0,0,0c0,0.1-0.1,0.1-0.1,0.2l0,0.1c0,0.1,0,0.2,0.1,0.2
		c-0.1,0.4-0.1,0.9-0.3,1.7c-0.1,0.4-0.2,0.5-0.2,0.9c0,0,0-0.1,0.1-0.1c0,0,0,0,0.1,0c0,0,0.2-0.4,0.3-0.5v0c0,0,0,0,0,0.1
		c0,0,0,0,0,0l0.1-0.2c0,0,0-0.1,0.1-0.1c0,0.1-0.1,0.3-0.2,0.5c0.2-0.2,0.2-0.5,0.4-0.7c0,0.1-0.1,0.1-0.1,0.2l0,0
		c-0.1,0.1-0.2,0.2-0.2,0.4c0.2-0.2,0.2-0.4,0.3-0.7l0.3-0.7c0.2-0.4,0.3-0.8,0.5-1.2c0,0.1-0.1,0.2-0.1,0.3h0c0,0,0,0,0,0v0
		c0,0,0,0,0,0.1c-0.2,0.5-0.4,1-0.6,1.5l-0.3,0.7c0,0.1-0.1,0.2-0.1,0.3c0,0,0,0.1,0,0.1l0.3-0.7l0.2-0.4c0.2-0.3,0.3-0.6,0.5-0.9
		l0-0.2c0.1-0.3,0.3-0.7,0.4-1c0.4-0.8,0.5-1.7,0.8-2.6h0.1c0,0,0,0,0,0l0.5-1.5C30.5,8,30.9,6.2,31,5.7L31,5.7z M34.3,3.2
		C34.3,3.2,34.3,3.2,34.3,3.2C34.3,3.2,34.3,3.2,34.3,3.2L34.3,3.2C34.3,3.2,34.3,3.2,34.3,3.2z M33.8,3.1
		C33.7,3.1,33.8,3.2,33.8,3.1c0,0.1,0,0.1,0,0.1c-0.1,0-0.1,0-0.2,0c0,0,0,0-0.1,0c0,0,0,0-0.1,0l0.2-0.1h-0.1c0,0-0.1,0-0.1,0
		C33.6,3.1,33.7,3.1,33.8,3.1z M33.5,3.2C33.5,3.2,33.5,3.2,33.5,3.2C33.5,3.2,33.5,3.2,33.5,3.2C33.4,3.2,33.5,3.2,33.5,3.2z
		 M33.4,3.2C33.4,3.2,33.4,3.3,33.4,3.2C33.3,3.3,33.3,3.3,33.4,3.2C33.3,3.2,33.4,3.2,33.4,3.2z M33.3,3.2L33.3,3.2L33.3,3.2
		C33.2,3.2,33.3,3.2,33.3,3.2z M33.2,3.2C33.3,3.2,33.3,3.2,33.2,3.2C33.3,3.3,33.3,3.3,33.2,3.2C33.2,3.3,33.2,3.3,33.2,3.2
		C33.2,3.2,33.2,3.2,33.2,3.2z M33.2,3.2C33.2,3.3,33.2,3.3,33.2,3.2c-0.1,0.1-0.1,0.1-0.2,0C33.1,3.3,33.2,3.3,33.2,3.2z M32,3.3
		C32,3.3,32.1,3.3,32,3.3l0.2,0c0.2,0,0.5-0.1,0.7-0.1v0C33,3.3,32,3.4,32,3.3C32,3.4,31.9,3.4,32,3.3L32,3.3z M27.6,11
		c0,0.1-0.1,0.2-0.1,0.2v0c0,0,0,0,0,0c-0.1,0.1-0.3,1-0.3,1c-0.1,0,0-0.1-0.1-0.1C27.4,12,27.5,11.1,27.6,11z M27.3,12.3
		c0,0.1-0.1,0.1-0.1,0.2c0,0,0,0,0,0C27.2,12.4,27.2,12.4,27.3,12.3z M27.1,12.7C27.1,12.7,27.2,12.6,27.1,12.7
		C27.2,12.6,27.2,12.6,27.1,12.7c0-0.1,0-0.1,0.1-0.2v0C27.2,12.6,27.2,12.6,27.1,12.7L27.1,12.7C27.2,12.7,27.1,12.7,27.1,12.7
		L27.1,12.7z M27.2,12.8L27.2,12.8C27.1,12.8,27.1,12.8,27.2,12.8C27.1,12.8,27.2,12.8,27.2,12.8z M27,13.8L27,13.8
		C26.9,13.7,26.9,13.7,27,13.8L27,13.8z M27.1,13.1L27.1,13.1l0,0.1L27.1,13.1c-0.1,0-0.1,0.1-0.1,0C27,13.1,27,13.1,27.1,13.1
		C27,13.1,27.1,13.1,27.1,13.1l0-0.2C27.1,13,27.1,13,27.1,13.1c-0.1-0.2,0-0.3,0-0.4l0,0.2l0,0c0,0,0,0,0,0c0,0,0-0.1,0.1-0.1
		C27.2,12.9,27.2,13,27.1,13.1z M27.1,12.9C27.1,12.9,27.1,12.9,27.1,12.9L27.1,12.9L27.1,12.9z M27.3,12.6L27.3,12.6L27.3,12.6
		C27.2,12.5,27.3,12.5,27.3,12.6z M27.3,13.1L27.3,13.1c0-0.3,0.1-0.5,0.2-0.8v0c0-0.2,0.2-0.5,0.2-0.5
		C27.7,12.1,27.5,12.6,27.3,13.1z M28.5,13.7l0.1-0.2c0.3-0.6,0.4-1.3,0.7-1.9C29.1,12.3,28.8,13,28.5,13.7z"/>
	<path fill="#C02327" d="M36.2,1.8C36.2,1.8,36.2,1.8,36.2,1.8L36.2,1.8L36.2,1.8z"/>
	<path fill="#C02327" d="M33.6,10.8c-0.1,0.5-0.6,1-0.6,1.6l0,0.1c0.1-0.5,1-2,1-2.1v0C34,10.3,33.8,10.4,33.6,10.8L33.6,10.8z"/>
	<path fill="#C02327" d="M41.3,11.1L40.6,13l0.2-0.2c0,0,0.5-1.1,0.5-1.1c0-0.1,0.2-0.2,0.2-0.5L41.3,11.1z"/>
	<path fill="#C02327" d="M39.7,15l0.5-1.3c0.1-0.2,0.1-0.5,0.5-1.4c0.1-0.3,0.3-0.7,0.4-1l0-0.1v0c0,0-0.1,0.1-0.2,0.2l-1.4,3.1
		c0.4-1.2,0.9-2.3,1.4-3.4l1-0.2c0,0,0,0,0-0.1c0,0,0,0-0.1,0c-0.1,0-0.2,0-0.3,0h-0.2c0.1-0.1,0.7-0.2,0.7-0.3c0,0,0,0,0,0
		c0,0-0.2,0.1-0.3,0.1c-0.1,0-0.1,0-0.1,0c0.1-0.1,0.3-0.1,0.3-0.1c0,0,0,0-0.1,0l-0.6,0c0.1-0.1,0.2-0.1,0.3-0.1c0,0,0,0,0,0.1
		c0.4-0.1,0.8-0.2,0.8-0.3c0,0,0,0,0-0.1H42c0,0,0,0,0-0.1c0,0,0,0-0.1,0c-0.1,0-0.2,0-0.2,0c0,0,0,0-0.1,0c0.2-0.1,0.8-0.1,0.8-0.1
		c0,0-0.2,0-0.2-0.1v0c0,0-0.1,0-0.1,0c0,0-0.1,0-0.1,0c0,0,0.1-0.1,0.6-0.2c-0.1,0-0.2,0-0.2,0c-0.2,0-0.5,0.1-0.7,0.1
		c0,0,0.5-0.2,0.5-0.2h-0.1c-0.2,0-0.4,0.1-0.7,0.1c-0.1,0-0.2,0-0.2,0l-0.7,0.1c0,0-0.1,0-0.1,0c0,0-0.1-0.1-0.2-0.1
		c-0.2,0.1-0.4,0.2-0.6,0.2c-1.8,0.2-3.4,1.2-5,1.2c-0.1,0-0.2,0-0.3,0c-0.1,0.1-0.1,0.1-0.1,0.1c0,0.1,0.1,0.1,0.2,0.2
		c0.4,0,0.8-0.2,1.3-0.2l-1.4,0.4l0.8-0.1c-0.1,0.2-0.3,0.2-0.5,0.2c-0.1,0-0.1,0-0.2,0h0c0,0,0,0,0.1,0.1c-0.1,0.1-0.1,0.1-0.3,0.3
		h0.2c0,0,0.1,0,0.1,0v0.1c0,0.1,0.1,0.1,0.2,0.1c-0.1,0.1-0.3,0.1-0.4,0.1c0,0.1,0.1,0.1,0.2,0.1h0.1c-0.1,0-0.1,0-0.1,0.1
		c0,0,0,0.1,0,0.1s-0.1,0-0.1,0c0,0.1,0.1,0.2,0.1,0.3c0,0.1,0,0.2-0.1,0.3h0c0,0,0,0,0,0.1c0.2,0,0.3-0.2,0.5-0.2c0,0,0.1,0,0.1,0
		c-0.1,0.1-0.2,0.2-0.2,0.2c0,0.1,0,0.1,0.1,0.2c0.3-0.2,2.4-0.7,2.7-1v0c0,0,0-0.1,0-0.1l0.2-0.2c0,0-1.5,0.5-2.2,0.6
		c0.8-0.5,2-0.7,2.8-0.8v0l0.1-0.1l-1.1,3.2c-0.5,0.2-1.5,0.9-2.8,0.9c-1.2,0-2.3-0.5-2.3-2c0-1.4,0.8-2.6,1.4-3.8
		c0.2-0.6,3.4-3.9,4.2-3.9c0.9,0,0.9,1.3,1.3,1.6c0.1,0.3,0.1,0.6,0.2,0.6c0.1,0,0.1,0,0.1-0.1l0,0c0-0.1-0.1-0.2-0.1-0.3
		c0-0.1,0-0.1,0-0.2l-0.1-0.2c0.2,0,0.5,0.5,0.5,0.7L40.4,8c0,0,0,0,0.1,0V8c0.2,0.1,0.2,0.3,0.5,0.3c0,0,0.1,0,0.1-0.1
		c0-0.1-0.3-0.3-0.3-0.4c0.3,0.2,0.7,0.5,0.8,0.5c0,0,0,0,0,0c0-0.1-0.2-0.2-0.2-0.2c0,0,0-0.1,0-0.1c0-0.1-0.4-0.4-0.5-0.7V7.2
		l0.5,0.6c-0.1-0.2-0.2-0.3-0.2-0.5c0-0.1,0-0.1,0-0.1c0,0,0.1,0.1,0.1,0.1c0.1,0,0.1,0,0.2-0.1c-0.1-0.2-0.2-0.3-0.2-0.5
		c-0.2-0.1-0.3-0.2-0.4-0.4c0.2,0.1,0.3,0.3,0.5,0.4l-0.8-1c0-0.1,0-0.1-0.7-0.7c-0.3-0.2-0.7-0.2-1.1-0.3l-0.1-0.1
		c0.1-0.1,0.1-0.1,0.2-0.1c-0.1-0.2-0.3-0.1-0.5-0.1c-1.7,0-3,1.2-4.3,2.2c-0.1,0.2-0.3,0.3-0.4,0.4c-1.8,2.1-3.6,4.7-3.6,7.4
		c0,0.3,0,0.7,0.1,1l0-0.1l0.1,0.3c0.2,0.3,0.2,0.4,0.3,0.4c0-0.1-0.3-0.9-0.3-1.3c0-0.3-0.1-0.6-0.1-1c0-0.2,0-0.4,0-0.5
		c0.1,0.7,0.1,1.3,0.3,2c0.4,1,0.6,1.2,1.3,1.7c0.8,0.4,1.6,0.8,2.6,0.8c0.4,0,0.8-0.1,2.1-0.5c0.1-0.1,0.2-0.2,0.2-0.3l0,0.1
		c-0.1,0.1,0,0.3-0.2,0.5c0,0,0,0,0-0.1c-0.1,0.2-0.3,0.4-0.3,0.6c0,0.1,0,0.1,0.2,0.2l0.1,0.6c0,0,0,0,0,0c0,0,0,0,0.1,0
		c0,0,0,0.1,0,0.2C36.8,19,36.7,19,36.7,19c0,0,0,0.1,0.1,0.1c0.1,0,0.2-0.1,0.2-0.2l0.2,0.1c0.1,0.1,0.3,0,0.3,0.2c0,0,0,0.1,0,0.1
		c0,0.1,0.1,0.2,0.5,0.2c0,0,0.1,0,0.1,0l0.1,0.2l0.3-0.9c0,0-0.1,0.5-0.1,0.7c0,0.1,0.1,0.1,0.1,0.1l0.2-0.9l0.4-1.9
		C39.2,16.6,39.6,15.7,39.7,15z M38.4,4.4c0.1,0,0.1,0,0.2,0L38.4,4.4C38.4,4.4,38.3,4.4,38.4,4.4C38.3,4.4,38.4,4.4,38.4,4.4z
		 M38,4.4c0.1,0,0.2,0.1,0.3,0.1c0,0,0,0-0.1,0C38.2,4.5,38.1,4.5,38,4.4c-0.5,0.1-3,1.5-3.1,1.9c0,0,0,0,0,0
		C34.9,6.2,36.6,4.4,38,4.4z M34.7,6.3l-0.4,0.3c0,0-0.1,0-0.1-0.1C34.3,6.5,34.6,6.4,34.7,6.3z M33.7,7.4l1-0.8
		c-0.5,0.5-1.1,1.1-1.5,1.7C32.7,8.8,32.5,9,32.4,9C32.4,8.9,33.2,7.8,33.7,7.4z M30.7,13.8C30.7,13.8,30.8,13.8,30.7,13.8l0.2,0.5
		C30.7,14.2,30.7,14,30.7,13.8z M31,13.9c-0.1-0.1-0.1-0.2-0.1-0.2l0,0l0.1-0.1V13.9z M31,13.5L31,13.5C31,13.4,31,13.4,31,13.5
		C31,13.5,31,13.5,31,13.5C31,13.5,31,13.5,31,13.5z M31.4,10.9c0,0-0.2,0.6-0.8,1.8l0.6-1.7l0.3-0.3l-0.2,0.4
		C31.3,11.1,31.4,10.9,31.4,10.9z M31.5,10.7L31.5,10.7c0-0.1,0.2-0.4,0.2-0.5C31.7,10.4,31.5,10.7,31.5,10.7z M32.1,13.6l0-0.6
		c0,0,0-0.1,0.1-0.1c0,0,0,0.1,0,0.1c0,0.1,0,0.2,0,0.2c0,0.1,0,0.1,0,0.2l0,0.4L32.1,13.6z M32.3,14.1c0,0,0-0.1,0-0.2
		c0-0.1,0-0.1,0-0.2c0,0,0,0.1,0,0.1V14.1z M35.3,17.4c0.1,0,0.2-0.1,0.2-0.1C35.5,17.4,35.5,17.4,35.3,17.4z M36.3,17L36.3,17
		c-0.1,0-0.1,0-0.2,0H36l0.7-0.5C36.7,16.8,36.4,17,36.3,17z M36.7,16.6l-0.1,0.1c0.1-0.1,0.2-0.1,0.2-0.2l0,0
		C36.8,16.5,36.7,16.5,36.7,16.6z M36.8,16.3c-0.2,0.2-1,1-1.8,1c0,0-0.1,0-0.1,0l0.9-0.3C36.1,16.7,36.5,16.5,36.8,16.3L36.8,16.3z
		"/>
	<path fill="none" stroke="#C02327" stroke-width="0" stroke-linecap="round" stroke-linejoin="round" d="M40.3,22.2
		C40.3,22.2,40.3,22.2,40.3,22.2"/>
	<path fill="none" stroke="#C02327" stroke-width="0" stroke-linecap="round" stroke-linejoin="round" d="M40.3,22.2
		C40.3,22.1,40.3,22.1,40.3,22.2"/>
	<path fill="none" stroke="#C02327" stroke-width="0" stroke-linecap="round" stroke-linejoin="round" d="M40.6,22.1
		C40.6,22.1,40.6,22.1,40.6,22.1"/>
	<path fill="none" stroke="#C02327" stroke-width="0" stroke-linecap="round" stroke-linejoin="round" d="M40.5,22.1
		C40.5,22.1,40.5,22.1,40.5,22.1"/>
	<path fill="none" stroke="#C02327" stroke-width="0" stroke-linecap="round" stroke-linejoin="round" d="M40.6,19
		C40.6,19,40.6,19,40.6,19"/>
	<path fill="none" stroke="#C02327" stroke-width="0" stroke-linecap="round" stroke-linejoin="round" d="M39,22.2
		C39,22.2,39,22.2,39,22.2"/>
	<path fill="none" stroke="#C02327" stroke-width="0" stroke-linecap="round" stroke-linejoin="round" d="M39,22.2
		C39,22.2,39,22.2,39,22.2"/>
	<path fill="none" stroke="#C02327" stroke-width="0" stroke-linecap="round" stroke-linejoin="round" d="M41.3,18.7
		C41.3,18.7,41.3,18.7,41.3,18.7"/>
	<path fill="none" stroke="#C02327" stroke-width="0" stroke-linecap="round" stroke-linejoin="round" d="M39.1,21.7
		C39.1,21.7,39.1,21.7,39.1,21.7"/>
	<path fill="none" stroke="#C02327" stroke-width="0" stroke-linecap="round" stroke-linejoin="round" d="M41,18.9
		C41,18.9,41,18.9,41,18.9"/>
	<path fill="#C02327" d="M40.3,21.8C40.3,21.8,40.2,21.8,40.3,21.8C40.2,21.8,40.2,21.8,40.3,21.8C40.3,21.8,40.3,21.8,40.3,21.8z"
		/>
	<path fill="#C02327" d="M40,21c0,0.2-0.1,0.3-0.1,0.4C39.9,21.3,40,21.2,40,21z"/>
	<path fill="#C02327" d="M39.9,18.6C39.9,18.6,39.9,18.6,39.9,18.6C39.9,18.6,39.9,18.6,39.9,18.6z"/>
	<path fill="#C02327" d="M41.3,18.8C41.3,18.8,41.3,18.8,41.3,18.8C41.3,18.8,41.3,18.8,41.3,18.8L41.3,18.8z"/>
	<path fill="#C02327" d="M39.5,21.5C39.5,21.5,39.5,21.5,39.5,21.5C39.5,21.5,39.5,21.5,39.5,21.5C39.5,21.5,39.5,21.5,39.5,21.5
		L39.5,21.5z"/>
	<path fill="#C02327" d="M40.2,22.2C40.2,22.2,40.2,22.2,40.2,22.2C40.3,22.2,40.3,22.2,40.2,22.2C40.3,22.2,40.2,22.2,40.2,22.2z"
		/>
	<path fill="#C02327" d="M40.4,22.2C40.4,22.2,40.4,22.2,40.4,22.2C40.4,22.2,40.4,22.2,40.4,22.2L40.4,22.2z"/>
	<path fill="#C02327" d="M40.2,22.2C40.2,22.2,40.2,22.2,40.2,22.2C40.2,22.2,40.2,22.2,40.2,22.2L40.2,22.2z"/>
	<path fill="#C02327" d="M40.4,22.2c0,0-0.1,0-0.1,0C40.3,22.2,40.4,22.2,40.4,22.2z"/>
	<path fill="#C02327" d="M39.8,21.8C39.8,21.8,39.8,21.8,39.8,21.8L39.8,21.8L39.8,21.8z"/>
	<path fill="#C02327" d="M40.6,22.1L40.6,22.1C40.6,22,40.6,22,40.6,22.1C40.5,22.1,40.5,22.1,40.6,22.1
		C40.5,22.1,40.6,22.1,40.6,22.1C40.6,22.1,40.6,22.1,40.6,22.1C40.6,22.1,40.6,22.1,40.6,22.1z"/>
	<path fill="#C02327" d="M39.5,21.3C39.5,21.3,39.5,21.4,39.5,21.3L39.5,21.3L39.5,21.3z"/>
	<path fill="none" stroke="#C02327" stroke-width="0" stroke-linecap="round" stroke-linejoin="round" d="M42.4,21.8
		C42.4,21.8,42.4,21.8,42.4,21.8"/>
	<path fill="none" stroke="#C02327" stroke-width="0" stroke-linecap="round" stroke-linejoin="round" d="M42.6,18.9
		C42.6,19,42.6,19,42.6,18.9"/>
	<path fill="none" stroke="#C02327" stroke-width="0" stroke-linecap="round" stroke-linejoin="round" d="M41.1,21.6
		C41.1,21.6,41.1,21.6,41.1,21.6"/>
	<path fill="none" stroke="#C02327" stroke-width="0" stroke-linecap="round" stroke-linejoin="round" d="M42.9,18.9
		C42.9,18.9,42.9,18.9,42.9,18.9"/>
	<path fill="none" stroke="#C02327" stroke-width="0" stroke-linecap="round" stroke-linejoin="round" d="M42.3,22.1
		C42.3,22.1,42.3,22.1,42.3,22.1"/>
	<path fill="none" stroke="#C02327" stroke-width="0" stroke-linecap="round" stroke-linejoin="round" d="M41,22.1
		C41,22.2,41,22.1,41,22.1"/>
	<path fill="none" stroke="#C02327" stroke-width="0" stroke-linecap="round" stroke-linejoin="round" d="M40.9,22.1
		C40.9,22.1,40.9,22.1,40.9,22.1"/>
	<path fill="none" stroke="#C02327" stroke-width="0" stroke-linecap="round" stroke-linejoin="round" d="M43.2,18.6
		C43.2,18.6,43.2,18.6,43.2,18.6"/>
	<path fill="none" stroke="#C02327" stroke-width="0" stroke-linecap="round" stroke-linejoin="round" d="M42.2,22.1
		C42.2,22.1,42.2,22.1,42.2,22.1"/>
	<path fill="none" stroke="#C02327" stroke-width="0" stroke-linecap="round" stroke-linejoin="round" d="M42.5,22
		C42.4,22,42.4,22,42.5,22"/>
	<path fill="#C02327" d="M41.4,21.4C41.4,21.4,41.4,21.4,41.4,21.4C41.4,21.4,41.4,21.4,41.4,21.4C41.4,21.4,41.4,21.4,41.4,21.4
		L41.4,21.4z"/>
	<path fill="#C02327" d="M41.8,21.4c0-0.2,0.1-0.3,0.1-0.5C41.9,21.1,41.9,21.2,41.8,21.4C41.8,21.4,41.8,21.4,41.8,21.4z"/>
	<path fill="#C02327" d="M41.5,21.3C41.5,21.3,41.5,21.3,41.5,21.3L41.5,21.3L41.5,21.3z"/>
	<path fill="#C02327" d="M41.5,21.4C41.5,21.4,41.5,21.4,41.5,21.4C41.5,21.4,41.5,21.4,41.5,21.4C41.5,21.4,41.5,21.4,41.5,21.4z"
		/>
	<polygon fill="#C02327" points="41.7,21.8 41.7,21.8 41.7,21.8 	"/>
	<path fill="#C02327" d="M41.8,18.5C41.8,18.5,41.8,18.5,41.8,18.5C41.8,18.5,41.8,18.5,41.8,18.5z"/>
	<path fill="#C02327" d="M43.2,18.8C43.2,18.8,43.2,18.7,43.2,18.8C43.2,18.7,43.2,18.8,43.2,18.8L43.2,18.8z"/>
	<path fill="#C02327" d="M43.3,18.8C43.3,18.8,43.3,18.7,43.3,18.8C43.3,18.7,43.3,18.7,43.3,18.8C43.3,18.8,43.3,18.8,43.3,18.8z"
		/>
	<path fill="#C02327" d="M43.3,18.8c-0.1,0-0.1,0-0.2,0c0,0,0,0,0,0l0,0c0,0,0,0,0,0s0,0,0,0v0C43.2,18.7,43.2,18.7,43.3,18.8
		C43.2,18.7,43.2,18.7,43.3,18.8c0-0.1,0-0.1,0-0.1c-0.1,0-0.3,0-0.4-0.1c0,0,0,0,0,0c0.1,0,0.1,0,0.2,0c0,0,0.1,0,0.1,0
		c0,0,0,0-0.1,0c0,0,0,0,0,0c0,0,0,0,0.1,0c0,0,0,0,0,0h0c0,0,0,0,0,0v0c0,0,0,0,0,0h-0.1c0,0,0,0,0.1,0c0,0,0,0,0,0c0,0,0,0,0,0
		c-0.1,0-0.3,0-0.3,0c0,0,0,0,0,0c0,0-0.1,0-0.3,0c-0.2,0-0.3,0-0.5,0c0,0,0,0,0,0h0c0,0,0,0,0,0c0,0,0,0,0,0c-0.1,0-0.3,0-0.4,0
		c0,0,0,0,0,0c0,0-0.1,0-0.1,0c0,0,0,0,0,0c0,0,0,0,0,0h0c0,0,0,0,0.1,0l0,0h0h0c0,0,0,0,0,0c0,0,0.1,0,0.1,0h0.1v0c0,0,0,0,0.1,0
		c0,0,0,0,0,0h0c0.1,0,0.2,0,0.3,0c0,0,0,0,0,0c0,0,0,0-0.1,0v0c0,0,0,0,0,0c0,0,0,0,0,0c0,0,0,0-0.1,0H42c0,0,0,0,0,0c0,0,0,0,0,0
		s0,0,0,0c0,0,0,0,0,0c0,0,0,0,0,0c0,0-0.1,0-0.1,0c0,0,0,0,0,0c-0.2,0-0.3,0.1-0.3,0.2c0,0,0,0,0,0c0,0,0,0,0,0h0c0,0,0,0,0,0
		c0,0,0,0,0,0c0,0,0,0,0,0v0c0,0,0,0,0,0v0c0,0,0,0,0,0h0v0h0c0,0,0,0,0,0c-0.1,0-0.3,0-0.4-0.1c0,0,0,0,0,0c0.1,0,0.1,0,0.2,0
		c0,0,0.1,0,0.1,0c0,0,0,0-0.1,0c0,0,0,0,0,0c0,0,0,0,0.1,0c0,0,0,0,0,0h0c0,0,0,0,0,0v0c0,0,0,0,0,0h-0.1c0,0,0,0,0.1,0
		c0,0,0,0,0,0c0,0,0,0,0,0c-0.1,0-0.3,0-0.3,0c0,0,0,0,0,0c0,0-0.1,0-0.3,0c-0.2,0-0.3,0-0.5,0c0,0,0,0,0,0h0c0,0,0,0,0,0
		c0,0,0,0,0,0c-0.1,0-0.3,0-0.4,0c0,0,0,0,0,0h0c0,0,0,0,0,0c0,0,0.1,0,0.1,0h0.1v0c0,0,0,0,0.1,0c0,0,0,0,0,0h0c0.1,0,0.2,0,0.3,0
		c0,0,0,0,0,0c0,0,0,0-0.1,0v0c0,0,0,0,0,0c0,0,0,0,0,0c0,0,0,0-0.1,0h-0.1c0,0,0,0,0,0c0,0,0,0,0,0c0,0,0,0,0,0c0,0,0,0,0,0
		c0,0,0,0,0,0c0,0-0.1,0-0.1,0c0,0,0,0,0,0c-0.2,0-0.3,0.1-0.3,0.2c0,0,0,0,0,0c0,0,0,0,0,0h0c0,0,0,0,0,0c0,0,0,0,0,0c0,0,0,0,0,0
		v0c0,0,0,0,0,0v0c0,0,0,0,0,0h0v0h0c0,0,0,0,0,0c0,0,0,0,0,0c0,0,0,0,0,0c0,0,0,0,0.1,0c0,0,0,0,0,0c0,0,0,0,0,0c0,0,0,0-0.1,0.1
		c0,0,0,0,0,0c0,0,0,0,0,0c0,0,0,0,0,0v0c0,0,0,0,0,0c0,0,0,0,0,0c0,0,0,0,0,0c0,0,0,0,0,0c0,0,0,0,0,0c0,0,0,0,0,0
		c0.1,0,0.4,0,0.4,0c0,0.1-0.1,0.2-0.1,0.3c0,0,0,0,0,0c-0.1,0.1-0.1,0.5-0.2,0.7c0,0,0,0,0,0v0c-0.1,0.3-0.1,0.6-0.2,0.9
		c0,0-0.1,0.2-0.1,0.5c0,0,0,0,0,0c0,0,0,0,0,0c0,0,0,0,0,0c0,0,0,0,0,0v0c0,0,0,0.1,0,0.1v0h0c0,0,0,0,0,0h-0.1c0,0,0,0,0.1,0v0
		l0,0c0,0,0,0,0,0c0,0,0,0,0,0c0,0,0,0,0,0c0,0,0,0,0.1,0h0c0,0,0,0,0,0h-0.1l0,0c0,0,0,0,0,0c0,0,0,0,0,0h0c0,0-0.1,0-0.1,0
		c0,0,0,0-0.1,0c0,0,0.1,0,0.1,0v0c0,0,0.1,0,0.1,0H39c-0.1,0-0.1,0-0.1,0.1c0,0,0,0,0,0c0,0,0,0,0,0c0,0,0,0,0,0c0,0,0,0,0,0
		c0,0,0,0,0,0l0,0h0c0.1,0,0.2,0,0.3,0v0c-0.1,0-0.1,0-0.2,0c0,0,0,0,0,0v0c0,0,0,0,0,0c0,0,0,0,0,0s0,0,0,0l0,0c0,0,0,0.1-0.1,0.1
		l0,0c0,0,0,0,0,0c0,0,0,0,0,0h0c0,0,0,0,0,0c0,0,0,0,0,0v0c0,0,0,0,0,0c0,0,0,0,0,0c0,0.1,0.1,0.1,0.2,0.2c0.1,0,0.1,0,0.2,0.1v0
		c0.1,0,0.2,0,0.3,0c0,0,0,0,0,0c0,0,0,0,0.1,0c0,0,0,0,0,0c0.1,0,0.1,0,0.2,0c0.1,0,0.2,0,0.2,0c0,0,0,0,0,0H40c0,0,0,0,0,0
		c0,0,0,0,0,0h0c0,0,0,0,0,0l0,0H40v0c0,0,0,0,0,0c0,0,0.1,0,0.1,0v0c0,0,0,0,0,0c0,0,0,0,0,0c0,0,0,0,0,0c0,0,0,0,0,0c0,0,0,0,0,0
		c0,0,0,0,0,0h0c0,0,0.1,0,0.1,0c0,0,0.1,0,0.1,0c0,0,0,0-0.1,0c0,0,0,0,0,0h0c0,0,0.1,0,0.1,0c0,0-0.1,0-0.1,0c0,0,0,0,0,0
		c0,0,0.1,0,0.1,0l0,0c0,0,0,0,0,0c0,0,0,0,0,0c0.1,0,0.1,0,0.2-0.1c0,0,0,0-0.1,0c0,0,0.1,0,0.1,0h-0.1c0,0,0,0,0,0L40.4,22v0
		c0,0-0.1,0-0.1,0c0,0,0,0,0,0c0,0,0,0,0,0c0,0,0,0,0,0c0,0,0.1,0,0.1,0c0,0,0,0,0,0c0,0,0,0,0,0l0,0c-0.1,0-0.1,0-0.2,0
		c0,0,0,0-0.1,0c0.2,0,0.3,0,0.5-0.1c-0.2,0-0.4,0.1-0.6,0.1c0,0-0.1,0-0.1,0c0,0-0.1,0-0.1,0v0c0.3,0,0.5,0,0.8-0.1
		c-0.1,0-0.3,0-0.4,0c-0.1,0-0.1,0-0.2,0l-0.2,0c0,0,0,0,0,0v0c0,0,0,0,0,0h0c0,0,0,0,0,0v0c0,0,0,0,0,0v0c0,0,0,0,0,0h0v0
		c0,0,0,0,0,0c0,0,0,0,0,0c0,0,0,0,0.1,0h0c0,0,0,0,0,0c0,0,0,0,0,0c0,0,0,0,0,0c0,0,0,0,0,0c0,0,0,0,0,0h0v0c0,0,0.1,0,0.1,0
		c0,0,0,0,0.1,0c0,0-0.1,0-0.1,0c0,0,0.1,0,0.1,0c0,0,0.1,0,0.1,0c0,0,0,0-0.1,0c0,0,0,0-0.1,0c-0.1,0-0.3,0-0.4,0c0,0,0,0,0,0
		c0,0,0,0,0,0c0-0.1,0-0.1,0-0.2c0,0,0,0,0,0c0,0,0,0,0-0.1c0,0,0,0,0,0c0,0,0,0,0,0c0,0,0,0,0,0c0.1-0.2,0.1-0.4,0.2-0.7
		c0,0.1,0,0.2-0.1,0.3c0-0.2,0.1-0.4,0.1-0.5c0.1-0.1,0.1-0.7,0.3-1.2l0,0c0-0.1,0.1-0.2,0.1-0.2h0c0,0.2-0.1,0.4-0.1,0.7
		c0,0,0,0,0,0c0,0,0,0,0,0c0-0.3,0.1-0.5,0.2-0.7h0.1c0,0,0,0,0.1,0c0.1,0,0.2,0,0.3,0c0.1,0,0.1,0,0.2,0c0,0,0,0,0.1,0
		c0,0-0.1,0-0.1,0h0c-0.1,0-0.2,0-0.3,0c0,0,0,0,0,0c-0.1,0-0.1,0-0.2,0h0c0,0,0,0,0,0h0c0.1,0,0.2,0,0.2,0c0.1,0,0.2,0,0.4,0
		c-0.1,0-0.1,0-0.2,0c0,0,0,0,0,0l0,0c0,0,0,0,0,0c0,0,0,0,0,0v0c0,0,0,0,0,0c0,0,0,0,0,0c0,0,0,0,0,0c0,0,0,0,0,0c0,0,0,0,0,0
		c0,0,0,0,0,0c0,0,0,0,0.1,0c0,0,0,0,0,0s0,0,0,0c0,0,0,0-0.1,0.1c0,0,0,0,0,0c0,0,0,0,0,0v0c0,0,0,0,0,0c0,0,0,0,0,0c0,0,0,0,0,0
		c0,0,0,0,0,0c0,0,0,0,0,0c0,0,0,0,0,0c0.1,0,0.4,0,0.4,0c0,0.1-0.1,0.2-0.1,0.3c0,0,0,0,0,0c-0.1,0.1-0.1,0.5-0.2,0.7c0,0,0,0,0,0
		v0c-0.1,0.3-0.1,0.6-0.2,0.9c0,0-0.1,0.2-0.1,0.5c0,0,0,0,0,0c0,0,0,0,0,0c0,0,0,0,0,0c0,0,0,0,0,0v0c0,0,0,0.1,0,0.1v0h0
		c0,0,0,0,0,0h-0.1c0,0,0,0,0.1,0v0l-0.1,0c0,0,0,0,0,0c0,0,0,0,0,0c0,0,0,0,0,0c0,0,0,0,0.1,0h0c0,0,0,0,0,0h-0.1l0,0c0,0,0,0,0,0
		c0,0,0,0,0,0h0c0,0-0.1,0-0.1,0c0,0,0,0-0.1,0c0,0,0,0,0,0v0c0,0,0.1,0,0.1,0h-0.1c-0.1,0-0.1,0-0.1,0.1c0,0,0,0,0,0c0,0,0,0,0,0
		c0,0,0,0,0,0c0,0,0,0,0,0l0,0h0c0.1,0,0.2,0,0.3,0v0c-0.1,0-0.1,0-0.2,0c0,0,0,0,0,0v0c0,0,0,0,0,0c0,0,0,0,0,0s0,0,0,0l0,0
		c0,0,0,0.1-0.1,0.1l0,0c0,0,0,0,0,0c0,0,0,0,0,0l0,0c0,0,0,0,0,0c0,0,0,0,0,0v0c0,0,0,0,0,0c0,0,0,0,0,0c0,0.1,0.1,0.2,0.4,0.2v0
		c0.1,0,0.2,0,0.3,0c0,0,0,0,0,0c0,0,0,0,0.1,0c0,0,0,0,0,0c0,0,0,0,0,0c0,0,0.1,0,0.1,0v0h0c0.1,0,0.2,0,0.2,0c0,0,0,0,0,0H42
		c0,0,0,0,0,0c0,0,0,0,0,0h0c0,0,0,0,0,0l0,0h-0.1v0c0,0,0,0,0,0c0.1,0,0.3,0,0.4,0h0c0,0,0.1,0,0.1,0c0,0-0.1,0-0.1,0c0,0,0,0,0,0
		c0.1,0,0.2,0,0.3-0.1c0,0,0,0-0.1,0c0,0,0.1,0,0.1,0h-0.1c0,0,0,0,0,0l-0.2,0.1v0c0,0-0.1,0-0.1,0c0,0,0,0,0,0c0,0,0,0,0,0
		c0,0,0,0,0,0c0,0,0.1,0,0.1,0c0,0,0,0,0,0s0,0,0,0l0,0c-0.1,0-0.1,0-0.2,0c0,0,0,0-0.1,0c0.1,0,0.2,0,0.4-0.1c0,0,0.1,0,0.1,0
		c-0.2,0-0.4,0.1-0.6,0.1c0,0-0.1,0-0.1,0c0,0-0.1,0-0.1,0v0c0.3,0,0.5,0,0.8-0.1c-0.1,0-0.3,0-0.4,0c-0.1,0-0.1,0-0.2,0l-0.2,0
		c0,0,0,0,0,0h0c0,0,0,0,0,0v0c0,0,0,0,0,0v0c0,0,0,0,0,0v0h0.1v0c0,0,0,0,0,0c0,0,0,0,0,0c0,0,0,0,0.1,0c0,0,0,0,0,0h0c0,0,0,0,0,0
		c0,0,0,0,0,0c0,0,0,0,0,0c0,0,0,0,0,0h0h0v0c0,0,0.1,0,0.1,0c0,0,0,0,0.1,0c0,0-0.1,0-0.1,0c0,0,0.1,0,0.1,0c0,0,0.1,0,0.1,0
		c0,0,0,0-0.1,0c0,0,0,0,0,0c0,0,0,0,0,0c-0.1,0-0.3,0-0.4,0c0,0,0,0,0,0c0,0,0,0,0,0c0-0.1,0-0.1,0-0.2c0,0,0,0,0-0.1c0,0,0,0,0,0
		c0,0,0,0,0,0c0,0,0,0,0,0c0,0,0,0,0,0c0.1-0.2,0.1-0.4,0.2-0.7c0,0.1,0,0.2,0,0.3c0-0.2,0.1-0.4,0.1-0.5c0.1-0.1,0.1-0.7,0.3-1.2
		l0,0c0-0.1,0.1-0.2,0.1-0.2h0c0,0.2-0.1,0.4-0.1,0.7c0,0,0,0,0,0c0,0,0,0,0,0c0-0.3,0.1-0.5,0.2-0.7h0.1c0,0,0,0,0.1,0
		c0.1,0,0.2,0,0.3,0c0.1,0,0.1,0,0.2,0C43.2,18.9,43.2,18.9,43.3,18.8c-0.1,0-0.1,0.1-0.1,0L43.3,18.8c-0.2,0-0.3,0-0.4,0
		c0,0,0,0,0,0c-0.1,0-0.1,0-0.2,0h0c0,0,0,0,0,0h0c0.1,0,0.2,0,0.2,0C43,18.8,43.1,18.8,43.3,18.8z M39.6,18.6
		C39.6,18.6,39.7,18.6,39.6,18.6L39.6,18.6C39.7,18.6,39.7,18.6,39.6,18.6L39.6,18.6L39.6,18.6C39.7,18.6,39.7,18.7,39.6,18.6
		C39.6,18.7,39.6,18.7,39.6,18.6z M39.7,20.5C39.7,20.5,39.7,20.5,39.7,20.5C39.7,20.6,39.7,20.6,39.7,20.5
		C39.6,20.6,39.6,20.6,39.7,20.5c-0.1,0.2-0.1,0.3-0.1,0.5c0,0,0,0,0,0C39.6,20.9,39.6,20.6,39.7,20.5z M39.4,21.9
		C39.4,21.9,39.4,21.9,39.4,21.9L39.4,21.9L39.4,21.9z M39.5,21.8c0,0-0.1,0-0.1,0L39.5,21.8C39.5,21.8,39.5,21.9,39.5,21.8
		l-0.1,0.1c0,0,0,0,0,0v0C39.4,21.8,39.5,21.8,39.5,21.8L39.5,21.8z M39.5,21.7l-0.1,0v0L39.5,21.7L39.5,21.7z M39.6,21.5
		C39.6,21.5,39.6,21.5,39.6,21.5C39.6,21.5,39.6,21.5,39.6,21.5C39.6,21.5,39.6,21.5,39.6,21.5C39.6,21.5,39.6,21.5,39.6,21.5
		C39.6,21.5,39.6,21.5,39.6,21.5c0,0.1,0,0.2,0,0.2l-0.1,0c0,0,0,0,0,0s0,0,0,0l0,0c0-0.1,0-0.1,0-0.2c0,0,0,0,0,0c0,0,0,0,0,0
		C39.5,21.5,39.5,21.5,39.6,21.5c-0.1,0-0.1,0-0.1,0C39.5,21.4,39.5,21.4,39.6,21.5C39.5,21.4,39.5,21.4,39.6,21.5
		c-0.1-0.1-0.1-0.1-0.1-0.1v0c0,0,0,0,0,0c0,0,0-0.1,0-0.1c0,0,0,0,0,0c0,0,0,0,0,0c0,0,0,0,0,0C39.5,21.4,39.5,21.4,39.6,21.5
		C39.5,21.4,39.5,21.4,39.6,21.5C39.5,21.4,39.5,21.4,39.6,21.5L39.6,21.5C39.5,21.5,39.5,21.5,39.6,21.5
		C39.5,21.5,39.5,21.5,39.6,21.5c0-0.2,0-0.6,0.1-0.7C39.6,21,39.6,21.3,39.6,21.5z M40,22.2c0,0-0.1,0-0.1,0c0,0,0,0,0,0
		C39.9,22.2,39.9,22.2,40,22.2z M39.8,21.5C39.8,21.5,39.8,21.5,39.8,21.5C39.8,21.5,39.8,21.5,39.8,21.5
		C39.8,21.5,39.8,21.5,39.8,21.5z M39.8,21.7C39.8,21.7,39.8,21.7,39.8,21.7L39.8,21.7L39.8,21.7C39.8,21.7,39.8,21.7,39.8,21.7
		L39.8,21.7c0-0.1,0-0.1,0-0.2c0,0,0,0,0,0c0,0,0,0,0,0c0,0,0,0,0,0C39.9,21.6,39.8,21.6,39.8,21.7z M41.9,22.1c0,0-0.1,0-0.1,0
		c0,0,0,0,0,0C41.8,22.1,41.8,22.1,41.9,22.1z M41.6,20.4C41.6,20.4,41.6,20.5,41.6,20.4C41.6,20.5,41.6,20.5,41.6,20.4
		C41.6,20.5,41.6,20.5,41.6,20.4c-0.1,0.2-0.1,0.3-0.1,0.5c0,0,0,0,0,0C41.5,20.8,41.5,20.5,41.6,20.4z M41.3,21.8
		C41.3,21.8,41.3,21.8,41.3,21.8L41.3,21.8L41.3,21.8z M41.5,21.7c0,0-0.1,0-0.1,0L41.5,21.7C41.4,21.7,41.4,21.8,41.5,21.7
		l-0.1,0.1c0,0,0,0,0,0v0C41.4,21.7,41.4,21.7,41.5,21.7L41.5,21.7z M41.5,21.7l-0.1,0v0L41.5,21.7L41.5,21.7z M41.5,21.4
		C41.5,21.4,41.5,21.4,41.5,21.4c0,0.1,0,0.2,0,0.2l-0.1,0c0,0,0,0,0,0c0,0,0,0,0,0h0c0-0.1,0-0.1,0-0.2c0,0,0,0,0,0c0,0,0,0,0,0
		C41.4,21.4,41.4,21.4,41.5,21.4c-0.1,0-0.1,0-0.1,0C41.4,21.4,41.4,21.3,41.5,21.4C41.4,21.3,41.4,21.3,41.5,21.4
		c-0.1-0.1-0.1-0.1-0.1-0.1v0c0,0,0,0,0,0c0,0,0-0.1,0-0.1c0,0,0,0,0,0c0,0,0,0,0,0c0,0,0,0,0,0C41.5,21.3,41.5,21.3,41.5,21.4
		C41.5,21.3,41.5,21.3,41.5,21.4C41.5,21.3,41.5,21.3,41.5,21.4L41.5,21.4C41.5,21.4,41.4,21.4,41.5,21.4
		C41.4,21.4,41.5,21.4,41.5,21.4c0-0.2,0-0.6,0.1-0.7C41.6,20.9,41.5,21.2,41.5,21.4z M41.8,21.4C41.8,21.4,41.8,21.4,41.8,21.4
		C41.8,21.4,41.8,21.4,41.8,21.4C41.8,21.4,41.8,21.4,41.8,21.4z M41.8,21.6C41.8,21.6,41.8,21.6,41.8,21.6L41.8,21.6L41.8,21.6
		C41.8,21.6,41.8,21.6,41.8,21.6L41.8,21.6c0-0.1,0-0.1,0-0.2c0,0,0,0,0,0s0,0,0,0c0,0,0,0,0,0C41.8,21.5,41.8,21.6,41.8,21.6z"/>
	<path fill="#C02327" d="M41.7,21.7L41.7,21.7C41.7,21.7,41.7,21.8,41.7,21.7C41.7,21.8,41.7,21.7,41.7,21.7z"/>
	<path fill="#C02327" d="M42.1,22.1C42.1,22.1,42,22.1,42.1,22.1C42,22.1,42.1,22.1,42.1,22.1C42.1,22.1,42.1,22.1,42.1,22.1
		C42.1,22.1,42.1,22.1,42.1,22.1L42.1,22.1z"/>
	<path fill="#C02327" d="M42.3,22.1c0,0-0.1,0-0.1,0C42.3,22.1,42.3,22.1,42.3,22.1z"/>
	<path fill="#C02327" d="M42.1,22.1C42.1,22.1,42.1,22.1,42.1,22.1C42.1,22.1,42.1,22.1,42.1,22.1L42.1,22.1z"/>
	<path fill="#C02327" d="M42.2,22.1C42.2,22.1,42.2,22.1,42.2,22.1C42.2,22.1,42.2,22.1,42.2,22.1C42.2,22.1,42.2,22.1,42.2,22.1z"
		/>
	<path fill="#C02327" d="M42.3,22.1c-0.1,0-0.2,0-0.3,0c0,0,0,0,0,0v0c0,0,0,0,0,0c0,0,0,0,0,0C42.2,22.1,42.2,22.1,42.3,22.1z"/>
	<path fill="#C02327" d="M42.4,22C42.4,22,42.4,22,42.4,22L42.4,22C42.4,22,42.4,22,42.4,22z"/>
	<path fill="#C02327" d="M42.3,22.1C42.3,22.1,42.3,22.1,42.3,22.1C42.3,22.1,42.3,22.1,42.3,22.1L42.3,22.1z"/>
	<path fill="#C02327" d="M42.6,22C42.5,22,42.5,22,42.6,22C42.5,22,42.6,22,42.6,22z"/>
	<path fill="#C02327" d="M42.5,22L42.5,22C42.5,22,42.5,22,42.5,22c-0.1,0-0.1,0-0.1,0C42.5,22,42.5,22,42.5,22
		C42.5,22,42.5,22,42.5,22C42.5,22,42.5,22,42.5,22z"/>
	<path fill="#C02327" d="M41.8,21.7C41.8,21.7,41.7,21.7,41.8,21.7L41.8,21.7C41.7,21.7,41.7,21.7,41.8,21.7z"/>
</g>
<g>
</g>
<g>
</g>
<g>
</g>
<g>
</g>
<g>
</g>
<g>
</g>
<g>
</g>
</svg>
